<svg id="svg" version="1.1" xmlns="http://www.w3.org/2000/svg" xmlns:xlink="http://www.w3.org/1999/xlink" width="400" height="400" viewBox="0, 0, 400,400"><g id="svgg"><path id="path0" d="M189.800 31.414 C 189.580 31.497,187.780 31.752,185.800 31.981 C 180.189 32.629,173.953 33.797,170.800 34.792 C 170.250 34.965,168.990 35.334,168.000 35.611 C 164.233 36.666,160.721 37.887,156.800 39.506 C 147.888 43.184,135.390 50.434,129.802 55.167 C 128.871 55.955,127.320 57.222,126.355 57.982 C 121.616 61.715,109.925 74.294,107.710 78.045 C 107.335 78.680,106.886 79.200,106.714 79.200 C 106.541 79.200,106.400 79.448,106.400 79.751 C 106.400 80.054,106.126 80.529,105.792 80.806 C 102.574 83.478,93.215 103.188,90.411 113.200 C 90.134 114.190,89.770 115.450,89.603 116.000 C 89.436 116.550,89.088 117.990,88.830 119.200 C 88.572 120.410,88.203 122.120,88.011 123.000 C 87.605 124.856,87.010 128.694,86.336 133.800 C 85.708 138.551,85.725 154.072,86.362 158.400 C 86.638 160.270,86.950 162.403,87.057 163.141 C 87.164 163.878,87.348 164.385,87.467 164.267 C 87.585 164.148,87.470 162.465,87.210 160.526 C 86.511 155.306,86.053 146.717,86.425 145.800 C 86.701 145.119,86.753 145.175,86.775 146.176 C 86.860 150.142,90.520 164.472,93.268 171.600 C 94.799 175.573,98.518 183.490,100.313 186.600 C 113.876 210.094,133.552 227.176,158.600 237.202 C 180.099 245.807,207.565 247.153,230.600 240.731 C 234.723 239.581,239.576 237.998,241.400 237.209 C 241.840 237.018,243.010 236.541,244.000 236.148 C 270.502 225.626,292.597 203.584,305.494 174.800 C 308.478 168.139,313.200 150.784,313.200 146.476 C 313.200 144.196,313.982 145.948,314.103 148.500 C 314.216 150.864,314.253 150.624,314.308 147.200 C 314.424 139.995,313.090 126.959,311.628 121.000 C 311.412 120.120,311.122 118.860,310.982 118.200 C 303.848 84.425,274.490 50.841,241.600 38.830 C 240.830 38.549,239.840 38.165,239.400 37.976 C 233.718 35.541,223.311 33.086,213.200 31.794 C 209.067 31.266,190.971 30.972,189.800 31.414 M207.597 70.419 C 220.880 71.782,233.597 80.747,238.921 92.500 C 241.260 97.666,241.576 98.694,242.797 105.120 C 243.378 108.174,243.280 112.911,242.560 116.600 C 242.216 118.360,241.840 120.387,241.723 121.104 C 241.607 121.821,241.351 122.506,241.156 122.627 C 240.960 122.748,240.800 123.138,240.800 123.494 C 240.800 126.177,236.107 133.460,228.969 141.854 C 221.748 150.347,221.704 150.399,219.867 152.573 C 216.768 156.241,208.330 166.193,207.462 167.204 C 206.988 167.756,205.791 169.196,204.802 170.404 C 203.813 171.612,202.768 172.847,202.481 173.150 C 202.002 173.652,200.448 175.484,190.489 187.279 L 187.178 191.200 210.889 191.202 C 226.066 191.204,235.176 191.355,236.200 191.622 C 251.047 195.497,250.903 215.728,236.000 219.865 C 233.280 220.620,167.022 220.609,164.183 219.853 C 159.481 218.601,156.455 216.105,154.389 211.777 L 153.091 209.057 153.310 202.829 C 153.600 194.552,155.294 188.052,158.816 181.698 C 159.516 180.434,160.463 178.725,160.919 177.900 C 161.375 177.075,161.895 176.400,162.074 176.400 C 162.253 176.400,162.400 176.200,162.400 175.956 C 162.400 175.711,163.165 174.588,164.100 173.459 C 165.816 171.388,173.483 162.293,176.625 158.600 C 177.561 157.500,180.526 153.990,183.214 150.800 C 185.902 147.610,188.573 144.458,189.150 143.795 C 189.728 143.132,191.550 140.974,193.200 139.000 C 194.850 137.026,196.669 134.868,197.242 134.205 C 200.502 130.433,203.773 126.578,206.411 123.400 C 208.055 121.420,209.901 119.260,210.514 118.600 C 213.342 115.555,214.756 110.291,213.544 107.319 C 212.547 104.874,211.972 103.765,211.301 102.990 C 203.466 93.941,187.641 101.934,187.591 114.966 C 187.534 129.407,166.895 134.331,160.333 121.468 C 154.846 110.714,162.583 89.312,175.400 79.789 C 176.279 79.135,177.348 78.285,177.775 77.900 C 178.202 77.515,178.709 77.200,178.903 77.200 C 179.097 77.200,180.008 76.695,180.928 76.077 C 185.905 72.735,193.441 70.646,202.658 70.055 C 203.129 70.025,205.352 70.188,207.597 70.419 M313.504 154.600 C 313.342 155.480,313.227 157.010,313.248 158.000 L 313.288 159.800 313.651 158.000 C 313.851 157.010,313.966 155.480,313.907 154.600 L 313.800 153.000 313.504 154.600 M312.697 161.600 C 312.540 162.150,312.425 163.140,312.442 163.800 L 312.472 165.000 312.858 163.658 C 313.071 162.920,313.186 161.930,313.114 161.458 C 312.992 160.654,312.966 160.663,312.697 161.600 M87.668 166.400 C 87.687 168.050,88.317 169.756,88.332 168.200 C 88.338 167.540,88.189 166.640,88.000 166.200 C 87.687 165.473,87.657 165.491,87.668 166.400 M311.873 166.553 C 311.723 166.945,311.616 167.746,311.636 168.333 C 311.670 169.328,311.698 169.309,312.057 168.063 C 312.473 166.619,312.323 165.382,311.873 166.553 M88.434 170.200 C 88.472 171.566,89.138 172.842,89.166 171.600 C 89.178 171.050,89.013 170.330,88.800 170.000 C 88.480 169.505,88.416 169.540,88.434 170.200 M311.067 170.267 C 310.920 170.413,310.816 171.088,310.836 171.767 L 310.872 173.000 311.259 171.656 C 311.645 170.313,311.569 169.764,311.067 170.267 M89.256 173.400 C 89.256 173.840,89.411 174.560,89.600 175.000 L 89.944 175.800 89.944 175.000 C 89.944 174.560,89.789 173.840,89.600 173.400 L 89.256 172.600 89.256 173.400 M310.249 173.815 C 310.112 174.173,310.016 174.856,310.036 175.333 C 310.062 175.947,310.185 175.808,310.459 174.856 C 310.857 173.472,310.694 172.658,310.249 173.815 M90.034 176.400 C 90.046 176.730,90.211 177.360,90.400 177.800 L 90.744 178.600 90.766 177.800 C 90.778 177.360,90.613 176.730,90.400 176.400 C 90.055 175.867,90.015 175.867,90.034 176.400 M309.467 176.667 C 309.320 176.813,309.200 177.343,309.200 177.843 C 309.200 178.343,309.020 178.864,308.800 179.000 C 308.580 179.136,308.400 179.676,308.400 180.200 C 308.400 180.724,308.220 181.264,308.000 181.400 C 307.780 181.536,307.600 182.051,307.600 182.544 C 307.600 183.037,307.457 183.611,307.282 183.820 C 307.107 184.029,306.722 184.920,306.428 185.800 C 305.187 189.509,300.508 199.166,297.935 203.332 C 296.871 205.054,296.000 206.595,296.000 206.756 C 296.000 206.917,295.664 207.409,295.254 207.850 C 294.844 208.290,294.297 209.089,294.038 209.625 C 293.044 211.688,295.645 208.069,298.119 203.947 C 302.444 196.740,305.580 189.987,308.233 182.167 C 309.915 177.207,310.202 175.932,309.467 176.667 M90.806 179.276 C 90.818 180.281,91.587 181.108,91.594 180.124 C 91.597 179.642,91.420 179.136,91.200 179.000 C 90.980 178.864,90.803 178.988,90.806 179.276 M91.600 181.590 C 91.600 183.226,98.054 197.537,101.076 202.600 C 103.217 206.189,105.990 210.400,106.211 210.400 C 106.456 210.400,105.619 208.708,105.222 208.400 C 103.930 207.397,96.467 193.175,94.413 187.800 C 93.891 186.435,93.123 184.632,92.753 183.905 C 92.559 183.523,92.400 182.859,92.400 182.429 C 92.400 181.999,92.220 181.536,92.000 181.400 C 91.780 181.264,91.600 181.350,91.600 181.590 M107.576 212.500 C 114.467 221.904,122.250 229.762,131.630 236.785 C 137.145 240.914,139.200 242.246,139.200 241.690 C 139.200 241.495,138.705 241.080,138.100 240.768 C 137.495 240.456,136.910 240.099,136.800 239.974 C 136.690 239.849,135.700 239.143,134.600 238.404 C 133.500 237.665,132.133 236.687,131.563 236.230 C 130.992 235.774,129.823 234.860,128.966 234.200 C 126.922 232.627,120.874 227.313,119.600 225.971 C 115.377 221.522,111.224 216.786,110.016 215.043 C 109.695 214.579,109.207 213.968,108.930 213.685 C 108.654 213.402,108.113 212.637,107.728 211.985 C 107.343 211.333,106.871 210.800,106.679 210.800 C 106.488 210.800,106.891 211.565,107.576 212.500 M292.272 211.985 C 291.887 212.637,291.353 213.403,291.086 213.687 C 290.819 213.970,289.939 215.069,289.130 216.128 C 285.235 221.231,279.223 227.413,273.600 232.094 C 268.659 236.208,268.899 236.020,266.591 237.595 C 265.496 238.342,264.540 239.099,264.467 239.277 C 264.393 239.455,264.161 239.600,263.950 239.600 C 263.739 239.600,263.180 239.960,262.708 240.400 C 262.236 240.840,261.613 241.200,261.325 241.200 C 261.036 241.200,260.800 241.391,260.800 241.624 C 260.800 242.117,260.863 242.083,264.800 239.458 C 272.770 234.144,283.809 223.795,289.834 215.990 C 293.460 211.293,293.790 210.800,293.310 210.800 C 293.124 210.800,292.657 211.333,292.272 211.985 M140.200 242.643 C 141.576 243.705,143.200 244.446,143.200 244.010 C 143.200 243.785,142.975 243.596,142.700 243.591 C 142.425 243.586,141.750 243.230,141.200 242.800 C 140.650 242.370,140.020 242.020,139.800 242.022 C 139.580 242.024,139.760 242.303,140.200 242.643 M258.800 242.800 C 258.250 243.230,257.575 243.586,257.300 243.591 C 257.025 243.596,256.800 243.785,256.800 244.010 C 256.800 244.250,257.258 244.179,257.900 243.841 C 259.390 243.055,260.691 242.026,260.200 242.022 C 259.980 242.020,259.350 242.370,258.800 242.800 M143.800 244.707 C 144.416 245.332,153.460 249.785,157.000 251.205 C 161.349 252.949,170.715 255.953,173.600 256.528 C 174.150 256.638,176.451 257.104,178.714 257.564 C 182.983 258.431,184.739 258.606,184.246 258.113 C 184.088 257.955,182.933 257.693,181.679 257.531 C 180.426 257.369,178.410 257.039,177.200 256.798 C 175.990 256.557,174.324 256.259,173.497 256.137 C 172.671 256.015,171.895 255.755,171.774 255.558 C 171.652 255.361,171.034 255.200,170.400 255.200 C 169.766 255.200,169.136 255.020,169.000 254.800 C 168.864 254.580,168.311 254.400,167.771 254.400 C 167.231 254.400,166.477 254.229,166.095 254.019 C 165.713 253.809,164.230 253.257,162.800 252.793 C 161.370 252.328,159.840 251.797,159.400 251.614 C 158.960 251.431,157.970 251.053,157.200 250.775 C 156.430 250.496,153.190 248.994,150.000 247.437 C 143.358 244.195,143.249 244.146,143.800 244.707 M252.200 246.424 C 250.220 247.493,246.530 249.205,244.000 250.228 C 241.470 251.252,239.040 252.237,238.600 252.418 C 238.160 252.599,237.080 252.961,236.200 253.223 C 235.320 253.484,234.287 253.856,233.905 254.049 C 233.523 254.242,232.769 254.400,232.229 254.400 C 231.689 254.400,231.136 254.580,231.000 254.800 C 230.864 255.020,230.234 255.200,229.600 255.200 C 228.966 255.200,228.336 255.380,228.200 255.600 C 228.064 255.820,227.344 256.000,226.600 256.000 C 225.856 256.000,225.136 256.180,225.000 256.400 C 224.864 256.620,224.898 256.798,225.076 256.795 C 225.555 256.788,231.180 255.333,232.800 254.797 C 233.570 254.542,234.740 254.187,235.400 254.007 C 240.102 252.727,255.560 245.836,256.256 244.709 C 256.610 244.137,255.815 244.473,252.200 246.424 M220.800 257.200 C 220.470 257.413,219.390 257.593,218.400 257.600 C 217.410 257.607,216.330 257.787,216.000 258.000 C 215.054 258.611,216.877 258.477,221.000 257.632 C 223.791 257.060,224.240 256.885,223.000 256.853 C 222.120 256.831,221.130 256.987,220.800 257.200 M187.000 258.818 C 189.837 259.260,192.446 259.249,191.400 258.800 C 190.960 258.611,189.340 258.468,187.800 258.482 L 185.000 258.507 187.000 258.818 M208.600 258.800 C 207.554 259.249,210.163 259.260,213.000 258.818 L 215.000 258.507 212.200 258.482 C 210.660 258.468,209.040 258.611,208.600 258.800 M196.700 259.498 C 198.515 259.572,201.485 259.572,203.300 259.498 C 205.115 259.423,203.630 259.363,200.000 259.363 C 196.370 259.363,194.885 259.423,196.700 259.498 " stroke="none" fill="#9c9c9c" fill-rule="evenodd"></path><path id="path1" d="M110.400 260.957 C 110.400 261.310,110.190 261.600,109.933 261.600 C 109.677 261.600,109.580 261.713,109.717 261.851 C 109.855 261.989,109.707 262.728,109.387 263.493 C 109.067 264.259,108.897 265.033,109.009 265.215 C 109.121 265.396,109.030 265.658,108.807 265.796 C 108.583 265.934,108.400 266.476,108.400 267.000 C 108.400 267.524,108.220 268.064,108.000 268.200 C 107.780 268.336,107.600 268.799,107.600 269.229 C 107.600 269.984,107.456 270.374,106.462 272.295 C 106.208 272.787,106.000 273.552,106.000 273.995 C 106.000 274.438,105.820 274.800,105.600 274.800 C 105.380 274.800,105.200 275.239,105.200 275.776 C 105.200 276.313,105.020 276.864,104.800 277.000 C 104.580 277.136,104.400 277.676,104.400 278.200 C 104.400 278.724,104.220 279.264,104.000 279.400 C 103.780 279.536,103.600 280.076,103.600 280.600 C 103.600 281.124,103.420 281.664,103.200 281.800 C 102.980 281.936,102.800 282.487,102.800 283.024 C 102.800 283.561,102.620 284.000,102.400 284.000 C 102.180 284.000,102.000 284.439,102.000 284.976 C 102.000 285.513,101.820 286.064,101.600 286.200 C 101.380 286.336,101.200 286.987,101.200 287.647 C 101.200 288.345,101.033 288.744,100.800 288.600 C 100.573 288.460,100.400 288.796,100.400 289.376 C 100.400 289.939,100.220 290.400,100.000 290.400 C 99.780 290.400,99.600 290.929,99.600 291.576 C 99.600 292.223,99.420 292.864,99.200 293.000 C 98.980 293.136,98.800 293.676,98.800 294.200 C 98.800 294.724,98.620 295.264,98.400 295.400 C 98.180 295.536,98.000 295.997,98.000 296.424 C 98.000 296.851,97.820 297.200,97.600 297.200 C 97.380 297.200,97.200 297.729,97.200 298.376 C 97.200 299.023,97.020 299.664,96.800 299.800 C 96.580 299.936,96.400 300.487,96.400 301.024 C 96.400 301.561,96.220 302.000,96.000 302.000 C 95.780 302.000,95.600 302.439,95.600 302.976 C 95.600 303.513,95.420 304.064,95.200 304.200 C 94.980 304.336,94.800 304.889,94.800 305.429 C 94.800 305.969,94.641 306.723,94.447 307.105 C 93.805 308.367,92.729 311.110,92.606 311.800 C 92.322 313.382,91.842 314.851,91.548 315.032 C 91.357 315.150,91.200 315.777,91.200 316.424 C 91.200 317.071,91.020 317.600,90.800 317.600 C 90.580 317.600,90.400 318.140,90.400 318.800 C 90.400 319.460,90.220 320.000,90.000 320.000 C 89.780 320.000,89.600 320.349,89.600 320.776 C 89.600 321.203,89.420 321.664,89.200 321.800 C 88.980 321.936,88.800 322.487,88.800 323.024 C 88.800 323.561,88.620 324.000,88.400 324.000 C 88.180 324.000,88.000 324.540,88.000 325.200 C 88.000 325.860,87.820 326.400,87.600 326.400 C 87.380 326.400,87.200 326.940,87.200 327.600 C 87.200 328.260,87.020 328.800,86.800 328.800 C 86.580 328.800,86.400 329.239,86.400 329.776 C 86.400 330.313,86.220 330.864,86.000 331.000 C 85.780 331.136,85.600 331.687,85.600 332.224 C 85.600 332.761,85.420 333.200,85.200 333.200 C 84.980 333.200,84.800 333.729,84.800 334.376 C 84.800 335.023,84.620 335.664,84.400 335.800 C 84.180 335.936,84.000 336.487,84.000 337.024 C 84.000 337.561,83.859 338.000,83.687 338.000 C 83.515 338.000,83.140 338.855,82.854 339.900 C 82.334 341.796,81.821 343.181,81.153 344.495 C 80.959 344.877,80.800 345.541,80.800 345.971 C 80.800 346.401,80.620 346.864,80.400 347.000 C 80.180 347.136,80.000 347.597,80.000 348.024 C 80.000 348.451,79.859 348.800,79.687 348.800 C 79.515 348.800,79.334 349.287,79.285 349.882 C 79.236 350.478,79.016 351.144,78.798 351.362 C 78.579 351.581,78.400 352.163,78.400 352.656 C 78.400 353.149,78.220 353.664,78.000 353.800 C 77.780 353.936,77.600 354.451,77.600 354.944 C 77.600 355.437,77.425 356.015,77.211 356.229 C 76.998 356.442,76.768 356.973,76.700 357.409 C 76.632 357.844,76.472 358.380,76.344 358.600 C 76.024 359.149,75.454 361.332,75.534 361.700 C 75.570 361.865,75.420 362.000,75.200 362.000 C 74.980 362.000,74.800 362.529,74.800 363.176 C 74.800 363.823,74.620 364.464,74.400 364.600 C 72.682 365.662,74.589 372.400,76.608 372.400 C 76.963 372.400,77.590 372.580,78.002 372.801 C 78.503 373.069,78.834 373.069,78.999 372.801 C 79.136 372.580,80.904 372.400,82.944 372.400 C 84.977 372.400,86.811 372.236,87.020 372.035 C 87.387 371.683,90.540 371.380,98.300 370.950 C 100.335 370.837,102.000 370.577,102.000 370.373 C 102.000 370.168,103.620 370.000,105.600 370.000 C 107.733 370.000,109.200 369.837,109.200 369.600 C 109.200 369.361,110.733 369.200,113.000 369.200 C 115.267 369.200,116.800 369.039,116.800 368.800 C 116.800 368.565,118.195 368.400,120.186 368.400 L 123.573 368.400 127.035 371.800 C 128.939 373.670,130.643 375.200,130.821 375.200 C 131.000 375.200,131.260 375.560,131.400 376.000 C 131.540 376.440,131.942 376.800,132.294 376.800 C 132.645 376.800,132.837 376.896,132.720 377.013 C 132.532 377.201,135.062 380.000,135.419 380.000 C 135.551 380.000,141.889 386.134,151.642 395.700 L 156.026 400.000 158.943 400.000 C 162.133 400.000,163.600 399.141,163.600 397.274 C 163.600 396.793,163.780 396.400,164.000 396.400 C 164.220 396.400,164.400 395.860,164.400 395.200 C 164.400 394.540,164.580 394.000,164.800 394.000 C 165.020 394.000,165.200 393.460,165.200 392.800 C 165.200 392.140,165.380 391.600,165.600 391.600 C 165.820 391.600,166.000 391.150,166.000 390.600 C 166.000 390.050,166.180 389.600,166.400 389.600 C 166.620 389.600,166.800 389.161,166.800 388.624 C 166.800 388.087,166.980 387.536,167.200 387.400 C 167.420 387.264,167.600 386.623,167.600 385.976 C 167.600 385.329,167.736 384.800,167.903 384.800 C 168.239 384.800,169.200 381.971,169.200 380.983 C 169.200 380.636,169.380 380.464,169.600 380.600 C 169.833 380.744,170.000 380.345,170.000 379.647 C 170.000 378.987,170.180 378.336,170.400 378.200 C 170.620 378.064,170.800 377.595,170.800 377.157 C 170.800 376.719,171.160 375.616,171.600 374.706 C 172.040 373.795,172.405 372.769,172.411 372.425 C 172.417 372.081,172.963 370.540,173.625 369.000 C 174.286 367.460,174.936 365.435,175.068 364.500 C 175.200 363.565,175.464 362.800,175.654 362.800 C 175.844 362.800,176.000 362.260,176.000 361.600 C 176.000 360.940,176.180 360.400,176.400 360.400 C 176.620 360.400,176.800 359.961,176.800 359.424 C 176.800 358.887,176.980 358.336,177.200 358.200 C 177.420 358.064,177.600 357.513,177.600 356.976 C 177.600 356.439,177.780 356.000,178.000 356.000 C 178.220 356.000,178.400 355.586,178.400 355.080 C 178.400 354.574,178.579 353.981,178.798 353.762 C 179.016 353.544,179.236 352.878,179.285 352.282 C 179.334 351.687,179.515 351.200,179.687 351.200 C 179.859 351.200,180.000 350.739,180.000 350.176 C 180.000 349.613,180.142 349.240,180.315 349.348 C 180.488 349.455,180.670 349.060,180.719 348.471 C 180.767 347.882,180.985 347.340,181.203 347.267 C 181.422 347.193,181.600 346.608,181.600 345.967 C 181.600 345.325,181.780 344.800,182.000 344.800 C 182.220 344.800,182.400 344.260,182.400 343.600 C 182.400 342.940,182.580 342.400,182.800 342.400 C 183.020 342.400,183.200 341.961,183.200 341.424 C 183.200 340.887,183.380 340.336,183.600 340.200 C 183.820 340.064,184.000 339.413,184.000 338.753 C 184.000 338.055,184.167 337.656,184.400 337.800 C 184.633 337.944,184.800 337.537,184.800 336.824 C 184.800 336.151,184.980 335.600,185.200 335.600 C 185.420 335.600,185.600 335.060,185.600 334.400 C 185.600 333.740,185.780 333.200,186.000 333.200 C 186.220 333.200,186.400 332.750,186.400 332.200 C 186.400 331.650,186.580 331.200,186.800 331.200 C 187.020 331.200,187.200 330.750,187.200 330.200 C 187.200 329.650,187.380 329.200,187.600 329.200 C 187.820 329.200,188.000 328.660,188.000 328.000 C 188.000 327.340,188.180 326.800,188.400 326.800 C 188.620 326.800,188.800 326.260,188.800 325.600 C 188.800 324.940,188.980 324.400,189.200 324.400 C 189.420 324.400,189.600 324.038,189.600 323.595 C 189.600 323.152,189.763 322.477,189.963 322.095 C 190.560 320.953,191.600 317.178,191.600 316.154 C 191.600 315.629,191.780 315.200,192.000 315.200 C 192.220 315.200,192.400 314.840,192.400 314.400 C 192.400 313.960,192.580 313.600,192.800 313.600 C 193.020 313.600,193.200 313.060,193.200 312.400 C 193.200 311.740,193.380 311.200,193.600 311.200 C 193.820 311.200,194.000 310.660,194.000 310.000 C 194.000 309.340,194.180 308.800,194.400 308.800 C 194.620 308.800,194.800 308.361,194.800 307.824 C 194.800 307.287,194.980 306.736,195.200 306.600 C 195.420 306.464,195.600 305.913,195.600 305.376 C 195.600 304.839,195.780 304.400,196.000 304.400 C 196.220 304.400,196.400 303.860,196.400 303.200 C 196.400 302.540,196.580 302.000,196.800 302.000 C 197.020 302.000,197.200 301.638,197.200 301.195 C 197.200 300.752,197.380 300.032,197.600 299.595 C 197.820 299.158,198.180 298.442,198.400 298.005 C 198.620 297.568,198.800 296.758,198.800 296.205 C 198.800 295.652,198.980 295.200,199.200 295.200 C 199.420 295.200,199.600 294.750,199.600 294.200 C 199.600 293.650,199.780 293.200,200.000 293.200 C 200.220 293.200,200.400 293.740,200.400 294.400 C 200.400 295.060,200.547 295.600,200.728 295.600 C 200.908 295.600,201.304 296.511,201.607 297.625 C 201.910 298.739,202.303 299.740,202.479 299.849 C 202.656 299.958,202.800 300.487,202.800 301.024 C 202.800 301.561,202.980 302.000,203.200 302.000 C 203.420 302.000,203.600 302.439,203.600 302.976 C 203.600 303.513,203.780 304.064,204.000 304.200 C 204.220 304.336,204.400 304.876,204.400 305.400 C 204.400 305.924,204.580 306.464,204.800 306.600 C 205.020 306.736,205.200 307.287,205.200 307.824 C 205.200 308.361,205.380 308.800,205.600 308.800 C 205.820 308.800,206.000 309.239,206.000 309.776 C 206.000 310.313,206.180 310.864,206.400 311.000 C 206.620 311.136,206.800 311.777,206.800 312.424 C 206.800 313.071,206.980 313.600,207.200 313.600 C 207.420 313.600,207.600 314.039,207.600 314.576 C 207.600 315.113,207.760 315.651,207.955 315.772 C 208.300 315.985,209.002 318.700,208.867 319.300 C 208.830 319.465,208.980 319.600,209.200 319.600 C 209.420 319.600,209.600 320.140,209.600 320.800 C 209.600 321.460,209.780 322.000,210.000 322.000 C 210.220 322.000,210.400 322.525,210.400 323.167 C 210.400 323.808,210.578 324.393,210.797 324.467 C 211.015 324.540,211.234 325.095,211.284 325.700 C 211.334 326.305,211.515 326.800,211.687 326.800 C 211.859 326.800,212.000 327.149,212.000 327.576 C 212.000 328.003,212.180 328.464,212.400 328.600 C 212.620 328.736,212.800 329.289,212.800 329.829 C 212.800 330.369,212.980 331.168,213.200 331.605 C 213.420 332.042,213.780 332.758,214.000 333.195 C 214.220 333.632,214.400 334.352,214.400 334.795 C 214.400 335.238,214.580 335.600,214.800 335.600 C 215.020 335.600,215.200 336.039,215.200 336.576 C 215.200 337.113,215.380 337.664,215.600 337.800 C 215.820 337.936,216.000 338.476,216.000 339.000 C 216.000 339.524,216.180 340.064,216.400 340.200 C 216.620 340.336,216.800 340.887,216.800 341.424 C 216.800 341.961,216.980 342.400,217.200 342.400 C 217.420 342.400,217.600 342.925,217.600 343.567 C 217.600 344.208,217.735 344.793,217.901 344.867 C 218.268 345.029,220.000 350.051,220.000 350.953 C 220.000 351.309,220.180 351.600,220.400 351.600 C 220.620 351.600,220.800 351.962,220.800 352.405 C 220.800 353.183,220.942 353.569,221.938 355.495 C 222.192 355.987,222.400 356.741,222.400 357.171 C 222.400 357.601,222.580 358.064,222.800 358.200 C 223.020 358.336,223.200 358.887,223.200 359.424 C 223.200 359.961,223.380 360.400,223.600 360.400 C 223.820 360.400,224.000 360.940,224.000 361.600 C 224.000 362.260,224.180 362.800,224.400 362.800 C 224.620 362.800,224.800 363.239,224.800 363.776 C 224.800 364.313,224.992 364.872,225.227 365.017 C 225.462 365.162,225.565 365.515,225.455 365.801 C 225.345 366.088,225.378 366.444,225.528 366.594 C 225.677 366.744,225.812 366.987,225.826 367.133 C 225.897 367.866,226.977 371.048,227.267 371.380 C 227.450 371.589,227.600 372.086,227.600 372.485 C 227.600 373.187,227.751 373.586,228.738 375.495 C 228.992 375.987,229.200 376.842,229.200 377.395 C 229.200 377.948,229.380 378.400,229.600 378.400 C 229.820 378.400,230.000 378.940,230.000 379.600 C 230.000 380.260,230.180 380.800,230.400 380.800 C 230.620 380.800,230.800 381.124,230.800 381.520 C 230.800 381.916,230.969 382.411,231.175 382.620 C 231.382 382.829,231.624 383.450,231.714 384.000 C 231.899 385.133,232.286 386.277,232.829 387.295 C 233.033 387.677,233.200 388.352,233.200 388.795 C 233.200 389.238,233.380 389.600,233.600 389.600 C 233.820 389.600,234.000 390.050,234.000 390.600 C 234.000 391.150,234.180 391.600,234.400 391.600 C 234.620 391.600,234.800 392.039,234.800 392.576 C 234.800 393.113,234.980 393.664,235.200 393.800 C 235.420 393.936,235.600 394.577,235.600 395.224 C 235.600 395.871,235.780 396.400,236.000 396.400 C 236.220 396.400,236.400 396.816,236.400 397.325 C 236.400 399.225,237.734 400.000,241.003 400.000 L 243.974 400.000 248.372 395.700 C 250.791 393.335,254.532 389.697,256.685 387.615 C 258.838 385.534,260.780 383.521,261.000 383.142 C 261.220 382.763,261.490 382.482,261.600 382.519 C 261.710 382.556,262.245 382.274,262.789 381.893 C 263.333 381.512,263.672 381.200,263.542 381.200 C 263.412 381.200,263.944 380.525,264.725 379.700 C 265.506 378.875,266.261 378.234,266.401 378.276 C 266.542 378.318,266.915 377.986,267.229 377.538 C 267.543 377.089,269.055 375.525,270.588 374.061 C 272.122 372.598,274.057 370.725,274.888 369.900 C 276.411 368.388,283.200 367.490,283.200 368.800 C 283.200 369.040,284.800 369.200,287.200 369.200 C 289.400 369.200,291.200 369.355,291.200 369.544 C 291.200 369.733,292.679 369.923,294.487 369.967 C 296.294 370.010,297.960 370.201,298.189 370.391 C 298.417 370.580,300.133 370.831,302.002 370.948 C 310.339 371.468,312.625 371.695,312.980 372.035 C 313.189 372.236,315.023 372.400,317.056 372.400 C 319.096 372.400,320.864 372.580,321.001 372.801 C 321.166 373.069,321.497 373.069,321.998 372.801 C 322.410 372.580,323.037 372.400,323.392 372.400 C 325.411 372.400,327.318 365.662,325.600 364.600 C 325.380 364.464,325.198 363.958,325.195 363.476 C 325.189 362.585,323.064 356.131,322.635 355.702 C 322.506 355.572,322.400 355.047,322.400 354.533 C 322.400 354.020,322.220 353.600,322.000 353.600 C 321.780 353.600,321.600 353.186,321.600 352.680 C 321.600 352.174,321.421 351.581,321.202 351.362 C 320.984 351.144,320.765 350.491,320.717 349.911 C 320.670 349.332,320.488 348.945,320.315 349.052 C 320.142 349.160,320.000 348.797,320.000 348.247 C 320.000 347.697,319.820 347.136,319.600 347.000 C 319.380 346.864,319.200 346.349,319.200 345.856 C 319.200 345.363,319.021 344.781,318.802 344.562 C 318.584 344.344,318.365 343.691,318.317 343.111 C 318.270 342.532,318.088 342.145,317.915 342.252 C 317.742 342.360,317.600 341.984,317.600 341.418 C 317.600 340.852,317.441 340.077,317.247 339.695 C 317.052 339.313,316.671 338.460,316.400 337.800 C 316.129 337.140,315.748 336.287,315.553 335.905 C 315.359 335.523,315.200 334.758,315.200 334.205 C 315.200 333.652,315.020 333.200,314.800 333.200 C 314.580 333.200,314.400 332.761,314.400 332.224 C 314.400 331.687,314.220 331.136,314.000 331.000 C 313.780 330.864,313.600 330.213,313.600 329.553 C 313.600 328.855,313.433 328.456,313.200 328.600 C 312.974 328.740,312.800 328.412,312.800 327.847 C 312.800 327.297,312.620 326.736,312.400 326.600 C 312.180 326.464,312.000 325.924,312.000 325.400 C 312.000 324.876,311.820 324.336,311.600 324.200 C 311.380 324.064,311.200 323.423,311.200 322.776 C 311.200 322.129,311.020 321.600,310.800 321.600 C 310.580 321.600,310.400 321.240,310.400 320.800 C 310.400 320.360,310.220 320.000,310.000 320.000 C 309.780 320.000,309.600 319.460,309.600 318.800 C 309.600 318.140,309.420 317.600,309.200 317.600 C 308.980 317.600,308.801 317.195,308.802 316.700 C 308.804 315.903,308.065 313.300,307.184 311.000 C 307.016 310.560,306.485 309.120,306.004 307.800 C 305.523 306.480,304.966 304.987,304.765 304.481 C 304.564 303.976,304.400 303.211,304.400 302.781 C 304.400 302.352,304.220 302.000,304.000 302.000 C 303.780 302.000,303.600 301.561,303.600 301.024 C 303.600 300.487,303.420 299.936,303.200 299.800 C 302.980 299.664,302.800 299.023,302.800 298.376 C 302.800 297.729,302.620 297.200,302.400 297.200 C 302.180 297.200,302.000 296.851,302.000 296.424 C 302.000 295.997,301.820 295.536,301.600 295.400 C 301.380 295.264,301.200 294.638,301.200 294.010 C 301.200 293.381,301.022 292.807,300.803 292.733 C 300.585 292.660,300.366 292.105,300.316 291.500 C 300.266 290.895,300.085 290.400,299.913 290.400 C 299.741 290.400,299.600 290.128,299.600 289.795 C 299.600 289.462,299.432 288.877,299.227 288.495 C 299.021 288.113,298.622 286.945,298.339 285.900 C 298.057 284.855,297.685 284.000,297.513 284.000 C 297.341 284.000,297.200 283.460,297.200 282.800 C 297.200 282.140,297.020 281.600,296.800 281.600 C 296.580 281.600,296.400 281.060,296.400 280.400 C 296.400 279.740,296.220 279.200,296.000 279.200 C 295.780 279.200,295.600 278.838,295.600 278.395 C 295.600 277.952,295.420 277.232,295.200 276.795 C 294.980 276.358,294.620 275.642,294.400 275.205 C 294.180 274.768,294.000 274.048,294.000 273.605 C 294.000 273.162,293.820 272.800,293.600 272.800 C 293.380 272.800,293.200 272.361,293.200 271.824 C 293.200 271.287,293.020 270.736,292.800 270.600 C 292.580 270.464,292.400 269.924,292.400 269.400 C 292.400 268.876,292.244 268.351,292.053 268.232 C 291.782 268.065,291.278 265.981,291.177 264.610 C 291.169 264.505,290.910 263.933,290.602 263.338 C 290.293 262.744,290.132 262.109,290.244 261.929 C 290.356 261.748,290.257 261.600,290.024 261.600 C 289.791 261.600,289.600 261.330,289.600 261.000 C 289.600 259.811,284.819 262.362,281.000 265.589 C 280.560 265.961,279.570 266.632,278.800 267.081 C 278.030 267.531,275.690 268.935,273.600 270.203 C 269.734 272.547,260.466 277.268,257.200 278.556 C 256.210 278.946,254.770 279.539,254.000 279.874 C 253.230 280.208,252.240 280.636,251.800 280.824 C 251.047 281.147,242.418 283.989,239.800 284.776 C 222.088 290.104,196.640 291.675,178.000 288.593 C 171.081 287.449,169.904 287.219,165.698 286.187 C 147.648 281.760,122.925 270.126,113.400 261.577 C 112.217 260.515,110.400 260.139,110.400 260.957 " stroke="none" fill="#97da77" fill-rule="evenodd"></path><path id="path2" d="M185.190 0.137 C 185.075 0.256,183.584 0.390,181.877 0.435 C 180.171 0.481,178.680 0.671,178.564 0.859 C 178.448 1.046,177.474 1.200,176.400 1.200 C 175.326 1.200,174.336 1.380,174.200 1.600 C 174.064 1.820,172.984 2.000,171.800 2.000 C 170.616 2.000,169.536 2.180,169.400 2.400 C 169.264 2.620,168.623 2.800,167.976 2.800 C 167.329 2.800,166.800 2.980,166.800 3.200 C 166.800 3.420,165.990 3.600,165.000 3.600 C 164.010 3.600,163.200 3.780,163.200 4.000 C 163.200 4.220,162.480 4.400,161.600 4.400 C 160.720 4.400,160.000 4.580,160.000 4.800 C 160.000 5.020,159.561 5.200,159.024 5.200 C 158.487 5.200,157.936 5.380,157.800 5.600 C 157.664 5.820,157.023 6.000,156.376 6.000 C 155.729 6.000,155.200 6.180,155.200 6.400 C 155.200 6.620,154.581 6.800,153.824 6.800 C 153.067 6.800,152.336 6.980,152.200 7.200 C 152.064 7.420,151.603 7.600,151.176 7.600 C 150.749 7.600,150.400 7.780,150.400 8.000 C 150.400 8.220,149.860 8.400,149.200 8.400 C 148.540 8.400,148.000 8.588,148.000 8.818 C 148.000 9.047,147.775 9.198,147.500 9.152 C 146.748 9.028,144.680 9.643,144.000 10.193 C 143.224 10.821,141.922 11.345,141.353 11.258 C 141.108 11.220,140.690 11.451,140.424 11.771 C 140.159 12.091,139.655 12.243,139.305 12.108 C 138.883 11.946,138.766 12.022,138.958 12.332 C 139.149 12.641,138.913 12.800,138.266 12.800 C 137.727 12.800,137.175 13.089,137.039 13.442 C 136.899 13.808,136.537 13.985,136.197 13.854 C 135.868 13.728,135.600 13.771,135.600 13.948 C 135.600 14.291,133.675 15.353,133.000 15.382 C 132.780 15.392,132.510 15.490,132.400 15.600 C 131.958 16.042,130.380 16.800,129.902 16.800 C 129.622 16.800,129.168 17.160,128.893 17.600 C 128.618 18.040,128.024 18.400,127.573 18.400 C 127.122 18.400,126.864 18.580,127.000 18.800 C 127.136 19.020,126.877 19.200,126.424 19.200 C 125.971 19.200,125.600 19.380,125.600 19.600 C 125.600 19.820,125.319 20.000,124.976 20.000 C 124.633 20.000,124.464 20.180,124.600 20.400 C 124.736 20.620,124.477 20.800,124.024 20.800 C 123.571 20.800,123.200 20.959,123.200 21.153 C 123.200 21.348,122.795 21.644,122.300 21.813 C 120.179 22.534,119.806 22.721,120.400 22.763 C 121.033 22.807,119.007 24.000,118.298 24.000 C 118.072 24.000,117.365 24.546,116.727 25.213 C 116.089 25.881,115.395 26.320,115.184 26.190 C 114.973 26.059,114.800 26.143,114.800 26.376 C 114.800 26.609,114.530 26.800,114.200 26.800 C 113.870 26.800,113.645 27.017,113.700 27.282 C 113.755 27.547,113.560 27.772,113.268 27.782 C 112.975 27.792,112.513 28.104,112.242 28.475 C 111.970 28.847,111.490 29.207,111.174 29.275 C 110.858 29.344,109.953 30.075,109.161 30.900 C 108.370 31.725,107.555 32.400,107.350 32.400 C 107.145 32.400,106.717 32.760,106.400 33.200 C 106.083 33.640,105.546 34.000,105.207 34.000 C 104.867 34.000,104.405 34.405,104.180 34.900 C 103.955 35.395,103.552 35.755,103.285 35.700 C 103.018 35.645,102.800 35.900,102.800 36.267 C 102.800 36.633,102.708 36.841,102.596 36.729 C 102.326 36.459,94.972 43.640,95.095 44.053 C 95.148 44.228,94.923 44.268,94.595 44.143 C 94.249 44.010,94.000 44.141,93.999 44.457 C 93.999 44.756,93.324 45.658,92.499 46.462 C 90.752 48.166,89.175 50.000,89.457 50.000 C 89.565 50.000,88.730 50.899,87.602 51.998 C 86.384 53.184,85.667 54.185,85.837 54.460 C 86.016 54.749,85.949 54.815,85.659 54.636 C 85.390 54.470,85.077 54.655,84.917 55.075 C 84.617 55.861,84.627 55.847,82.588 58.200 C 81.825 59.080,81.200 59.933,81.200 60.097 C 81.200 60.260,80.571 61.250,79.803 62.297 C 79.034 63.343,77.849 64.957,77.169 65.883 C 76.489 66.809,76.036 67.735,76.164 67.941 C 76.291 68.148,76.115 68.424,75.772 68.555 C 75.430 68.687,75.261 68.976,75.398 69.197 C 75.535 69.419,75.457 69.600,75.224 69.600 C 74.991 69.600,74.800 69.870,74.800 70.200 C 74.800 70.530,74.620 70.800,74.400 70.800 C 74.180 70.800,74.000 71.120,74.000 71.512 C 74.000 71.903,73.640 72.483,73.200 72.800 C 72.723 73.144,72.400 73.835,72.400 74.512 C 72.400 75.136,72.233 75.544,72.028 75.417 C 71.824 75.291,71.431 75.811,71.155 76.572 C 70.880 77.334,70.507 77.866,70.327 77.755 C 70.147 77.644,70.000 78.024,70.000 78.600 C 70.000 79.176,69.857 79.559,69.683 79.451 C 69.509 79.344,69.337 79.645,69.301 80.122 C 69.265 80.598,69.048 81.051,68.818 81.127 C 68.588 81.204,68.400 81.522,68.400 81.833 C 68.400 82.145,68.220 82.400,68.000 82.400 C 67.780 82.400,67.600 82.766,67.600 83.214 C 67.600 83.662,67.295 84.494,66.922 85.063 C 66.549 85.632,66.217 86.471,66.183 86.928 C 66.150 87.385,65.915 87.828,65.661 87.913 C 65.407 87.998,65.200 88.401,65.200 88.810 C 65.200 89.218,65.020 89.664,64.800 89.800 C 64.580 89.936,64.400 90.487,64.400 91.024 C 64.400 91.561,64.220 92.000,64.000 92.000 C 63.780 92.000,63.600 92.360,63.600 92.800 C 63.600 93.240,63.420 93.600,63.200 93.600 C 62.980 93.600,62.839 93.735,62.887 93.900 C 63.043 94.439,61.834 98.000,61.495 98.000 C 61.314 98.000,61.194 98.225,61.230 98.500 C 61.405 99.847,61.171 100.829,60.738 100.562 C 60.450 100.384,60.385 100.452,60.565 100.743 C 60.724 101.000,60.599 101.721,60.287 102.345 C 59.976 102.969,59.755 104.039,59.795 104.722 C 59.836 105.411,59.646 106.050,59.367 106.157 C 59.091 106.263,58.916 106.811,58.977 107.375 C 59.039 107.939,58.935 108.400,58.745 108.400 C 58.555 108.400,58.400 109.120,58.400 110.000 C 58.400 110.880,58.220 111.600,58.000 111.600 C 57.780 111.600,57.600 112.410,57.600 113.400 C 57.600 114.390,57.451 115.200,57.268 115.200 C 57.086 115.200,56.896 116.235,56.846 117.500 C 56.796 118.765,56.585 119.860,56.378 119.933 C 56.170 120.007,56.000 120.941,56.000 122.010 C 56.000 123.078,55.846 124.048,55.659 124.164 C 55.471 124.280,55.280 125.771,55.235 127.478 C 55.190 129.185,55.000 130.676,54.813 130.792 C 54.626 130.908,54.453 133.129,54.430 135.729 C 54.405 138.398,54.542 140.360,54.742 140.236 C 54.938 140.115,55.220 141.497,55.370 143.308 C 55.519 145.119,55.805 147.590,56.004 148.800 C 56.203 150.010,56.568 152.260,56.815 153.800 C 64.612 202.459,99.052 246.450,143.200 264.141 C 144.190 264.538,145.360 265.012,145.800 265.194 C 175.111 277.364,207.815 278.870,241.800 269.614 C 268.122 262.445,297.171 242.416,314.934 219.191 C 331.169 197.963,340.700 174.619,344.081 147.800 C 344.580 143.840,345.126 140.540,345.294 140.467 C 345.720 140.281,345.680 132.000,345.253 132.000 C 345.062 132.000,344.874 130.534,344.836 128.742 C 344.798 126.951,344.594 125.162,344.383 124.769 C 344.172 124.375,344.000 122.961,344.000 121.626 C 344.000 120.275,343.823 119.200,343.600 119.200 C 343.380 119.200,343.200 118.300,343.200 117.200 C 343.200 116.100,343.020 115.200,342.800 115.200 C 342.580 115.200,342.400 114.390,342.400 113.400 C 342.400 112.410,342.220 111.600,342.000 111.600 C 341.780 111.600,341.600 110.880,341.600 110.000 C 341.600 109.120,341.408 108.400,341.173 108.400 C 340.925 108.400,340.855 108.057,341.006 107.581 C 341.149 107.130,341.044 106.494,340.773 106.167 C 340.501 105.840,340.294 105.039,340.313 104.386 C 340.331 103.734,340.216 103.200,340.056 103.200 C 339.685 103.200,338.621 99.624,338.717 98.700 C 338.758 98.315,338.613 98.000,338.395 98.000 C 338.178 98.000,338.000 97.550,338.000 97.000 C 338.000 96.450,337.820 96.000,337.600 96.000 C 337.380 96.000,337.200 95.550,337.200 95.000 C 337.200 94.450,337.020 94.000,336.800 94.000 C 336.580 94.000,336.400 93.676,336.400 93.280 C 336.400 92.884,336.221 92.381,336.002 92.162 C 335.784 91.944,335.564 91.278,335.515 90.682 C 335.466 90.087,335.285 89.600,335.113 89.600 C 334.941 89.600,334.800 89.240,334.800 88.800 C 334.800 88.360,334.620 88.000,334.400 88.000 C 334.180 88.000,334.000 87.561,334.000 87.024 C 334.000 86.487,333.820 85.936,333.600 85.800 C 333.380 85.664,333.200 85.193,333.200 84.753 C 333.200 84.313,333.020 84.064,332.800 84.200 C 332.452 84.415,332.210 83.604,332.353 82.700 C 332.379 82.535,332.220 82.400,332.000 82.400 C 331.780 82.400,331.600 82.040,331.600 81.600 C 331.600 81.160,331.420 80.800,331.200 80.800 C 330.980 80.800,330.800 80.429,330.800 79.976 C 330.800 79.523,330.620 79.264,330.400 79.400 C 330.173 79.540,330.000 79.204,330.000 78.624 C 330.000 78.061,329.816 77.600,329.590 77.600 C 329.365 77.600,329.009 77.150,328.800 76.600 C 328.591 76.050,328.235 75.600,328.010 75.600 C 327.784 75.600,327.600 75.100,327.600 74.488 C 327.600 73.835,327.270 73.139,326.800 72.800 C 326.360 72.483,326.000 71.903,326.000 71.512 C 326.000 71.120,325.843 70.800,325.650 70.800 C 325.457 70.800,325.192 70.260,325.060 69.600 C 324.915 68.873,324.570 68.400,324.186 68.400 C 323.823 68.400,323.670 68.210,323.828 67.955 C 323.979 67.711,323.944 67.396,323.751 67.255 C 323.216 66.866,321.600 64.480,321.600 64.078 C 321.600 63.883,321.240 63.398,320.800 63.000 C 320.360 62.602,320.000 62.023,320.000 61.714 C 320.000 61.406,319.833 61.256,319.629 61.382 C 319.425 61.508,319.129 61.207,318.973 60.714 C 318.534 59.331,317.121 57.601,316.425 57.594 C 315.972 57.589,315.935 57.502,316.291 57.276 C 316.652 57.046,316.573 56.813,315.991 56.394 C 315.556 56.080,315.200 55.587,315.200 55.299 C 315.200 55.011,314.885 54.656,314.500 54.510 C 313.540 54.146,312.800 53.366,312.800 52.717 C 312.800 52.420,312.440 51.917,312.000 51.600 C 311.560 51.283,311.200 50.805,311.200 50.539 C 311.200 50.272,310.660 49.670,310.000 49.200 C 309.340 48.730,308.800 48.128,308.800 47.862 C 308.800 47.330,307.399 46.000,306.838 46.000 C 306.464 46.000,305.830 44.805,305.936 44.300 C 305.971 44.135,305.865 44.041,305.700 44.091 C 305.535 44.140,303.090 41.890,300.267 39.091 C 297.444 36.291,294.951 34.000,294.727 34.000 C 294.504 34.000,293.817 33.460,293.200 32.800 C 292.583 32.140,291.871 31.600,291.616 31.600 C 291.361 31.600,291.283 31.389,291.442 31.132 C 291.636 30.817,291.513 30.748,291.066 30.919 C 290.700 31.060,290.400 31.025,290.400 30.842 C 290.400 30.197,288.253 28.371,287.730 28.572 C 287.438 28.683,287.200 28.619,287.200 28.429 C 287.200 27.995,285.536 26.374,285.000 26.286 C 284.611 26.223,283.653 25.514,282.584 24.500 C 282.294 24.225,281.840 24.000,281.575 24.000 C 281.311 24.000,280.758 23.612,280.347 23.139 C 279.845 22.560,279.598 22.462,279.594 22.839 C 279.590 23.192,279.479 23.245,279.294 22.981 C 279.132 22.750,278.370 22.129,277.600 21.600 C 276.830 21.071,276.110 20.540,276.000 20.419 C 275.775 20.172,275.095 19.783,271.276 17.713 C 266.574 15.164,263.414 13.615,262.900 13.607 C 262.625 13.603,262.400 13.409,262.400 13.176 C 262.400 12.943,262.232 12.856,262.028 12.983 C 261.823 13.109,261.542 13.030,261.404 12.807 C 261.266 12.583,260.823 12.400,260.419 12.400 C 260.016 12.400,259.593 12.158,259.479 11.862 C 259.366 11.566,258.446 11.093,257.436 10.810 C 256.426 10.527,255.600 10.139,255.600 9.948 C 255.600 9.757,255.161 9.600,254.624 9.600 C 254.087 9.600,253.526 9.404,253.378 9.165 C 253.231 8.926,252.770 8.819,252.355 8.928 C 251.940 9.036,251.500 8.962,251.377 8.762 C 251.254 8.563,250.803 8.400,250.376 8.400 C 249.949 8.400,249.600 8.220,249.600 8.000 C 249.600 7.780,249.240 7.600,248.800 7.600 C 248.360 7.600,248.000 7.420,248.000 7.200 C 248.000 6.980,247.381 6.800,246.624 6.800 C 245.867 6.800,245.136 6.620,245.000 6.400 C 244.864 6.180,244.223 6.000,243.576 6.000 C 242.929 6.000,242.400 5.820,242.400 5.600 C 242.400 5.380,241.759 5.200,240.976 5.200 C 240.129 5.200,239.653 5.038,239.800 4.800 C 239.947 4.562,239.471 4.400,238.624 4.400 C 237.841 4.400,237.200 4.257,237.200 4.082 C 237.200 3.907,236.525 3.718,235.701 3.663 C 234.876 3.607,234.030 3.390,233.821 3.181 C 233.611 2.971,232.857 2.800,232.144 2.800 C 231.431 2.800,230.736 2.620,230.600 2.400 C 230.464 2.180,229.564 2.000,228.600 2.000 C 227.636 2.000,226.736 1.820,226.600 1.600 C 226.464 1.380,225.403 1.200,224.243 1.200 C 223.083 1.200,222.010 1.076,221.859 0.925 C 221.707 0.774,221.182 0.585,220.692 0.505 C 219.173 0.257,185.413 -0.093,185.190 0.137 M213.375 31.163 C 218.505 31.664,226.647 33.208,230.400 34.392 C 230.950 34.565,232.210 34.929,233.200 35.199 C 234.190 35.470,235.360 35.833,235.800 36.005 C 236.240 36.178,237.230 36.536,238.000 36.800 C 238.770 37.064,239.805 37.443,240.300 37.640 C 240.795 37.838,241.650 38.180,242.200 38.400 C 242.750 38.620,243.605 38.956,244.100 39.147 C 244.595 39.338,246.150 40.058,247.556 40.747 C 248.962 41.436,250.342 42.000,250.623 42.000 C 250.904 42.000,251.193 42.136,251.267 42.302 C 251.340 42.468,252.660 43.232,254.200 44.000 C 255.740 44.768,257.060 45.532,257.133 45.698 C 257.207 45.864,257.428 46.000,257.626 46.000 C 258.155 46.000,268.096 52.387,268.800 53.179 C 268.910 53.303,269.659 53.896,270.465 54.496 C 271.271 55.097,272.176 55.816,272.475 56.094 C 272.774 56.372,274.183 57.590,275.604 58.800 C 278.464 61.234,281.850 64.558,285.200 68.222 C 287.524 70.764,288.154 71.513,290.396 74.401 C 291.164 75.391,292.109 76.549,292.496 76.975 C 292.883 77.402,293.200 77.972,293.200 78.242 C 293.200 78.512,293.349 78.793,293.530 78.867 C 293.888 79.011,297.300 83.995,298.993 86.846 C 300.507 89.395,306.400 101.414,306.400 101.953 C 306.400 102.205,306.559 102.723,306.753 103.105 C 307.386 104.349,307.938 105.769,308.423 107.400 C 308.684 108.280,309.056 109.313,309.249 109.695 C 309.442 110.077,309.600 110.741,309.600 111.171 C 309.600 111.601,309.780 112.064,310.000 112.200 C 310.220 112.336,310.400 112.966,310.400 113.600 C 310.400 114.234,310.560 114.852,310.756 114.973 C 310.951 115.094,311.212 115.779,311.334 116.496 C 311.456 117.213,311.754 118.700,311.996 119.800 C 314.748 132.291,315.516 143.007,314.477 154.400 C 313.631 163.678,313.570 164.180,313.203 165.000 C 313.007 165.440,312.755 166.520,312.645 167.400 C 312.322 169.983,311.969 171.744,311.603 172.600 C 311.243 173.441,310.887 174.930,310.528 177.100 C 310.409 177.815,310.152 178.400,309.956 178.400 C 309.760 178.400,309.600 178.929,309.600 179.576 C 309.600 180.223,309.420 180.864,309.200 181.000 C 308.980 181.136,308.800 181.599,308.800 182.029 C 308.800 182.459,308.641 183.123,308.447 183.505 C 308.252 183.887,307.871 184.740,307.600 185.400 C 307.329 186.060,306.948 186.913,306.753 187.295 C 306.559 187.677,306.400 188.174,306.400 188.399 C 306.400 189.643,300.076 202.267,297.953 205.262 C 297.539 205.846,297.200 206.438,297.200 206.578 C 297.200 206.719,296.840 207.220,296.400 207.692 C 295.960 208.164,295.600 208.787,295.600 209.075 C 295.600 209.364,295.462 209.600,295.294 209.600 C 295.126 209.600,294.544 210.320,294.000 211.200 C 293.456 212.080,292.887 212.800,292.735 212.800 C 292.583 212.800,292.400 213.044,292.329 213.341 C 291.418 217.159,274.032 234.027,264.549 240.295 C 261.383 242.388,258.716 244.000,258.420 244.000 C 258.226 244.000,258.007 244.135,257.933 244.300 C 257.606 245.036,246.166 250.708,241.200 252.596 C 237.844 253.872,229.427 256.400,228.535 256.400 C 228.047 256.400,227.536 256.580,227.400 256.800 C 227.264 257.020,226.479 257.200,225.656 257.200 C 224.833 257.200,223.989 257.363,223.780 257.561 C 223.571 257.760,222.500 258.033,221.400 258.168 C 220.300 258.304,218.140 258.596,216.600 258.818 C 212.476 259.414,203.440 260.113,200.000 260.104 C 194.807 260.091,186.390 259.508,186.167 259.147 C 186.049 258.956,184.804 258.800,183.400 258.800 C 181.996 258.800,180.736 258.620,180.600 258.400 C 180.464 258.180,179.474 258.000,178.400 258.000 C 177.326 258.000,176.348 257.839,176.226 257.642 C 176.105 257.445,175.329 257.191,174.503 257.076 C 170.917 256.579,163.021 254.286,159.689 252.776 C 158.748 252.349,157.809 252.000,157.601 252.000 C 156.588 252.000,143.600 245.623,143.600 245.125 C 143.600 244.946,143.240 244.800,142.800 244.800 C 142.360 244.800,142.000 244.620,142.000 244.400 C 142.000 244.180,141.764 244.000,141.475 244.000 C 141.187 244.000,140.593 243.685,140.155 243.300 C 139.717 242.915,138.963 242.375,138.480 242.100 C 137.996 241.825,137.204 241.375,136.720 241.100 C 136.237 240.825,135.652 240.456,135.420 240.279 C 135.189 240.103,134.076 239.293,132.946 238.479 C 124.572 232.448,114.355 222.727,110.416 217.043 C 110.095 216.579,109.331 215.660,108.718 215.000 C 108.105 214.340,107.603 213.575,107.602 213.300 C 107.601 213.025,107.462 212.800,107.294 212.800 C 107.126 212.800,106.544 212.080,106.000 211.200 C 105.456 210.320,104.874 209.600,104.706 209.600 C 104.538 209.600,104.400 209.410,104.400 209.178 C 104.400 208.946,103.694 207.717,102.832 206.447 C 99.995 202.270,93.600 189.782,93.600 188.420 C 93.600 188.183,93.420 187.632,93.200 187.195 C 92.980 186.758,92.620 186.042,92.400 185.605 C 92.180 185.168,92.000 184.448,92.000 184.005 C 92.000 183.562,91.820 183.200,91.600 183.200 C 91.380 183.200,91.200 182.660,91.200 182.000 C 91.200 181.340,91.020 180.800,90.800 180.800 C 90.580 180.800,90.400 180.260,90.400 179.600 C 90.400 178.940,90.240 178.400,90.044 178.400 C 89.848 178.400,89.591 177.815,89.472 177.100 C 89.113 174.930,88.757 173.441,88.397 172.600 C 88.209 172.160,87.944 171.170,87.809 170.400 C 87.674 169.630,87.386 168.010,87.168 166.800 C 86.240 161.634,85.974 159.507,85.618 154.400 C 85.412 151.430,85.158 148.190,85.056 147.200 C 84.608 142.890,86.383 126.374,88.022 119.600 C 88.262 118.610,88.555 117.213,88.673 116.496 C 88.792 115.779,89.049 115.094,89.244 114.973 C 89.440 114.852,89.600 114.234,89.600 113.600 C 89.600 112.966,89.780 112.336,90.000 112.200 C 90.220 112.064,90.400 111.524,90.400 111.000 C 90.400 110.476,90.580 109.936,90.800 109.800 C 91.020 109.664,91.200 109.124,91.200 108.600 C 91.200 108.076,91.380 107.536,91.600 107.400 C 91.820 107.264,92.000 106.713,92.000 106.176 C 92.000 105.639,92.180 105.200,92.400 105.200 C 92.620 105.200,92.800 104.838,92.800 104.395 C 92.800 103.952,92.960 103.277,93.156 102.895 C 93.352 102.513,93.871 101.390,94.308 100.400 C 98.314 91.339,105.030 79.447,106.470 78.867 C 106.651 78.793,106.801 78.523,106.802 78.267 C 106.803 78.010,107.304 77.260,107.915 76.600 C 108.526 75.940,109.461 74.770,109.994 74.000 C 110.526 73.230,111.251 72.330,111.603 72.000 C 111.956 71.670,112.516 71.003,112.848 70.517 C 113.861 69.035,120.860 61.934,123.608 59.600 C 125.033 58.390,126.469 57.118,126.799 56.773 C 128.641 54.851,139.734 47.195,143.000 45.591 C 143.660 45.266,144.290 44.906,144.400 44.790 C 144.809 44.357,153.019 40.395,153.500 40.397 C 153.775 40.399,154.000 40.220,154.000 40.000 C 154.000 39.780,154.272 39.600,154.605 39.600 C 154.938 39.600,155.523 39.441,155.905 39.247 C 157.955 38.204,164.786 35.731,168.300 34.759 C 171.818 33.787,172.962 33.520,177.600 32.588 C 180.350 32.035,184.746 31.406,187.368 31.190 C 189.991 30.974,192.239 30.695,192.363 30.570 C 192.721 30.213,208.091 30.647,213.375 31.163 M197.200 71.045 C 195.063 71.310,189.049 72.856,188.620 73.251 C 188.411 73.443,187.941 73.600,187.575 73.600 C 186.824 73.600,181.421 76.304,179.644 77.568 C 179.002 78.026,178.294 78.400,178.072 78.400 C 177.849 78.400,177.607 78.535,177.533 78.700 C 177.460 78.865,176.501 79.720,175.402 80.600 C 170.027 84.905,164.795 92.000,162.349 98.300 C 162.157 98.795,161.841 99.605,161.646 100.100 C 161.451 100.595,161.078 101.810,160.818 102.800 C 160.559 103.790,160.171 105.171,159.958 105.869 C 159.045 108.858,159.320 118.091,160.385 120.226 C 163.135 125.736,170.017 129.562,175.026 128.365 C 182.935 126.475,187.130 121.138,187.186 112.895 C 187.194 111.737,187.352 110.477,187.537 110.095 C 187.722 109.713,188.299 108.500,188.818 107.400 C 192.425 99.765,202.753 96.226,209.305 100.381 C 211.124 101.534,213.600 104.629,213.600 105.748 C 213.600 106.081,213.780 106.464,214.000 106.600 C 215.396 107.463,214.096 115.306,212.200 117.453 C 211.980 117.702,211.179 118.670,210.421 119.604 C 209.662 120.537,208.852 121.503,208.619 121.751 C 208.387 121.998,207.390 123.190,206.404 124.400 C 205.418 125.610,204.513 126.690,204.394 126.800 C 204.274 126.910,202.745 128.710,200.995 130.800 C 199.245 132.890,197.630 134.800,197.407 135.044 C 196.625 135.898,194.986 137.825,193.200 139.990 C 192.210 141.190,190.921 142.718,190.335 143.386 C 189.749 144.054,187.082 147.210,184.408 150.400 C 181.734 153.590,178.973 156.836,178.273 157.614 C 177.573 158.392,176.192 160.012,175.205 161.214 C 174.219 162.416,173.319 163.490,173.205 163.600 C 173.092 163.710,171.201 165.960,169.002 168.600 C 166.803 171.240,164.784 173.632,164.516 173.915 C 164.248 174.198,163.713 174.963,163.328 175.615 C 162.943 176.267,162.486 176.800,162.314 176.800 C 162.141 176.800,162.000 176.993,162.000 177.228 C 162.000 177.463,161.494 178.408,160.875 179.328 C 156.826 185.344,153.714 195.433,155.043 198.234 C 156.503 201.311,160.039 203.950,164.183 205.053 C 167.220 205.862,233.776 205.841,236.447 205.031 C 239.985 203.957,244.800 200.422,244.800 198.898 C 244.800 197.906,241.070 194.000,240.122 194.000 C 239.835 194.000,239.600 193.820,239.600 193.600 C 239.600 193.380,239.251 193.200,238.824 193.200 C 238.397 193.200,237.948 193.040,237.827 192.844 C 237.330 192.040,233.523 191.871,210.700 191.641 C 197.555 191.509,186.755 191.282,186.700 191.138 C 186.645 190.994,187.050 190.362,187.600 189.734 C 188.150 189.106,189.410 187.604,190.400 186.397 C 191.390 185.190,192.560 183.820,193.000 183.352 C 193.440 182.884,194.144 182.073,194.564 181.550 C 194.985 181.028,196.245 179.524,197.364 178.209 C 198.484 176.894,199.760 175.385,200.200 174.856 C 200.640 174.327,201.180 173.693,201.400 173.447 C 201.620 173.201,203.150 171.380,204.799 169.400 C 206.449 167.420,207.891 165.710,208.005 165.600 C 208.118 165.490,209.019 164.416,210.005 163.214 C 210.992 162.012,212.278 160.482,212.862 159.814 C 213.446 159.146,215.219 157.070,216.801 155.200 C 218.383 153.330,220.065 151.348,220.539 150.796 C 221.013 150.244,222.208 148.804,223.196 147.596 C 224.184 146.388,225.452 144.950,226.015 144.400 C 226.577 143.850,227.309 143.006,227.640 142.524 C 227.971 142.042,229.133 140.624,230.221 139.373 C 233.385 135.737,237.089 130.413,238.411 127.600 C 239.083 126.170,239.805 124.687,240.016 124.305 C 240.227 123.923,240.400 123.259,240.400 122.829 C 240.400 122.399,240.580 121.936,240.800 121.800 C 241.020 121.664,241.200 120.944,241.200 120.200 C 241.200 119.456,241.353 118.753,241.540 118.637 C 242.635 117.960,242.637 102.841,241.542 102.164 C 241.354 102.048,241.200 101.344,241.200 100.600 C 241.200 99.856,241.020 99.136,240.800 99.000 C 240.580 98.864,240.400 98.401,240.400 97.971 C 240.400 97.541,240.238 96.877,240.041 96.495 C 239.843 96.113,238.940 94.270,238.032 92.400 C 235.629 87.446,228.169 78.400,226.486 78.400 C 226.302 78.400,225.794 78.085,225.358 77.700 C 223.405 75.974,218.077 73.399,214.400 72.404 C 213.410 72.136,212.150 71.739,211.600 71.521 C 210.552 71.107,199.617 70.745,197.200 71.045 " stroke="none" fill="#e3e3e3" fill-rule="evenodd"></path><path id="path3" d="M86.344 145.840 C 85.693 148.142,87.326 164.118,88.814 170.000 C 89.009 170.770,89.464 172.570,89.826 174.000 C 90.188 175.430,90.576 177.097,90.688 177.705 C 90.800 178.313,91.051 178.908,91.246 179.029 C 91.441 179.149,91.600 179.676,91.600 180.200 C 91.600 180.724,91.780 181.264,92.000 181.400 C 92.220 181.536,92.400 181.999,92.400 182.429 C 92.400 182.859,92.559 183.523,92.753 183.905 C 93.123 184.632,93.891 186.435,94.413 187.800 C 96.599 193.522,103.634 206.816,105.488 208.729 C 105.769 209.019,106.000 209.411,106.000 209.600 C 106.000 209.789,106.231 210.181,106.513 210.471 C 106.795 210.762,107.462 211.630,107.994 212.400 C 108.526 213.170,109.071 213.890,109.204 214.000 C 109.337 214.110,109.706 214.579,110.023 215.043 C 111.190 216.747,115.341 221.484,119.600 225.971 C 120.525 226.945,126.166 231.951,128.423 233.800 C 130.298 235.336,134.498 238.413,135.645 239.090 C 136.280 239.465,136.800 239.914,136.800 240.086 C 136.800 240.259,137.036 240.400,137.325 240.400 C 137.613 240.400,138.207 240.715,138.645 241.100 C 139.392 241.757,139.865 242.059,142.100 243.300 C 142.595 243.575,143.090 243.906,143.200 244.035 C 143.492 244.379,155.555 250.190,157.200 250.779 C 157.970 251.055,158.960 251.431,159.400 251.614 C 159.840 251.797,161.370 252.328,162.800 252.793 C 164.230 253.257,165.713 253.809,166.095 254.019 C 166.477 254.229,167.231 254.400,167.771 254.400 C 168.311 254.400,168.864 254.580,169.000 254.800 C 169.136 255.020,169.766 255.200,170.400 255.200 C 171.034 255.200,171.652 255.361,171.774 255.558 C 171.895 255.755,172.671 256.015,173.497 256.137 C 174.324 256.259,175.990 256.557,177.200 256.798 C 190.163 259.382,205.859 259.689,218.400 257.603 C 219.830 257.365,221.810 257.070,222.800 256.946 C 223.790 256.823,224.771 256.560,224.980 256.361 C 225.189 256.163,225.943 256.000,226.656 256.000 C 227.369 256.000,228.064 255.820,228.200 255.600 C 228.336 255.380,228.966 255.200,229.600 255.200 C 230.234 255.200,230.864 255.020,231.000 254.800 C 231.136 254.580,231.689 254.400,232.229 254.400 C 232.769 254.400,233.523 254.242,233.905 254.049 C 234.287 253.856,235.320 253.484,236.200 253.223 C 237.080 252.961,238.160 252.599,238.600 252.418 C 239.040 252.238,241.110 251.415,243.200 250.590 C 246.580 249.256,256.282 244.564,256.800 244.013 C 257.166 243.624,259.390 242.354,260.100 242.129 C 260.485 242.007,260.800 241.748,260.800 241.553 C 260.800 241.359,261.036 241.200,261.325 241.200 C 261.613 241.200,262.236 240.840,262.708 240.400 C 263.180 239.960,263.739 239.600,263.950 239.600 C 264.161 239.600,264.393 239.455,264.467 239.277 C 264.540 239.099,265.496 238.342,266.591 237.595 C 268.899 236.020,268.659 236.208,273.600 232.094 C 278.948 227.641,282.912 223.639,287.755 217.800 C 290.541 214.440,290.739 214.189,291.993 212.400 C 292.532 211.630,293.205 210.762,293.487 210.471 C 293.769 210.181,294.000 209.804,294.000 209.634 C 294.000 209.464,294.450 208.801,295.000 208.162 C 295.549 207.523,295.999 206.879,296.000 206.732 C 296.000 206.584,296.871 205.054,297.935 203.332 C 300.508 199.166,305.187 189.509,306.428 185.800 C 306.722 184.920,307.107 184.029,307.282 183.820 C 307.457 183.611,307.600 183.037,307.600 182.544 C 307.600 182.051,307.780 181.536,308.000 181.400 C 308.220 181.264,308.400 180.724,308.400 180.200 C 308.400 179.676,308.580 179.136,308.800 179.000 C 309.020 178.864,309.200 178.324,309.200 177.800 C 309.200 177.276,309.360 176.748,309.556 176.627 C 309.751 176.506,310.013 175.821,310.137 175.104 C 310.261 174.387,310.473 173.170,310.608 172.400 C 310.744 171.630,311.011 170.640,311.202 170.200 C 311.394 169.760,311.658 168.680,311.788 167.800 C 311.919 166.920,312.201 165.120,312.414 163.800 C 313.629 156.278,314.351 145.600,313.644 145.600 C 313.400 145.600,313.200 145.994,313.200 146.476 C 313.200 150.784,308.478 168.139,305.494 174.800 C 292.597 203.584,270.502 225.626,244.000 236.148 C 243.010 236.541,241.840 237.018,241.400 237.209 C 221.405 245.866,192.196 247.111,168.000 240.339 C 162.504 238.801,159.426 237.662,153.000 234.791 C 131.151 225.028,112.816 208.257,100.313 186.600 C 99.679 185.501,95.618 177.281,94.780 175.400 C 91.488 168.008,88.078 155.738,86.832 146.800 C 86.650 145.490,86.517 145.228,86.344 145.840 M271.385 373.300 L 269.400 375.400 271.500 373.415 C 272.655 372.323,273.600 371.378,273.600 371.315 C 273.600 371.017,273.229 371.349,271.385 373.300 " stroke="none" fill="#8c8c8c" fill-rule="evenodd"></path><path id="path4" d="M192.363 30.570 C 192.239 30.695,189.991 30.974,187.368 31.190 C 180.431 31.762,171.554 33.605,164.600 35.917 C 161.039 37.100,157.340 38.517,155.905 39.247 C 155.523 39.441,154.938 39.600,154.605 39.600 C 154.272 39.600,154.000 39.780,154.000 40.000 C 154.000 40.220,153.775 40.399,153.500 40.397 C 153.019 40.395,144.809 44.357,144.400 44.790 C 144.290 44.906,143.660 45.266,143.000 45.591 C 139.734 47.195,128.641 54.851,126.799 56.773 C 126.469 57.118,125.033 58.390,123.608 59.600 C 120.860 61.934,113.861 69.035,112.848 70.517 C 112.516 71.003,111.956 71.670,111.603 72.000 C 111.251 72.330,110.526 73.230,109.994 74.000 C 109.461 74.770,108.526 75.940,107.915 76.600 C 107.304 77.260,106.803 78.010,106.802 78.267 C 106.801 78.523,106.651 78.793,106.470 78.867 C 105.030 79.447,98.314 91.339,94.308 100.400 C 93.871 101.390,93.352 102.513,93.156 102.895 C 92.960 103.277,92.800 103.952,92.800 104.395 C 92.800 104.838,92.620 105.200,92.400 105.200 C 92.180 105.200,92.000 105.639,92.000 106.176 C 92.000 106.713,91.820 107.264,91.600 107.400 C 91.380 107.536,91.200 108.076,91.200 108.600 C 91.200 109.124,91.020 109.664,90.800 109.800 C 90.580 109.936,90.400 110.476,90.400 111.000 C 90.400 111.524,90.220 112.064,90.000 112.200 C 89.780 112.336,89.600 112.966,89.600 113.600 C 89.600 114.234,89.440 114.852,89.244 114.973 C 89.049 115.094,88.792 115.779,88.673 116.496 C 88.555 117.213,88.262 118.610,88.022 119.600 C 86.383 126.374,84.608 142.890,85.056 147.200 C 85.158 148.190,85.412 151.430,85.618 154.400 C 85.974 159.507,86.240 161.634,87.168 166.800 C 87.386 168.010,87.674 169.630,87.809 170.400 C 87.944 171.170,88.209 172.160,88.397 172.600 C 88.757 173.441,89.113 174.930,89.472 177.100 C 89.591 177.815,89.848 178.400,90.044 178.400 C 90.240 178.400,90.400 178.940,90.400 179.600 C 90.400 180.260,90.580 180.800,90.800 180.800 C 91.020 180.800,91.200 181.340,91.200 182.000 C 91.200 182.660,91.380 183.200,91.600 183.200 C 92.116 183.200,92.134 183.320,91.178 180.352 C 85.336 162.210,84.146 140.675,88.011 123.000 C 88.203 122.120,88.572 120.410,88.830 119.200 C 89.088 117.990,89.436 116.550,89.603 116.000 C 89.770 115.450,90.134 114.190,90.411 113.200 C 93.215 103.188,102.574 83.478,105.792 80.806 C 106.126 80.529,106.400 80.054,106.400 79.751 C 106.400 79.448,106.541 79.200,106.714 79.200 C 106.886 79.200,107.335 78.680,107.710 78.045 C 109.925 74.294,121.616 61.715,126.355 57.982 C 127.320 57.222,128.871 55.955,129.802 55.167 C 131.932 53.363,140.896 47.442,144.600 45.393 C 152.348 41.106,160.404 37.739,168.000 35.611 C 168.990 35.334,170.250 34.965,170.800 34.792 C 173.439 33.959,178.975 32.865,185.200 31.945 C 200.869 29.629,226.605 32.493,239.400 37.976 C 239.840 38.165,240.830 38.549,241.600 38.830 C 265.900 47.704,288.842 68.423,301.581 93.000 C 305.276 100.129,309.631 111.801,310.982 118.200 C 311.122 118.860,311.411 120.120,311.626 121.000 C 313.365 128.126,314.577 141.763,314.222 150.200 C 313.983 155.867,313.821 157.404,312.742 164.200 C 312.353 166.654,310.492 174.966,309.765 177.500 C 309.619 178.009,309.682 178.400,309.910 178.400 C 310.131 178.400,310.409 177.815,310.528 177.100 C 310.887 174.930,311.243 173.441,311.603 172.600 C 311.969 171.744,312.322 169.983,312.645 167.400 C 312.755 166.520,313.007 165.440,313.203 165.000 C 313.570 164.180,313.631 163.678,314.477 154.400 C 315.516 143.007,314.748 132.291,311.996 119.800 C 311.754 118.700,311.456 117.213,311.334 116.496 C 311.212 115.779,310.951 115.094,310.756 114.973 C 310.560 114.852,310.400 114.234,310.400 113.600 C 310.400 112.966,310.220 112.336,310.000 112.200 C 309.780 112.064,309.600 111.601,309.600 111.171 C 309.600 110.741,309.442 110.077,309.249 109.695 C 309.056 109.313,308.684 108.280,308.423 107.400 C 307.938 105.769,307.386 104.349,306.753 103.105 C 306.559 102.723,306.400 102.205,306.400 101.953 C 306.400 101.414,300.507 89.395,298.993 86.846 C 297.300 83.995,293.888 79.011,293.530 78.867 C 293.349 78.793,293.200 78.512,293.200 78.242 C 293.200 77.972,292.883 77.402,292.496 76.975 C 292.109 76.549,291.164 75.391,290.396 74.401 C 288.154 71.513,287.524 70.764,285.200 68.222 C 281.850 64.558,278.464 61.234,275.604 58.800 C 274.183 57.590,272.774 56.372,272.475 56.094 C 272.176 55.816,271.271 55.097,270.465 54.496 C 269.659 53.896,268.910 53.303,268.800 53.179 C 268.096 52.387,258.155 46.000,257.626 46.000 C 257.428 46.000,257.207 45.864,257.133 45.698 C 257.060 45.532,255.740 44.768,254.200 44.000 C 252.660 43.232,251.340 42.468,251.267 42.302 C 251.193 42.136,250.904 42.000,250.623 42.000 C 250.342 42.000,248.962 41.436,247.556 40.747 C 246.150 40.058,244.595 39.338,244.100 39.147 C 243.605 38.956,242.750 38.620,242.200 38.400 C 241.650 38.180,240.795 37.838,240.300 37.640 C 239.805 37.443,238.770 37.064,238.000 36.800 C 237.230 36.536,236.240 36.178,235.800 36.005 C 235.360 35.833,234.190 35.470,233.200 35.199 C 232.210 34.929,230.950 34.565,230.400 34.392 C 226.647 33.208,218.505 31.664,213.375 31.163 C 208.091 30.647,192.721 30.213,192.363 30.570 M312.800 52.967 C 312.800 53.388,314.005 54.528,314.221 54.312 C 314.322 54.211,314.044 53.802,313.602 53.402 C 313.161 53.003,312.800 52.807,312.800 52.967 M198.200 70.435 C 192.450 70.955,184.866 73.432,180.928 76.077 C 180.008 76.695,179.097 77.200,178.903 77.200 C 178.709 77.200,178.202 77.515,177.775 77.900 C 177.348 78.285,176.279 79.135,175.400 79.789 C 162.583 89.312,154.846 110.714,160.333 121.468 C 166.895 134.331,187.534 129.407,187.591 114.966 C 187.641 101.934,203.466 93.941,211.301 102.990 C 211.972 103.765,212.547 104.874,213.544 107.319 C 214.756 110.291,213.342 115.555,210.514 118.600 C 209.901 119.260,208.055 121.420,206.411 123.400 C 203.773 126.578,200.502 130.433,197.242 134.205 C 196.669 134.868,194.850 137.026,193.200 139.000 C 191.550 140.974,189.728 143.132,189.150 143.795 C 188.573 144.458,185.902 147.610,183.214 150.800 C 180.526 153.990,177.561 157.500,176.625 158.600 C 173.483 162.293,165.816 171.388,164.100 173.459 C 163.165 174.588,162.400 175.711,162.400 175.956 C 162.400 176.200,162.253 176.400,162.074 176.400 C 161.895 176.400,161.375 177.075,160.919 177.900 C 160.463 178.725,159.516 180.434,158.816 181.698 C 155.294 188.052,153.600 194.552,153.310 202.829 L 153.091 209.057 154.389 211.777 C 156.455 216.105,159.481 218.601,164.183 219.853 C 167.022 220.609,233.280 220.620,236.000 219.865 C 250.903 215.728,251.047 195.497,236.200 191.622 C 235.176 191.355,226.066 191.204,210.889 191.202 L 187.178 191.200 190.489 187.279 C 200.448 175.484,202.002 173.652,202.481 173.150 C 202.768 172.847,203.813 171.612,204.802 170.404 C 205.791 169.196,206.988 167.756,207.462 167.204 C 208.330 166.193,216.768 156.241,219.867 152.573 C 221.704 150.399,221.748 150.347,228.969 141.854 C 236.107 133.460,240.800 126.177,240.800 123.494 C 240.800 123.138,240.960 122.748,241.156 122.627 C 241.351 122.506,241.607 121.821,241.723 121.104 C 241.840 120.387,242.216 118.360,242.560 116.600 C 243.280 112.911,243.378 108.174,242.797 105.120 C 241.576 98.694,241.260 97.666,238.921 92.500 C 232.995 79.416,216.442 69.171,202.658 70.055 C 202.186 70.085,200.180 70.256,198.200 70.435 M211.600 71.521 C 212.150 71.739,213.410 72.136,214.400 72.404 C 218.077 73.399,223.405 75.974,225.358 77.700 C 225.794 78.085,226.302 78.400,226.486 78.400 C 228.169 78.400,235.629 87.446,238.032 92.400 C 238.940 94.270,239.843 96.113,240.041 96.495 C 240.238 96.877,240.400 97.541,240.400 97.971 C 240.400 98.401,240.580 98.864,240.800 99.000 C 241.020 99.136,241.200 99.856,241.200 100.600 C 241.200 101.344,241.354 102.048,241.542 102.164 C 242.637 102.841,242.635 117.960,241.540 118.637 C 241.353 118.753,241.200 119.456,241.200 120.200 C 241.200 120.944,241.020 121.664,240.800 121.800 C 240.580 121.936,240.400 122.399,240.400 122.829 C 240.400 123.259,240.227 123.923,240.016 124.305 C 239.805 124.687,239.083 126.170,238.411 127.600 C 237.089 130.413,233.385 135.737,230.221 139.373 C 229.133 140.624,227.971 142.042,227.640 142.524 C 227.309 143.006,226.577 143.850,226.015 144.400 C 225.452 144.950,224.184 146.388,223.196 147.596 C 222.208 148.804,221.013 150.244,220.539 150.796 C 220.065 151.348,218.383 153.330,216.801 155.200 C 215.219 157.070,213.446 159.146,212.862 159.814 C 212.278 160.482,210.992 162.012,210.005 163.214 C 209.019 164.416,208.118 165.490,208.005 165.600 C 207.891 165.710,206.449 167.420,204.799 169.400 C 203.150 171.380,201.620 173.201,201.400 173.447 C 201.180 173.693,200.640 174.327,200.200 174.856 C 199.760 175.385,198.484 176.894,197.364 178.209 C 196.245 179.524,194.985 181.028,194.564 181.550 C 194.144 182.073,193.440 182.884,193.000 183.352 C 192.560 183.820,191.390 185.190,190.400 186.397 C 189.410 187.604,188.150 189.106,187.600 189.734 C 187.050 190.362,186.645 190.994,186.700 191.138 C 186.755 191.282,197.555 191.509,210.700 191.641 C 233.523 191.871,237.330 192.040,237.827 192.844 C 237.948 193.040,238.397 193.200,238.824 193.200 C 239.251 193.200,239.600 193.380,239.600 193.600 C 239.600 193.820,239.835 194.000,240.122 194.000 C 241.070 194.000,244.800 197.906,244.800 198.898 C 244.800 199.579,241.357 202.907,239.865 203.669 C 236.022 205.630,236.805 205.591,200.400 205.591 C 160.681 205.590,161.945 205.713,157.525 201.417 C 154.184 198.171,153.963 196.921,155.681 191.000 C 156.883 186.860,158.984 182.138,160.875 179.328 C 161.494 178.408,162.000 177.463,162.000 177.228 C 162.000 176.993,162.141 176.800,162.314 176.800 C 162.486 176.800,162.943 176.267,163.328 175.615 C 163.713 174.963,164.248 174.198,164.516 173.915 C 164.784 173.632,166.803 171.240,169.002 168.600 C 171.201 165.960,173.092 163.710,173.205 163.600 C 173.319 163.490,174.219 162.416,175.205 161.214 C 176.192 160.012,177.573 158.392,178.273 157.614 C 178.973 156.836,181.734 153.590,184.408 150.400 C 187.082 147.210,189.749 144.054,190.335 143.386 C 190.921 142.718,192.210 141.190,193.200 139.990 C 194.986 137.825,196.625 135.898,197.407 135.044 C 197.630 134.800,199.245 132.890,200.995 130.800 C 202.745 128.710,204.274 126.910,204.394 126.800 C 204.513 126.690,205.418 125.610,206.404 124.400 C 207.390 123.190,208.387 121.998,208.619 121.751 C 208.852 121.503,209.662 120.537,210.421 119.604 C 211.179 118.670,211.980 117.702,212.200 117.453 C 214.096 115.306,215.396 107.463,214.000 106.600 C 213.780 106.464,213.600 106.081,213.600 105.748 C 213.600 104.629,211.124 101.534,209.305 100.381 C 202.753 96.226,192.425 99.765,188.818 107.400 C 188.299 108.500,187.722 109.713,187.537 110.095 C 187.352 110.477,187.194 111.737,187.186 112.895 C 187.130 121.138,182.935 126.475,175.026 128.365 C 170.017 129.562,163.135 125.736,160.385 120.226 C 159.320 118.091,159.045 108.858,159.958 105.869 C 160.171 105.171,160.559 103.790,160.818 102.800 C 161.078 101.810,161.451 100.595,161.646 100.100 C 161.841 99.605,162.157 98.795,162.349 98.300 C 164.795 92.000,170.027 84.905,175.402 80.600 C 176.501 79.720,177.460 78.865,177.533 78.700 C 177.607 78.535,177.849 78.400,178.072 78.400 C 178.294 78.400,179.002 78.026,179.644 77.568 C 181.421 76.304,186.824 73.600,187.575 73.600 C 187.941 73.600,188.411 73.443,188.620 73.251 C 189.049 72.856,195.063 71.310,197.200 71.045 C 199.617 70.745,210.552 71.107,211.600 71.521 M54.688 140.242 C 54.237 140.697,54.374 158.800,54.827 158.800 C 55.032 158.800,55.200 160.319,55.200 162.176 C 55.200 164.033,55.380 165.664,55.600 165.800 C 55.820 165.936,56.000 167.016,56.000 168.200 C 56.000 169.384,56.180 170.464,56.400 170.600 C 56.620 170.736,56.800 171.827,56.800 173.024 C 56.800 174.221,56.980 175.200,57.200 175.200 C 57.420 175.200,57.600 175.920,57.600 176.800 C 57.600 177.680,57.780 178.400,58.000 178.400 C 58.220 178.400,58.400 179.120,58.400 180.000 C 58.400 180.880,58.541 181.600,58.713 181.600 C 58.885 181.600,59.066 182.087,59.115 182.682 C 59.230 184.073,60.351 188.392,60.831 189.295 C 61.034 189.677,61.200 190.264,61.200 190.600 C 61.200 190.936,61.362 191.523,61.561 191.905 C 61.760 192.287,62.148 193.365,62.425 194.300 C 62.702 195.235,63.079 196.000,63.264 196.000 C 63.449 196.000,63.600 196.529,63.600 197.176 C 63.600 197.823,63.780 198.464,64.000 198.600 C 64.220 198.736,64.400 199.197,64.400 199.624 C 64.400 200.051,64.580 200.400,64.800 200.400 C 65.020 200.400,65.199 200.715,65.199 201.100 C 65.197 201.753,68.520 208.963,69.853 211.200 C 70.181 211.750,70.549 212.515,70.671 212.900 C 70.793 213.285,71.052 213.600,71.247 213.600 C 71.441 213.600,71.600 213.960,71.600 214.400 C 71.600 214.840,71.780 215.200,72.000 215.200 C 72.220 215.200,72.400 215.560,72.400 216.000 C 72.400 216.440,72.546 216.800,72.725 216.800 C 72.904 216.800,73.298 217.430,73.600 218.200 C 73.902 218.970,74.296 219.600,74.475 219.600 C 74.654 219.600,74.800 219.870,74.800 220.200 C 74.800 220.530,74.980 220.800,75.200 220.800 C 75.420 220.800,75.600 220.999,75.600 221.242 C 75.600 221.485,76.140 222.484,76.800 223.462 C 77.460 224.440,78.000 225.333,78.000 225.447 C 78.000 225.560,78.450 226.243,79.000 226.964 C 79.550 227.686,80.000 228.402,80.000 228.556 C 80.000 228.710,80.450 229.286,81.000 229.836 C 81.550 230.386,82.000 230.995,82.000 231.190 C 82.000 231.384,82.231 231.781,82.513 232.071 C 82.795 232.362,83.463 233.230,83.998 234.000 C 84.532 234.770,85.471 235.877,86.085 236.460 C 86.698 237.044,87.200 237.640,87.200 237.786 C 87.200 237.932,88.100 238.929,89.200 240.000 C 90.300 241.071,91.200 242.136,91.200 242.365 C 91.200 242.812,100.478 252.241,102.800 254.153 C 103.570 254.787,105.119 256.092,106.243 257.053 C 107.367 258.014,108.452 258.800,108.655 258.800 C 108.858 258.800,109.283 259.160,109.600 259.600 C 109.917 260.040,110.452 260.403,110.788 260.406 C 111.587 260.414,112.017 260.675,119.045 265.426 C 132.190 274.311,143.622 279.684,160.200 284.765 C 162.413 285.443,169.971 287.237,172.298 287.636 C 184.093 289.659,189.231 290.120,200.000 290.120 C 214.182 290.120,228.367 288.215,239.800 284.776 C 242.418 283.989,251.047 281.147,251.800 280.824 C 252.240 280.636,253.230 280.208,254.000 279.874 C 254.770 279.539,256.210 278.946,257.200 278.555 C 264.227 275.782,275.844 269.240,284.054 263.433 C 285.894 262.132,287.940 260.872,288.600 260.633 C 289.637 260.259,291.977 258.700,293.454 257.400 C 293.704 257.180,295.051 256.010,296.447 254.800 C 300.481 251.304,303.280 248.695,304.381 247.406 C 304.941 246.749,306.165 245.418,307.100 244.448 C 308.035 243.478,308.800 242.529,308.800 242.340 C 308.800 242.151,309.700 241.115,310.800 240.038 C 311.900 238.961,312.800 237.965,312.800 237.826 C 312.800 237.687,313.430 236.943,314.200 236.173 C 314.970 235.403,315.600 234.627,315.600 234.448 C 315.600 234.269,315.915 233.750,316.300 233.295 C 318.149 231.109,318.400 230.765,318.400 230.418 C 318.400 230.213,318.715 229.810,319.100 229.523 C 319.485 229.235,320.055 228.505,320.368 227.900 C 320.680 227.295,321.095 226.800,321.291 226.800 C 321.487 226.800,321.550 226.643,321.432 226.452 C 321.314 226.261,321.653 225.597,322.186 224.976 C 322.719 224.356,323.481 223.208,323.878 222.424 C 324.275 221.641,324.735 220.940,324.900 220.867 C 325.065 220.793,325.200 220.478,325.200 220.167 C 325.200 219.855,325.380 219.600,325.600 219.600 C 325.820 219.600,326.000 219.330,326.000 219.000 C 326.000 218.670,326.180 218.400,326.400 218.400 C 326.620 218.400,326.800 218.040,326.800 217.600 C 326.800 217.160,326.980 216.800,327.200 216.800 C 327.420 216.800,327.600 216.440,327.600 216.000 C 327.600 215.560,327.780 215.200,328.000 215.200 C 328.220 215.200,328.400 214.840,328.400 214.400 C 328.400 213.960,328.580 213.600,328.800 213.600 C 329.020 213.600,329.200 213.240,329.200 212.800 C 329.200 212.360,329.335 212.000,329.501 212.000 C 329.666 212.000,330.182 211.235,330.647 210.300 C 333.694 204.176,334.806 201.714,334.803 201.100 C 334.801 200.715,334.936 200.400,335.103 200.400 C 335.439 200.400,336.400 197.571,336.400 196.583 C 336.400 196.236,336.580 196.064,336.800 196.200 C 337.023 196.338,337.200 196.031,337.200 195.504 C 337.200 194.985,337.349 194.389,337.530 194.180 C 337.712 193.971,338.093 192.990,338.378 192.000 C 338.662 191.010,338.992 189.930,339.112 189.600 C 339.383 188.855,340.716 184.285,341.212 182.400 C 341.415 181.630,341.585 180.415,341.590 179.700 C 341.596 178.985,341.780 178.400,342.000 178.400 C 342.220 178.400,342.400 177.680,342.400 176.800 C 342.400 175.920,342.564 175.200,342.764 175.200 C 342.965 175.200,343.235 174.120,343.364 172.800 C 343.494 171.480,343.706 169.320,343.836 168.000 C 343.965 166.680,344.235 165.600,344.436 165.600 C 344.636 165.600,344.800 164.081,344.800 162.224 C 344.800 160.367,344.980 158.736,345.200 158.600 C 345.668 158.311,345.766 140.400,345.300 140.401 C 345.135 140.401,344.590 143.686,344.089 147.701 C 340.743 174.514,331.193 197.932,314.934 219.191 C 297.171 242.416,268.122 262.445,241.800 269.614 C 207.815 278.870,175.111 277.364,145.800 265.194 C 145.360 265.012,144.190 264.538,143.200 264.141 C 118.915 254.409,94.026 233.560,78.568 210.000 C 65.591 190.220,58.387 169.612,55.449 143.863 C 55.202 141.698,54.860 140.068,54.688 140.242 M307.919 183.086 C 307.104 185.442,306.515 187.448,306.609 187.542 C 306.704 187.637,306.892 187.374,307.027 186.957 C 307.346 185.974,308.000 184.383,308.447 183.505 C 308.641 183.123,308.800 182.484,308.800 182.085 C 308.800 181.686,308.995 181.165,309.234 180.926 C 309.472 180.688,309.607 180.112,309.534 179.647 C 309.454 179.144,308.800 180.536,307.919 183.086 M92.000 184.139 C 92.000 184.790,92.157 185.199,93.138 187.095 C 93.392 187.587,93.600 188.183,93.600 188.420 C 93.600 189.782,99.995 202.270,102.832 206.447 C 103.694 207.717,104.400 208.946,104.400 209.178 C 104.400 209.410,104.538 209.600,104.706 209.600 C 104.874 209.600,105.456 210.320,106.000 211.200 C 106.544 212.080,107.126 212.800,107.294 212.800 C 107.462 212.800,107.601 213.025,107.602 213.300 C 107.603 213.575,108.105 214.340,108.718 215.000 C 109.331 215.660,110.095 216.579,110.416 217.043 C 114.355 222.727,124.572 232.448,132.946 238.479 C 134.076 239.293,135.189 240.103,135.420 240.279 C 135.652 240.456,136.237 240.825,136.720 241.100 C 137.204 241.375,137.996 241.825,138.480 242.100 C 138.963 242.375,139.717 242.915,140.155 243.300 C 140.593 243.685,141.187 244.000,141.475 244.000 C 141.764 244.000,142.000 244.180,142.000 244.400 C 142.000 244.620,142.360 244.800,142.800 244.800 C 143.240 244.800,143.600 244.946,143.600 245.125 C 143.600 245.623,156.588 252.000,157.601 252.000 C 157.809 252.000,158.748 252.350,159.689 252.779 C 162.070 253.863,170.327 256.406,171.354 256.371 C 172.147 256.345,171.353 256.055,164.800 253.978 C 132.962 243.889,106.094 218.770,93.798 187.600 C 92.161 183.449,92.000 183.139,92.000 184.139 M305.440 189.670 C 292.578 219.748,263.356 246.587,235.400 253.999 C 234.740 254.174,233.210 254.626,232.000 255.005 C 227.614 256.377,227.722 256.334,228.611 256.368 C 229.421 256.400,237.795 253.891,241.200 252.596 C 246.166 250.708,257.606 245.036,257.933 244.300 C 258.007 244.135,258.226 244.000,258.420 244.000 C 258.716 244.000,261.383 242.388,264.549 240.295 C 274.032 234.027,291.418 217.159,292.329 213.341 C 292.400 213.044,292.583 212.800,292.735 212.800 C 292.887 212.800,293.456 212.080,294.000 211.200 C 294.544 210.320,295.126 209.600,295.294 209.600 C 295.462 209.600,295.600 209.364,295.600 209.075 C 295.600 208.787,295.960 208.164,296.400 207.692 C 296.840 207.220,297.200 206.719,297.200 206.578 C 297.200 206.438,297.539 205.846,297.953 205.262 C 300.336 201.900,306.602 189.207,306.310 188.331 C 306.239 188.116,305.847 188.719,305.440 189.670 M172.800 256.800 C 173.130 257.013,173.940 257.178,174.600 257.166 C 175.630 257.147,175.687 257.095,175.000 256.800 C 173.824 256.294,172.018 256.294,172.800 256.800 M225.200 256.800 C 224.302 257.088,224.350 257.124,225.676 257.160 C 226.488 257.182,227.264 257.020,227.400 256.800 C 227.686 256.337,226.645 256.337,225.200 256.800 M176.200 257.600 C 176.336 257.820,177.202 257.979,178.124 257.953 C 179.707 257.908,179.733 257.888,178.600 257.600 C 176.825 257.148,175.921 257.148,176.200 257.600 M221.400 257.600 C 220.267 257.888,220.293 257.908,221.876 257.953 C 222.798 257.979,223.664 257.820,223.800 257.600 C 224.079 257.148,223.175 257.148,221.400 257.600 M180.596 258.393 C 180.734 258.617,181.857 258.800,183.090 258.800 C 185.876 258.800,185.719 258.592,182.672 258.249 C 181.133 258.075,180.430 258.124,180.596 258.393 M216.400 258.400 L 214.600 258.680 216.800 258.734 C 218.010 258.763,219.270 258.613,219.600 258.400 C 220.302 257.946,219.318 257.946,216.400 258.400 M186.202 259.203 C 186.337 259.421,188.087 259.600,190.090 259.600 C 192.094 259.600,193.658 259.535,193.567 259.456 C 193.135 259.082,185.975 258.836,186.202 259.203 M209.000 259.200 L 206.200 259.459 209.800 259.523 C 211.780 259.559,213.670 259.413,214.000 259.200 C 214.673 258.765,213.709 258.765,209.000 259.200 M196.200 260.023 C 197.080 260.205,198.790 260.354,200.000 260.354 C 201.210 260.354,202.920 260.205,203.800 260.023 C 204.947 259.786,203.871 259.692,200.000 259.692 C 196.129 259.692,195.053 259.786,196.200 260.023 " stroke="none" fill="#cccccb" fill-rule="evenodd"></path></g></svg>