<svg id="svg" version="1.1" xmlns="http://www.w3.org/2000/svg" xmlns:xlink="http://www.w3.org/1999/xlink" width="400" height="400" viewBox="0, 0, 400,400"><g id="svgg"><path id="path0" d="M110.111 261.300 C 109.484 262.632,108.400 266.383,108.400 267.222 C 108.400 267.624,108.220 268.064,108.000 268.200 C 107.780 268.336,107.600 268.797,107.600 269.224 C 107.600 269.651,107.420 270.000,107.200 270.000 C 106.980 270.000,106.800 270.540,106.800 271.200 C 106.800 271.860,106.620 272.400,106.400 272.400 C 106.180 272.400,106.000 272.940,106.000 273.600 C 106.000 274.260,105.820 274.800,105.600 274.800 C 105.380 274.800,105.200 275.239,105.200 275.776 C 105.200 276.313,105.020 276.864,104.800 277.000 C 104.580 277.136,104.400 277.687,104.400 278.224 C 104.400 278.761,104.220 279.200,104.000 279.200 C 103.780 279.200,103.600 279.740,103.600 280.400 C 103.600 281.060,103.420 281.600,103.200 281.600 C 102.980 281.600,102.800 282.140,102.800 282.800 C 102.800 283.460,102.620 284.000,102.400 284.000 C 102.180 284.000,102.000 284.362,102.000 284.805 C 102.000 285.583,101.858 285.969,100.862 287.895 C 100.608 288.387,100.400 289.152,100.400 289.595 C 100.400 290.038,100.220 290.400,100.000 290.400 C 99.780 290.400,99.600 290.940,99.600 291.600 C 99.600 292.260,99.420 292.800,99.200 292.800 C 98.980 292.800,98.800 293.239,98.800 293.776 C 98.800 294.313,98.620 294.864,98.400 295.000 C 98.180 295.136,98.000 295.687,98.000 296.224 C 98.000 296.761,97.820 297.200,97.600 297.200 C 97.380 297.200,97.200 297.740,97.200 298.400 C 97.200 299.060,97.020 299.600,96.800 299.600 C 96.580 299.600,96.400 300.052,96.400 300.605 C 96.400 301.158,96.233 301.923,96.029 302.305 C 95.825 302.687,95.526 303.360,95.365 303.800 C 93.521 308.820,92.676 311.301,92.276 312.867 C 92.014 313.894,91.665 314.869,91.500 315.034 C 91.335 315.198,91.200 315.843,91.200 316.467 C 91.200 317.090,91.020 317.600,90.800 317.600 C 90.580 317.600,90.400 318.140,90.400 318.800 C 90.400 319.460,90.220 320.000,90.000 320.000 C 89.780 320.000,89.600 320.349,89.600 320.776 C 89.600 321.203,89.420 321.664,89.200 321.800 C 88.980 321.936,88.800 322.487,88.800 323.024 C 88.800 323.561,88.620 324.000,88.400 324.000 C 88.180 324.000,88.000 324.540,88.000 325.200 C 88.000 325.860,87.820 326.400,87.600 326.400 C 87.380 326.400,87.200 326.850,87.200 327.400 C 87.200 327.950,87.020 328.400,86.800 328.400 C 86.580 328.400,86.400 328.940,86.400 329.600 C 86.400 330.260,86.220 330.800,86.000 330.800 C 85.780 330.800,85.600 331.340,85.600 332.000 C 85.600 332.660,85.420 333.200,85.200 333.200 C 84.980 333.200,84.800 333.740,84.800 334.400 C 84.800 335.060,84.620 335.600,84.400 335.600 C 84.180 335.600,84.000 336.140,84.000 336.800 C 84.000 337.460,83.853 338.000,83.672 338.000 C 83.492 338.000,83.100 338.900,82.800 340.000 C 82.500 341.100,82.108 342.000,81.928 342.000 C 81.747 342.000,81.600 342.439,81.600 342.976 C 81.600 343.513,81.420 344.064,81.200 344.200 C 80.980 344.336,80.800 344.876,80.800 345.400 C 80.800 345.924,80.620 346.464,80.400 346.600 C 80.180 346.736,80.000 347.287,80.000 347.824 C 80.000 348.361,79.820 348.800,79.600 348.800 C 79.380 348.800,79.200 349.340,79.200 350.000 C 79.200 350.660,79.020 351.200,78.800 351.200 C 78.580 351.200,78.400 351.740,78.400 352.400 C 78.400 353.060,78.220 353.600,78.000 353.600 C 77.780 353.600,77.600 354.125,77.600 354.767 C 77.600 355.408,77.422 355.993,77.203 356.067 C 76.985 356.140,76.766 356.695,76.716 357.300 C 76.666 357.905,76.455 358.400,76.246 358.400 C 76.037 358.400,75.971 358.505,76.099 358.633 C 76.227 358.760,75.991 359.615,75.575 360.533 C 75.158 361.450,74.814 362.695,74.809 363.300 C 74.804 363.905,74.620 364.400,74.400 364.400 C 74.169 364.400,74.000 365.673,74.000 367.418 C 74.000 370.650,74.949 372.400,76.702 372.400 C 77.108 372.400,77.656 372.616,77.920 372.880 C 78.293 373.253,78.507 373.253,78.880 372.880 C 79.183 372.577,80.702 372.400,83.000 372.400 C 85.002 372.400,86.811 372.233,87.020 372.028 C 87.376 371.680,89.039 371.523,98.300 370.967 C 100.335 370.845,102.000 370.577,102.000 370.373 C 102.000 370.168,103.609 370.000,105.576 370.000 C 107.543 370.000,109.264 369.820,109.400 369.600 C 109.536 369.380,111.257 369.200,113.224 369.200 C 115.341 369.200,116.800 369.037,116.800 368.800 C 116.800 368.565,118.182 368.400,120.145 368.400 L 123.490 368.400 130.273 375.100 C 134.004 378.785,138.361 382.925,139.956 384.300 C 141.552 385.675,142.733 386.800,142.581 386.800 C 142.430 386.800,143.423 387.835,144.789 389.100 C 146.154 390.365,149.241 393.335,151.649 395.700 L 156.026 400.000 158.952 400.000 C 162.273 400.000,163.600 399.273,163.600 397.453 C 163.600 396.874,163.780 396.400,164.000 396.400 C 164.220 396.400,164.400 395.860,164.400 395.200 C 164.400 394.540,164.580 394.000,164.800 394.000 C 165.020 394.000,165.200 393.460,165.200 392.800 C 165.200 392.140,165.380 391.600,165.600 391.600 C 165.820 391.600,166.000 391.150,166.000 390.600 C 166.000 390.050,166.180 389.600,166.400 389.600 C 166.620 389.600,166.800 389.238,166.800 388.795 C 166.800 388.352,166.980 387.632,167.200 387.195 C 167.420 386.758,167.780 386.042,168.000 385.605 C 168.220 385.168,168.400 384.448,168.400 384.005 C 168.400 383.562,168.580 383.200,168.800 383.200 C 169.020 383.200,169.200 382.660,169.200 382.000 C 169.200 381.340,169.380 380.800,169.600 380.800 C 169.820 380.800,170.000 380.260,170.000 379.600 C 170.000 378.940,170.180 378.400,170.400 378.400 C 170.620 378.400,170.800 377.860,170.800 377.200 C 170.800 376.540,170.980 376.000,171.200 376.000 C 171.420 376.000,171.600 375.561,171.600 375.024 C 171.600 374.487,171.780 373.936,172.000 373.800 C 172.220 373.664,172.400 373.201,172.400 372.771 C 172.400 372.341,172.559 371.677,172.753 371.295 C 173.962 368.919,175.200 365.119,175.200 363.786 C 175.200 363.244,175.380 362.800,175.600 362.800 C 175.820 362.800,176.000 362.260,176.000 361.600 C 176.000 360.940,176.180 360.400,176.400 360.400 C 176.620 360.400,176.800 359.950,176.800 359.400 C 176.800 358.850,176.980 358.400,177.200 358.400 C 177.420 358.400,177.600 357.860,177.600 357.200 C 177.600 356.540,177.780 356.000,178.000 356.000 C 178.220 356.000,178.400 355.638,178.400 355.195 C 178.400 354.752,178.580 354.032,178.800 353.595 C 179.020 353.158,179.380 352.442,179.600 352.005 C 179.820 351.568,180.000 350.848,180.000 350.405 C 180.000 349.962,180.180 349.600,180.400 349.600 C 180.620 349.600,180.800 349.060,180.800 348.400 C 180.800 347.740,180.980 347.200,181.200 347.200 C 181.420 347.200,181.600 346.660,181.600 346.000 C 181.600 345.340,181.780 344.800,182.000 344.800 C 182.220 344.800,182.400 344.260,182.400 343.600 C 182.400 342.940,182.580 342.400,182.800 342.400 C 183.020 342.400,183.200 341.961,183.200 341.424 C 183.200 340.887,183.380 340.336,183.600 340.200 C 183.820 340.064,184.000 339.513,184.000 338.976 C 184.000 338.439,184.180 338.000,184.400 338.000 C 184.620 338.000,184.800 337.460,184.800 336.800 C 184.800 336.140,184.947 335.600,185.128 335.600 C 185.308 335.600,185.704 334.689,186.007 333.575 C 186.310 332.461,186.703 331.460,186.879 331.351 C 187.056 331.242,187.200 330.713,187.200 330.176 C 187.200 329.639,187.380 329.200,187.600 329.200 C 187.820 329.200,188.000 328.660,188.000 328.000 C 188.000 327.340,188.180 326.800,188.400 326.800 C 188.620 326.800,188.800 326.361,188.800 325.824 C 188.800 325.287,188.980 324.736,189.200 324.600 C 189.420 324.464,189.600 323.924,189.600 323.400 C 189.600 322.876,189.780 322.336,190.000 322.200 C 190.220 322.064,190.400 321.524,190.400 321.000 C 190.400 320.476,190.559 319.949,190.754 319.829 C 190.948 319.708,191.229 318.798,191.378 317.805 C 191.527 316.812,191.818 316.000,192.025 316.000 C 192.231 316.000,192.400 315.460,192.400 314.800 C 192.400 314.140,192.580 313.600,192.800 313.600 C 193.020 313.600,193.200 313.060,193.200 312.400 C 193.200 311.740,193.380 311.200,193.600 311.200 C 193.820 311.200,194.000 310.660,194.000 310.000 C 194.000 309.340,194.180 308.800,194.400 308.800 C 194.620 308.800,194.800 308.350,194.800 307.800 C 194.800 307.250,194.980 306.800,195.200 306.800 C 195.420 306.800,195.600 306.260,195.600 305.600 C 195.600 304.940,195.780 304.400,196.000 304.400 C 196.220 304.400,196.400 303.860,196.400 303.200 C 196.400 302.540,196.580 302.000,196.800 302.000 C 197.020 302.000,197.200 301.638,197.200 301.195 C 197.200 300.752,197.380 300.032,197.600 299.595 C 197.820 299.158,198.180 298.442,198.400 298.005 C 198.620 297.568,198.800 296.848,198.800 296.405 C 198.800 295.962,198.980 295.600,199.200 295.600 C 199.420 295.600,199.600 295.060,199.600 294.400 C 199.600 293.740,199.780 293.200,200.000 293.200 C 200.220 293.200,200.400 293.740,200.400 294.400 C 200.400 295.060,200.580 295.600,200.800 295.600 C 201.020 295.600,201.200 295.962,201.200 296.405 C 201.200 296.848,201.380 297.568,201.600 298.005 C 201.820 298.442,202.180 299.158,202.400 299.595 C 202.620 300.032,202.800 300.752,202.800 301.195 C 202.800 301.638,202.980 302.000,203.200 302.000 C 203.420 302.000,203.600 302.540,203.600 303.200 C 203.600 303.860,203.780 304.400,204.000 304.400 C 204.220 304.400,204.400 304.940,204.400 305.600 C 204.400 306.260,204.580 306.800,204.800 306.800 C 205.020 306.800,205.200 307.250,205.200 307.800 C 205.200 308.350,205.380 308.800,205.600 308.800 C 205.820 308.800,206.000 309.340,206.000 310.000 C 206.000 310.660,206.180 311.200,206.400 311.200 C 206.620 311.200,206.800 311.740,206.800 312.400 C 206.800 313.060,206.980 313.600,207.200 313.600 C 207.420 313.600,207.600 314.140,207.600 314.800 C 207.600 315.460,207.757 316.000,207.950 316.000 C 208.291 316.000,208.974 318.260,208.839 318.942 C 208.802 319.130,208.955 319.504,209.178 319.773 C 209.401 320.043,209.643 320.649,209.715 321.121 C 209.787 321.593,209.971 322.104,210.123 322.256 C 210.275 322.409,210.400 322.953,210.400 323.467 C 210.400 323.980,210.580 324.400,210.800 324.400 C 211.020 324.400,211.200 324.940,211.200 325.600 C 211.200 326.260,211.380 326.800,211.600 326.800 C 211.820 326.800,212.000 327.340,212.000 328.000 C 212.000 328.660,212.180 329.200,212.400 329.200 C 212.620 329.200,212.800 329.562,212.800 330.005 C 212.800 330.448,212.980 331.168,213.200 331.605 C 213.420 332.042,213.780 332.758,214.000 333.195 C 214.220 333.632,214.400 334.352,214.400 334.795 C 214.400 335.238,214.580 335.600,214.800 335.600 C 215.020 335.600,215.200 336.140,215.200 336.800 C 215.200 337.460,215.380 338.000,215.600 338.000 C 215.820 338.000,216.000 338.439,216.000 338.976 C 216.000 339.513,216.180 340.064,216.400 340.200 C 216.620 340.336,216.800 340.887,216.800 341.424 C 216.800 341.961,216.980 342.400,217.200 342.400 C 217.420 342.400,217.600 342.940,217.600 343.600 C 217.600 344.260,217.780 344.800,218.000 344.800 C 218.220 344.800,218.400 345.340,218.400 346.000 C 218.400 346.660,218.580 347.200,218.800 347.200 C 219.020 347.200,219.200 347.740,219.200 348.400 C 219.200 349.060,219.380 349.600,219.600 349.600 C 219.820 349.600,220.000 349.962,220.000 350.405 C 220.000 350.848,220.180 351.568,220.400 352.005 C 220.620 352.442,220.980 353.158,221.200 353.595 C 221.420 354.032,221.600 354.752,221.600 355.195 C 221.600 355.638,221.780 356.000,222.000 356.000 C 222.220 356.000,222.400 356.439,222.400 356.976 C 222.400 357.513,222.580 358.064,222.800 358.200 C 223.020 358.336,223.200 358.887,223.200 359.424 C 223.200 359.961,223.380 360.400,223.600 360.400 C 223.820 360.400,224.000 360.940,224.000 361.600 C 224.000 362.260,224.180 362.800,224.400 362.800 C 224.620 362.800,224.800 363.258,224.800 363.817 C 224.800 364.377,225.430 366.517,226.200 368.573 C 226.970 370.629,227.600 372.590,227.600 372.932 C 227.600 373.273,227.780 373.664,228.000 373.800 C 228.220 373.936,228.400 374.487,228.400 375.024 C 228.400 375.561,228.580 376.000,228.800 376.000 C 229.020 376.000,229.200 376.540,229.200 377.200 C 229.200 377.860,229.380 378.400,229.600 378.400 C 229.820 378.400,230.000 378.940,230.000 379.600 C 230.000 380.260,230.180 380.800,230.400 380.800 C 230.620 380.800,230.800 381.239,230.800 381.776 C 230.800 382.313,230.980 382.864,231.200 383.000 C 231.420 383.136,231.600 383.599,231.600 384.029 C 231.600 384.784,231.744 385.174,232.738 387.095 C 232.992 387.587,233.200 388.352,233.200 388.795 C 233.200 389.238,233.380 389.600,233.600 389.600 C 233.820 389.600,234.000 390.050,234.000 390.600 C 234.000 391.150,234.180 391.600,234.400 391.600 C 234.620 391.600,234.800 392.140,234.800 392.800 C 234.800 393.460,234.980 394.000,235.200 394.000 C 235.420 394.000,235.600 394.540,235.600 395.200 C 235.600 395.860,235.780 396.400,236.000 396.400 C 236.220 396.400,236.400 396.874,236.400 397.453 C 236.400 399.273,237.727 400.000,241.048 400.000 L 243.974 400.000 248.373 395.700 C 250.793 393.335,254.861 389.420,257.413 387.000 C 259.965 384.580,265.317 379.405,269.307 375.500 L 276.559 368.400 279.880 368.400 C 281.827 368.400,283.200 368.565,283.200 368.800 C 283.200 369.040,284.800 369.200,287.200 369.200 C 289.600 369.200,291.200 369.360,291.200 369.600 C 291.200 369.835,292.573 370.000,294.520 370.000 C 296.346 370.000,298.011 370.167,298.220 370.372 C 298.429 370.576,300.175 370.846,302.100 370.972 C 304.025 371.097,307.175 371.303,309.100 371.428 C 311.025 371.554,312.771 371.824,312.980 372.028 C 313.189 372.233,314.998 372.400,317.000 372.400 C 319.298 372.400,320.817 372.577,321.120 372.880 C 321.493 373.253,321.707 373.253,322.080 372.880 C 322.344 372.616,322.942 372.400,323.408 372.400 C 325.116 372.400,326.000 370.693,326.000 367.397 C 326.000 365.666,325.831 364.400,325.600 364.400 C 325.380 364.400,325.199 363.995,325.197 363.500 C 325.194 362.557,323.114 356.181,322.662 355.728 C 322.518 355.584,322.400 355.047,322.400 354.533 C 322.400 354.020,322.220 353.600,322.000 353.600 C 321.780 353.600,321.600 353.060,321.600 352.400 C 321.600 351.740,321.420 351.200,321.200 351.200 C 320.980 351.200,320.800 350.660,320.800 350.000 C 320.800 349.340,320.620 348.800,320.400 348.800 C 320.180 348.800,320.000 348.361,320.000 347.824 C 320.000 347.287,319.820 346.736,319.600 346.600 C 319.380 346.464,319.200 345.924,319.200 345.400 C 319.200 344.876,319.020 344.336,318.800 344.200 C 318.580 344.064,318.400 343.513,318.400 342.976 C 318.400 342.439,318.220 342.000,318.000 342.000 C 317.780 342.000,317.600 341.638,317.600 341.195 C 317.600 340.752,317.392 339.987,317.138 339.495 C 316.142 337.569,316.000 337.183,316.000 336.405 C 316.000 335.962,315.820 335.600,315.600 335.600 C 315.380 335.600,315.200 335.060,315.200 334.400 C 315.200 333.740,315.020 333.200,314.800 333.200 C 314.580 333.200,314.400 332.660,314.400 332.000 C 314.400 331.340,314.220 330.800,314.000 330.800 C 313.780 330.800,313.600 330.260,313.600 329.600 C 313.600 328.940,313.420 328.400,313.200 328.400 C 312.980 328.400,312.800 327.950,312.800 327.400 C 312.800 326.850,312.620 326.400,312.400 326.400 C 312.180 326.400,312.000 325.860,312.000 325.200 C 312.000 324.540,311.820 324.000,311.600 324.000 C 311.380 324.000,311.200 323.460,311.200 322.800 C 311.200 322.140,311.020 321.600,310.800 321.600 C 310.580 321.600,310.400 321.240,310.400 320.800 C 310.400 320.360,310.220 320.000,310.000 320.000 C 309.780 320.000,309.600 319.460,309.600 318.800 C 309.600 318.140,309.420 317.600,309.200 317.600 C 308.980 317.600,308.800 317.154,308.800 316.608 C 308.800 315.693,307.236 310.453,306.410 308.600 C 306.213 308.160,305.824 307.080,305.545 306.200 C 305.265 305.320,304.893 304.429,304.718 304.220 C 304.543 304.011,304.400 303.426,304.400 302.920 C 304.400 302.414,304.220 302.000,304.000 302.000 C 303.780 302.000,303.600 301.460,303.600 300.800 C 303.600 300.140,303.420 299.600,303.200 299.600 C 302.980 299.600,302.800 299.060,302.800 298.400 C 302.800 297.740,302.620 297.200,302.400 297.200 C 302.180 297.200,302.000 296.761,302.000 296.224 C 302.000 295.687,301.820 295.136,301.600 295.000 C 301.380 294.864,301.200 294.313,301.200 293.776 C 301.200 293.239,301.020 292.800,300.800 292.800 C 300.580 292.800,300.400 292.260,300.400 291.600 C 300.400 290.940,300.220 290.400,300.000 290.400 C 299.780 290.400,299.600 289.961,299.600 289.424 C 299.600 288.887,299.456 288.358,299.279 288.249 C 299.103 288.140,298.710 287.139,298.407 286.025 C 298.104 284.911,297.708 284.000,297.528 284.000 C 297.347 284.000,297.200 283.460,297.200 282.800 C 297.200 282.140,297.020 281.600,296.800 281.600 C 296.580 281.600,296.400 281.060,296.400 280.400 C 296.400 279.740,296.220 279.200,296.000 279.200 C 295.780 279.200,295.600 278.761,295.600 278.224 C 295.600 277.687,295.420 277.136,295.200 277.000 C 294.980 276.864,294.800 276.313,294.800 275.776 C 294.800 275.239,294.620 274.800,294.400 274.800 C 294.180 274.800,294.000 274.260,294.000 273.600 C 294.000 272.940,293.820 272.400,293.600 272.400 C 293.380 272.400,293.200 271.860,293.200 271.200 C 293.200 270.540,293.020 270.000,292.800 270.000 C 292.580 270.000,292.400 269.651,292.400 269.224 C 292.400 268.797,292.237 268.346,292.037 268.223 C 291.838 268.100,291.551 267.100,291.400 266.000 C 291.249 264.900,290.962 263.900,290.763 263.777 C 290.563 263.654,290.394 263.158,290.387 262.676 C 290.370 261.464,289.382 260.245,288.727 260.627 C 288.437 260.795,285.950 262.505,283.200 264.426 C 280.450 266.347,277.514 268.300,276.674 268.767 C 275.835 269.233,274.694 269.913,274.138 270.277 C 272.273 271.500,270.633 272.369,263.800 275.758 C 249.712 282.745,234.613 287.365,220.000 289.161 C 218.350 289.364,216.550 289.625,216.000 289.740 C 211.963 290.589,198.593 290.841,190.800 290.215 C 179.030 289.270,179.731 289.356,172.600 287.987 C 153.945 284.408,137.767 277.831,120.020 266.614 C 119.041 265.996,116.658 264.344,114.724 262.945 C 110.766 260.081,110.697 260.057,110.111 261.300 " stroke="none" fill="#fc3f4f" fill-rule="evenodd"></path><path id="path1" d="M185.163 0.170 C 185.070 0.264,183.645 0.378,181.997 0.425 C 180.348 0.472,178.820 0.646,178.600 0.812 C 178.221 1.098,176.809 1.326,172.200 1.848 C 171.100 1.972,170.029 2.237,169.820 2.437 C 169.611 2.637,168.846 2.800,168.120 2.800 C 167.394 2.800,166.800 2.980,166.800 3.200 C 166.800 3.420,165.990 3.600,165.000 3.600 C 164.010 3.600,163.200 3.780,163.200 4.000 C 163.200 4.220,162.581 4.400,161.824 4.400 C 161.067 4.400,160.336 4.580,160.200 4.800 C 160.064 5.020,159.423 5.200,158.776 5.200 C 158.129 5.200,157.600 5.380,157.600 5.600 C 157.600 5.820,157.060 6.000,156.400 6.000 C 155.740 6.000,155.200 6.180,155.200 6.400 C 155.200 6.620,154.660 6.800,154.000 6.800 C 153.340 6.800,152.800 6.980,152.800 7.200 C 152.800 7.420,152.260 7.600,151.600 7.600 C 150.940 7.600,150.400 7.780,150.400 8.000 C 150.400 8.220,149.860 8.400,149.200 8.400 C 148.540 8.400,148.000 8.569,148.000 8.775 C 148.000 8.982,147.190 9.272,146.200 9.421 C 145.210 9.569,144.400 9.843,144.400 10.029 C 144.400 10.216,143.635 10.588,142.700 10.857 C 141.765 11.125,140.522 11.673,139.938 12.073 C 139.354 12.473,138.738 12.800,138.569 12.800 C 137.973 12.800,129.789 16.995,129.025 17.693 C 128.598 18.082,127.912 18.400,127.501 18.400 C 127.089 18.400,126.864 18.580,127.000 18.800 C 127.136 19.020,126.877 19.200,126.424 19.200 C 125.971 19.200,125.600 19.380,125.600 19.600 C 125.600 19.820,125.330 20.000,125.000 20.000 C 124.670 20.000,124.400 20.180,124.400 20.400 C 124.400 20.620,124.130 20.800,123.800 20.800 C 123.470 20.800,123.199 20.935,123.197 21.100 C 123.193 21.465,121.251 22.400,120.497 22.400 C 120.198 22.400,120.064 22.580,120.200 22.800 C 120.336 23.020,120.167 23.200,119.824 23.200 C 119.481 23.200,119.200 23.368,119.200 23.573 C 119.200 23.778,118.834 24.062,118.387 24.204 C 117.940 24.346,117.138 24.898,116.605 25.431 C 116.072 25.964,115.461 26.400,115.247 26.400 C 115.032 26.400,114.619 26.631,114.329 26.914 C 114.038 27.197,112.918 28.052,111.839 28.814 C 109.695 30.330,108.487 31.324,105.662 33.896 C 104.638 34.828,103.575 35.593,103.300 35.596 C 103.025 35.598,102.800 35.900,102.800 36.267 C 102.800 36.633,102.694 36.827,102.564 36.698 C 102.298 36.431,92.069 46.630,90.450 48.776 C 89.873 49.541,88.545 51.069,87.500 52.171 C 86.455 53.273,85.600 54.324,85.600 54.506 C 85.600 54.688,85.150 55.286,84.600 55.836 C 84.050 56.386,83.600 57.000,83.600 57.200 C 83.600 57.400,83.184 57.980,82.675 58.488 C 82.167 58.997,80.782 60.850,79.599 62.607 C 78.416 64.363,77.223 66.027,76.948 66.304 C 76.673 66.582,76.222 67.437,75.944 68.204 C 75.666 68.972,75.295 69.600,75.120 69.600 C 74.944 69.600,74.800 69.870,74.800 70.200 C 74.800 70.530,74.620 70.800,74.400 70.800 C 74.180 70.800,74.000 71.160,74.000 71.600 C 74.000 72.040,73.820 72.400,73.600 72.400 C 73.380 72.400,73.200 72.760,73.200 73.200 C 73.200 73.640,73.043 74.000,72.851 74.000 C 72.659 74.000,72.057 74.898,71.514 75.996 C 70.971 77.094,70.408 77.874,70.263 77.730 C 70.118 77.585,70.000 77.947,70.000 78.533 C 70.000 79.120,69.820 79.600,69.600 79.600 C 69.380 79.600,69.200 79.960,69.200 80.400 C 69.200 80.840,69.064 81.200,68.898 81.200 C 68.731 81.200,68.358 81.785,68.067 82.500 C 67.777 83.215,67.193 84.492,66.770 85.338 C 66.346 86.184,66.000 87.129,66.000 87.438 C 66.000 87.747,65.820 88.000,65.600 88.000 C 65.380 88.000,65.200 88.349,65.200 88.776 C 65.200 89.203,65.020 89.664,64.800 89.800 C 64.580 89.936,64.400 90.363,64.400 90.748 C 64.400 91.134,64.040 92.195,63.600 93.106 C 63.160 94.016,62.800 94.952,62.800 95.186 C 62.800 95.420,62.633 95.923,62.428 96.305 C 61.915 97.265,60.005 103.144,59.745 104.563 C 59.628 105.203,59.366 106.163,59.163 106.697 C 58.960 107.231,58.896 107.832,59.021 108.034 C 59.145 108.235,59.057 108.400,58.824 108.400 C 58.588 108.400,58.400 109.200,58.400 110.200 C 58.400 111.190,58.220 112.000,58.000 112.000 C 57.780 112.000,57.600 112.810,57.600 113.800 C 57.600 114.790,57.420 115.600,57.200 115.600 C 56.980 115.600,56.800 116.590,56.800 117.800 C 56.800 119.010,56.620 120.000,56.400 120.000 C 56.178 120.000,56.000 121.059,56.000 122.376 C 56.000 123.683,55.820 124.864,55.600 125.000 C 55.380 125.136,55.200 126.486,55.200 128.000 C 55.200 129.514,55.020 130.864,54.800 131.000 C 54.564 131.146,54.400 133.545,54.400 136.847 C 54.400 140.479,54.541 142.360,54.800 142.200 C 55.049 142.046,55.200 142.803,55.200 144.199 C 55.200 145.435,55.365 147.200,55.566 148.123 C 55.767 149.045,56.146 151.330,56.408 153.200 C 56.670 155.070,57.056 157.410,57.267 158.400 C 58.363 163.557,59.201 167.160,59.592 168.400 C 59.765 168.950,60.134 170.210,60.410 171.200 C 61.062 173.529,63.144 179.967,63.581 181.000 C 63.767 181.440,64.149 182.430,64.430 183.200 C 66.054 187.646,70.471 196.873,73.623 202.400 C 82.226 217.491,92.604 229.947,106.641 242.032 C 110.938 245.730,124.970 255.600,125.932 255.600 C 126.153 255.600,126.393 255.735,126.467 255.900 C 127.300 257.774,150.048 267.657,159.436 270.223 C 160.736 270.579,162.430 271.047,163.200 271.265 C 163.970 271.482,165.365 271.827,166.300 272.030 C 167.235 272.234,168.855 272.587,169.900 272.816 C 193.962 278.088,222.372 276.512,245.800 268.606 C 256.463 265.007,269.922 258.720,276.184 254.411 C 277.152 253.745,278.048 253.200,278.174 253.200 C 278.683 253.200,289.799 245.146,291.800 243.327 C 292.241 242.927,293.298 242.079,294.150 241.442 C 296.315 239.824,307.432 228.740,310.040 225.600 C 311.228 224.170,312.304 222.910,312.430 222.800 C 312.557 222.690,313.834 221.070,315.268 219.200 C 319.107 214.195,323.272 207.905,326.922 201.600 C 328.661 198.596,333.156 189.211,334.586 185.600 C 335.413 183.510,336.240 181.440,336.423 181.000 C 337.029 179.549,339.151 173.044,339.816 170.600 C 340.175 169.280,340.647 167.570,340.865 166.800 C 342.349 161.548,344.236 150.742,344.672 145.000 C 344.789 143.460,345.045 142.140,345.242 142.067 C 345.717 141.890,345.705 132.268,345.230 131.780 C 345.027 131.571,344.761 130.050,344.640 128.400 C 344.201 122.393,343.925 120.192,343.566 119.820 C 343.365 119.611,343.200 118.587,343.200 117.544 C 343.200 116.501,343.020 115.536,342.800 115.400 C 342.580 115.264,342.400 114.443,342.400 113.576 C 342.400 112.709,342.220 112.000,342.000 112.000 C 341.780 112.000,341.600 111.190,341.600 110.200 C 341.600 109.210,341.437 108.400,341.237 108.400 C 341.038 108.400,340.958 108.081,341.061 107.690 C 341.163 107.300,340.975 106.458,340.644 105.819 C 340.312 105.180,340.137 104.502,340.255 104.311 C 340.373 104.121,340.301 103.748,340.097 103.482 C 339.670 102.930,338.575 99.152,338.710 98.700 C 338.760 98.535,338.620 98.400,338.400 98.400 C 338.180 98.400,338.000 97.860,338.000 97.200 C 338.000 96.540,337.820 96.000,337.600 96.000 C 337.380 96.000,337.200 95.550,337.200 95.000 C 337.200 94.450,337.020 94.000,336.800 94.000 C 336.580 94.000,336.400 93.651,336.400 93.224 C 336.400 92.797,336.220 92.336,336.000 92.200 C 335.780 92.064,335.600 91.423,335.600 90.776 C 335.600 90.129,335.420 89.600,335.200 89.600 C 334.980 89.600,334.800 89.240,334.800 88.800 C 334.800 88.360,334.620 88.000,334.400 88.000 C 334.180 88.000,334.000 87.651,334.000 87.224 C 334.000 86.797,333.820 86.336,333.600 86.200 C 333.380 86.064,333.200 85.603,333.200 85.176 C 333.200 84.749,333.065 84.399,332.900 84.397 C 332.541 84.393,331.600 82.456,331.600 81.720 C 331.600 81.434,331.420 81.200,331.200 81.200 C 330.980 81.200,330.800 80.840,330.800 80.400 C 330.800 79.960,330.620 79.600,330.400 79.600 C 330.180 79.600,330.000 79.240,330.000 78.800 C 330.000 78.360,329.854 78.000,329.675 78.000 C 329.496 78.000,329.102 77.370,328.800 76.600 C 328.498 75.830,328.138 75.200,328.000 75.200 C 327.862 75.200,327.502 74.570,327.200 73.800 C 326.898 73.030,326.504 72.400,326.325 72.400 C 326.146 72.400,326.000 72.040,326.000 71.600 C 326.000 71.160,325.820 70.800,325.600 70.800 C 325.380 70.800,325.200 70.573,325.200 70.295 C 325.200 70.017,324.570 68.854,323.800 67.710 C 323.030 66.567,322.400 65.444,322.400 65.216 C 322.400 64.987,322.262 64.800,322.094 64.800 C 321.926 64.800,321.344 64.080,320.800 63.200 C 320.256 62.320,319.686 61.600,319.533 61.600 C 319.379 61.600,319.138 61.234,318.996 60.787 C 318.854 60.340,318.302 59.538,317.769 59.005 C 317.236 58.472,316.800 57.830,316.800 57.579 C 316.800 57.327,316.298 56.644,315.685 56.060 C 315.071 55.477,314.128 54.372,313.589 53.604 C 312.622 52.227,311.456 50.842,309.700 48.987 C 309.205 48.464,308.800 47.945,308.800 47.834 C 308.800 47.448,297.394 36.184,295.800 34.996 C 294.920 34.339,293.750 33.348,293.200 32.793 C 292.129 31.711,286.420 27.286,285.163 26.564 C 284.747 26.325,284.075 25.830,283.671 25.464 C 283.267 25.099,282.718 24.800,282.450 24.800 C 282.183 24.800,281.510 24.347,280.956 23.792 C 280.402 23.238,279.813 22.869,279.647 22.971 C 279.481 23.073,279.093 22.807,278.785 22.379 C 278.476 21.950,277.969 21.600,277.659 21.600 C 277.348 21.600,276.803 21.282,276.447 20.893 C 276.091 20.504,274.900 19.742,273.800 19.199 C 272.700 18.655,271.710 18.118,271.600 18.005 C 270.944 17.332,260.813 12.255,259.817 12.101 C 259.387 12.034,258.937 11.830,258.817 11.646 C 258.698 11.463,257.925 11.071,257.100 10.776 C 256.275 10.481,255.600 10.083,255.600 9.892 C 255.600 9.701,255.195 9.603,254.700 9.675 C 254.205 9.747,253.614 9.568,253.386 9.277 C 253.158 8.985,252.213 8.645,251.286 8.521 C 250.359 8.396,249.600 8.138,249.600 7.947 C 249.600 7.756,249.060 7.600,248.400 7.600 C 247.740 7.600,247.200 7.420,247.200 7.200 C 247.200 6.980,246.660 6.800,246.000 6.800 C 245.340 6.800,244.800 6.620,244.800 6.400 C 244.800 6.180,244.260 6.000,243.600 6.000 C 242.940 6.000,242.400 5.820,242.400 5.600 C 242.400 5.380,241.860 5.200,241.200 5.200 C 240.540 5.200,240.000 5.039,240.000 4.842 C 240.000 4.645,239.325 4.390,238.500 4.275 C 237.675 4.159,236.190 3.856,235.200 3.600 C 234.210 3.344,232.724 3.040,231.897 2.925 C 231.071 2.810,230.295 2.555,230.174 2.358 C 230.052 2.161,229.099 2.000,228.056 2.000 C 227.013 2.000,225.989 1.837,225.780 1.637 C 225.571 1.437,224.410 1.165,223.200 1.033 C 221.990 0.901,219.470 0.630,217.600 0.431 C 214.236 0.073,185.491 -0.158,185.163 0.170 M215.400 29.381 C 222.167 30.362,225.569 31.066,231.800 32.774 C 234.157 33.420,241.769 36.075,243.568 36.878 C 261.731 44.989,275.054 54.637,286.819 68.200 C 314.199 99.764,322.141 146.324,306.985 186.420 C 305.584 190.126,302.281 197.079,299.869 201.400 C 297.286 206.028,291.910 214.090,290.400 215.600 C 290.290 215.710,289.578 216.610,288.817 217.600 C 282.796 225.439,262.434 243.200,259.468 243.200 C 259.366 243.200,258.048 243.949,256.541 244.865 C 254.126 246.333,249.457 248.663,245.200 250.525 C 239.917 252.836,231.581 255.593,226.300 256.775 C 220.898 257.984,219.776 258.176,212.000 259.222 C 208.076 259.750,189.440 259.498,185.000 258.857 C 181.178 258.305,177.752 257.694,175.600 257.180 C 174.610 256.944,173.260 256.660,172.600 256.548 C 171.940 256.437,171.040 256.198,170.600 256.018 C 170.160 255.838,168.990 255.465,168.000 255.189 C 160.993 253.233,154.707 250.714,147.200 246.852 C 144.890 245.664,142.522 244.356,141.938 243.946 C 141.354 243.536,140.761 243.200,140.620 243.200 C 140.217 243.200,134.547 239.306,130.708 236.393 C 110.237 220.858,95.226 198.264,88.989 173.600 C 86.331 163.093,85.812 158.381,85.834 145.000 C 85.853 133.268,86.009 130.897,87.255 123.400 C 92.281 93.150,110.380 65.193,136.278 47.676 C 137.641 46.754,138.869 46.000,139.006 46.000 C 139.143 46.000,140.040 45.461,140.997 44.802 C 148.615 39.560,164.352 33.311,175.800 30.982 C 177.340 30.668,179.410 30.240,180.400 30.030 C 181.978 29.695,186.836 29.097,191.800 28.627 C 195.197 28.305,211.595 28.829,215.400 29.381 M191.400 70.867 C 186.677 72.459,184.839 74.267,180.529 81.560 C 178.631 84.772,176.277 88.732,175.299 90.360 C 174.320 91.987,173.204 93.877,172.818 94.560 C 172.433 95.242,170.984 97.690,169.600 100.000 C 164.753 108.087,164.843 107.664,167.421 110.242 C 173.587 116.408,183.927 115.540,189.361 108.403 C 192.348 104.480,192.164 101.839,192.400 151.910 L 192.609 196.200 193.605 197.969 C 196.847 203.730,206.035 207.639,210.705 205.244 C 211.087 205.048,212.245 204.485,213.278 203.992 C 215.733 202.822,218.340 200.178,219.713 197.467 L 220.813 195.294 220.707 137.947 L 220.600 80.600 219.522 78.557 C 217.520 74.762,214.203 71.920,210.554 70.872 C 208.519 70.289,193.130 70.285,191.400 70.867 " stroke="none" fill="#fce37b" fill-rule="evenodd"></path><path id="path2" d="M191.800 28.627 C 186.836 29.097,181.978 29.695,180.400 30.030 C 179.410 30.240,177.340 30.668,175.800 30.982 C 164.352 33.311,148.615 39.560,140.997 44.802 C 140.040 45.461,139.143 46.000,139.006 46.000 C 138.120 46.000,130.136 52.007,124.600 56.837 C 104.901 74.027,91.485 97.939,87.255 123.400 C 86.009 130.897,85.853 133.268,85.834 145.000 C 85.812 158.381,86.331 163.093,88.989 173.600 C 94.584 195.724,106.682 215.385,124.508 231.322 C 128.708 235.077,139.727 243.200,140.620 243.200 C 140.761 243.200,141.354 243.536,141.938 243.946 C 145.366 246.354,156.287 251.396,162.655 253.510 C 164.605 254.157,167.010 254.912,168.000 255.189 C 168.990 255.465,170.160 255.838,170.600 256.018 C 171.040 256.198,171.940 256.437,172.600 256.548 C 173.260 256.660,174.610 256.944,175.600 257.180 C 177.752 257.694,181.178 258.305,185.000 258.857 C 189.440 259.498,208.076 259.750,212.000 259.222 C 219.776 258.176,220.898 257.984,226.300 256.775 C 231.581 255.593,239.917 252.836,245.200 250.525 C 249.457 248.663,254.126 246.333,256.541 244.865 C 258.048 243.949,259.366 243.200,259.468 243.200 C 262.434 243.200,282.796 225.439,288.817 217.600 C 289.578 216.610,290.290 215.710,290.400 215.600 C 291.910 214.090,297.286 206.028,299.869 201.400 C 302.281 197.079,305.584 190.126,306.985 186.420 C 322.141 146.324,314.199 99.764,286.819 68.200 C 275.054 54.637,261.731 44.989,243.568 36.878 C 241.769 36.075,234.157 33.420,231.800 32.774 C 225.569 31.066,222.167 30.362,215.400 29.381 C 211.595 28.829,195.197 28.305,191.800 28.627 M104.060 34.642 C 103.762 34.978,103.599 35.332,103.695 35.429 C 103.792 35.526,104.198 35.244,104.598 34.802 C 104.997 34.361,105.161 34.007,104.962 34.015 C 104.763 34.024,104.357 34.305,104.060 34.642 M314.093 54.400 C 314.368 54.840,314.731 55.200,314.900 55.200 C 315.069 55.200,314.982 54.840,314.707 54.400 C 314.432 53.960,314.069 53.600,313.900 53.600 C 313.731 53.600,313.818 53.960,314.093 54.400 M210.554 70.872 C 214.203 71.920,217.520 74.762,219.522 78.557 L 220.600 80.600 220.707 137.947 L 220.813 195.294 219.713 197.467 C 218.340 200.178,215.733 202.822,213.278 203.992 C 212.245 204.485,211.087 205.048,210.705 205.244 C 206.035 207.639,196.847 203.730,193.605 197.969 L 192.609 196.200 192.400 151.910 C 192.164 101.839,192.348 104.480,189.361 108.403 C 183.927 115.540,173.587 116.408,167.421 110.242 C 164.843 107.664,164.753 108.087,169.600 100.000 C 170.984 97.690,172.433 95.242,172.818 94.560 C 173.204 93.877,174.320 91.987,175.299 90.360 C 176.277 88.732,178.631 84.772,180.529 81.560 C 184.839 74.267,186.677 72.459,191.400 70.867 C 193.130 70.285,208.519 70.289,210.554 70.872 M54.700 142.229 C 54.258 142.677,54.332 158.971,54.778 159.420 C 54.985 159.629,55.191 161.189,55.236 162.888 C 55.280 164.586,55.470 165.880,55.658 165.764 C 55.846 165.648,56.000 166.723,56.000 168.153 C 56.000 169.583,56.180 170.864,56.400 171.000 C 56.620 171.136,56.800 172.036,56.800 173.000 C 56.800 173.964,56.980 174.864,57.200 175.000 C 57.420 175.136,57.600 175.957,57.600 176.824 C 57.600 177.691,57.780 178.400,58.000 178.400 C 58.220 178.400,58.400 179.120,58.400 180.000 C 58.400 180.880,58.562 181.600,58.760 181.600 C 58.958 181.600,59.082 182.146,59.036 182.814 C 58.990 183.482,59.186 184.222,59.472 184.459 C 59.757 184.697,59.905 185.029,59.801 185.199 C 59.696 185.368,59.860 186.338,60.166 187.353 C 60.472 188.369,60.613 189.200,60.481 189.200 C 60.348 189.200,60.456 189.416,60.720 189.680 C 60.984 189.944,61.200 190.563,61.200 191.056 C 61.200 191.549,61.380 192.064,61.600 192.200 C 61.820 192.336,62.000 192.887,62.000 193.424 C 62.000 193.961,62.141 194.400,62.313 194.400 C 62.485 194.400,62.876 195.255,63.182 196.300 C 63.487 197.345,64.067 198.790,64.469 199.512 C 64.871 200.234,65.200 201.179,65.200 201.612 C 65.200 202.045,65.380 202.400,65.600 202.400 C 65.820 202.400,66.000 202.639,66.000 202.932 C 66.000 203.225,66.441 204.336,66.981 205.402 C 67.520 206.467,67.852 207.515,67.719 207.731 C 67.586 207.947,67.652 208.015,67.866 207.883 C 68.080 207.751,68.492 208.308,68.782 209.121 C 69.071 209.935,69.644 211.078,70.054 211.662 C 70.464 212.246,70.800 213.111,70.800 213.585 C 70.800 214.059,70.980 214.336,71.200 214.200 C 71.420 214.064,71.600 214.289,71.600 214.701 C 71.600 215.112,71.915 215.798,72.300 216.225 C 72.685 216.651,73.255 217.495,73.568 218.100 C 73.880 218.705,74.285 219.200,74.468 219.200 C 74.650 219.200,74.800 219.560,74.800 220.000 C 74.800 220.440,74.991 220.800,75.224 220.800 C 75.457 220.800,75.556 220.947,75.445 221.127 C 75.334 221.307,75.638 221.899,76.121 222.442 C 76.605 222.985,77.059 223.691,77.132 224.011 C 77.205 224.331,77.475 224.726,77.732 224.890 C 77.989 225.054,78.058 225.191,77.884 225.194 C 77.711 225.197,77.936 225.594,78.384 226.075 C 78.833 226.557,79.200 227.172,79.200 227.442 C 79.200 227.712,79.345 227.993,79.523 228.067 C 79.701 228.140,80.454 229.100,81.197 230.200 C 81.940 231.300,82.649 232.290,82.774 232.400 C 82.899 232.510,83.253 233.089,83.561 233.686 C 83.869 234.284,84.273 234.678,84.460 234.563 C 84.647 234.447,84.800 234.567,84.800 234.829 C 84.800 235.092,85.116 235.597,85.503 235.953 C 85.889 236.309,86.460 237.095,86.770 237.699 C 87.080 238.304,87.426 238.708,87.537 238.596 C 87.649 238.485,88.067 238.890,88.467 239.497 C 88.867 240.104,89.196 240.473,89.197 240.318 C 89.202 239.836,90.969 241.791,91.588 242.964 C 91.912 243.576,92.667 244.490,93.266 244.994 C 93.865 245.498,94.246 246.021,94.111 246.156 C 93.977 246.290,94.167 246.400,94.533 246.400 C 94.900 246.400,95.200 246.536,95.200 246.702 C 95.200 247.151,100.818 252.800,101.264 252.800 C 101.475 252.800,101.536 252.980,101.400 253.200 C 101.264 253.420,101.433 253.600,101.776 253.600 C 102.119 253.600,102.400 253.741,102.400 253.914 C 102.400 254.086,102.929 254.540,103.575 254.921 C 104.221 255.303,105.329 256.229,106.037 256.980 C 106.744 257.730,107.753 258.452,108.278 258.584 C 108.803 258.716,109.125 258.998,108.993 259.212 C 108.861 259.425,109.044 259.600,109.400 259.600 C 109.785 259.600,109.932 259.786,109.764 260.058 C 109.566 260.378,109.785 260.440,110.489 260.264 C 111.203 260.084,111.891 260.290,112.849 260.968 C 124.170 268.990,136.122 275.766,145.100 279.251 C 146.566 279.820,147.941 280.375,148.900 280.785 C 160.547 285.763,184.833 290.176,200.200 290.106 C 211.021 290.056,223.930 288.438,234.835 285.765 C 243.834 283.558,253.383 280.239,260.161 276.962 C 260.800 276.653,261.565 276.400,261.861 276.400 C 262.158 276.400,262.400 276.220,262.400 276.000 C 262.400 275.780,262.745 275.600,263.167 275.600 C 263.588 275.600,263.993 275.465,264.067 275.300 C 264.140 275.135,265.550 274.315,267.200 273.479 C 272.465 270.808,276.908 268.104,282.741 264.020 C 287.773 260.497,288.685 259.981,289.402 260.256 C 289.777 260.400,290.331 260.087,290.836 259.445 C 291.288 258.870,291.906 258.400,292.209 258.400 C 292.512 258.400,292.944 258.085,293.168 257.700 C 293.392 257.315,293.581 257.120,293.588 257.267 C 293.595 257.413,294.213 256.963,294.963 256.267 C 297.233 254.157,298.791 252.813,299.093 252.703 C 299.589 252.524,304.800 247.065,304.800 246.724 C 304.800 246.546,305.081 246.400,305.424 246.400 C 305.767 246.400,305.936 246.220,305.800 246.000 C 305.664 245.780,305.833 245.600,306.176 245.600 C 306.519 245.600,306.800 245.463,306.800 245.296 C 306.800 245.129,307.257 244.499,307.816 243.896 C 308.375 243.293,308.690 242.797,308.516 242.794 C 308.342 242.791,308.400 242.656,308.643 242.494 C 308.887 242.332,309.813 241.356,310.701 240.324 C 311.589 239.293,312.425 238.558,312.558 238.691 C 312.691 238.824,312.800 238.533,312.800 238.043 C 312.800 237.551,312.979 237.263,313.200 237.400 C 313.420 237.536,313.600 237.406,313.600 237.112 C 313.600 236.817,313.960 236.317,314.400 236.000 C 314.840 235.683,315.200 235.193,315.200 234.912 C 315.200 234.630,315.380 234.400,315.600 234.400 C 315.820 234.400,316.000 234.196,316.000 233.947 C 316.000 233.698,316.317 233.203,316.705 232.847 C 317.093 232.491,317.858 231.526,318.405 230.703 C 318.952 229.879,319.546 229.204,319.724 229.203 C 319.902 229.201,319.948 229.039,319.826 228.842 C 319.704 228.645,319.874 228.381,320.202 228.254 C 320.531 228.128,320.800 227.749,320.800 227.413 C 320.800 227.076,320.991 226.800,321.224 226.800 C 321.457 226.800,321.535 226.619,321.398 226.397 C 321.261 226.176,321.431 225.886,321.775 225.754 C 322.119 225.622,322.400 225.291,322.400 225.018 C 322.400 224.574,322.875 223.891,324.493 222.010 C 324.772 221.685,324.984 221.325,324.964 221.210 C 324.859 220.609,325.338 219.638,325.645 219.828 C 325.840 219.949,326.000 219.677,326.000 219.224 C 326.000 218.771,326.180 218.400,326.400 218.400 C 326.620 218.400,326.800 218.068,326.800 217.662 C 326.800 217.256,327.160 216.598,327.600 216.200 C 328.040 215.802,328.400 215.054,328.400 214.538 C 328.400 214.022,328.580 213.600,328.800 213.600 C 329.020 213.600,329.200 213.319,329.200 212.976 C 329.200 212.633,329.380 212.464,329.600 212.600 C 329.820 212.736,330.000 212.477,330.000 212.024 C 330.000 211.571,330.225 211.197,330.500 211.194 C 330.833 211.190,330.800 211.058,330.400 210.800 C 330.044 210.570,329.992 210.410,330.274 210.406 C 330.535 210.403,330.973 209.780,331.247 209.021 C 331.521 208.263,331.854 207.710,331.988 207.792 C 332.121 207.875,332.270 207.460,332.319 206.871 C 332.367 206.282,332.585 205.740,332.803 205.667 C 333.022 205.593,333.200 205.278,333.200 204.967 C 333.200 204.655,333.380 204.400,333.600 204.400 C 333.820 204.400,334.000 203.939,334.000 203.376 C 334.000 202.813,334.143 202.441,334.317 202.549 C 334.491 202.656,334.661 202.386,334.694 201.949 C 334.766 200.996,335.698 198.800,336.031 198.800 C 336.161 198.800,336.267 198.552,336.267 198.250 C 336.267 197.783,337.045 195.574,338.399 192.200 C 338.781 191.249,339.862 187.492,340.241 185.800 C 340.389 185.140,340.670 184.396,340.866 184.146 C 341.061 183.896,341.333 182.501,341.469 181.046 C 341.604 179.591,341.870 178.400,342.058 178.400 C 342.246 178.400,342.400 177.680,342.400 176.800 C 342.400 175.920,342.580 175.200,342.800 175.200 C 343.020 175.200,343.200 174.221,343.200 173.024 C 343.200 171.827,343.380 170.736,343.600 170.600 C 343.820 170.464,344.000 169.273,344.000 167.953 C 344.000 166.578,344.159 165.651,344.371 165.782 C 344.835 166.069,345.175 161.117,345.433 150.300 C 345.566 144.701,345.496 142.000,345.215 142.000 C 344.980 142.000,344.787 142.996,344.769 144.300 C 344.753 145.565,344.654 146.960,344.551 147.400 C 344.448 147.840,344.201 149.370,344.002 150.800 C 343.281 155.997,341.838 163.354,340.865 166.800 C 340.647 167.570,340.175 169.280,339.816 170.600 C 339.151 173.044,337.029 179.549,336.423 181.000 C 336.240 181.440,335.413 183.510,334.586 185.600 C 333.156 189.211,328.661 198.596,326.922 201.600 C 323.272 207.905,319.107 214.195,315.268 219.200 C 313.834 221.070,312.557 222.690,312.430 222.800 C 312.304 222.910,311.228 224.170,310.040 225.600 C 307.432 228.740,296.315 239.824,294.150 241.442 C 293.298 242.079,292.241 242.927,291.800 243.327 C 289.799 245.146,278.683 253.200,278.174 253.200 C 278.048 253.200,277.152 253.745,276.184 254.411 C 266.863 260.824,247.858 268.744,234.000 271.991 C 213.212 276.862,189.743 277.164,169.900 272.816 C 168.855 272.587,167.235 272.234,166.300 272.030 C 165.365 271.827,163.970 271.482,163.200 271.265 C 162.430 271.047,160.736 270.579,159.436 270.223 C 150.048 267.657,127.300 257.774,126.467 255.900 C 126.393 255.735,126.153 255.600,125.932 255.600 C 124.970 255.600,110.938 245.730,106.641 242.032 C 92.604 229.947,82.226 217.491,73.623 202.400 C 70.471 196.873,66.054 187.646,64.430 183.200 C 64.149 182.430,63.767 181.440,63.581 181.000 C 63.144 179.967,61.062 173.529,60.410 171.200 C 60.134 170.210,59.765 168.950,59.592 168.400 C 58.769 165.791,57.147 158.137,56.434 153.498 C 56.205 152.012,55.830 149.582,55.601 148.098 C 55.372 146.614,55.142 144.618,55.092 143.662 C 55.041 142.707,54.865 142.062,54.700 142.229 M87.651 151.800 C 90.439 165.439,95.317 178.354,101.498 188.465 C 102.351 189.859,103.308 191.448,103.624 191.997 C 104.214 193.017,108.825 199.640,109.197 200.000 C 109.310 200.110,110.474 201.550,111.783 203.200 C 132.430 229.222,165.299 244.611,200.200 244.595 C 211.240 244.590,216.299 244.088,225.000 242.133 C 267.667 232.544,301.347 199.226,311.192 156.866 C 311.839 154.080,312.556 151.032,312.785 150.094 C 313.013 149.156,313.200 147.772,313.200 147.018 C 313.200 146.264,313.404 145.521,313.654 145.367 C 314.694 144.724,313.246 161.228,311.624 168.500 C 311.391 169.545,311.034 171.165,310.830 172.100 C 310.627 173.035,310.252 174.520,309.997 175.400 C 309.743 176.280,309.438 177.497,309.321 178.105 C 309.204 178.713,308.949 179.308,308.754 179.429 C 308.559 179.549,308.400 180.051,308.400 180.544 C 308.400 181.037,308.257 181.611,308.082 181.820 C 307.907 182.029,307.535 182.920,307.255 183.800 C 306.976 184.680,306.579 185.805,306.374 186.300 C 306.168 186.795,305.838 187.605,305.641 188.100 C 302.417 196.177,294.370 210.470,291.320 213.535 C 291.027 213.829,290.296 214.726,289.694 215.529 C 285.522 221.096,277.911 228.819,271.633 233.855 C 267.115 237.479,259.519 242.800,258.863 242.800 C 258.645 242.800,258.407 242.935,258.333 243.100 C 258.260 243.265,257.390 243.831,256.400 244.357 C 247.912 248.868,243.365 250.881,236.800 253.032 C 234.270 253.862,231.840 254.675,231.400 254.840 C 230.960 255.005,230.150 255.231,229.600 255.342 C 229.050 255.453,227.880 255.744,227.000 255.987 C 224.217 256.757,217.986 257.838,212.600 258.485 C 203.480 259.580,184.958 258.821,178.200 257.075 C 177.760 256.961,176.320 256.653,175.000 256.391 C 173.680 256.129,172.150 255.775,171.600 255.604 C 171.050 255.433,169.790 255.065,168.800 254.786 C 164.194 253.489,157.606 251.144,154.017 249.524 C 149.209 247.354,141.858 243.530,141.667 243.100 C 141.593 242.935,141.360 242.800,141.149 242.800 C 140.254 242.800,130.609 235.833,125.404 231.428 C 120.005 226.858,111.631 217.704,107.998 212.400 C 107.470 211.630,106.926 210.910,106.789 210.800 C 105.760 209.974,99.496 199.348,97.298 194.700 C 96.108 192.182,94.782 189.214,94.349 188.100 C 93.637 186.266,93.097 184.981,92.753 184.305 C 92.559 183.923,92.400 183.259,92.400 182.829 C 92.400 182.399,92.220 181.936,92.000 181.800 C 91.780 181.664,91.600 181.124,91.600 180.600 C 91.600 180.076,91.420 179.536,91.200 179.400 C 90.980 179.264,90.800 178.634,90.800 178.000 C 90.800 177.366,90.640 176.748,90.444 176.627 C 90.249 176.506,89.992 175.821,89.873 175.104 C 89.755 174.387,89.455 172.990,89.207 172.000 C 87.166 163.850,85.330 147.690,86.223 145.739 C 86.495 145.143,86.587 145.271,86.697 146.400 C 86.772 147.170,87.201 149.600,87.651 151.800 " stroke="none" fill="#fcbe55" fill-rule="evenodd"></path><path id="path3" d="M86.223 145.739 C 85.330 147.690,87.166 163.850,89.207 172.000 C 89.455 172.990,89.755 174.387,89.873 175.104 C 89.992 175.821,90.249 176.506,90.444 176.627 C 90.640 176.748,90.800 177.366,90.800 178.000 C 90.800 178.634,90.980 179.264,91.200 179.400 C 91.420 179.536,91.600 180.076,91.600 180.600 C 91.600 181.124,91.780 181.664,92.000 181.800 C 92.220 181.936,92.400 182.399,92.400 182.829 C 92.400 183.259,92.559 183.923,92.753 184.305 C 93.097 184.981,93.637 186.266,94.349 188.100 C 94.782 189.214,96.108 192.182,97.298 194.700 C 99.496 199.348,105.760 209.974,106.789 210.800 C 106.926 210.910,107.470 211.630,107.998 212.400 C 111.631 217.704,120.005 226.858,125.404 231.428 C 130.609 235.833,140.254 242.800,141.149 242.800 C 141.360 242.800,141.593 242.935,141.667 243.100 C 141.858 243.530,149.209 247.354,154.017 249.524 C 157.606 251.144,164.194 253.489,168.800 254.786 C 169.790 255.065,171.050 255.433,171.600 255.604 C 172.150 255.775,173.680 256.129,175.000 256.391 C 176.320 256.653,177.760 256.961,178.200 257.075 C 187.054 259.362,207.251 259.634,218.800 257.621 C 223.575 256.788,225.465 256.411,227.000 255.987 C 227.880 255.744,229.050 255.453,229.600 255.342 C 230.150 255.231,230.960 255.005,231.400 254.840 C 231.840 254.675,234.270 253.862,236.800 253.032 C 243.365 250.881,247.912 248.868,256.400 244.357 C 257.390 243.831,258.260 243.265,258.333 243.100 C 258.407 242.935,258.645 242.800,258.863 242.800 C 259.519 242.800,267.115 237.479,271.633 233.855 C 277.911 228.819,285.522 221.096,289.694 215.529 C 290.296 214.726,291.027 213.829,291.320 213.535 C 294.370 210.470,302.417 196.177,305.641 188.100 C 305.838 187.605,306.168 186.795,306.374 186.300 C 306.579 185.805,306.976 184.680,307.255 183.800 C 307.535 182.920,307.907 182.029,308.082 181.820 C 308.257 181.611,308.400 181.037,308.400 180.544 C 308.400 180.051,308.559 179.549,308.754 179.429 C 308.949 179.308,309.204 178.713,309.321 178.105 C 309.438 177.497,309.743 176.280,309.997 175.400 C 310.252 174.520,310.627 173.035,310.830 172.100 C 311.034 171.165,311.391 169.545,311.624 168.500 C 313.246 161.228,314.694 144.724,313.654 145.367 C 313.404 145.521,313.200 146.264,313.200 147.018 C 313.200 147.772,313.013 149.156,312.785 150.094 C 312.556 151.032,311.839 154.080,311.192 156.866 C 301.347 199.226,267.667 232.544,225.000 242.133 C 216.299 244.088,211.240 244.590,200.200 244.595 C 185.435 244.602,177.246 243.325,163.400 238.859 C 144.598 232.793,123.940 218.522,111.783 203.200 C 110.474 201.550,109.310 200.110,109.197 200.000 C 108.825 199.640,104.214 193.017,103.624 191.997 C 103.308 191.448,102.351 189.859,101.498 188.465 C 94.633 177.235,87.810 157.846,86.697 146.400 C 86.587 145.271,86.495 145.143,86.223 145.739 M181.700 289.076 C 182.085 289.176,182.715 289.176,183.100 289.076 C 183.485 288.975,183.170 288.893,182.400 288.893 C 181.630 288.893,181.315 288.975,181.700 289.076 M216.900 289.076 C 217.285 289.176,217.915 289.176,218.300 289.076 C 218.685 288.975,218.370 288.893,217.600 288.893 C 216.830 288.893,216.515 288.975,216.900 289.076 M191.091 289.889 C 191.801 289.977,193.061 289.979,193.891 289.892 C 194.721 289.805,194.140 289.733,192.600 289.731 C 191.060 289.729,190.381 289.800,191.091 289.889 M205.891 289.889 C 206.601 289.977,207.861 289.979,208.691 289.892 C 209.521 289.805,208.940 289.733,207.400 289.731 C 205.860 289.729,205.181 289.800,205.891 289.889 " stroke="none" fill="#fcac3c" fill-rule="evenodd"></path><path id="path4" d="M111.600 260.516 C 111.600 260.720,118.411 265.623,120.400 266.851 C 120.950 267.191,121.940 267.801,122.600 268.208 C 125.158 269.783,122.809 267.981,119.200 265.599 C 117.110 264.220,115.040 262.780,114.600 262.399 C 113.519 261.462,111.600 260.258,111.600 260.516 M286.629 261.409 C 286.205 261.729,285.938 262.071,286.035 262.169 C 286.132 262.266,286.659 262.002,287.206 261.582 C 287.753 261.161,288.020 260.820,287.800 260.822 C 287.580 260.824,287.053 261.088,286.629 261.409 M280.897 265.490 C 278.420 267.161,276.474 268.607,276.572 268.705 C 276.761 268.894,285.113 263.265,285.448 262.722 C 285.761 262.216,285.656 262.280,280.897 265.490 M124.000 268.967 C 124.000 269.408,135.656 275.805,138.392 276.866 C 140.223 277.575,139.022 276.873,133.960 274.274 C 131.193 272.854,128.225 271.249,127.365 270.709 C 125.241 269.375,124.000 268.732,124.000 268.967 M273.400 270.277 C 272.080 271.073,268.390 273.065,265.200 274.704 C 262.010 276.343,259.314 277.766,259.208 277.867 C 258.504 278.539,266.729 274.467,272.600 271.237 C 274.202 270.355,276.376 268.812,276.000 268.824 C 275.890 268.827,274.720 269.481,273.400 270.277 M141.220 278.147 C 144.066 279.561,148.476 281.258,148.706 281.027 C 148.821 280.913,148.574 280.708,148.157 280.572 C 146.328 279.975,144.834 279.384,142.490 278.330 C 139.505 276.986,138.632 276.860,141.220 278.147 M254.701 279.506 C 252.776 280.291,251.269 281.002,251.352 281.085 C 251.525 281.258,258.800 278.399,258.800 278.158 C 258.800 277.875,258.252 278.055,254.701 279.506 M155.400 283.600 C 156.500 284.006,157.670 284.338,158.000 284.338 C 158.330 284.338,157.700 284.006,156.600 283.600 C 155.500 283.194,154.330 282.862,154.000 282.862 C 153.670 282.862,154.300 283.194,155.400 283.600 M244.800 283.200 C 244.267 283.545,244.267 283.588,244.800 283.588 C 245.130 283.588,245.670 283.413,246.000 283.200 C 246.533 282.855,246.533 282.812,246.000 282.812 C 245.670 282.812,245.130 282.987,244.800 283.200 M242.200 284.000 C 241.696 284.217,241.622 284.344,242.000 284.344 C 242.330 284.344,242.960 284.189,243.400 284.000 C 243.904 283.783,243.978 283.656,243.600 283.656 C 243.270 283.656,242.640 283.811,242.200 284.000 M159.400 284.800 C 160.596 285.314,161.595 285.314,160.800 284.800 C 160.470 284.587,159.840 284.422,159.400 284.434 L 158.600 284.456 159.400 284.800 M239.600 284.800 C 239.067 285.145,239.067 285.188,239.600 285.188 C 239.930 285.188,240.470 285.013,240.800 284.800 C 241.333 284.455,241.333 284.412,240.800 284.412 C 240.470 284.412,239.930 284.587,239.600 284.800 M162.200 285.600 C 162.640 285.789,163.360 285.938,163.800 285.932 C 164.443 285.923,164.404 285.857,163.600 285.600 C 162.232 285.162,161.181 285.162,162.200 285.600 M236.600 285.600 L 235.800 285.944 236.600 285.966 C 237.040 285.978,237.670 285.813,238.000 285.600 C 238.795 285.086,237.796 285.086,236.600 285.600 M165.400 286.400 C 165.840 286.589,166.560 286.744,167.000 286.744 L 167.800 286.744 167.000 286.400 C 166.560 286.211,165.840 286.056,165.400 286.056 L 164.600 286.056 165.400 286.400 M233.400 286.400 L 232.600 286.744 233.400 286.766 C 233.840 286.778,234.470 286.613,234.800 286.400 C 235.595 285.886,234.596 285.886,233.400 286.400 M168.600 287.200 C 169.040 287.389,169.760 287.544,170.200 287.544 L 171.000 287.544 170.200 287.200 C 169.760 287.011,169.040 286.856,168.600 286.856 L 167.800 286.856 168.600 287.200 M229.800 287.200 L 229.000 287.544 229.800 287.544 C 230.240 287.544,230.960 287.389,231.400 287.200 L 232.200 286.856 231.400 286.856 C 230.960 286.856,230.240 287.011,229.800 287.200 M172.600 288.000 C 173.040 288.189,174.030 288.335,174.800 288.325 L 176.200 288.305 175.000 288.000 C 173.203 287.543,171.536 287.543,172.600 288.000 M225.400 288.000 L 224.200 288.305 225.600 288.347 C 226.370 288.369,227.270 288.213,227.600 288.000 C 228.339 287.523,227.276 287.523,225.400 288.000 M177.000 288.779 C 177.756 289.124,181.521 289.369,181.167 289.050 C 181.075 288.968,179.920 288.791,178.600 288.657 C 177.016 288.496,176.472 288.538,177.000 288.779 M220.400 288.800 L 218.600 289.080 220.400 289.112 C 221.390 289.129,222.560 288.989,223.000 288.800 L 223.800 288.456 223.000 288.488 C 222.560 288.506,221.390 288.646,220.400 288.800 M183.000 289.602 C 184.202 289.906,190.280 290.127,189.967 289.856 C 189.875 289.776,188.000 289.619,185.800 289.505 C 183.600 289.392,182.340 289.435,183.000 289.602 M212.800 289.600 L 209.800 289.856 212.800 289.881 C 214.450 289.894,216.340 289.768,217.000 289.600 L 218.200 289.295 217.000 289.319 C 216.340 289.333,214.450 289.459,212.800 289.600 M195.291 290.522 C 198.259 290.729,202.345 290.730,205.091 290.523 C 209.406 290.199,208.981 290.169,200.000 290.167 C 190.732 290.165,190.476 290.184,195.291 290.522 " stroke="none" fill="#fc7c4c" fill-rule="evenodd"></path></g></svg>