<svg id="svg" version="1.1" xmlns="http://www.w3.org/2000/svg" xmlns:xlink="http://www.w3.org/1999/xlink" width="400" height="400" viewBox="0, 0, 400,400"><g id="svgg"><path id="path0" d="M100.500 0.290 C 99.565 0.376,98.800 0.616,98.800 0.823 C 98.800 1.030,98.350 1.200,97.800 1.200 C 97.250 1.200,96.800 1.380,96.800 1.600 C 96.800 1.820,96.474 2.000,96.075 2.000 C 95.677 2.000,94.964 2.360,94.492 2.800 C 94.020 3.240,93.490 3.600,93.315 3.600 C 93.141 3.600,92.473 4.155,91.833 4.834 C 91.192 5.513,90.248 6.343,89.734 6.680 C 89.220 7.017,88.800 7.502,88.800 7.758 C 88.800 8.014,88.440 8.483,88.000 8.800 C 87.560 9.117,87.200 9.607,87.200 9.888 C 87.200 10.170,87.065 10.401,86.900 10.403 C 86.541 10.407,85.600 12.344,85.600 13.080 C 85.600 13.366,85.420 13.600,85.200 13.600 C 84.980 13.600,84.800 14.140,84.800 14.800 C 84.800 15.460,84.620 16.000,84.400 16.000 C 84.180 16.000,84.000 16.529,84.000 17.176 C 84.000 17.823,83.820 18.464,83.600 18.600 C 83.380 18.736,83.200 20.187,83.200 21.824 C 83.200 23.541,83.031 24.800,82.800 24.800 C 82.535 24.800,82.400 54.067,82.400 111.800 C 82.400 169.533,82.535 198.800,82.800 198.800 C 83.031 198.800,83.200 200.067,83.200 201.800 C 83.200 203.533,83.369 204.800,83.600 204.800 C 83.820 204.800,84.000 205.430,84.000 206.200 C 84.000 206.970,84.180 207.600,84.400 207.600 C 84.620 207.600,84.800 208.050,84.800 208.600 C 84.800 209.150,84.980 209.600,85.200 209.600 C 85.420 209.600,85.600 209.960,85.600 210.400 C 85.600 210.840,85.780 211.200,86.000 211.200 C 86.220 211.200,86.400 211.560,86.400 212.000 C 86.400 212.440,86.550 212.800,86.732 212.800 C 86.915 212.800,87.320 213.294,87.632 213.897 C 88.340 215.265,90.615 217.600,91.240 217.600 C 91.496 217.600,91.999 217.915,92.357 218.300 C 93.267 219.277,94.643 220.000,95.595 220.000 C 96.038 220.000,96.400 220.180,96.400 220.400 C 96.400 220.620,96.929 220.800,97.576 220.800 C 98.223 220.800,98.864 220.980,99.000 221.200 C 99.136 221.420,100.576 221.600,102.200 221.600 C 103.824 221.600,105.264 221.780,105.400 222.000 C 105.722 222.521,109.478 222.521,109.800 222.000 C 109.951 221.756,113.004 221.600,117.624 221.600 C 122.408 221.600,125.200 221.453,125.200 221.200 C 125.200 220.960,126.800 220.800,129.200 220.800 C 131.600 220.800,133.200 220.640,133.200 220.400 C 133.200 220.165,134.592 220.000,136.576 220.000 C 138.433 220.000,140.064 219.820,140.200 219.600 C 140.345 219.365,142.671 219.200,145.824 219.200 C 149.141 219.200,151.200 219.047,151.200 218.800 C 151.200 218.542,155.400 218.400,163.000 218.400 C 170.600 218.400,174.800 218.542,174.800 218.800 C 174.800 219.042,176.525 219.200,179.176 219.200 C 181.663 219.200,183.660 219.373,183.800 219.600 C 183.936 219.820,185.297 220.000,186.824 220.000 C 188.408 220.000,189.600 220.172,189.600 220.400 C 189.600 220.620,190.489 220.800,191.576 220.800 C 192.663 220.800,193.664 220.980,193.800 221.200 C 193.936 221.420,194.746 221.600,195.600 221.600 C 196.454 221.600,197.264 221.780,197.400 222.000 C 197.536 222.220,198.267 222.400,199.024 222.400 C 199.781 222.400,200.400 222.580,200.400 222.800 C 200.400 223.378,203.934 223.280,205.737 222.653 C 207.377 222.082,210.400 219.195,210.400 218.199 C 210.400 217.870,210.580 217.600,210.800 217.600 C 211.033 217.600,211.200 216.267,211.200 214.400 C 211.200 212.533,211.033 211.200,210.800 211.200 C 210.580 211.200,210.400 210.840,210.400 210.400 C 210.400 209.960,210.220 209.600,210.000 209.600 C 209.780 209.600,209.600 209.407,209.600 209.171 C 209.600 208.618,208.582 207.600,208.029 207.600 C 207.793 207.600,207.600 207.420,207.600 207.200 C 207.600 206.980,207.240 206.800,206.800 206.800 C 206.360 206.800,206.000 206.620,206.000 206.400 C 206.000 206.180,205.471 206.000,204.824 206.000 C 204.177 206.000,203.536 205.820,203.400 205.600 C 203.264 205.380,202.454 205.200,201.600 205.200 C 200.746 205.200,199.936 205.020,199.800 204.800 C 199.664 204.580,198.854 204.400,198.000 204.400 C 197.146 204.400,196.336 204.220,196.200 204.000 C 196.064 203.780,194.973 203.600,193.776 203.600 C 192.579 203.600,191.600 203.420,191.600 203.200 C 191.600 202.969,190.333 202.800,188.600 202.800 C 186.867 202.800,185.600 202.631,185.600 202.400 C 185.600 202.154,183.600 202.000,180.400 202.000 C 177.200 202.000,175.200 201.846,175.200 201.600 C 175.200 201.342,170.933 201.200,163.200 201.200 C 155.467 201.200,151.200 201.342,151.200 201.600 C 151.200 201.849,148.867 202.000,145.000 202.000 C 141.133 202.000,138.800 202.151,138.800 202.400 C 138.800 202.637,137.333 202.800,135.200 202.800 C 133.067 202.800,131.600 202.963,131.600 203.200 C 131.600 203.439,130.067 203.600,127.800 203.600 C 125.533 203.600,124.000 203.761,124.000 204.000 C 124.000 204.249,121.675 204.400,117.824 204.400 C 114.137 204.400,111.548 204.561,111.400 204.800 C 111.078 205.321,106.122 205.321,105.800 204.800 C 105.664 204.580,104.843 204.400,103.976 204.400 C 103.109 204.400,102.400 204.220,102.400 204.000 C 102.400 203.780,102.130 203.600,101.800 203.600 C 101.470 203.600,101.200 203.251,101.200 202.824 C 101.200 202.397,101.020 201.936,100.800 201.800 C 100.580 201.664,100.400 200.764,100.400 199.800 C 100.400 198.836,100.220 197.936,100.000 197.800 C 99.735 197.636,99.600 168.529,99.600 111.776 C 99.600 54.859,99.735 26.000,100.000 26.000 C 100.220 26.000,100.400 25.010,100.400 23.800 C 100.400 22.590,100.580 21.600,100.800 21.600 C 101.020 21.600,101.200 21.240,101.200 20.800 C 101.200 20.360,101.380 20.000,101.600 20.000 C 101.820 20.000,102.000 19.751,102.000 19.446 C 102.000 18.804,103.686 17.600,104.586 17.600 C 104.924 17.600,105.200 17.420,105.200 17.200 C 105.200 16.974,106.333 16.800,107.800 16.800 C 109.267 16.800,110.400 16.626,110.400 16.400 C 110.400 16.134,140.292 16.004,199.300 16.013 C 293.258 16.026,289.600 15.956,289.600 17.744 C 289.600 18.105,289.780 18.400,290.000 18.400 C 290.220 18.400,290.400 18.940,290.400 19.600 C 290.400 20.260,290.546 20.800,290.724 20.800 C 292.635 20.800,292.677 56.107,290.769 59.695 C 290.566 60.077,290.400 60.752,290.400 61.195 C 290.400 61.638,290.220 62.000,290.000 62.000 C 289.780 62.000,289.600 62.234,289.600 62.520 C 289.600 62.806,289.375 63.525,289.100 64.117 L 288.600 65.194 220.095 65.197 C 166.035 65.199,151.402 65.305,150.701 65.700 C 148.956 66.682,146.511 69.457,146.186 70.824 C 145.690 72.914,145.504 155.600,145.996 155.600 C 146.218 155.600,146.400 156.052,146.400 156.605 C 146.400 158.600,149.291 162.000,150.987 162.000 C 151.544 162.000,152.000 162.180,152.000 162.400 C 152.000 162.635,153.400 162.800,155.400 162.800 C 157.400 162.800,158.800 162.635,158.800 162.400 C 158.800 162.156,160.667 162.000,163.600 162.000 C 166.533 162.000,168.400 161.844,168.400 161.600 C 168.400 161.338,176.067 161.200,190.600 161.200 C 205.133 161.200,212.800 161.338,212.800 161.600 C 212.800 161.840,214.400 162.000,216.800 162.000 C 219.200 162.000,220.800 162.160,220.800 162.400 C 220.800 162.631,222.067 162.800,223.800 162.800 C 225.533 162.800,226.800 162.969,226.800 163.200 C 226.800 163.422,227.867 163.600,229.200 163.600 C 230.533 163.600,231.600 163.778,231.600 164.000 C 231.600 164.220,232.500 164.400,233.600 164.400 C 234.700 164.400,235.600 164.580,235.600 164.800 C 235.600 165.020,236.309 165.200,237.176 165.200 C 238.043 165.200,238.864 165.380,239.000 165.600 C 239.136 165.820,239.946 166.000,240.800 166.000 C 241.654 166.000,242.464 166.180,242.600 166.400 C 242.736 166.620,243.276 166.800,243.800 166.800 C 244.324 166.800,244.864 166.980,245.000 167.200 C 245.136 167.420,245.867 167.600,246.624 167.600 C 247.381 167.600,248.000 167.780,248.000 168.000 C 248.000 168.220,248.540 168.400,249.200 168.400 C 249.860 168.400,250.400 168.580,250.400 168.800 C 250.400 169.020,250.940 169.200,251.600 169.200 C 252.260 169.200,252.800 169.380,252.800 169.600 C 252.800 169.820,253.340 170.000,254.000 170.000 C 254.660 170.000,255.200 170.180,255.200 170.400 C 255.200 170.620,255.549 170.800,255.976 170.800 C 256.403 170.800,256.864 170.980,257.000 171.200 C 257.136 171.420,257.687 171.600,258.224 171.600 C 258.761 171.600,259.200 171.780,259.200 172.000 C 259.200 172.220,259.442 172.400,259.739 172.400 C 260.035 172.400,260.800 172.653,261.439 172.962 C 264.345 174.367,266.406 175.200,266.978 175.200 C 267.320 175.200,267.600 175.380,267.600 175.600 C 267.600 175.820,267.920 176.000,268.312 176.000 C 268.703 176.000,269.283 176.360,269.600 176.800 C 269.917 177.240,270.497 177.600,270.888 177.600 C 271.280 177.600,271.600 177.780,271.600 178.000 C 271.600 178.220,271.960 178.400,272.400 178.400 C 272.840 178.400,273.200 178.580,273.200 178.800 C 273.200 179.020,273.436 179.200,273.725 179.200 C 274.013 179.200,274.636 179.560,275.108 180.000 C 275.580 180.440,276.114 180.800,276.295 180.800 C 276.476 180.800,276.883 181.160,277.200 181.600 C 277.517 182.040,278.009 182.400,278.292 182.400 C 278.575 182.400,279.372 182.940,280.063 183.600 C 280.754 184.260,281.468 184.800,281.650 184.800 C 281.832 184.800,283.004 185.790,284.253 187.000 C 285.502 188.210,286.657 189.200,286.820 189.200 C 286.982 189.200,287.693 189.740,288.400 190.400 C 289.107 191.060,289.801 191.601,289.942 191.603 C 290.084 191.604,290.650 192.277,291.200 193.097 C 292.280 194.708,293.179 195.825,294.900 197.691 C 295.505 198.348,296.000 199.037,296.000 199.224 C 296.000 199.411,296.405 199.977,296.900 200.482 C 297.395 200.987,298.055 201.895,298.368 202.500 C 298.680 203.105,299.085 203.600,299.268 203.600 C 299.450 203.600,299.600 203.836,299.600 204.125 C 299.600 204.413,299.915 204.998,300.300 205.425 C 300.685 205.851,301.269 206.740,301.597 207.400 C 301.926 208.060,302.511 208.891,302.897 209.247 C 303.284 209.603,303.600 210.188,303.600 210.547 C 303.600 210.906,303.780 211.200,304.000 211.200 C 304.220 211.200,304.400 211.560,304.400 212.000 C 304.400 212.440,304.580 212.800,304.800 212.800 C 305.020 212.800,305.200 213.160,305.200 213.600 C 305.200 214.040,305.380 214.400,305.600 214.400 C 305.820 214.400,306.000 214.839,306.000 215.376 C 306.000 215.913,306.180 216.464,306.400 216.600 C 306.620 216.736,306.800 217.197,306.800 217.624 C 306.800 218.051,306.980 218.400,307.200 218.400 C 307.420 218.400,307.600 218.760,307.600 219.200 C 307.600 219.640,307.780 220.000,308.000 220.000 C 308.220 220.000,308.399 220.405,308.398 220.900 C 308.396 221.810,309.401 225.215,310.048 226.495 C 310.242 226.877,310.400 227.642,310.400 228.195 C 310.400 228.748,310.580 229.200,310.800 229.200 C 311.020 229.200,311.200 229.920,311.200 230.800 C 311.200 231.680,311.362 232.400,311.560 232.400 C 311.896 232.400,312.083 233.375,312.649 238.100 C 312.775 239.145,313.024 240.000,313.204 240.000 C 313.561 240.000,313.910 243.168,314.240 249.400 C 314.356 251.600,314.620 253.571,314.826 253.780 C 315.341 254.304,315.317 271.481,314.800 271.800 C 314.577 271.938,314.400 273.796,314.400 276.000 C 314.400 278.204,314.223 280.062,314.000 280.200 C 313.780 280.336,313.600 281.596,313.600 283.000 C 313.600 284.404,313.420 285.664,313.200 285.800 C 312.980 285.936,312.800 287.027,312.800 288.224 C 312.800 289.421,312.638 290.400,312.440 290.400 C 312.242 290.400,311.984 291.165,311.866 292.100 C 311.543 294.664,311.181 296.510,310.828 297.400 C 310.128 299.165,309.600 301.102,309.600 301.905 C 309.600 302.371,309.437 302.854,309.237 302.977 C 309.038 303.100,308.751 304.100,308.600 305.200 C 308.449 306.300,308.162 307.300,307.963 307.423 C 307.763 307.546,307.600 307.997,307.600 308.424 C 307.600 308.851,307.420 309.200,307.200 309.200 C 306.980 309.200,306.800 309.650,306.800 310.200 C 306.800 310.750,306.620 311.200,306.400 311.200 C 306.180 311.200,306.000 311.560,306.000 312.000 C 306.000 312.440,305.820 312.800,305.600 312.800 C 305.380 312.800,305.200 313.149,305.200 313.576 C 305.200 314.003,305.020 314.464,304.800 314.600 C 304.580 314.736,304.400 315.197,304.400 315.624 C 304.400 316.051,304.220 316.400,304.000 316.400 C 303.780 316.400,303.600 316.850,303.600 317.400 C 303.600 317.950,303.420 318.400,303.200 318.400 C 302.980 318.400,302.800 318.678,302.800 319.017 C 302.800 319.356,302.440 320.020,302.000 320.492 C 301.560 320.964,301.200 321.587,301.200 321.875 C 301.200 322.164,301.020 322.400,300.800 322.400 C 300.580 322.400,300.400 322.760,300.400 323.200 C 300.400 323.640,300.220 324.000,300.000 324.000 C 299.780 324.000,299.600 324.278,299.600 324.617 C 299.600 324.956,299.269 325.589,298.864 326.023 C 298.459 326.458,297.874 327.305,297.564 327.907 C 297.254 328.508,296.685 329.349,296.300 329.775 C 295.915 330.202,295.600 330.721,295.600 330.929 C 295.600 331.136,295.284 331.597,294.897 331.953 C 294.511 332.309,293.953 333.071,293.659 333.646 C 293.364 334.221,292.690 335.158,292.162 335.728 C 291.633 336.298,291.200 336.965,291.200 337.209 C 291.200 337.452,290.300 338.529,289.200 339.600 C 288.100 340.671,287.200 341.656,287.200 341.788 C 287.200 342.363,274.858 353.985,273.843 354.366 C 273.599 354.457,272.923 355.042,272.340 355.666 C 271.756 356.290,271.031 356.800,270.728 356.800 C 270.425 356.800,269.917 357.160,269.600 357.600 C 269.283 358.040,268.801 358.400,268.529 358.400 C 268.114 358.400,266.178 359.525,264.583 360.694 C 263.602 361.413,261.747 362.466,261.100 362.671 C 260.715 362.793,260.400 363.052,260.400 363.247 C 260.400 363.441,260.130 363.600,259.800 363.600 C 259.470 363.600,259.200 363.780,259.200 364.000 C 259.200 364.220,258.840 364.400,258.400 364.400 C 257.960 364.400,257.600 364.580,257.600 364.800 C 257.600 365.020,257.255 365.200,256.833 365.200 C 256.412 365.200,256.007 365.335,255.933 365.500 C 255.745 365.924,250.801 368.400,250.144 368.400 C 249.845 368.400,249.600 368.580,249.600 368.800 C 249.600 369.020,249.240 369.200,248.800 369.200 C 248.360 369.200,248.000 369.380,248.000 369.600 C 248.000 369.820,247.640 370.000,247.200 370.000 C 246.760 370.000,246.400 370.180,246.400 370.400 C 246.400 370.620,245.950 370.800,245.400 370.800 C 244.850 370.800,244.400 370.980,244.400 371.200 C 244.400 371.420,244.051 371.600,243.624 371.600 C 243.197 371.600,242.736 371.780,242.600 372.000 C 242.464 372.220,241.913 372.400,241.376 372.400 C 240.839 372.400,240.400 372.580,240.400 372.800 C 240.400 373.020,240.040 373.200,239.600 373.200 C 239.160 373.200,238.800 373.380,238.800 373.600 C 238.800 373.820,238.260 374.000,237.600 374.000 C 236.940 374.000,236.400 374.141,236.400 374.314 C 236.400 374.487,235.455 374.828,234.300 375.073 C 233.145 375.317,231.480 375.733,230.600 375.996 C 229.720 376.259,228.413 376.568,227.696 376.681 C 226.979 376.795,226.294 377.049,226.173 377.244 C 226.052 377.440,225.333 377.600,224.576 377.600 C 223.819 377.600,223.200 377.780,223.200 378.000 C 223.200 378.220,222.480 378.400,221.600 378.400 C 220.720 378.400,220.000 378.580,220.000 378.800 C 220.000 379.020,219.201 379.200,218.224 379.200 C 217.247 379.200,216.336 379.380,216.200 379.600 C 216.064 379.820,215.164 380.000,214.200 380.000 C 213.236 380.000,212.336 380.180,212.200 380.400 C 212.064 380.620,210.973 380.800,209.776 380.800 C 208.579 380.800,207.600 380.966,207.600 381.168 C 207.600 381.519,205.657 381.735,198.000 382.234 C 196.130 382.356,194.429 382.624,194.220 382.828 C 194.011 383.033,190.117 383.200,185.544 383.200 C 180.444 383.200,177.152 383.354,177.000 383.600 C 176.678 384.121,174.400 384.121,174.400 383.600 C 174.400 383.345,171.133 383.200,165.400 383.200 C 159.667 383.200,156.400 383.055,156.400 382.800 C 156.400 382.562,154.875 382.400,152.624 382.400 C 150.537 382.400,148.737 382.221,148.600 382.000 C 148.464 381.780,147.013 381.600,145.376 381.600 C 143.659 381.600,142.400 381.431,142.400 381.200 C 142.400 380.978,141.341 380.800,140.024 380.800 C 138.717 380.800,137.536 380.620,137.400 380.400 C 137.264 380.180,136.263 380.000,135.176 380.000 C 134.089 380.000,133.200 379.820,133.200 379.600 C 133.200 379.380,132.311 379.200,131.224 379.200 C 130.137 379.200,129.136 379.020,129.000 378.800 C 128.864 378.580,127.953 378.400,126.976 378.400 C 125.999 378.400,125.200 378.220,125.200 378.000 C 125.200 377.780,124.491 377.600,123.624 377.600 C 122.757 377.600,121.948 377.439,121.826 377.242 C 121.705 377.045,120.929 376.796,120.103 376.688 C 119.276 376.580,117.160 376.113,115.400 375.651 C 113.640 375.188,111.795 374.807,111.300 374.805 C 110.805 374.802,110.400 374.620,110.400 374.400 C 110.400 374.180,109.871 374.000,109.224 374.000 C 108.577 374.000,107.936 373.820,107.800 373.600 C 107.664 373.380,107.023 373.200,106.376 373.200 C 105.729 373.200,105.200 373.020,105.200 372.800 C 105.200 372.580,104.838 372.400,104.395 372.400 C 103.952 372.400,103.232 372.220,102.795 372.000 C 102.358 371.780,101.642 371.420,101.205 371.200 C 100.768 370.980,100.048 370.800,99.605 370.800 C 99.162 370.800,98.800 370.620,98.800 370.400 C 98.800 370.180,98.440 370.000,98.000 370.000 C 97.560 370.000,97.200 369.820,97.200 369.600 C 97.200 369.380,96.761 369.200,96.224 369.200 C 95.687 369.200,95.136 369.020,95.000 368.800 C 94.864 368.580,94.403 368.400,93.976 368.400 C 93.549 368.400,93.200 368.220,93.200 368.000 C 93.200 367.780,92.840 367.600,92.400 367.600 C 91.960 367.600,91.600 367.420,91.600 367.200 C 91.600 366.980,91.396 366.800,91.147 366.800 C 90.461 366.800,87.200 363.394,87.200 362.676 C 87.200 362.330,87.020 361.936,86.800 361.800 C 86.580 361.664,86.400 360.944,86.400 360.200 C 86.400 359.456,86.220 358.736,86.000 358.600 C 85.780 358.464,85.600 356.743,85.600 354.776 C 85.600 352.659,85.437 351.200,85.200 351.200 C 84.943 351.200,84.800 347.267,84.800 340.200 C 84.800 333.133,84.943 329.200,85.200 329.200 C 85.435 329.200,85.600 327.808,85.600 325.824 C 85.600 323.967,85.780 322.336,86.000 322.200 C 86.220 322.064,86.400 321.411,86.400 320.748 C 86.400 319.451,87.604 317.812,87.901 318.704 C 87.992 318.977,88.412 319.200,88.833 319.200 C 89.255 319.200,89.600 319.380,89.600 319.600 C 89.600 319.820,89.960 320.000,90.400 320.000 C 90.840 320.000,91.200 320.180,91.200 320.400 C 91.200 320.620,91.425 320.804,91.700 320.809 C 91.975 320.814,92.650 321.170,93.200 321.600 C 93.750 322.030,94.515 322.386,94.900 322.391 C 95.285 322.396,95.600 322.580,95.600 322.800 C 95.600 323.020,95.839 323.200,96.132 323.200 C 96.425 323.200,97.550 323.649,98.632 324.198 C 99.714 324.747,100.915 325.197,101.300 325.198 C 101.685 325.199,102.000 325.380,102.000 325.600 C 102.000 325.820,102.540 326.000,103.200 326.000 C 103.860 326.000,104.400 326.180,104.400 326.400 C 104.400 326.620,104.760 326.800,105.200 326.800 C 105.640 326.800,106.000 326.980,106.000 327.200 C 106.000 327.420,106.360 327.600,106.800 327.600 C 107.240 327.600,107.600 327.780,107.600 328.000 C 107.600 328.220,107.962 328.400,108.405 328.400 C 108.848 328.400,109.523 328.559,109.905 328.753 C 110.287 328.948,111.140 329.329,111.800 329.600 C 112.460 329.871,113.313 330.252,113.695 330.447 C 114.077 330.641,114.741 330.800,115.171 330.800 C 115.601 330.800,116.064 330.980,116.200 331.200 C 116.336 331.420,116.876 331.600,117.400 331.600 C 117.924 331.600,118.464 331.780,118.600 332.000 C 118.736 332.220,119.467 332.400,120.224 332.400 C 120.981 332.400,121.600 332.580,121.600 332.800 C 121.600 333.020,122.140 333.200,122.800 333.200 C 123.460 333.200,124.000 333.380,124.000 333.600 C 124.000 333.820,124.720 334.000,125.600 334.000 C 126.480 334.000,127.200 334.180,127.200 334.400 C 127.200 334.620,127.819 334.800,128.576 334.800 C 129.333 334.800,130.064 334.980,130.200 335.200 C 130.336 335.420,131.056 335.600,131.800 335.600 C 132.544 335.600,133.264 335.780,133.400 336.000 C 133.536 336.220,134.447 336.400,135.424 336.400 C 136.401 336.400,137.200 336.580,137.200 336.800 C 137.200 337.022,138.259 337.200,139.576 337.200 C 140.883 337.200,142.064 337.380,142.200 337.600 C 142.336 337.820,143.686 338.000,145.200 338.000 C 146.714 338.000,148.064 338.180,148.200 338.400 C 148.347 338.638,150.911 338.800,154.544 338.800 C 158.269 338.800,160.803 338.963,161.060 339.220 C 161.670 339.830,173.748 339.360,187.900 338.177 C 189.495 338.043,190.800 337.769,190.800 337.567 C 190.800 337.365,191.779 337.200,192.976 337.200 C 194.173 337.200,195.264 337.020,195.400 336.800 C 195.536 336.580,196.436 336.400,197.400 336.400 C 198.364 336.400,199.264 336.220,199.400 336.000 C 199.536 335.780,200.256 335.600,201.000 335.600 C 201.744 335.600,202.464 335.420,202.600 335.200 C 202.736 334.980,203.377 334.800,204.024 334.800 C 204.671 334.800,205.200 334.620,205.200 334.400 C 205.200 334.180,205.639 334.000,206.176 334.000 C 206.713 334.000,207.264 333.820,207.400 333.600 C 207.536 333.380,208.087 333.200,208.624 333.200 C 209.161 333.200,209.600 333.020,209.600 332.800 C 209.600 332.580,210.140 332.400,210.800 332.400 C 211.460 332.400,212.000 332.220,212.000 332.000 C 212.000 331.780,212.360 331.600,212.800 331.600 C 213.240 331.600,213.600 331.420,213.600 331.200 C 213.600 330.980,213.960 330.800,214.400 330.800 C 214.840 330.800,215.200 330.620,215.200 330.400 C 215.200 330.180,215.560 330.000,216.000 330.000 C 216.440 330.000,216.800 329.820,216.800 329.600 C 216.800 329.380,217.160 329.200,217.600 329.200 C 218.040 329.200,218.400 329.020,218.400 328.800 C 218.400 328.580,218.760 328.400,219.200 328.400 C 219.640 328.400,220.000 328.220,220.000 328.000 C 220.000 327.780,220.236 327.600,220.525 327.600 C 220.813 327.600,221.436 327.240,221.908 326.800 C 222.380 326.360,222.868 326.000,222.992 326.000 C 223.356 326.000,226.546 323.867,227.200 323.187 C 227.530 322.843,228.430 322.124,229.200 321.590 C 230.890 320.416,236.000 315.309,236.000 314.794 C 236.000 314.592,236.630 313.797,237.400 313.027 C 238.170 312.257,238.800 311.417,238.800 311.160 C 238.800 310.904,239.117 310.403,239.506 310.047 C 239.894 309.691,240.569 308.680,241.006 307.800 C 241.442 306.920,241.935 306.140,242.100 306.067 C 242.265 305.993,242.400 305.588,242.400 305.167 C 242.400 304.745,242.580 304.400,242.800 304.400 C 243.020 304.400,243.200 304.040,243.200 303.600 C 243.200 303.160,243.380 302.800,243.600 302.800 C 243.820 302.800,244.000 302.440,244.000 302.000 C 244.000 301.560,244.180 301.200,244.400 301.200 C 244.620 301.200,244.800 300.840,244.800 300.400 C 244.800 299.960,244.980 299.600,245.200 299.600 C 245.420 299.600,245.600 299.240,245.600 298.800 C 245.600 298.360,245.780 298.000,246.000 298.000 C 246.220 298.000,246.400 297.460,246.400 296.800 C 246.400 296.140,246.580 295.600,246.800 295.600 C 247.020 295.600,247.200 295.060,247.200 294.400 C 247.200 293.740,247.380 293.200,247.600 293.200 C 247.820 293.200,248.000 292.570,248.000 291.800 C 248.000 291.030,248.180 290.400,248.400 290.400 C 248.620 290.400,248.800 289.680,248.800 288.800 C 248.800 287.920,248.980 287.200,249.200 287.200 C 249.420 287.200,249.600 286.311,249.600 285.224 C 249.600 284.137,249.780 283.136,250.000 283.000 C 250.220 282.864,250.400 281.154,250.400 279.200 C 250.400 277.246,250.580 275.536,250.800 275.400 C 251.033 275.256,251.200 273.004,251.200 270.000 C 251.200 266.996,251.033 264.744,250.800 264.600 C 250.580 264.464,250.400 264.003,250.400 263.576 C 250.400 263.149,250.220 262.800,250.000 262.800 C 249.780 262.800,249.600 262.517,249.600 262.171 C 249.600 259.571,241.668 257.441,238.441 259.176 C 237.043 259.928,234.800 262.275,234.800 262.987 C 234.800 263.324,234.620 263.600,234.400 263.600 C 234.152 263.600,234.000 265.733,234.000 269.200 C 234.000 272.667,233.848 274.800,233.600 274.800 C 233.369 274.800,233.200 276.067,233.200 277.800 C 233.200 279.533,233.031 280.800,232.800 280.800 C 232.580 280.800,232.400 281.599,232.400 282.576 C 232.400 283.553,232.220 284.464,232.000 284.600 C 231.780 284.736,231.600 285.377,231.600 286.024 C 231.600 286.671,231.420 287.200,231.200 287.200 C 230.980 287.200,230.800 287.740,230.800 288.400 C 230.800 289.060,230.620 289.600,230.400 289.600 C 230.180 289.600,230.000 290.125,230.000 290.767 C 230.000 291.408,229.864 291.993,229.698 292.067 C 229.532 292.140,228.771 293.460,228.006 295.000 C 227.242 296.540,226.503 297.890,226.364 298.000 C 226.225 298.110,225.790 298.830,225.397 299.600 C 225.003 300.370,224.348 301.291,223.941 301.647 C 223.533 302.003,223.200 302.501,223.200 302.754 C 223.200 303.396,218.320 308.212,216.937 308.937 C 216.311 309.264,215.432 309.862,214.983 310.266 C 213.972 311.175,212.033 312.375,211.100 312.671 C 210.715 312.793,210.400 313.019,210.400 313.172 C 210.400 313.325,209.770 313.698,209.000 314.000 C 208.230 314.302,207.600 314.696,207.600 314.875 C 207.600 315.054,207.240 315.200,206.800 315.200 C 206.360 315.200,206.000 315.380,206.000 315.600 C 206.000 315.820,205.460 316.000,204.800 316.000 C 204.140 316.000,203.600 316.180,203.600 316.400 C 203.600 316.620,203.161 316.800,202.624 316.800 C 202.087 316.800,201.536 316.980,201.400 317.200 C 201.264 317.420,200.724 317.600,200.200 317.600 C 199.676 317.600,199.136 317.780,199.000 318.000 C 198.864 318.220,198.223 318.400,197.576 318.400 C 196.929 318.400,196.400 318.580,196.400 318.800 C 196.400 319.020,195.590 319.200,194.600 319.200 C 193.610 319.200,192.800 319.380,192.800 319.600 C 192.800 319.820,191.900 320.000,190.800 320.000 C 189.700 320.000,188.800 320.180,188.800 320.400 C 188.800 320.629,187.600 320.800,186.000 320.800 C 184.400 320.800,183.200 320.971,183.200 321.200 C 183.200 321.443,181.400 321.600,178.600 321.600 C 175.800 321.600,174.000 321.757,174.000 322.000 C 174.000 322.541,160.934 322.541,160.600 322.000 C 160.456 321.767,158.204 321.600,155.200 321.600 C 152.196 321.600,149.944 321.433,149.800 321.200 C 149.664 320.980,148.303 320.800,146.776 320.800 C 145.192 320.800,144.000 320.628,144.000 320.400 C 144.000 320.180,143.010 320.000,141.800 320.000 C 140.590 320.000,139.600 319.820,139.600 319.600 C 139.600 319.380,138.880 319.200,138.000 319.200 C 137.120 319.200,136.400 319.020,136.400 318.800 C 136.400 318.580,135.680 318.400,134.800 318.400 C 133.920 318.400,133.200 318.220,133.200 318.000 C 133.200 317.780,132.480 317.600,131.600 317.600 C 130.720 317.600,130.000 317.420,130.000 317.200 C 130.000 316.980,129.460 316.800,128.800 316.800 C 128.140 316.800,127.600 316.620,127.600 316.400 C 127.600 316.180,126.981 316.000,126.224 316.000 C 125.467 316.000,124.736 315.820,124.600 315.600 C 124.464 315.380,123.913 315.200,123.376 315.200 C 122.839 315.200,122.400 315.020,122.400 314.800 C 122.400 314.580,121.860 314.400,121.200 314.400 C 120.540 314.400,120.000 314.220,120.000 314.000 C 120.000 313.780,119.460 313.600,118.800 313.600 C 118.140 313.600,117.600 313.420,117.600 313.200 C 117.600 312.980,117.251 312.800,116.824 312.800 C 116.397 312.800,115.936 312.620,115.800 312.400 C 115.664 312.180,115.113 312.000,114.576 312.000 C 114.039 312.000,113.600 311.820,113.600 311.600 C 113.600 311.380,113.240 311.200,112.800 311.200 C 112.360 311.200,112.000 311.020,112.000 310.800 C 112.000 310.580,111.735 310.400,111.412 310.400 C 111.088 310.400,109.840 309.950,108.637 309.400 C 107.435 308.850,106.170 308.400,105.826 308.400 C 105.482 308.400,105.200 308.220,105.200 308.000 C 105.200 307.780,104.840 307.600,104.400 307.600 C 103.960 307.600,103.600 307.420,103.600 307.200 C 103.600 306.980,103.240 306.800,102.800 306.800 C 102.360 306.800,102.000 306.620,102.000 306.400 C 102.000 306.180,101.640 306.000,101.200 306.000 C 100.760 306.000,100.400 305.820,100.400 305.600 C 100.400 305.380,100.040 305.200,99.600 305.200 C 99.160 305.200,98.800 305.020,98.800 304.800 C 98.800 304.580,98.440 304.400,98.000 304.400 C 97.560 304.400,97.200 304.220,97.200 304.000 C 97.200 303.780,96.840 303.600,96.400 303.600 C 95.960 303.600,95.600 303.420,95.600 303.200 C 95.600 302.980,95.240 302.800,94.800 302.800 C 94.360 302.800,94.000 302.620,94.000 302.400 C 94.000 302.180,93.651 302.000,93.224 302.000 C 92.797 302.000,92.336 301.820,92.200 301.600 C 92.064 301.380,91.333 301.200,90.576 301.200 C 89.819 301.200,89.200 301.020,89.200 300.800 C 89.200 300.565,87.800 300.400,85.800 300.400 C 83.800 300.400,82.400 300.565,82.400 300.800 C 82.400 301.020,81.860 301.200,81.200 301.200 C 80.540 301.200,80.000 301.380,80.000 301.600 C 80.000 301.820,79.640 302.000,79.200 302.000 C 78.760 302.000,78.400 302.180,78.400 302.400 C 78.400 302.620,78.145 302.800,77.834 302.800 C 77.523 302.800,76.758 303.359,76.134 304.043 C 75.510 304.726,74.595 305.708,74.100 306.225 C 73.605 306.741,73.200 307.359,73.200 307.599 C 73.200 307.838,72.840 308.420,72.400 308.892 C 71.960 309.364,71.600 310.077,71.600 310.475 C 71.600 310.874,71.420 311.200,71.200 311.200 C 70.980 311.200,70.800 311.650,70.800 312.200 C 70.800 312.750,70.620 313.200,70.400 313.200 C 70.180 313.200,70.000 313.830,70.000 314.600 C 70.000 315.370,69.820 316.000,69.600 316.000 C 69.380 316.000,69.200 316.900,69.200 318.000 C 69.200 319.100,69.020 320.000,68.800 320.000 C 68.560 320.000,68.400 321.592,68.400 323.976 C 68.400 326.196,68.223 328.062,68.000 328.200 C 67.455 328.537,67.455 351.863,68.000 352.200 C 68.223 352.338,68.400 354.204,68.400 356.424 C 68.400 358.808,68.560 360.400,68.800 360.400 C 69.020 360.400,69.200 361.289,69.200 362.376 C 69.200 363.463,69.380 364.464,69.600 364.600 C 69.820 364.736,70.000 365.467,70.000 366.224 C 70.000 366.981,70.180 367.600,70.400 367.600 C 70.620 367.600,70.800 368.140,70.800 368.800 C 70.800 369.460,70.980 370.000,71.200 370.000 C 71.420 370.000,71.600 370.360,71.600 370.800 C 71.600 371.240,71.780 371.600,72.000 371.600 C 72.220 371.600,72.400 371.960,72.400 372.400 C 72.400 372.840,72.580 373.200,72.800 373.200 C 73.020 373.200,73.200 373.386,73.200 373.614 C 73.200 373.842,73.560 374.427,74.001 374.914 C 76.947 378.172,78.807 380.000,79.174 380.000 C 79.408 380.000,79.600 380.180,79.600 380.400 C 79.600 380.620,79.870 380.800,80.200 380.800 C 80.530 380.800,80.800 380.980,80.800 381.200 C 80.800 381.420,81.160 381.600,81.600 381.600 C 82.040 381.600,82.400 381.780,82.400 382.000 C 82.400 382.220,82.760 382.400,83.200 382.400 C 83.640 382.400,84.000 382.580,84.000 382.800 C 84.000 383.020,84.360 383.200,84.800 383.200 C 85.240 383.200,85.600 383.380,85.600 383.600 C 85.600 383.820,85.960 384.000,86.400 384.000 C 86.840 384.000,87.200 384.180,87.200 384.400 C 87.200 384.620,87.560 384.800,88.000 384.800 C 88.440 384.800,88.800 384.980,88.800 385.200 C 88.800 385.420,89.340 385.600,90.000 385.600 C 90.660 385.600,91.200 385.780,91.200 386.000 C 91.200 386.220,91.560 386.400,92.000 386.400 C 92.440 386.400,92.800 386.580,92.800 386.800 C 92.800 387.020,93.239 387.200,93.776 387.200 C 94.313 387.200,94.864 387.380,95.000 387.600 C 95.136 387.820,95.687 388.000,96.224 388.000 C 96.761 388.000,97.200 388.180,97.200 388.400 C 97.200 388.620,97.639 388.800,98.176 388.800 C 98.713 388.800,99.264 388.980,99.400 389.200 C 99.536 389.420,100.166 389.600,100.800 389.600 C 101.434 389.600,102.064 389.780,102.200 390.000 C 102.336 390.220,102.876 390.400,103.400 390.400 C 103.924 390.400,104.459 390.572,104.589 390.782 C 104.718 390.991,105.899 391.285,107.212 391.433 C 108.525 391.582,109.600 391.860,109.600 392.052 C 109.600 392.243,110.320 392.400,111.200 392.400 C 112.080 392.400,112.800 392.580,112.800 392.800 C 112.800 393.020,113.520 393.200,114.400 393.200 C 115.280 393.200,116.000 393.380,116.000 393.600 C 116.000 393.820,116.720 394.000,117.600 394.000 C 118.480 394.000,119.200 394.180,119.200 394.400 C 119.200 394.620,119.909 394.800,120.776 394.800 C 121.643 394.800,122.464 394.980,122.600 395.200 C 122.736 395.420,123.647 395.600,124.624 395.600 C 125.601 395.600,126.400 395.780,126.400 396.000 C 126.400 396.220,127.390 396.400,128.600 396.400 C 129.810 396.400,130.800 396.580,130.800 396.800 C 130.800 397.022,131.867 397.200,133.200 397.200 C 134.533 397.200,135.600 397.378,135.600 397.600 C 135.600 397.822,136.667 398.000,138.000 398.000 C 139.333 398.000,140.400 398.178,140.400 398.400 C 140.400 398.630,141.640 398.800,143.320 398.800 C 145.123 398.800,146.431 398.991,146.740 399.300 C 147.130 399.690,153.325 399.800,175.000 399.800 C 196.675 399.800,202.870 399.690,203.260 399.300 C 203.569 398.991,204.877 398.800,206.680 398.800 C 208.360 398.800,209.600 398.630,209.600 398.400 C 209.600 398.178,210.667 398.000,212.000 398.000 C 213.333 398.000,214.400 397.822,214.400 397.600 C 214.400 397.380,215.289 397.200,216.376 397.200 C 217.463 397.200,218.464 397.020,218.600 396.800 C 218.736 396.580,219.647 396.400,220.624 396.400 C 221.601 396.400,222.400 396.220,222.400 396.000 C 222.400 395.780,223.210 395.600,224.200 395.600 C 225.190 395.600,226.000 395.420,226.000 395.200 C 226.000 394.980,226.720 394.800,227.600 394.800 C 228.480 394.800,229.200 394.620,229.200 394.400 C 229.200 394.180,229.920 394.000,230.800 394.000 C 231.680 394.000,232.400 393.820,232.400 393.600 C 232.400 393.380,232.940 393.200,233.600 393.200 C 234.260 393.200,234.800 393.020,234.800 392.800 C 234.800 392.580,235.430 392.400,236.200 392.400 C 236.970 392.400,237.600 392.220,237.600 392.000 C 237.600 391.780,238.038 391.600,238.572 391.600 C 239.754 391.600,246.147 389.552,246.333 389.113 C 246.407 388.941,246.891 388.800,247.410 388.800 C 247.928 388.800,248.464 388.620,248.600 388.400 C 248.736 388.180,249.197 388.000,249.624 388.000 C 250.051 388.000,250.400 387.820,250.400 387.600 C 250.400 387.380,250.839 387.200,251.376 387.200 C 251.913 387.200,252.464 387.020,252.600 386.800 C 252.736 386.580,253.197 386.400,253.624 386.400 C 254.051 386.400,254.400 386.220,254.400 386.000 C 254.400 385.780,254.760 385.600,255.200 385.600 C 255.640 385.600,256.000 385.420,256.000 385.200 C 256.000 384.980,256.349 384.800,256.776 384.800 C 257.203 384.800,257.664 384.620,257.800 384.400 C 257.936 384.180,258.397 384.000,258.824 384.000 C 259.251 384.000,259.600 383.820,259.600 383.600 C 259.600 383.380,259.960 383.200,260.400 383.200 C 260.840 383.200,261.200 383.020,261.200 382.800 C 261.200 382.580,261.560 382.400,262.000 382.400 C 262.440 382.400,262.800 382.220,262.800 382.000 C 262.800 381.780,263.160 381.600,263.600 381.600 C 264.040 381.600,264.400 381.420,264.400 381.200 C 264.400 380.980,264.678 380.800,265.017 380.800 C 265.356 380.800,266.020 380.440,266.492 380.000 C 266.964 379.560,267.587 379.200,267.875 379.200 C 268.164 379.200,268.400 379.020,268.400 378.800 C 268.400 378.580,268.760 378.400,269.200 378.400 C 269.640 378.400,270.000 378.220,270.000 378.000 C 270.000 377.780,270.236 377.600,270.525 377.600 C 270.813 377.600,271.398 377.285,271.825 376.900 C 272.251 376.515,273.317 375.840,274.194 375.400 C 275.071 374.960,276.028 374.375,276.322 374.100 C 276.617 373.825,276.996 373.600,277.166 373.600 C 277.336 373.600,277.999 373.150,278.638 372.600 C 279.277 372.051,279.985 371.601,280.212 371.600 C 280.438 371.600,280.883 371.240,281.200 370.800 C 281.517 370.360,281.985 370.000,282.240 370.000 C 282.495 370.000,283.445 369.280,284.352 368.400 C 285.259 367.520,286.162 366.800,286.360 366.800 C 286.557 366.800,287.638 365.900,288.761 364.800 C 289.885 363.700,290.895 362.800,291.007 362.800 C 291.610 362.800,304.400 349.368,304.400 348.734 C 304.400 348.552,305.030 347.734,305.800 346.918 C 306.570 346.101,307.200 345.318,307.200 345.178 C 307.200 345.037,307.560 344.507,308.000 344.000 C 308.440 343.493,308.800 342.843,308.800 342.557 C 308.800 342.271,309.205 341.610,309.700 341.088 C 311.170 339.539,312.000 338.417,312.000 337.979 C 312.000 337.752,312.360 337.180,312.800 336.708 C 313.240 336.236,313.600 335.613,313.600 335.325 C 313.600 335.036,313.780 334.800,314.000 334.800 C 314.220 334.800,314.400 334.522,314.400 334.183 C 314.400 333.844,314.760 333.180,315.200 332.708 C 315.640 332.236,316.000 331.613,316.000 331.325 C 316.000 331.036,316.180 330.800,316.400 330.800 C 316.620 330.800,316.800 330.440,316.800 330.000 C 316.800 329.560,316.980 329.200,317.200 329.200 C 317.420 329.200,317.600 328.840,317.600 328.400 C 317.600 327.960,317.780 327.600,318.000 327.600 C 318.220 327.600,318.400 327.240,318.400 326.800 C 318.400 326.360,318.580 326.000,318.800 326.000 C 319.020 326.000,319.200 325.640,319.200 325.200 C 319.200 324.760,319.380 324.400,319.600 324.400 C 319.820 324.400,320.000 324.040,320.000 323.600 C 320.000 323.160,320.180 322.800,320.400 322.800 C 320.620 322.800,320.800 322.528,320.800 322.195 C 320.800 321.862,320.965 321.277,321.167 320.895 C 322.052 319.221,323.200 316.360,323.200 315.828 C 323.200 315.509,323.380 315.136,323.600 315.000 C 323.820 314.864,324.000 314.313,324.000 313.776 C 324.000 313.239,324.157 312.800,324.348 312.800 C 324.540 312.800,324.815 311.907,324.960 310.816 C 325.105 309.725,325.398 308.725,325.612 308.593 C 325.825 308.461,326.000 307.823,326.000 307.176 C 326.000 306.529,326.180 306.000,326.400 306.000 C 326.620 306.000,326.800 305.381,326.800 304.624 C 326.800 303.867,326.980 303.136,327.200 303.000 C 327.420 302.864,327.600 302.234,327.600 301.600 C 327.600 300.966,327.780 300.336,328.000 300.200 C 328.220 300.064,328.400 299.153,328.400 298.176 C 328.400 297.199,328.580 296.400,328.800 296.400 C 329.020 296.400,329.200 295.500,329.200 294.400 C 329.200 293.300,329.380 292.400,329.600 292.400 C 329.820 292.400,330.000 291.410,330.000 290.200 C 330.000 288.990,330.180 288.000,330.400 288.000 C 330.628 288.000,330.800 286.808,330.800 285.224 C 330.800 283.697,330.980 282.336,331.200 282.200 C 331.429 282.058,331.600 279.996,331.600 277.376 C 331.600 274.592,331.757 272.800,332.000 272.800 C 332.256 272.800,332.400 269.200,332.400 262.800 C 332.400 256.400,332.256 252.800,332.000 252.800 C 331.757 252.800,331.600 251.000,331.600 248.200 C 331.600 245.400,331.443 243.600,331.200 243.600 C 330.971 243.600,330.800 242.400,330.800 240.800 C 330.800 239.200,330.629 238.000,330.400 238.000 C 330.178 238.000,330.000 236.933,330.000 235.600 C 330.000 234.267,329.822 233.200,329.600 233.200 C 329.380 233.200,329.200 232.401,329.200 231.424 C 329.200 230.447,329.020 229.536,328.800 229.400 C 328.580 229.264,328.400 228.533,328.400 227.776 C 328.400 227.019,328.220 226.400,328.000 226.400 C 327.780 226.400,327.600 225.680,327.600 224.800 C 327.600 223.920,327.420 223.200,327.200 223.200 C 326.980 223.200,326.800 222.660,326.800 222.000 C 326.800 221.340,326.620 220.800,326.400 220.800 C 326.180 220.800,326.000 220.260,326.000 219.600 C 326.000 218.940,325.844 218.400,325.654 218.400 C 325.464 218.400,325.198 217.594,325.063 216.609 C 324.928 215.624,324.649 214.499,324.442 214.109 C 324.236 213.719,323.762 212.680,323.390 211.800 C 323.018 210.920,322.462 209.677,322.156 209.039 C 321.850 208.400,321.600 207.635,321.600 207.339 C 321.600 207.042,321.420 206.800,321.200 206.800 C 320.980 206.800,320.800 206.440,320.800 206.000 C 320.800 205.560,320.620 205.200,320.400 205.200 C 320.180 205.200,320.000 204.840,320.000 204.400 C 320.000 203.960,319.820 203.600,319.600 203.600 C 319.380 203.600,319.200 203.240,319.200 202.800 C 319.200 202.360,319.020 202.000,318.800 202.000 C 318.580 202.000,318.400 201.722,318.400 201.383 C 318.400 201.044,318.040 200.380,317.600 199.908 C 317.160 199.436,316.800 198.813,316.800 198.525 C 316.800 198.236,316.620 198.000,316.400 198.000 C 316.180 198.000,316.000 197.640,316.000 197.200 C 316.000 196.760,315.820 196.400,315.600 196.400 C 315.380 196.400,315.200 196.130,315.200 195.800 C 315.200 195.470,315.020 195.200,314.800 195.200 C 314.580 195.200,314.400 195.022,314.400 194.805 C 314.400 194.587,314.085 194.032,313.700 193.571 C 313.315 193.110,312.595 192.253,312.100 191.666 C 311.606 191.080,311.201 190.447,311.200 190.260 C 311.200 190.074,310.660 189.417,310.000 188.800 C 309.340 188.183,308.799 187.436,308.798 187.140 C 308.797 186.843,308.032 185.788,307.098 184.795 C 306.164 183.802,304.507 181.939,303.416 180.654 C 302.326 179.369,300.346 177.482,299.016 176.460 C 297.687 175.438,295.903 173.926,295.052 173.101 C 294.200 172.275,293.327 171.600,293.112 171.600 C 292.897 171.600,292.217 171.060,291.600 170.400 C 290.983 169.740,290.321 169.200,290.128 169.200 C 289.935 169.200,289.517 168.840,289.200 168.400 C 288.883 167.960,288.343 167.600,288.000 167.600 C 287.657 167.600,287.117 167.240,286.800 166.800 C 286.483 166.360,285.943 166.000,285.600 166.000 C 285.257 166.000,284.717 165.640,284.400 165.200 C 284.083 164.760,283.518 164.400,283.145 164.400 C 282.772 164.400,282.407 164.265,282.333 164.100 C 282.166 163.724,280.036 162.425,279.100 162.129 C 278.715 162.007,278.400 161.748,278.400 161.553 C 278.400 161.359,278.040 161.200,277.600 161.200 C 277.160 161.200,276.800 161.020,276.800 160.800 C 276.800 160.580,276.455 160.400,276.033 160.400 C 275.612 160.400,275.207 160.265,275.133 160.100 C 274.951 159.689,272.110 158.400,271.386 158.400 C 271.064 158.400,270.800 158.220,270.800 158.000 C 270.800 157.780,270.451 157.600,270.024 157.600 C 269.597 157.600,269.136 157.420,269.000 157.200 C 268.864 156.980,268.313 156.800,267.776 156.800 C 267.239 156.800,266.800 156.620,266.800 156.400 C 266.800 156.180,266.440 156.000,266.000 156.000 C 265.560 156.000,265.200 155.820,265.200 155.600 C 265.200 155.380,264.660 155.200,264.000 155.200 C 263.340 155.200,262.800 155.020,262.800 154.800 C 262.800 154.580,262.451 154.400,262.024 154.400 C 261.597 154.400,261.136 154.220,261.000 154.000 C 260.864 153.780,260.313 153.600,259.776 153.600 C 259.239 153.600,258.800 153.420,258.800 153.200 C 258.800 152.980,258.260 152.800,257.600 152.800 C 256.940 152.800,256.400 152.620,256.400 152.400 C 256.400 152.180,255.871 152.000,255.224 152.000 C 254.577 152.000,253.936 151.820,253.800 151.600 C 253.664 151.380,253.023 151.200,252.376 151.200 C 251.729 151.200,251.200 151.020,251.200 150.800 C 251.200 150.580,250.581 150.400,249.824 150.400 C 249.067 150.400,248.348 150.240,248.227 150.044 C 248.009 149.691,246.560 149.366,243.300 148.941 C 242.365 148.819,241.600 148.558,241.600 148.360 C 241.600 148.162,240.790 148.000,239.800 148.000 C 238.810 148.000,238.000 147.820,238.000 147.600 C 238.000 147.380,237.111 147.200,236.024 147.200 C 234.937 147.200,233.936 147.020,233.800 146.800 C 233.664 146.580,232.393 146.400,230.976 146.400 C 229.525 146.400,228.400 146.225,228.400 146.000 C 228.400 145.770,227.160 145.600,225.480 145.600 C 223.874 145.600,222.389 145.432,222.180 145.227 C 221.325 144.386,171.310 143.830,165.100 144.592 L 162.800 144.874 162.800 113.637 L 162.800 82.400 227.200 82.400 C 269.867 82.400,291.600 82.265,291.600 82.000 C 291.600 81.780,292.320 81.600,293.200 81.600 C 294.080 81.600,294.800 81.420,294.800 81.200 C 294.800 80.980,295.160 80.800,295.600 80.800 C 296.040 80.800,296.400 80.620,296.400 80.400 C 296.400 80.180,296.760 80.000,297.200 80.000 C 297.640 80.000,298.000 79.820,298.000 79.600 C 298.000 79.380,298.235 79.200,298.522 79.200 C 299.708 79.200,305.200 72.635,305.200 71.217 C 305.200 70.981,305.359 70.477,305.553 70.095 C 306.190 68.844,306.701 67.430,307.179 65.600 C 307.438 64.610,307.823 63.260,308.035 62.600 C 308.247 61.940,308.534 58.828,308.673 55.685 C 308.812 52.541,309.078 49.876,309.263 49.761 C 309.705 49.488,309.703 30.000,309.261 30.000 C 309.075 30.000,308.812 27.525,308.677 24.500 C 308.541 21.475,308.255 18.460,308.040 17.800 C 307.825 17.140,307.428 15.790,307.156 14.800 C 306.476 12.313,304.395 7.934,303.522 7.153 C 303.125 6.797,302.800 6.320,302.800 6.093 C 302.800 5.523,300.029 2.800,299.448 2.800 C 299.189 2.800,298.717 2.440,298.400 2.000 C 298.083 1.560,297.518 1.200,297.145 1.200 C 296.772 1.200,296.392 0.975,296.300 0.700 C 296.143 0.228,105.546 -0.171,100.500 0.290 M228.800 225.437 C 227.039 226.199,224.800 228.335,224.800 229.255 C 224.800 229.639,224.620 230.064,224.400 230.200 C 224.180 230.336,224.000 231.787,224.000 233.424 C 224.000 235.141,224.169 236.400,224.400 236.400 C 224.620 236.400,224.800 236.687,224.800 237.038 C 224.800 241.718,235.893 243.436,239.080 239.249 C 240.863 236.908,241.947 231.709,240.800 231.000 C 240.580 230.864,240.400 230.460,240.400 230.101 C 240.400 226.473,233.147 223.557,228.800 225.437 " stroke="none" fill="#040404" fill-rule="evenodd"></path><path id="path1" d="" stroke="none" fill="#080404" fill-rule="evenodd"></path><path id="path2" d="" stroke="none" fill="#080404" fill-rule="evenodd"></path><path id="path3" d="" stroke="none" fill="#080404" fill-rule="evenodd"></path><path id="path4" d="" stroke="none" fill="#080404" fill-rule="evenodd"></path></g></svg>