<svg xmlns="http://www.w3.org/2000/svg" viewBox="0 0 1887.37 1056.38"><defs><style>.cls-1{fill:#43bee5;}.cls-2{fill:#f40058;}</style></defs><g id="Layer_2" data-name="Layer 2"><g id="Layer_1-2" data-name="Layer 1"><g id="Layer_2-2" data-name="Layer 2"><g id="Layer_1-2-2" data-name="Layer 1-2"><path class="cls-1" d="M655.07,1009a464,464,0,0,1-108.83,37.33,483.64,483.64,0,0,1-93.33,9.86,303.91,303.91,0,0,1-122.21-21.48,187.05,187.05,0,0,1-79.24-61.28,244.17,244.17,0,0,1-40.15-98.26A619.72,619.72,0,0,1,199,743.14V480.41H0v-155H384.59v442a156.38,156.38,0,0,0,23.6,95.09,91.19,91.19,0,0,0,78.18,31,342.67,342.67,0,0,0,62.34-6.69,361.46,361.46,0,0,0,82.06-28.17ZM376.84,120.12a111.29,111.29,0,0,1-35.22,86.64,120.17,120.17,0,0,1-83.47,32.05,118,118,0,0,1-82.06-32.05,113.06,113.06,0,0,1-35.21-86.64,115.49,115.49,0,0,1,35.21-88.05A116.62,116.62,0,0,1,258.51,0,118.73,118.73,0,0,1,342,32.07,113.38,113.38,0,0,1,376.84,120.12Z"/><path class="cls-2" d="M626.89,1039.33l-194-713.89h201.1L744.52,805.12h6.34L865.68,325.44H1062.2l117.28,476.87h5.63l108.83-476.87h200l-193.7,713.89h-208.5l-124-448.69H959L836.09,1039.33Z"/><path class="cls-2" d="M1874.34,325.44v149H1444v-149ZM1541.88,154.63h197.93V819.92a88.74,88.74,0,0,0,8.45,42.61,44.36,44.36,0,0,0,23.6,21.13,88.06,88.06,0,0,0,35.21,6,145.93,145.93,0,0,0,27.83-2.47l21.48-3.87,31,147.21c-9.86,3.17-23.59,6.7-41.55,10.92a327.49,327.49,0,0,1-65.51,7.75,303.16,303.16,0,0,1-125-19,173.61,173.61,0,0,1-83.47-68,207.53,207.53,0,0,1-29.93-116.93Z"/></g></g></g></g></svg>