<svg id="svg" version="1.1" xmlns="http://www.w3.org/2000/svg" xmlns:xlink="http://www.w3.org/1999/xlink" width="400" height="400" viewBox="0, 0, 400,400"><g id="svgg"><path id="path0" d="M210.604 0.280 C 208.407 0.363,206.436 0.604,206.224 0.816 C 206.013 1.027,204.796 1.200,203.520 1.200 C 202.240 1.200,201.200 1.379,201.200 1.600 C 201.200 1.820,200.401 2.000,199.424 2.000 C 198.447 2.000,197.536 2.180,197.400 2.400 C 197.264 2.620,196.533 2.800,195.776 2.800 C 195.019 2.800,194.400 2.980,194.400 3.200 C 194.400 3.420,193.860 3.600,193.200 3.600 C 192.540 3.600,192.000 3.780,192.000 4.000 C 192.000 4.220,191.561 4.400,191.024 4.400 C 190.487 4.400,189.936 4.580,189.800 4.800 C 189.664 5.020,189.203 5.200,188.776 5.200 C 188.349 5.200,188.000 5.380,188.000 5.600 C 188.000 5.820,187.764 6.000,187.475 6.000 C 187.187 6.000,186.564 6.360,186.092 6.800 C 185.620 7.240,185.031 7.600,184.783 7.600 C 184.247 7.600,180.000 11.582,180.000 12.084 C 180.000 12.276,179.640 12.820,179.200 13.292 C 178.760 13.764,178.400 14.387,178.400 14.675 C 178.400 14.964,178.220 15.200,178.000 15.200 C 177.780 15.200,177.600 15.545,177.600 15.967 C 177.600 16.388,177.465 16.793,177.300 16.867 C 176.826 17.077,174.800 21.038,174.800 21.754 C 174.800 22.109,174.620 22.400,174.400 22.400 C 174.180 22.400,174.000 22.636,174.000 22.925 C 174.000 23.213,173.675 23.798,173.278 24.225 C 172.880 24.651,172.297 25.585,171.980 26.300 C 171.664 27.015,171.269 27.600,171.102 27.600 C 170.936 27.600,170.800 27.878,170.800 28.217 C 170.800 28.556,170.440 29.220,170.000 29.692 C 169.560 30.164,169.200 30.787,169.200 31.075 C 169.200 31.364,169.020 31.600,168.800 31.600 C 168.580 31.600,168.400 31.960,168.400 32.400 C 168.400 32.840,168.220 33.200,168.000 33.200 C 167.780 33.200,167.600 33.478,167.600 33.817 C 167.600 34.156,167.240 34.820,166.800 35.292 C 166.360 35.764,166.000 36.387,166.000 36.675 C 166.000 36.964,165.820 37.200,165.600 37.200 C 165.380 37.200,165.200 37.560,165.200 38.000 C 165.200 38.440,165.020 38.800,164.800 38.800 C 164.580 38.800,164.400 39.160,164.400 39.600 C 164.400 40.040,164.232 40.400,164.027 40.400 C 163.822 40.400,163.540 40.759,163.401 41.198 C 163.262 41.636,162.933 42.221,162.672 42.498 C 162.410 42.774,161.749 43.900,161.203 45.000 C 160.657 46.100,160.098 47.090,159.961 47.200 C 159.501 47.568,158.400 49.953,158.400 50.580 C 158.400 50.921,158.220 51.200,158.000 51.200 C 157.780 51.200,157.600 51.520,157.600 51.912 C 157.600 52.303,157.240 52.883,156.800 53.200 C 156.360 53.517,156.000 54.097,156.000 54.488 C 156.000 54.880,155.820 55.200,155.600 55.200 C 155.380 55.200,155.200 55.560,155.200 56.000 C 155.200 56.440,155.020 56.800,154.800 56.800 C 154.580 56.800,154.400 57.094,154.400 57.453 C 154.400 57.812,154.071 58.397,153.670 58.753 C 153.268 59.109,152.684 59.985,152.372 60.700 C 152.060 61.415,151.669 62.000,151.502 62.000 C 151.336 62.000,151.200 62.360,151.200 62.800 C 151.200 63.240,151.020 63.600,150.800 63.600 C 150.580 63.600,150.400 63.836,150.400 64.125 C 150.400 64.413,150.040 65.036,149.600 65.508 C 149.160 65.980,148.800 66.644,148.800 66.983 C 148.800 67.322,148.620 67.600,148.400 67.600 C 148.180 67.600,148.000 67.945,148.000 68.367 C 148.000 68.788,147.865 69.193,147.700 69.267 C 147.324 69.434,146.025 71.564,145.729 72.500 C 145.607 72.885,145.348 73.200,145.153 73.200 C 144.959 73.200,144.800 73.560,144.800 74.000 C 144.800 74.440,144.620 74.800,144.400 74.800 C 144.180 74.800,144.000 74.984,144.000 75.208 C 144.000 75.432,143.550 76.329,143.000 77.200 C 142.450 78.071,142.000 79.058,142.000 79.392 C 142.000 79.726,141.820 80.000,141.600 80.000 C 141.380 80.000,141.200 80.320,141.200 80.712 C 141.200 81.103,140.840 81.683,140.400 82.000 C 139.960 82.317,139.600 82.897,139.600 83.288 C 139.600 83.680,139.420 84.000,139.200 84.000 C 138.980 84.000,138.800 84.360,138.800 84.800 C 138.800 85.240,138.620 85.600,138.400 85.600 C 138.180 85.600,138.000 85.878,138.000 86.217 C 138.000 86.556,137.640 87.220,137.200 87.692 C 136.760 88.164,136.400 88.787,136.400 89.075 C 136.400 89.364,136.220 89.600,136.000 89.600 C 135.780 89.600,135.600 89.960,135.600 90.400 C 135.600 90.840,135.420 91.200,135.200 91.200 C 134.980 91.200,134.800 91.393,134.800 91.628 C 134.800 91.863,134.260 92.841,133.600 93.800 C 132.940 94.759,132.400 95.737,132.400 95.972 C 132.400 96.207,132.220 96.400,132.000 96.400 C 131.780 96.400,131.600 96.760,131.600 97.200 C 131.600 97.640,131.420 98.000,131.200 98.000 C 130.980 98.000,130.800 98.278,130.800 98.617 C 130.800 98.956,130.440 99.620,130.000 100.092 C 129.560 100.564,129.200 101.187,129.200 101.475 C 129.200 101.764,129.020 102.000,128.800 102.000 C 128.580 102.000,128.400 102.360,128.400 102.800 C 128.400 103.240,128.220 103.600,128.000 103.600 C 127.780 103.600,127.600 103.960,127.600 104.400 C 127.600 104.840,127.453 105.200,127.274 105.200 C 127.094 105.200,126.419 106.325,125.774 107.700 C 125.128 109.075,124.465 110.260,124.300 110.333 C 124.135 110.407,124.000 110.722,124.000 111.033 C 124.000 111.345,123.820 111.600,123.600 111.600 C 123.380 111.600,123.200 111.870,123.200 112.200 C 123.200 112.530,123.020 112.800,122.800 112.800 C 122.580 112.800,122.400 113.160,122.400 113.600 C 122.400 114.040,122.220 114.400,122.000 114.400 C 121.780 114.400,121.600 114.760,121.600 115.200 C 121.600 115.640,121.420 116.000,121.200 116.000 C 120.980 116.000,120.800 116.270,120.800 116.600 C 120.800 116.930,120.620 117.200,120.400 117.200 C 120.180 117.200,120.000 117.470,120.000 117.800 C 120.000 118.130,119.820 118.400,119.600 118.400 C 119.380 118.400,119.200 118.760,119.200 119.200 C 119.200 119.640,119.020 120.000,118.800 120.000 C 118.580 120.000,118.400 120.360,118.400 120.800 C 118.400 121.240,118.220 121.600,118.000 121.600 C 117.780 121.600,117.600 121.836,117.600 122.125 C 117.600 122.413,117.240 123.036,116.800 123.508 C 116.360 123.980,116.000 124.644,116.000 124.983 C 116.000 125.322,115.820 125.600,115.600 125.600 C 115.380 125.600,115.200 125.870,115.200 126.200 C 115.200 126.530,115.020 126.800,114.800 126.800 C 114.580 126.800,114.400 127.160,114.400 127.600 C 114.400 128.040,114.248 128.400,114.063 128.400 C 113.877 128.400,113.292 129.255,112.763 130.300 C 112.233 131.345,111.665 132.260,111.500 132.333 C 111.335 132.407,111.200 132.797,111.200 133.200 C 111.200 133.603,111.043 133.993,110.851 134.067 C 110.443 134.222,108.400 138.171,108.400 138.803 C 108.400 139.040,108.040 139.620,107.600 140.092 C 107.160 140.564,106.800 141.187,106.800 141.475 C 106.800 141.764,106.620 142.000,106.400 142.000 C 106.180 142.000,106.000 142.270,106.000 142.600 C 106.000 142.930,105.820 143.200,105.600 143.200 C 105.380 143.200,105.200 143.560,105.200 144.000 C 105.200 144.440,105.020 144.800,104.800 144.800 C 104.580 144.800,104.400 145.036,104.400 145.325 C 104.400 145.613,104.040 146.236,103.600 146.708 C 103.160 147.180,102.800 147.844,102.800 148.183 C 102.800 148.522,102.620 148.800,102.400 148.800 C 102.180 148.800,102.000 149.160,102.000 149.600 C 102.000 150.040,101.820 150.400,101.600 150.400 C 101.380 150.400,101.200 150.678,101.200 151.017 C 101.200 151.356,100.840 152.020,100.400 152.492 C 99.960 152.964,99.600 153.587,99.600 153.875 C 99.600 154.164,99.420 154.400,99.200 154.400 C 98.980 154.400,98.800 154.760,98.800 155.200 C 98.800 155.640,98.620 156.000,98.400 156.000 C 98.180 156.000,98.000 156.278,98.000 156.617 C 98.000 156.956,97.640 157.620,97.200 158.092 C 96.760 158.564,96.400 159.187,96.400 159.475 C 96.400 159.764,96.264 160.000,96.098 160.000 C 95.931 160.000,95.541 160.585,95.230 161.300 C 94.919 162.015,94.545 162.690,94.399 162.800 C 94.254 162.910,93.268 164.755,92.209 166.900 C 91.150 169.045,90.129 170.800,89.941 170.800 C 89.754 170.800,89.600 171.160,89.600 171.600 C 89.600 172.040,89.420 172.400,89.200 172.400 C 88.980 172.400,88.800 172.760,88.800 173.200 C 88.800 173.640,88.620 174.000,88.400 174.000 C 88.180 174.000,88.000 174.236,88.000 174.525 C 88.000 174.813,87.640 175.436,87.200 175.908 C 86.760 176.380,86.400 176.954,86.400 177.183 C 86.400 177.412,86.220 177.600,86.000 177.600 C 85.780 177.600,85.600 177.960,85.600 178.400 C 85.600 178.840,85.420 179.200,85.200 179.200 C 84.980 179.200,84.800 179.478,84.800 179.817 C 84.800 180.156,84.440 180.820,84.000 181.292 C 83.560 181.764,83.200 182.387,83.200 182.675 C 83.200 182.964,83.020 183.200,82.800 183.200 C 82.580 183.200,82.400 183.560,82.400 184.000 C 82.400 184.440,82.220 184.800,82.000 184.800 C 81.780 184.800,81.600 185.160,81.600 185.600 C 81.600 186.040,81.442 186.400,81.249 186.400 C 81.055 186.400,80.673 186.940,80.400 187.600 C 80.127 188.260,79.745 188.800,79.551 188.800 C 79.358 188.800,79.200 189.160,79.200 189.600 C 79.200 190.040,79.020 190.400,78.800 190.400 C 78.580 190.400,78.400 190.760,78.400 191.200 C 78.400 191.640,78.254 192.000,78.076 192.000 C 77.898 192.000,76.869 193.710,75.790 195.800 C 74.710 197.890,73.686 199.600,73.513 199.600 C 73.341 199.600,73.200 199.960,73.200 200.400 C 73.200 200.840,73.020 201.200,72.800 201.200 C 72.580 201.200,72.400 201.560,72.400 202.000 C 72.400 202.440,72.220 202.800,72.000 202.800 C 71.780 202.800,71.600 203.120,71.600 203.512 C 71.600 203.903,71.240 204.483,70.800 204.800 C 70.360 205.117,70.000 205.697,70.000 206.088 C 70.000 206.480,69.820 206.800,69.600 206.800 C 69.380 206.800,69.200 207.160,69.200 207.600 C 69.200 208.040,69.020 208.400,68.800 208.400 C 68.580 208.400,68.400 208.655,68.400 208.967 C 68.400 209.278,68.265 209.593,68.100 209.667 C 67.724 209.834,66.425 211.964,66.129 212.900 C 66.007 213.285,65.748 213.600,65.553 213.600 C 65.359 213.600,65.200 213.945,65.200 214.367 C 65.200 214.788,65.065 215.193,64.900 215.267 C 64.524 215.434,63.225 217.564,62.929 218.500 C 62.807 218.885,62.548 219.200,62.353 219.200 C 62.159 219.200,62.000 219.560,62.000 220.000 C 62.000 220.440,61.865 220.803,61.700 220.806 C 61.535 220.810,60.698 222.295,59.840 224.106 C 58.983 225.918,58.128 227.713,57.940 228.095 C 57.753 228.477,57.600 229.062,57.600 229.395 C 57.600 229.728,57.420 230.000,57.200 230.000 C 56.980 230.000,56.800 230.360,56.800 230.800 C 56.800 231.240,56.620 231.600,56.400 231.600 C 56.180 231.600,56.000 232.039,56.000 232.576 C 56.000 233.113,55.820 233.664,55.600 233.800 C 55.380 233.936,55.200 234.577,55.200 235.224 C 55.200 235.871,55.020 236.400,54.800 236.400 C 54.580 236.400,54.400 236.940,54.400 237.600 C 54.400 238.260,54.220 238.800,54.000 238.800 C 53.780 238.800,53.600 239.340,53.600 240.000 C 53.600 240.660,53.420 241.200,53.200 241.200 C 52.980 241.200,52.800 242.010,52.800 243.000 C 52.800 243.990,52.620 244.800,52.400 244.800 C 52.178 244.800,52.000 245.867,52.000 247.200 C 52.000 248.533,51.822 249.600,51.600 249.600 C 51.363 249.600,51.200 251.067,51.200 253.200 C 51.200 255.333,51.037 256.800,50.800 256.800 C 50.539 256.800,50.400 263.133,50.400 275.000 C 50.400 286.867,50.539 293.200,50.800 293.200 C 51.029 293.200,51.200 294.400,51.200 296.000 C 51.200 297.600,51.371 298.800,51.600 298.800 C 51.820 298.800,52.000 299.509,52.000 300.376 C 52.000 301.243,52.180 302.064,52.400 302.200 C 52.620 302.336,52.800 303.067,52.800 303.824 C 52.800 304.581,52.980 305.200,53.200 305.200 C 53.420 305.200,53.600 305.650,53.600 306.200 C 53.600 306.750,53.780 307.200,54.000 307.200 C 54.220 307.200,54.400 307.560,54.400 308.000 C 54.400 308.440,54.580 308.800,54.800 308.800 C 55.020 308.800,55.200 309.120,55.200 309.512 C 55.200 309.903,55.560 310.483,56.000 310.800 C 56.440 311.117,56.800 311.622,56.800 311.921 C 56.800 312.895,61.941 317.600,63.005 317.600 C 63.332 317.600,63.600 317.780,63.600 318.000 C 63.600 318.220,64.140 318.400,64.800 318.400 C 65.460 318.400,66.000 318.580,66.000 318.800 C 66.000 319.020,66.720 319.200,67.600 319.200 C 68.480 319.200,69.200 319.380,69.200 319.600 C 69.200 319.865,93.400 320.000,141.000 320.000 L 212.800 320.000 212.800 352.400 C 212.800 373.733,212.937 384.800,213.200 384.800 C 213.420 384.800,213.600 385.340,213.600 386.000 C 213.600 386.660,213.780 387.200,214.000 387.200 C 214.220 387.200,214.404 387.515,214.409 387.900 C 214.414 388.285,214.770 389.050,215.200 389.600 C 215.630 390.150,215.986 390.743,215.991 390.918 C 216.006 391.448,217.927 393.200,218.494 393.200 C 218.785 393.200,219.283 393.560,219.600 394.000 C 219.917 394.440,220.457 394.800,220.800 394.800 C 221.143 394.800,221.683 395.160,222.000 395.600 C 222.339 396.070,223.035 396.400,223.688 396.400 C 224.300 396.400,224.800 396.580,224.800 396.800 C 224.800 397.020,225.160 397.200,225.600 397.200 C 226.040 397.200,226.400 397.380,226.400 397.600 C 226.400 397.820,227.019 398.000,227.776 398.000 C 228.533 398.000,229.264 398.180,229.400 398.400 C 229.536 398.620,230.432 398.800,231.390 398.800 C 232.429 398.800,233.201 399.002,233.300 399.300 C 233.431 399.693,238.792 399.800,258.313 399.800 C 277.657 399.800,283.271 399.689,283.660 399.300 C 283.935 399.025,284.934 398.800,285.880 398.800 C 286.826 398.800,287.600 398.620,287.600 398.400 C 287.600 398.180,288.230 398.000,289.000 398.000 C 289.770 398.000,290.400 397.820,290.400 397.600 C 290.400 397.380,290.850 397.200,291.400 397.200 C 291.950 397.200,292.400 397.020,292.400 396.800 C 292.400 396.580,292.940 396.400,293.600 396.400 C 294.260 396.400,294.800 396.220,294.800 396.000 C 294.800 395.780,295.036 395.600,295.325 395.600 C 295.613 395.600,296.236 395.240,296.708 394.800 C 297.180 394.360,297.719 394.000,297.905 394.000 C 298.429 394.000,301.200 391.348,301.200 390.846 C 301.200 390.601,301.347 390.400,301.526 390.400 C 301.992 390.400,303.600 387.269,303.600 386.362 C 303.600 385.943,303.780 385.600,304.000 385.600 C 304.263 385.600,304.400 374.400,304.400 352.800 L 304.400 320.000 319.200 320.000 C 328.800 320.000,334.000 319.859,334.000 319.600 C 334.000 319.380,334.540 319.200,335.200 319.200 C 335.860 319.200,336.400 319.020,336.400 318.800 C 336.400 318.580,336.668 318.400,336.995 318.400 C 338.046 318.400,342.400 314.493,342.400 313.551 C 342.400 313.235,342.760 312.717,343.200 312.400 C 343.640 312.083,344.000 311.503,344.000 311.112 C 344.000 310.720,344.180 310.400,344.400 310.400 C 344.620 310.400,344.800 310.040,344.800 309.600 C 344.800 309.160,344.935 308.799,345.100 308.797 C 345.506 308.793,346.400 306.814,346.400 305.920 C 346.400 305.524,346.580 305.200,346.800 305.200 C 347.020 305.200,347.200 304.660,347.200 304.000 C 347.200 303.340,347.380 302.800,347.600 302.800 C 347.820 302.800,348.000 302.001,348.000 301.024 C 348.000 300.047,348.180 299.136,348.400 299.000 C 348.620 298.864,348.800 297.683,348.800 296.376 C 348.800 295.059,348.978 294.000,349.200 294.000 C 349.459 294.000,349.600 289.200,349.600 280.400 C 349.600 271.600,349.459 266.800,349.200 266.800 C 348.974 266.800,348.800 265.667,348.800 264.200 C 348.800 262.733,348.626 261.600,348.400 261.600 C 348.180 261.600,348.000 260.880,348.000 260.000 C 348.000 259.120,347.820 258.400,347.600 258.400 C 347.380 258.400,347.200 257.860,347.200 257.200 C 347.200 256.540,347.020 256.000,346.800 256.000 C 346.580 256.000,346.400 255.460,346.400 254.800 C 346.400 254.140,346.220 253.600,346.000 253.600 C 345.780 253.600,345.600 253.240,345.600 252.800 C 345.600 252.360,345.420 252.000,345.200 252.000 C 344.980 252.000,344.800 251.640,344.800 251.200 C 344.800 250.760,344.620 250.400,344.400 250.400 C 344.180 250.400,344.000 250.080,344.000 249.688 C 344.000 249.297,343.640 248.717,343.200 248.400 C 342.760 248.083,342.400 247.593,342.400 247.312 C 342.400 247.030,342.220 246.800,342.000 246.800 C 341.780 246.800,341.600 246.607,341.600 246.371 C 341.600 245.487,337.596 242.459,336.006 242.141 C 335.334 242.007,334.686 241.740,334.568 241.548 C 334.450 241.357,327.613 241.200,319.376 241.200 L 304.400 241.200 304.400 128.200 C 304.400 53.133,304.266 15.200,304.000 15.200 C 303.780 15.200,303.600 14.840,303.600 14.400 C 303.600 13.960,303.420 13.600,303.200 13.600 C 302.980 13.600,302.800 13.240,302.800 12.800 C 302.800 12.360,302.620 12.000,302.400 12.000 C 302.180 12.000,302.000 11.800,302.000 11.556 C 302.000 10.933,298.552 7.600,297.907 7.600 C 297.615 7.600,297.117 7.240,296.800 6.800 C 296.483 6.360,295.903 6.000,295.512 6.000 C 295.120 6.000,294.800 5.820,294.800 5.600 C 294.800 5.380,294.361 5.200,293.824 5.200 C 293.287 5.200,292.736 5.020,292.600 4.800 C 292.464 4.580,292.003 4.400,291.576 4.400 C 291.149 4.400,290.800 4.220,290.800 4.000 C 290.800 3.780,290.260 3.600,289.600 3.600 C 288.940 3.600,288.400 3.420,288.400 3.200 C 288.400 2.980,287.781 2.800,287.024 2.800 C 286.267 2.800,285.536 2.620,285.400 2.400 C 285.264 2.180,284.353 2.000,283.376 2.000 C 282.399 2.000,281.600 1.820,281.600 1.600 C 281.600 1.372,280.411 1.200,278.833 1.200 C 276.976 1.200,276.012 1.036,275.900 0.700 C 275.738 0.214,221.549 -0.135,210.604 0.280 M242.800 16.400 C 242.800 16.658,247.059 16.800,254.776 16.800 C 262.329 16.800,266.844 16.948,267.000 17.200 C 267.137 17.421,268.937 17.600,271.024 17.600 C 273.275 17.600,274.800 17.762,274.800 18.000 C 274.800 18.220,275.790 18.400,277.000 18.400 C 278.210 18.400,279.200 18.580,279.200 18.800 C 279.200 19.020,279.920 19.200,280.800 19.200 C 281.680 19.200,282.400 19.380,282.400 19.600 C 282.400 19.820,282.940 20.000,283.600 20.000 C 284.260 20.000,284.800 20.180,284.800 20.400 C 284.800 20.620,285.034 20.800,285.320 20.800 C 285.606 20.800,286.325 21.025,286.917 21.300 L 287.994 21.800 287.997 137.700 C 287.999 214.698,288.134 253.600,288.400 253.600 C 288.620 253.600,288.800 253.870,288.800 254.200 C 288.800 254.530,288.980 254.800,289.200 254.800 C 289.420 254.800,289.600 255.048,289.600 255.351 C 289.600 255.655,290.140 256.127,290.800 256.400 C 291.460 256.673,292.000 257.035,292.000 257.203 C 292.000 257.941,295.621 258.139,311.578 258.274 C 329.874 258.428,330.000 258.444,330.000 260.560 C 330.000 260.886,330.180 261.264,330.400 261.400 C 330.620 261.536,330.800 262.267,330.800 263.024 C 330.800 263.781,330.980 264.400,331.200 264.400 C 331.420 264.400,331.600 265.289,331.600 266.376 C 331.600 267.463,331.780 268.464,332.000 268.600 C 332.252 268.756,332.400 273.137,332.400 280.424 C 332.400 287.875,332.257 292.000,332.000 292.000 C 331.780 292.000,331.600 292.990,331.600 294.200 C 331.600 295.410,331.420 296.400,331.200 296.400 C 330.980 296.400,330.800 296.763,330.800 297.206 C 330.800 298.333,329.869 301.200,329.503 301.200 C 329.336 301.200,329.200 301.560,329.200 302.000 C 329.200 302.788,328.933 302.800,311.400 302.800 C 299.800 302.800,293.600 302.939,293.600 303.200 C 293.600 303.420,293.240 303.600,292.800 303.600 C 292.360 303.600,292.000 303.780,292.000 304.000 C 292.000 304.220,291.722 304.400,291.382 304.400 C 290.582 304.400,288.800 306.182,288.800 306.982 C 288.800 307.322,288.620 307.600,288.400 307.600 C 288.136 307.600,288.000 319.901,288.000 343.702 L 288.000 379.805 286.700 380.329 C 285.985 380.617,285.087 381.021,284.705 381.226 C 284.323 381.432,283.389 381.600,282.629 381.600 C 281.869 381.600,281.136 381.780,281.000 382.000 C 280.864 382.220,279.773 382.400,278.576 382.400 C 277.379 382.400,276.400 382.580,276.400 382.800 C 276.400 383.054,273.267 383.200,267.800 383.200 C 262.333 383.200,259.200 383.346,259.200 383.600 C 259.200 383.820,258.750 384.000,258.200 384.000 C 257.650 384.000,257.200 383.820,257.200 383.600 C 257.200 383.346,254.200 383.200,249.000 383.200 C 243.800 383.200,240.800 383.054,240.800 382.800 C 240.800 382.574,239.667 382.400,238.200 382.400 C 236.733 382.400,235.600 382.226,235.600 382.000 C 235.600 381.780,234.880 381.600,234.000 381.600 C 233.120 381.600,232.400 381.420,232.400 381.200 C 232.400 380.980,232.076 380.800,231.680 380.800 C 229.971 380.800,230.000 381.429,230.000 344.520 C 230.000 321.240,229.864 309.200,229.600 309.200 C 229.380 309.200,229.200 308.745,229.200 308.189 C 229.200 306.961,226.002 303.600,224.834 303.600 C 224.401 303.600,223.936 303.420,223.800 303.200 C 223.637 302.936,197.881 302.800,147.831 302.800 L 72.109 302.800 71.055 301.745 C 70.475 301.165,70.000 300.265,70.000 299.745 C 70.000 299.225,69.820 298.800,69.600 298.800 C 69.380 298.800,69.200 298.260,69.200 297.600 C 69.200 296.940,69.020 296.400,68.800 296.400 C 68.578 296.400,68.400 295.341,68.400 294.024 C 68.400 292.717,68.220 291.536,68.000 291.400 C 67.450 291.060,67.450 258.000,68.000 258.000 C 68.231 258.000,68.400 256.741,68.400 255.024 C 68.400 253.387,68.580 251.936,68.800 251.800 C 69.020 251.664,69.200 250.764,69.200 249.800 C 69.200 248.836,69.380 247.936,69.600 247.800 C 69.820 247.664,70.000 246.944,70.000 246.200 C 70.000 245.456,70.180 244.736,70.400 244.600 C 70.620 244.464,70.800 243.911,70.800 243.371 C 70.800 242.831,70.959 242.077,71.153 241.695 C 71.348 241.313,71.687 240.550,71.908 240.000 C 72.129 239.450,72.960 237.595,73.755 235.879 C 74.550 234.162,75.200 232.497,75.200 232.179 C 75.200 231.860,75.380 231.600,75.600 231.600 C 75.820 231.600,76.000 231.240,76.000 230.800 C 76.000 230.360,76.180 230.000,76.400 230.000 C 76.620 230.000,76.800 229.722,76.800 229.383 C 76.800 229.044,77.160 228.380,77.600 227.908 C 78.040 227.436,78.400 226.813,78.400 226.525 C 78.400 226.236,78.546 226.000,78.725 226.000 C 78.904 226.000,79.298 225.370,79.600 224.600 C 79.902 223.830,80.296 223.200,80.475 223.200 C 80.654 223.200,80.800 222.922,80.800 222.583 C 80.800 222.244,81.160 221.580,81.600 221.108 C 82.040 220.636,82.400 220.013,82.400 219.725 C 82.400 219.436,82.580 219.200,82.800 219.200 C 83.020 219.200,83.200 218.840,83.200 218.400 C 83.200 217.960,83.380 217.600,83.600 217.600 C 83.820 217.600,84.000 217.322,84.000 216.983 C 84.000 216.644,84.360 215.980,84.800 215.508 C 85.240 215.036,85.600 214.413,85.600 214.125 C 85.600 213.836,85.780 213.600,86.000 213.600 C 86.220 213.600,86.400 213.240,86.400 212.800 C 86.400 212.360,86.580 212.000,86.800 212.000 C 87.020 212.000,87.200 211.640,87.200 211.200 C 87.200 210.760,87.368 210.400,87.573 210.400 C 87.778 210.400,88.060 210.041,88.199 209.602 C 88.338 209.164,88.666 208.579,88.926 208.302 C 89.187 208.026,89.940 206.720,90.600 205.400 C 91.260 204.080,91.935 202.940,92.100 202.867 C 92.265 202.793,92.400 202.388,92.400 201.967 C 92.400 201.545,92.580 201.200,92.800 201.200 C 93.020 201.200,93.200 200.840,93.200 200.400 C 93.200 199.960,93.380 199.600,93.600 199.600 C 93.820 199.600,94.000 199.364,94.000 199.075 C 94.000 198.787,94.360 198.164,94.800 197.692 C 95.240 197.220,95.600 196.556,95.600 196.217 C 95.600 195.878,95.780 195.600,96.000 195.600 C 96.220 195.600,96.400 195.240,96.400 194.800 C 96.400 194.360,96.580 194.000,96.800 194.000 C 97.020 194.000,97.200 193.706,97.200 193.347 C 97.200 192.988,97.529 192.403,97.930 192.047 C 98.332 191.691,98.916 190.815,99.228 190.100 C 99.540 189.385,99.931 188.800,100.098 188.800 C 100.264 188.800,100.400 188.440,100.400 188.000 C 100.400 187.560,100.580 187.200,100.800 187.200 C 101.020 187.200,101.200 186.930,101.200 186.600 C 101.200 186.270,101.380 186.000,101.600 186.000 C 101.820 186.000,102.000 185.730,102.000 185.400 C 102.000 185.070,102.180 184.800,102.400 184.800 C 102.620 184.800,102.800 184.440,102.800 184.000 C 102.800 183.560,102.980 183.200,103.200 183.200 C 103.420 183.200,103.600 182.840,103.600 182.400 C 103.600 181.960,103.759 181.600,103.953 181.600 C 104.148 181.600,104.407 181.285,104.529 180.900 C 104.825 179.964,106.124 177.834,106.500 177.667 C 106.665 177.593,106.800 177.188,106.800 176.767 C 106.800 176.345,106.940 176.000,107.110 176.000 C 107.281 176.000,107.776 175.192,108.210 174.204 C 108.645 173.216,109.135 172.406,109.300 172.404 C 109.465 172.402,109.600 172.040,109.600 171.600 C 109.600 171.160,109.780 170.800,110.000 170.800 C 110.220 170.800,110.400 170.564,110.400 170.275 C 110.400 169.987,110.760 169.364,111.200 168.892 C 111.640 168.420,112.000 167.756,112.000 167.417 C 112.000 167.078,112.180 166.800,112.400 166.800 C 112.620 166.800,112.800 166.440,112.800 166.000 C 112.800 165.560,112.980 165.200,113.200 165.200 C 113.420 165.200,113.600 164.880,113.600 164.488 C 113.600 164.097,113.960 163.517,114.400 163.200 C 114.840 162.883,115.200 162.303,115.200 161.912 C 115.200 161.520,115.380 161.200,115.600 161.200 C 115.820 161.200,116.000 160.840,116.000 160.400 C 116.000 159.960,116.180 159.600,116.400 159.600 C 116.620 159.600,116.800 159.330,116.800 159.000 C 116.800 158.670,116.959 158.400,117.153 158.400 C 117.348 158.400,117.607 158.085,117.729 157.700 C 118.025 156.764,119.324 154.634,119.700 154.467 C 119.865 154.393,120.000 153.988,120.000 153.567 C 120.000 153.145,120.135 152.799,120.300 152.797 C 120.465 152.795,120.798 152.390,121.040 151.897 C 122.222 149.489,123.430 147.387,123.700 147.267 C 123.865 147.193,124.000 146.865,124.000 146.538 C 124.000 146.211,124.270 145.673,124.600 145.343 C 124.930 145.013,125.200 144.396,125.200 143.971 C 125.200 143.547,125.380 143.200,125.600 143.200 C 125.820 143.200,126.000 142.840,126.000 142.400 C 126.000 141.960,126.180 141.600,126.400 141.600 C 126.620 141.600,126.800 141.330,126.800 141.000 C 126.800 140.670,126.980 140.400,127.200 140.400 C 127.420 140.400,127.600 140.130,127.600 139.800 C 127.600 139.470,127.780 139.200,128.000 139.200 C 128.220 139.200,128.400 138.930,128.400 138.600 C 128.400 138.270,128.580 138.000,128.800 138.000 C 129.020 138.000,129.200 137.640,129.200 137.200 C 129.200 136.760,129.380 136.400,129.600 136.400 C 129.820 136.400,130.000 136.122,130.000 135.783 C 130.000 135.444,130.360 134.780,130.800 134.308 C 131.240 133.836,131.600 133.213,131.600 132.925 C 131.600 132.636,131.780 132.400,132.000 132.400 C 132.220 132.400,132.400 132.040,132.400 131.600 C 132.400 131.160,132.580 130.800,132.800 130.800 C 133.020 130.800,133.200 130.440,133.200 130.000 C 133.200 129.560,133.358 129.200,133.551 129.200 C 133.745 129.200,134.127 128.660,134.400 128.000 C 134.673 127.340,135.055 126.800,135.249 126.800 C 135.442 126.800,135.600 126.440,135.600 126.000 C 135.600 125.560,135.746 125.200,135.925 125.200 C 136.104 125.200,136.498 124.570,136.800 123.800 C 137.102 123.030,137.469 122.400,137.615 122.400 C 137.761 122.400,138.490 121.185,139.236 119.700 C 139.981 118.215,140.818 116.762,141.095 116.471 C 141.373 116.181,141.600 115.596,141.600 115.171 C 141.600 114.747,141.780 114.400,142.000 114.400 C 142.220 114.400,142.400 114.040,142.400 113.600 C 142.400 113.160,142.580 112.800,142.800 112.800 C 143.020 112.800,143.200 112.480,143.200 112.088 C 143.200 111.697,143.560 111.117,144.000 110.800 C 144.440 110.483,144.800 109.903,144.800 109.512 C 144.800 109.120,144.946 108.800,145.125 108.800 C 145.304 108.800,145.698 108.170,146.000 107.400 C 146.302 106.630,146.696 106.000,146.875 106.000 C 147.054 106.000,147.200 105.764,147.200 105.475 C 147.200 105.187,147.560 104.564,148.000 104.092 C 148.440 103.620,148.800 102.956,148.800 102.617 C 148.800 102.278,148.980 102.000,149.200 102.000 C 149.420 102.000,149.600 101.640,149.600 101.200 C 149.600 100.760,149.780 100.400,150.000 100.400 C 150.220 100.400,150.400 100.164,150.400 99.875 C 150.400 99.587,150.760 98.964,151.200 98.492 C 151.640 98.020,152.000 97.356,152.000 97.017 C 152.000 96.678,152.180 96.400,152.400 96.400 C 152.620 96.400,152.800 96.040,152.800 95.600 C 152.800 95.160,152.980 94.800,153.200 94.800 C 153.420 94.800,153.600 94.522,153.600 94.183 C 153.600 93.844,153.960 93.180,154.400 92.708 C 154.840 92.236,155.200 91.613,155.200 91.325 C 155.200 91.036,155.336 90.800,155.502 90.800 C 155.669 90.800,156.059 90.215,156.369 89.500 C 156.680 88.785,157.354 87.573,157.867 86.807 C 158.380 86.041,158.800 85.096,158.800 84.707 C 158.800 84.318,158.980 84.000,159.200 84.000 C 159.420 84.000,159.600 83.722,159.600 83.383 C 159.600 83.044,159.960 82.380,160.400 81.908 C 160.840 81.436,161.200 80.813,161.200 80.525 C 161.200 80.236,161.380 80.000,161.600 80.000 C 161.820 80.000,162.000 79.640,162.000 79.200 C 162.000 78.760,162.180 78.400,162.400 78.400 C 162.620 78.400,162.800 78.040,162.800 77.600 C 162.800 77.160,162.980 76.800,163.200 76.800 C 163.420 76.800,163.600 76.564,163.600 76.275 C 163.600 75.987,163.925 75.402,164.322 74.975 C 164.720 74.549,165.303 73.615,165.620 72.900 C 165.936 72.185,166.331 71.600,166.498 71.600 C 166.664 71.600,166.800 71.322,166.800 70.983 C 166.800 70.644,167.160 69.980,167.600 69.508 C 168.040 69.036,168.400 68.413,168.400 68.125 C 168.400 67.836,168.580 67.600,168.800 67.600 C 169.020 67.600,169.200 67.240,169.200 66.800 C 169.200 66.360,169.380 66.000,169.600 66.000 C 169.820 66.000,170.000 65.640,170.000 65.200 C 170.000 64.760,170.158 64.400,170.351 64.400 C 170.545 64.400,170.927 63.860,171.200 63.200 C 171.473 62.540,171.855 62.000,172.049 62.000 C 172.242 62.000,172.400 61.640,172.400 61.200 C 172.400 60.760,172.580 60.400,172.800 60.400 C 173.020 60.400,173.200 60.040,173.200 59.600 C 173.200 59.160,173.362 58.800,173.560 58.800 C 173.759 58.800,174.254 57.991,174.660 57.001 C 175.067 56.012,175.535 55.202,175.700 55.201 C 175.865 55.201,176.000 54.840,176.000 54.400 C 176.000 53.960,176.180 53.600,176.400 53.600 C 176.620 53.600,176.800 53.330,176.800 53.000 C 176.800 52.670,176.980 52.400,177.200 52.400 C 177.420 52.400,177.600 52.130,177.600 51.800 C 177.600 51.470,177.780 51.200,178.000 51.200 C 178.220 51.200,178.400 50.840,178.400 50.400 C 178.400 49.960,178.580 49.600,178.800 49.600 C 179.020 49.600,179.200 49.240,179.200 48.800 C 179.200 48.360,179.380 48.000,179.600 48.000 C 179.820 48.000,180.000 47.764,180.000 47.475 C 180.000 47.187,180.360 46.564,180.800 46.092 C 181.240 45.620,181.600 44.956,181.600 44.617 C 181.600 44.278,181.780 44.000,182.000 44.000 C 182.220 44.000,182.400 43.640,182.400 43.200 C 182.400 42.760,182.580 42.400,182.800 42.400 C 183.020 42.400,183.200 42.130,183.200 41.800 C 183.200 41.470,183.380 41.200,183.600 41.200 C 183.820 41.200,184.000 40.930,184.000 40.600 C 184.000 40.270,184.146 40.000,184.325 40.000 C 184.504 40.000,184.898 39.370,185.200 38.600 C 185.502 37.830,185.896 37.200,186.075 37.200 C 186.254 37.200,186.400 36.840,186.400 36.400 C 186.400 35.960,186.545 35.600,186.721 35.600 C 186.898 35.600,187.483 34.703,188.021 33.606 C 188.560 32.510,189.135 31.610,189.300 31.606 C 189.465 31.603,189.600 31.255,189.600 30.833 C 189.600 30.412,189.735 30.007,189.900 29.933 C 190.373 29.723,191.600 27.344,191.600 26.638 C 191.600 26.287,191.780 26.000,192.000 26.000 C 192.220 26.000,192.400 25.730,192.400 25.400 C 192.400 25.070,192.580 24.800,192.800 24.800 C 193.020 24.800,193.200 24.575,193.200 24.300 C 193.202 23.187,196.062 20.800,197.395 20.800 C 197.728 20.800,198.000 20.620,198.000 20.400 C 198.000 20.180,198.540 20.000,199.200 20.000 C 199.860 20.000,200.400 19.820,200.400 19.600 C 200.400 19.380,201.120 19.200,202.000 19.200 C 202.880 19.200,203.600 19.020,203.600 18.800 C 203.600 18.580,204.590 18.400,205.800 18.400 C 207.010 18.400,208.000 18.220,208.000 18.000 C 208.000 17.760,209.600 17.600,212.000 17.600 C 214.400 17.600,216.000 17.440,216.000 17.200 C 216.000 16.943,220.125 16.800,227.576 16.800 C 234.863 16.800,239.244 16.652,239.400 16.400 C 239.536 16.180,240.357 16.000,241.224 16.000 C 242.091 16.000,242.800 16.180,242.800 16.400 M218.200 66.400 C 218.064 66.620,217.599 66.800,217.166 66.800 C 216.241 66.800,212.800 70.102,212.800 70.989 C 212.800 71.325,212.620 71.600,212.400 71.600 C 212.180 71.600,212.000 71.945,212.000 72.367 C 212.000 72.788,211.852 73.193,211.671 73.267 C 211.285 73.423,207.600 79.919,207.600 80.443 C 207.600 80.639,207.420 80.800,207.200 80.800 C 206.980 80.800,206.800 81.160,206.800 81.600 C 206.800 82.040,206.620 82.400,206.400 82.400 C 206.180 82.400,206.000 82.720,206.000 83.112 C 206.000 83.503,205.640 84.083,205.200 84.400 C 204.760 84.717,204.400 85.297,204.400 85.688 C 204.400 86.080,204.220 86.400,204.000 86.400 C 203.780 86.400,203.600 86.760,203.600 87.200 C 203.600 87.640,203.420 88.000,203.200 88.000 C 202.980 88.000,202.800 88.320,202.800 88.712 C 202.800 89.103,202.440 89.683,202.000 90.000 C 201.560 90.317,201.200 90.897,201.200 91.288 C 201.200 91.680,201.020 92.000,200.800 92.000 C 200.580 92.000,200.400 92.270,200.400 92.600 C 200.400 92.930,200.220 93.200,200.000 93.200 C 199.780 93.200,199.600 93.478,199.600 93.817 C 199.600 94.156,199.240 94.820,198.800 95.292 C 198.360 95.764,198.000 96.387,198.000 96.675 C 198.000 96.964,197.820 97.200,197.600 97.200 C 197.380 97.200,197.200 97.560,197.200 98.000 C 197.200 98.440,197.020 98.800,196.800 98.800 C 196.580 98.800,196.400 99.160,196.400 99.600 C 196.400 100.040,196.242 100.400,196.049 100.400 C 195.855 100.400,195.473 100.940,195.200 101.600 C 194.927 102.260,194.545 102.800,194.351 102.800 C 194.158 102.800,194.000 103.160,194.000 103.600 C 194.000 104.040,193.820 104.400,193.600 104.400 C 193.380 104.400,193.200 104.683,193.200 105.029 C 193.200 105.374,192.930 105.927,192.600 106.257 C 192.270 106.587,192.000 107.204,192.000 107.629 C 192.000 108.053,191.820 108.400,191.600 108.400 C 191.380 108.400,191.200 108.670,191.200 109.000 C 191.200 109.330,191.020 109.600,190.800 109.600 C 190.580 109.600,190.400 109.878,190.400 110.217 C 190.400 110.556,190.040 111.220,189.600 111.692 C 189.160 112.164,188.800 112.787,188.800 113.075 C 188.800 113.364,188.620 113.600,188.400 113.600 C 188.180 113.600,188.000 113.960,188.000 114.400 C 188.000 114.840,187.820 115.200,187.600 115.200 C 187.380 115.200,187.200 115.436,187.200 115.725 C 187.200 116.013,186.840 116.636,186.400 117.108 C 185.960 117.580,185.600 118.244,185.600 118.583 C 185.600 118.922,185.420 119.200,185.200 119.200 C 184.980 119.200,184.800 119.560,184.800 120.000 C 184.800 120.440,184.620 120.800,184.400 120.800 C 184.180 120.800,184.000 121.036,184.000 121.325 C 184.000 121.613,183.640 122.236,183.200 122.708 C 182.760 123.180,182.400 123.844,182.400 124.183 C 182.400 124.522,182.264 124.800,182.098 124.800 C 181.931 124.800,181.541 125.385,181.230 126.100 C 180.919 126.815,180.500 127.510,180.300 127.644 C 179.836 127.954,179.796 135.214,180.257 135.549 C 180.446 135.687,180.846 136.275,181.145 136.856 C 181.444 137.437,182.163 138.156,182.744 138.455 C 183.325 138.754,183.890 139.090,184.000 139.201 C 185.388 140.609,192.400 140.526,192.400 139.103 C 192.400 138.936,192.694 138.800,193.053 138.800 C 193.784 138.800,195.599 136.875,195.600 136.100 C 195.600 135.825,195.780 135.600,196.000 135.600 C 196.220 135.600,196.400 135.322,196.400 134.983 C 196.400 134.644,196.760 133.980,197.200 133.508 C 197.640 133.036,198.000 132.413,198.000 132.125 C 198.000 131.836,198.180 131.600,198.400 131.600 C 198.620 131.600,198.800 131.240,198.800 130.800 C 198.800 130.360,198.980 130.000,199.200 130.000 C 199.420 130.000,199.600 129.722,199.600 129.383 C 199.600 129.044,199.960 128.380,200.400 127.908 C 200.840 127.436,201.200 126.813,201.200 126.525 C 201.200 126.236,201.336 126.000,201.502 126.000 C 201.669 126.000,202.059 125.415,202.370 124.700 C 202.681 123.985,203.040 123.310,203.168 123.200 C 203.554 122.867,204.834 120.647,205.071 119.900 C 205.193 119.515,205.452 119.200,205.647 119.200 C 205.841 119.200,206.000 118.855,206.000 118.433 C 206.000 118.012,206.157 117.607,206.349 117.533 C 206.791 117.365,208.800 113.404,208.800 112.702 C 208.800 112.413,209.160 111.917,209.600 111.600 C 210.040 111.283,210.400 110.703,210.400 110.312 C 210.400 109.920,210.580 109.600,210.800 109.600 C 211.020 109.600,211.200 109.330,211.200 109.000 C 211.200 108.670,211.380 108.400,211.600 108.400 C 211.820 108.400,212.000 108.040,212.000 107.600 C 212.000 107.160,212.180 106.800,212.400 106.800 C 212.665 106.800,212.800 129.467,212.800 174.000 L 212.800 241.200 174.173 241.200 L 135.546 241.200 136.373 240.038 C 136.828 239.399,137.200 238.679,137.200 238.438 C 137.200 238.197,137.380 238.000,137.600 238.000 C 137.820 238.000,138.000 237.655,138.000 237.233 C 138.000 236.812,138.135 236.407,138.300 236.333 C 138.705 236.153,139.838 234.212,140.887 231.900 C 141.362 230.855,141.896 230.000,142.075 230.000 C 142.254 230.000,142.400 229.640,142.400 229.200 C 142.400 228.760,142.580 228.400,142.800 228.400 C 143.020 228.400,143.200 228.040,143.200 227.600 C 143.200 227.160,143.380 226.800,143.600 226.800 C 143.820 226.800,144.000 226.506,144.000 226.147 C 144.000 225.788,144.329 225.203,144.730 224.847 C 145.132 224.491,145.716 223.615,146.028 222.900 C 146.340 222.185,146.731 221.600,146.898 221.600 C 147.064 221.600,147.200 221.322,147.200 220.983 C 147.200 220.644,147.560 219.980,148.000 219.508 C 148.440 219.036,148.800 218.413,148.800 218.125 C 148.800 217.836,148.980 217.600,149.200 217.600 C 149.420 217.600,149.600 217.240,149.600 216.800 C 149.600 216.360,149.780 216.000,150.000 216.000 C 150.220 216.000,150.400 215.722,150.400 215.383 C 150.400 215.044,150.760 214.380,151.200 213.908 C 151.640 213.436,152.000 212.813,152.000 212.525 C 152.000 212.236,152.180 212.000,152.400 212.000 C 152.620 212.000,152.800 211.640,152.800 211.200 C 152.800 210.760,152.980 210.400,153.200 210.400 C 153.420 210.400,153.600 210.122,153.600 209.783 C 153.600 209.444,153.936 208.806,154.346 208.366 C 154.757 207.925,155.521 206.718,156.045 205.682 C 156.568 204.647,157.402 203.190,157.898 202.444 C 158.394 201.698,158.800 200.753,158.800 200.344 C 158.800 199.935,158.980 199.600,159.200 199.600 C 159.420 199.600,159.600 199.280,159.600 198.888 C 159.600 198.497,159.960 197.917,160.400 197.600 C 160.870 197.261,161.200 196.565,161.200 195.912 C 161.200 195.300,161.380 194.800,161.600 194.800 C 161.820 194.800,162.000 193.810,162.000 192.600 C 162.000 191.390,161.820 190.400,161.600 190.400 C 161.380 190.400,161.200 189.945,161.200 189.389 C 161.200 188.260,158.042 184.800,157.011 184.800 C 156.675 184.800,156.400 184.620,156.400 184.400 C 156.400 184.169,155.133 184.000,153.400 184.000 C 151.667 184.000,150.400 184.169,150.400 184.400 C 150.400 184.620,150.040 184.800,149.600 184.800 C 149.160 184.800,148.800 184.980,148.800 185.200 C 148.800 185.420,148.517 185.600,148.171 185.600 C 147.422 185.600,146.802 186.209,146.032 187.700 C 145.720 188.305,145.315 188.800,145.132 188.800 C 144.950 188.800,144.800 189.160,144.800 189.600 C 144.800 190.040,144.620 190.400,144.400 190.400 C 144.180 190.400,144.000 190.760,144.000 191.200 C 144.000 191.640,143.865 192.001,143.700 192.003 C 143.298 192.006,142.000 194.319,142.000 195.032 C 142.000 195.345,141.820 195.600,141.600 195.600 C 141.380 195.600,141.200 195.920,141.200 196.312 C 141.200 196.703,140.840 197.283,140.400 197.600 C 139.960 197.917,139.600 198.497,139.600 198.888 C 139.600 199.280,139.420 199.600,139.200 199.600 C 138.980 199.600,138.800 199.960,138.800 200.400 C 138.800 200.840,138.620 201.200,138.400 201.200 C 138.180 201.200,138.000 201.520,138.000 201.912 C 138.000 202.303,137.640 202.883,137.200 203.200 C 136.760 203.517,136.400 204.097,136.400 204.488 C 136.400 204.880,136.220 205.200,136.000 205.200 C 135.780 205.200,135.600 205.560,135.600 206.000 C 135.600 206.440,135.420 206.800,135.200 206.800 C 134.980 206.800,134.800 207.094,134.800 207.453 C 134.800 207.812,134.471 208.397,134.070 208.753 C 133.668 209.109,133.084 209.985,132.772 210.700 C 132.460 211.415,132.069 212.000,131.902 212.000 C 131.736 212.000,131.600 212.278,131.600 212.617 C 131.600 212.956,131.240 213.620,130.800 214.092 C 130.360 214.564,130.000 215.187,130.000 215.475 C 130.000 215.764,129.820 216.000,129.600 216.000 C 129.380 216.000,129.200 216.360,129.200 216.800 C 129.200 217.240,129.020 217.600,128.800 217.600 C 128.580 217.600,128.400 217.960,128.400 218.400 C 128.400 218.840,128.257 219.200,128.081 219.200 C 127.906 219.200,127.059 220.595,126.199 222.300 C 125.339 224.005,124.492 225.460,124.318 225.533 C 124.143 225.607,124.000 225.922,124.000 226.233 C 124.000 226.545,123.820 226.800,123.600 226.800 C 123.380 226.800,123.200 227.160,123.200 227.600 C 123.200 228.040,123.020 228.400,122.800 228.400 C 122.580 228.400,122.400 228.720,122.400 229.112 C 122.400 229.503,122.040 230.083,121.600 230.400 C 121.160 230.717,120.800 231.297,120.800 231.688 C 120.800 232.080,120.620 232.400,120.400 232.400 C 120.180 232.400,120.000 232.760,120.000 233.200 C 120.000 233.640,119.820 234.000,119.600 234.000 C 119.380 234.000,119.200 234.236,119.200 234.525 C 119.200 234.813,118.840 235.436,118.400 235.908 C 117.960 236.380,117.600 237.044,117.600 237.383 C 117.600 237.722,117.420 238.000,117.200 238.000 C 116.980 238.000,116.800 238.360,116.800 238.800 C 116.800 239.240,116.620 239.600,116.400 239.600 C 116.180 239.600,116.000 239.836,116.000 240.125 C 116.000 240.413,115.675 240.998,115.278 241.425 C 114.880 241.851,114.297 242.785,113.980 243.500 C 113.664 244.215,113.269 244.800,113.102 244.800 C 112.936 244.800,112.800 245.149,112.800 245.576 C 112.800 246.003,112.620 246.464,112.400 246.600 C 112.180 246.736,112.000 248.007,112.000 249.424 C 112.000 250.875,112.175 252.000,112.400 252.000 C 112.620 252.000,112.800 252.405,112.800 252.900 C 112.801 254.595,115.689 257.079,118.646 257.927 C 123.248 259.248,225.200 258.459,225.200 257.103 C 225.200 256.936,225.478 256.800,225.818 256.800 C 226.514 256.800,228.400 255.060,228.400 254.418 C 228.400 254.188,228.580 254.000,228.800 254.000 C 229.020 254.000,229.200 253.550,229.200 253.000 C 229.200 252.450,229.380 252.000,229.600 252.000 C 229.865 252.000,230.000 221.800,230.000 162.200 C 230.000 102.600,229.865 72.400,229.600 72.400 C 229.380 72.400,229.200 71.945,229.200 71.389 C 229.200 70.161,226.002 66.800,224.834 66.800 C 224.401 66.800,223.936 66.620,223.800 66.400 C 223.664 66.180,222.404 66.000,221.000 66.000 C 219.596 66.000,218.336 66.180,218.200 66.400 M167.600 154.000 C 167.600 154.220,167.325 154.400,166.989 154.400 C 166.057 154.400,163.063 157.620,162.500 159.228 C 161.902 160.936,161.835 164.400,162.400 164.400 C 162.620 164.400,162.800 164.821,162.800 165.336 C 162.800 166.695,166.032 170.000,167.360 170.000 C 167.932 170.000,168.400 170.180,168.400 170.400 C 168.400 170.622,169.459 170.800,170.776 170.800 C 172.083 170.800,173.264 170.620,173.400 170.400 C 173.536 170.180,173.915 170.000,174.242 170.000 C 175.048 170.000,178.400 166.650,178.400 165.844 C 178.400 165.490,178.580 165.200,178.800 165.200 C 179.377 165.200,179.297 159.968,178.700 158.683 C 178.425 158.091,178.065 157.605,177.900 157.603 C 177.735 157.601,177.600 157.317,177.600 156.971 C 177.600 156.163,176.637 155.200,175.829 155.200 C 175.483 155.200,175.199 155.065,175.197 154.900 C 175.195 154.735,174.709 154.375,174.117 154.100 C 172.832 153.503,167.600 153.423,167.600 154.000 " stroke="none" fill="#040404" fill-rule="evenodd"></path><path id="path1" d="" stroke="none" fill="#080404" fill-rule="evenodd"></path><path id="path2" d="" stroke="none" fill="#080404" fill-rule="evenodd"></path><path id="path3" d="" stroke="none" fill="#080404" fill-rule="evenodd"></path><path id="path4" d="" stroke="none" fill="#080404" fill-rule="evenodd"></path></g></svg>