<svg id="svg" version="1.1" xmlns="http://www.w3.org/2000/svg" xmlns:xlink="http://www.w3.org/1999/xlink" width="400" height="400" viewBox="0, 0, 400,400"><g id="svgg"><path id="path0" d="M110.111 261.300 C 109.484 262.632,108.400 266.383,108.400 267.222 C 108.400 267.624,108.220 268.064,108.000 268.200 C 107.780 268.336,107.600 268.797,107.600 269.224 C 107.600 269.651,107.420 270.000,107.200 270.000 C 106.980 270.000,106.800 270.540,106.800 271.200 C 106.800 271.860,106.620 272.400,106.400 272.400 C 106.180 272.400,106.000 272.940,106.000 273.600 C 106.000 274.260,105.820 274.800,105.600 274.800 C 105.380 274.800,105.200 275.239,105.200 275.776 C 105.200 276.313,105.020 276.864,104.800 277.000 C 104.580 277.136,104.400 277.687,104.400 278.224 C 104.400 278.761,104.220 279.200,104.000 279.200 C 103.780 279.200,103.600 279.740,103.600 280.400 C 103.600 281.060,103.420 281.600,103.200 281.600 C 102.980 281.600,102.800 282.140,102.800 282.800 C 102.800 283.460,102.620 284.000,102.400 284.000 C 102.180 284.000,102.000 284.362,102.000 284.805 C 102.000 285.583,101.858 285.969,100.862 287.895 C 100.608 288.387,100.400 289.152,100.400 289.595 C 100.400 290.038,100.220 290.400,100.000 290.400 C 99.780 290.400,99.600 290.940,99.600 291.600 C 99.600 292.260,99.420 292.800,99.200 292.800 C 98.980 292.800,98.800 293.239,98.800 293.776 C 98.800 294.313,98.620 294.864,98.400 295.000 C 98.180 295.136,98.000 295.687,98.000 296.224 C 98.000 296.761,97.820 297.200,97.600 297.200 C 97.380 297.200,97.200 297.740,97.200 298.400 C 97.200 299.060,97.020 299.600,96.800 299.600 C 96.580 299.600,96.400 300.140,96.400 300.800 C 96.400 301.460,96.220 302.000,96.000 302.000 C 95.780 302.000,95.600 302.420,95.600 302.933 C 95.600 303.447,95.482 303.984,95.338 304.128 C 94.973 304.493,92.820 310.609,92.261 312.867 C 92.007 313.894,91.665 314.869,91.500 315.034 C 91.335 315.198,91.200 315.843,91.200 316.467 C 91.200 317.090,91.020 317.600,90.800 317.600 C 90.580 317.600,90.400 318.140,90.400 318.800 C 90.400 319.460,90.220 320.000,90.000 320.000 C 89.780 320.000,89.600 320.349,89.600 320.776 C 89.600 321.203,89.420 321.664,89.200 321.800 C 88.980 321.936,88.800 322.487,88.800 323.024 C 88.800 323.561,88.620 324.000,88.400 324.000 C 88.180 324.000,88.000 324.540,88.000 325.200 C 88.000 325.860,87.820 326.400,87.600 326.400 C 87.380 326.400,87.200 326.850,87.200 327.400 C 87.200 327.950,87.020 328.400,86.800 328.400 C 86.580 328.400,86.400 328.940,86.400 329.600 C 86.400 330.260,86.220 330.800,86.000 330.800 C 85.780 330.800,85.600 331.340,85.600 332.000 C 85.600 332.660,85.420 333.200,85.200 333.200 C 84.980 333.200,84.800 333.740,84.800 334.400 C 84.800 335.060,84.620 335.600,84.400 335.600 C 84.180 335.600,84.000 336.140,84.000 336.800 C 84.000 337.460,83.853 338.000,83.672 338.000 C 83.492 338.000,83.100 338.900,82.800 340.000 C 82.500 341.100,82.108 342.000,81.928 342.000 C 81.747 342.000,81.600 342.439,81.600 342.976 C 81.600 343.513,81.420 344.064,81.200 344.200 C 80.980 344.336,80.800 344.876,80.800 345.400 C 80.800 345.924,80.620 346.464,80.400 346.600 C 80.180 346.736,80.000 347.287,80.000 347.824 C 80.000 348.361,79.820 348.800,79.600 348.800 C 79.380 348.800,79.200 349.340,79.200 350.000 C 79.200 350.660,79.020 351.200,78.800 351.200 C 78.580 351.200,78.400 351.740,78.400 352.400 C 78.400 353.060,78.220 353.600,78.000 353.600 C 77.780 353.600,77.600 354.125,77.600 354.767 C 77.600 355.408,77.465 355.993,77.300 356.067 C 76.877 356.255,74.800 362.440,74.800 363.512 C 74.800 364.000,74.620 364.400,74.400 364.400 C 74.169 364.400,74.000 365.673,74.000 367.418 C 74.000 370.650,74.949 372.400,76.702 372.400 C 77.108 372.400,77.656 372.616,77.920 372.880 C 78.293 373.253,78.507 373.253,78.880 372.880 C 79.183 372.577,80.702 372.400,83.000 372.400 C 85.002 372.400,86.811 372.233,87.020 372.028 C 87.376 371.680,89.039 371.523,98.300 370.967 C 100.335 370.845,102.000 370.577,102.000 370.373 C 102.000 370.168,103.609 370.000,105.576 370.000 C 107.543 370.000,109.264 369.820,109.400 369.600 C 109.536 369.380,111.257 369.200,113.224 369.200 C 115.341 369.200,116.800 369.037,116.800 368.800 C 116.800 368.565,118.182 368.400,120.145 368.400 L 123.490 368.400 130.334 375.100 C 134.098 378.785,139.446 383.960,142.218 386.600 C 144.991 389.240,149.231 393.335,151.642 395.700 L 156.026 400.000 158.952 400.000 C 162.273 400.000,163.600 399.273,163.600 397.453 C 163.600 396.874,163.780 396.400,164.000 396.400 C 164.220 396.400,164.400 395.860,164.400 395.200 C 164.400 394.540,164.580 394.000,164.800 394.000 C 165.020 394.000,165.200 393.460,165.200 392.800 C 165.200 392.140,165.380 391.600,165.600 391.600 C 165.820 391.600,166.000 391.150,166.000 390.600 C 166.000 390.050,166.180 389.600,166.400 389.600 C 166.620 389.600,166.800 389.238,166.800 388.795 C 166.800 388.352,166.980 387.632,167.200 387.195 C 167.420 386.758,167.780 386.042,168.000 385.605 C 168.220 385.168,168.400 384.448,168.400 384.005 C 168.400 383.562,168.580 383.200,168.800 383.200 C 169.020 383.200,169.200 382.660,169.200 382.000 C 169.200 381.340,169.380 380.800,169.600 380.800 C 169.820 380.800,170.000 380.260,170.000 379.600 C 170.000 378.940,170.180 378.400,170.400 378.400 C 170.620 378.400,170.800 377.860,170.800 377.200 C 170.800 376.540,170.980 376.000,171.200 376.000 C 171.420 376.000,171.600 375.561,171.600 375.024 C 171.600 374.487,171.780 373.936,172.000 373.800 C 172.220 373.664,172.400 373.201,172.400 372.771 C 172.400 372.341,172.559 371.677,172.753 371.295 C 173.962 368.919,175.200 365.119,175.200 363.786 C 175.200 363.244,175.380 362.800,175.600 362.800 C 175.820 362.800,176.000 362.260,176.000 361.600 C 176.000 360.940,176.180 360.400,176.400 360.400 C 176.620 360.400,176.800 359.950,176.800 359.400 C 176.800 358.850,176.980 358.400,177.200 358.400 C 177.420 358.400,177.600 357.860,177.600 357.200 C 177.600 356.540,177.780 356.000,178.000 356.000 C 178.220 356.000,178.400 355.638,178.400 355.195 C 178.400 354.752,178.580 354.032,178.800 353.595 C 179.020 353.158,179.380 352.442,179.600 352.005 C 179.820 351.568,180.000 350.848,180.000 350.405 C 180.000 349.962,180.180 349.600,180.400 349.600 C 180.620 349.600,180.800 349.060,180.800 348.400 C 180.800 347.740,180.980 347.200,181.200 347.200 C 181.420 347.200,181.600 346.660,181.600 346.000 C 181.600 345.340,181.780 344.800,182.000 344.800 C 182.220 344.800,182.400 344.260,182.400 343.600 C 182.400 342.940,182.580 342.400,182.800 342.400 C 183.020 342.400,183.200 341.961,183.200 341.424 C 183.200 340.887,183.380 340.336,183.600 340.200 C 183.820 340.064,184.000 339.513,184.000 338.976 C 184.000 338.439,184.180 338.000,184.400 338.000 C 184.620 338.000,184.800 337.460,184.800 336.800 C 184.800 336.140,184.947 335.600,185.128 335.600 C 185.308 335.600,185.704 334.689,186.007 333.575 C 186.310 332.461,186.703 331.460,186.879 331.351 C 187.056 331.242,187.200 330.713,187.200 330.176 C 187.200 329.639,187.380 329.200,187.600 329.200 C 187.820 329.200,188.000 328.660,188.000 328.000 C 188.000 327.340,188.180 326.800,188.400 326.800 C 188.620 326.800,188.800 326.361,188.800 325.824 C 188.800 325.287,188.980 324.736,189.200 324.600 C 189.420 324.464,189.600 323.924,189.600 323.400 C 189.600 322.876,189.780 322.336,190.000 322.200 C 190.220 322.064,190.400 321.524,190.400 321.000 C 190.400 320.476,190.559 319.949,190.754 319.829 C 190.948 319.708,191.229 318.798,191.378 317.805 C 191.527 316.812,191.818 316.000,192.025 316.000 C 192.231 316.000,192.400 315.460,192.400 314.800 C 192.400 314.140,192.580 313.600,192.800 313.600 C 193.020 313.600,193.200 313.060,193.200 312.400 C 193.200 311.740,193.380 311.200,193.600 311.200 C 193.820 311.200,194.000 310.660,194.000 310.000 C 194.000 309.340,194.180 308.800,194.400 308.800 C 194.620 308.800,194.800 308.350,194.800 307.800 C 194.800 307.250,194.980 306.800,195.200 306.800 C 195.420 306.800,195.600 306.260,195.600 305.600 C 195.600 304.940,195.780 304.400,196.000 304.400 C 196.220 304.400,196.400 303.860,196.400 303.200 C 196.400 302.540,196.580 302.000,196.800 302.000 C 197.020 302.000,197.200 301.638,197.200 301.195 C 197.200 300.752,197.380 300.032,197.600 299.595 C 197.820 299.158,198.180 298.442,198.400 298.005 C 198.620 297.568,198.800 296.848,198.800 296.405 C 198.800 295.962,198.980 295.600,199.200 295.600 C 199.420 295.600,199.600 295.060,199.600 294.400 C 199.600 293.740,199.780 293.200,200.000 293.200 C 200.220 293.200,200.400 293.740,200.400 294.400 C 200.400 295.060,200.580 295.600,200.800 295.600 C 201.020 295.600,201.200 295.962,201.200 296.405 C 201.200 296.848,201.380 297.568,201.600 298.005 C 201.820 298.442,202.180 299.158,202.400 299.595 C 202.620 300.032,202.800 300.752,202.800 301.195 C 202.800 301.638,202.980 302.000,203.200 302.000 C 203.420 302.000,203.600 302.540,203.600 303.200 C 203.600 303.860,203.780 304.400,204.000 304.400 C 204.220 304.400,204.400 304.940,204.400 305.600 C 204.400 306.260,204.580 306.800,204.800 306.800 C 205.020 306.800,205.200 307.250,205.200 307.800 C 205.200 308.350,205.380 308.800,205.600 308.800 C 205.820 308.800,206.000 309.340,206.000 310.000 C 206.000 310.660,206.180 311.200,206.400 311.200 C 206.620 311.200,206.800 311.740,206.800 312.400 C 206.800 313.060,206.980 313.600,207.200 313.600 C 207.420 313.600,207.600 314.039,207.600 314.576 C 207.600 315.113,207.770 315.658,207.977 315.786 C 208.184 315.914,208.475 316.827,208.623 317.814 C 208.771 318.802,209.052 319.708,209.246 319.829 C 209.441 319.949,209.600 320.476,209.600 321.000 C 209.600 321.524,209.780 322.064,210.000 322.200 C 210.220 322.336,210.400 322.887,210.400 323.424 C 210.400 323.961,210.580 324.400,210.800 324.400 C 211.020 324.400,211.200 324.940,211.200 325.600 C 211.200 326.260,211.380 326.800,211.600 326.800 C 211.820 326.800,212.000 327.239,212.000 327.776 C 212.000 328.313,212.180 328.864,212.400 329.000 C 212.620 329.136,212.800 329.599,212.800 330.029 C 212.800 330.459,212.980 331.168,213.200 331.605 C 213.420 332.042,213.780 332.758,214.000 333.195 C 214.220 333.632,214.400 334.352,214.400 334.795 C 214.400 335.238,214.580 335.600,214.800 335.600 C 215.020 335.600,215.200 336.140,215.200 336.800 C 215.200 337.460,215.380 338.000,215.600 338.000 C 215.820 338.000,216.000 338.439,216.000 338.976 C 216.000 339.513,216.180 340.064,216.400 340.200 C 216.620 340.336,216.800 340.887,216.800 341.424 C 216.800 341.961,216.980 342.400,217.200 342.400 C 217.420 342.400,217.600 342.940,217.600 343.600 C 217.600 344.260,217.780 344.800,218.000 344.800 C 218.220 344.800,218.400 345.340,218.400 346.000 C 218.400 346.660,218.580 347.200,218.800 347.200 C 219.020 347.200,219.200 347.740,219.200 348.400 C 219.200 349.060,219.380 349.600,219.600 349.600 C 219.820 349.600,220.000 350.050,220.000 350.600 C 220.000 351.150,220.180 351.600,220.400 351.600 C 220.620 351.600,220.800 352.039,220.800 352.576 C 220.800 353.113,220.980 353.664,221.200 353.800 C 221.420 353.936,221.600 354.487,221.600 355.024 C 221.600 355.561,221.780 356.000,222.000 356.000 C 222.220 356.000,222.400 356.439,222.400 356.976 C 222.400 357.513,222.580 358.064,222.800 358.200 C 223.020 358.336,223.200 358.887,223.200 359.424 C 223.200 359.961,223.380 360.400,223.600 360.400 C 223.820 360.400,224.000 360.940,224.000 361.600 C 224.000 362.260,224.180 362.800,224.400 362.800 C 224.620 362.800,224.800 363.239,224.800 363.776 C 224.800 364.744,226.475 369.960,227.215 371.295 C 227.427 371.677,227.600 372.341,227.600 372.771 C 227.600 373.201,227.780 373.664,228.000 373.800 C 228.220 373.936,228.400 374.487,228.400 375.024 C 228.400 375.561,228.580 376.000,228.800 376.000 C 229.020 376.000,229.200 376.540,229.200 377.200 C 229.200 377.860,229.380 378.400,229.600 378.400 C 229.820 378.400,230.000 378.940,230.000 379.600 C 230.000 380.260,230.180 380.800,230.400 380.800 C 230.620 380.800,230.800 381.239,230.800 381.776 C 230.800 382.313,230.980 382.864,231.200 383.000 C 231.420 383.136,231.600 383.599,231.600 384.029 C 231.600 384.784,231.744 385.174,232.738 387.095 C 232.992 387.587,233.200 388.352,233.200 388.795 C 233.200 389.238,233.380 389.600,233.600 389.600 C 233.820 389.600,234.000 390.050,234.000 390.600 C 234.000 391.150,234.180 391.600,234.400 391.600 C 234.620 391.600,234.800 392.140,234.800 392.800 C 234.800 393.460,234.980 394.000,235.200 394.000 C 235.420 394.000,235.600 394.540,235.600 395.200 C 235.600 395.860,235.780 396.400,236.000 396.400 C 236.220 396.400,236.400 396.874,236.400 397.453 C 236.400 399.273,237.727 400.000,241.048 400.000 L 243.974 400.000 248.373 395.700 C 250.793 393.335,254.861 389.420,257.413 387.000 C 259.965 384.580,265.317 379.405,269.307 375.500 L 276.559 368.400 279.880 368.400 C 281.827 368.400,283.200 368.565,283.200 368.800 C 283.200 369.040,284.800 369.200,287.200 369.200 C 289.600 369.200,291.200 369.360,291.200 369.600 C 291.200 369.835,292.573 370.000,294.520 370.000 C 296.346 370.000,298.011 370.167,298.220 370.372 C 298.429 370.576,300.175 370.846,302.100 370.972 C 304.025 371.097,307.175 371.303,309.100 371.428 C 311.025 371.554,312.771 371.824,312.980 372.028 C 313.189 372.233,314.998 372.400,317.000 372.400 C 319.298 372.400,320.817 372.577,321.120 372.880 C 321.493 373.253,321.707 373.253,322.080 372.880 C 322.344 372.616,322.942 372.400,323.408 372.400 C 325.116 372.400,326.000 370.693,326.000 367.397 C 326.000 365.666,325.831 364.400,325.600 364.400 C 325.380 364.400,325.199 363.995,325.197 363.500 C 325.194 362.557,323.114 356.181,322.662 355.728 C 322.518 355.584,322.400 355.047,322.400 354.533 C 322.400 354.020,322.220 353.600,322.000 353.600 C 321.780 353.600,321.600 353.060,321.600 352.400 C 321.600 351.740,321.420 351.200,321.200 351.200 C 320.980 351.200,320.800 350.660,320.800 350.000 C 320.800 349.340,320.620 348.800,320.400 348.800 C 320.180 348.800,320.000 348.361,320.000 347.824 C 320.000 347.287,319.820 346.736,319.600 346.600 C 319.380 346.464,319.200 345.924,319.200 345.400 C 319.200 344.876,319.020 344.336,318.800 344.200 C 318.580 344.064,318.400 343.513,318.400 342.976 C 318.400 342.439,318.220 342.000,318.000 342.000 C 317.780 342.000,317.600 341.638,317.600 341.195 C 317.600 340.752,317.392 339.987,317.138 339.495 C 316.142 337.569,316.000 337.183,316.000 336.405 C 316.000 335.962,315.820 335.600,315.600 335.600 C 315.380 335.600,315.200 335.060,315.200 334.400 C 315.200 333.740,315.020 333.200,314.800 333.200 C 314.580 333.200,314.400 332.660,314.400 332.000 C 314.400 331.340,314.220 330.800,314.000 330.800 C 313.780 330.800,313.600 330.260,313.600 329.600 C 313.600 328.940,313.420 328.400,313.200 328.400 C 312.980 328.400,312.800 327.950,312.800 327.400 C 312.800 326.850,312.620 326.400,312.400 326.400 C 312.180 326.400,312.000 325.860,312.000 325.200 C 312.000 324.540,311.820 324.000,311.600 324.000 C 311.380 324.000,311.200 323.460,311.200 322.800 C 311.200 322.140,311.020 321.600,310.800 321.600 C 310.580 321.600,310.400 321.240,310.400 320.800 C 310.400 320.360,310.220 320.000,310.000 320.000 C 309.780 320.000,309.600 319.460,309.600 318.800 C 309.600 318.140,309.420 317.600,309.200 317.600 C 308.980 317.600,308.800 317.154,308.800 316.608 C 308.800 315.693,307.236 310.453,306.410 308.600 C 306.213 308.160,305.824 307.080,305.545 306.200 C 305.265 305.320,304.893 304.429,304.718 304.220 C 304.543 304.011,304.400 303.426,304.400 302.920 C 304.400 302.414,304.220 302.000,304.000 302.000 C 303.780 302.000,303.600 301.460,303.600 300.800 C 303.600 300.140,303.420 299.600,303.200 299.600 C 302.980 299.600,302.800 299.060,302.800 298.400 C 302.800 297.740,302.620 297.200,302.400 297.200 C 302.180 297.200,302.000 296.761,302.000 296.224 C 302.000 295.687,301.820 295.136,301.600 295.000 C 301.380 294.864,301.200 294.313,301.200 293.776 C 301.200 293.239,301.020 292.800,300.800 292.800 C 300.580 292.800,300.400 292.260,300.400 291.600 C 300.400 290.940,300.220 290.400,300.000 290.400 C 299.780 290.400,299.600 289.961,299.600 289.424 C 299.600 288.887,299.456 288.358,299.279 288.249 C 299.103 288.140,298.710 287.139,298.407 286.025 C 298.104 284.911,297.708 284.000,297.528 284.000 C 297.347 284.000,297.200 283.460,297.200 282.800 C 297.200 282.140,297.020 281.600,296.800 281.600 C 296.580 281.600,296.400 281.060,296.400 280.400 C 296.400 279.740,296.220 279.200,296.000 279.200 C 295.780 279.200,295.600 278.761,295.600 278.224 C 295.600 277.687,295.420 277.136,295.200 277.000 C 294.980 276.864,294.800 276.313,294.800 275.776 C 294.800 275.239,294.620 274.800,294.400 274.800 C 294.180 274.800,294.000 274.260,294.000 273.600 C 294.000 272.940,293.820 272.400,293.600 272.400 C 293.380 272.400,293.200 271.860,293.200 271.200 C 293.200 270.540,293.020 270.000,292.800 270.000 C 292.580 270.000,292.400 269.651,292.400 269.224 C 292.400 268.797,292.237 268.346,292.037 268.223 C 291.838 268.100,291.551 267.100,291.400 266.000 C 291.249 264.900,290.962 263.900,290.763 263.777 C 290.563 263.654,290.394 263.158,290.387 262.676 C 290.374 261.768,289.543 260.400,289.003 260.400 C 288.833 260.400,286.963 261.629,284.847 263.130 C 274.727 270.312,264.822 275.801,254.800 279.781 C 252.710 280.611,250.640 281.440,250.200 281.623 C 249.145 282.064,242.681 284.152,240.400 284.790 C 239.410 285.066,238.150 285.435,237.600 285.608 C 235.488 286.274,229.356 287.593,223.600 288.618 C 210.170 291.012,189.188 290.938,175.600 288.450 C 174.390 288.229,172.770 287.934,172.000 287.796 C 167.735 287.029,160.417 285.143,155.600 283.568 C 146.044 280.443,135.608 275.850,128.372 271.583 C 127.268 270.933,126.277 270.400,126.170 270.400 C 125.885 270.400,115.299 263.309,113.242 261.741 C 111.172 260.161,110.680 260.092,110.111 261.300 " stroke="none" fill="#0481fb" fill-rule="evenodd"></path><path id="path1" d="M190.800 31.205 C 186.813 31.524,184.485 31.834,179.000 32.778 C 166.023 35.009,150.361 41.122,139.400 48.234 C 138.080 49.091,136.704 49.973,136.343 50.196 C 114.422 63.691,94.916 91.720,88.877 118.400 C 84.681 136.942,84.375 148.308,87.572 166.956 C 88.423 171.915,91.574 182.958,93.207 186.700 C 93.423 187.195,93.757 188.005,93.949 188.500 C 102.118 209.546,119.740 230.312,139.961 242.720 C 144.550 245.536,154.206 250.431,157.130 251.423 C 158.159 251.772,159.540 252.300,160.200 252.596 C 161.528 253.191,165.221 254.421,168.000 255.193 C 168.990 255.468,170.250 255.833,170.800 256.004 C 171.350 256.175,172.880 256.534,174.200 256.803 C 175.520 257.072,177.140 257.436,177.800 257.612 C 178.460 257.788,180.440 258.129,182.200 258.371 C 183.960 258.612,186.694 258.987,188.277 259.205 C 192.045 259.723,207.903 259.713,211.884 259.191 C 221.211 257.967,224.512 257.312,232.000 255.200 C 234.356 254.536,238.389 253.236,239.400 252.814 C 239.840 252.631,240.830 252.251,241.600 251.970 C 266.466 242.897,290.827 220.568,302.665 196.000 C 305.305 190.522,306.400 188.031,306.400 187.505 C 306.400 187.205,306.562 186.789,306.759 186.580 C 307.868 185.407,311.467 172.573,312.754 165.200 C 315.255 150.882,315.247 140.451,312.725 125.600 C 307.957 97.526,291.246 70.211,268.756 53.728 C 265.253 51.160,261.221 48.400,260.974 48.400 C 260.848 48.400,259.992 47.890,259.072 47.267 C 254.083 43.886,240.672 37.801,234.200 35.982 C 230.894 35.053,230.002 34.814,227.600 34.213 C 223.553 33.200,222.002 32.872,219.200 32.438 C 217.770 32.216,215.430 31.852,214.000 31.628 C 210.388 31.064,195.870 30.799,190.800 31.205 M210.800 71.527 C 216.970 73.199,220.168 74.619,224.993 77.830 C 246.963 92.449,251.351 122.688,234.516 143.458 L 233.172 145.116 235.092 147.658 C 244.863 160.593,247.145 174.957,241.906 190.541 C 239.496 197.708,231.904 208.049,226.865 211.025 C 226.169 211.436,225.600 211.914,225.600 212.086 C 225.600 212.259,225.407 212.400,225.172 212.400 C 224.937 212.400,223.992 212.902,223.072 213.516 C 211.839 221.010,192.410 221.945,180.886 215.546 C 180.069 215.092,178.680 214.333,177.800 213.860 C 176.920 213.387,176.110 212.898,176.000 212.774 C 175.890 212.649,174.905 211.938,173.810 211.193 C 162.345 203.388,153.415 183.950,156.037 172.506 C 159.952 155.415,184.355 158.667,184.395 176.285 C 184.425 189.523,201.825 196.197,211.384 186.637 C 215.092 182.929,217.160 174.644,215.348 170.752 C 215.104 170.229,214.487 168.848,213.976 167.684 C 211.882 162.909,205.454 159.200,199.275 159.200 C 190.178 159.200,183.831 149.428,186.961 140.241 C 188.910 134.520,192.989 131.571,200.027 130.797 C 202.249 130.553,204.547 130.158,205.133 129.920 C 208.158 128.694,208.924 128.227,210.936 126.389 C 221.405 116.820,214.448 99.200,200.200 99.200 C 191.553 99.200,184.400 106.037,184.400 114.304 C 184.400 128.837,166.168 134.760,157.941 122.900 C 150.979 112.863,159.212 89.571,173.400 79.168 C 184.061 71.351,198.935 68.312,210.800 71.527 M313.847 150.600 C 313.502 157.785,312.359 165.804,310.796 172.000 C 310.546 172.990,310.245 174.387,310.127 175.104 C 310.008 175.821,309.751 176.506,309.556 176.627 C 309.360 176.748,309.200 177.289,309.200 177.829 C 309.200 178.369,309.029 179.123,308.819 179.505 C 308.609 179.887,308.057 181.370,307.593 182.800 C 306.749 185.395,306.611 185.762,305.483 188.400 C 303.058 194.073,301.333 197.565,298.471 202.600 C 296.732 205.660,294.068 209.806,292.969 211.162 C 292.685 211.513,291.784 212.700,290.968 213.800 C 285.146 221.643,277.056 229.804,269.400 235.555 C 267.860 236.711,266.326 237.878,265.991 238.147 C 264.464 239.374,261.615 241.200,261.228 241.200 C 260.993 241.200,260.800 241.380,260.800 241.600 C 260.800 241.820,260.564 242.000,260.275 242.000 C 259.987 242.000,259.364 242.360,258.892 242.800 C 258.420 243.240,257.756 243.600,257.417 243.600 C 257.078 243.600,256.799 243.735,256.797 243.900 C 256.795 244.065,256.390 244.402,255.897 244.649 C 246.667 249.274,245.798 249.677,241.800 251.177 C 240.480 251.673,239.040 252.231,238.600 252.419 C 237.585 252.851,234.169 253.994,232.600 254.425 C 231.940 254.606,230.680 254.957,229.800 255.204 C 217.844 258.560,200.175 259.931,187.800 258.463 C 185.600 258.202,182.900 257.892,181.800 257.773 C 180.700 257.655,179.440 257.399,179.000 257.204 C 178.560 257.009,177.570 256.758,176.800 256.647 C 176.030 256.536,174.500 256.246,173.400 256.004 C 172.300 255.762,170.903 255.461,170.295 255.336 C 169.687 255.210,169.092 254.949,168.971 254.754 C 168.851 254.559,168.358 254.397,167.876 254.394 C 166.919 254.387,164.180 253.513,163.741 253.074 C 163.590 252.923,163.134 252.800,162.728 252.800 C 162.322 252.800,161.677 252.637,161.295 252.438 C 160.913 252.239,158.890 251.399,156.800 250.571 C 152.177 248.741,143.980 244.780,143.200 244.000 C 142.804 243.604,140.585 242.346,139.900 242.129 C 139.515 242.007,139.200 241.748,139.200 241.553 C 139.200 241.359,138.964 241.200,138.675 241.200 C 138.387 241.200,137.764 240.840,137.292 240.400 C 136.820 239.960,136.246 239.600,136.017 239.600 C 135.788 239.600,135.600 239.465,135.599 239.300 C 135.599 239.135,134.767 238.474,133.750 237.832 C 129.571 235.192,121.807 228.380,116.580 222.769 C 113.668 219.643,109.779 214.936,108.014 212.400 C 107.477 211.630,106.934 210.910,106.805 210.800 C 106.040 210.144,100.551 200.969,98.788 197.400 C 98.245 196.300,97.665 195.340,97.500 195.267 C 97.335 195.193,97.200 194.895,97.200 194.604 C 97.200 194.314,96.861 193.384,96.447 192.538 C 96.033 191.692,95.294 190.100,94.804 189.000 C 94.313 187.900,93.752 186.687,93.556 186.305 C 93.360 185.923,93.200 185.284,93.200 184.885 C 93.200 184.486,93.052 183.989,92.872 183.780 C 92.692 183.571,92.130 182.050,91.624 180.400 C 91.119 178.750,90.560 177.040,90.382 176.600 C 90.205 176.160,89.947 175.260,89.809 174.600 C 89.670 173.940,89.387 172.635,89.179 171.700 C 88.206 167.331,87.939 165.828,87.207 160.600 C 86.182 153.284,85.706 144.400,86.339 144.400 C 86.597 144.400,86.800 145.003,86.800 145.769 C 86.800 146.523,86.990 148.098,87.221 149.269 C 87.453 150.441,87.821 152.300,88.038 153.400 C 88.433 155.397,88.555 155.903,89.821 160.800 C 92.319 170.462,98.162 183.860,102.848 190.670 C 103.482 191.591,104.000 192.464,104.000 192.610 C 104.000 192.851,108.139 198.732,109.595 200.560 C 118.113 211.251,129.850 221.826,139.648 227.636 C 143.875 230.142,144.652 230.574,148.730 232.689 C 165.012 241.131,183.840 245.243,203.600 244.671 C 211.731 244.436,213.978 244.184,222.600 242.544 C 229.091 241.309,237.165 239.003,241.600 237.118 C 242.150 236.884,242.960 236.548,243.400 236.371 C 266.294 227.158,286.224 209.633,299.317 187.200 C 306.119 175.545,313.140 154.580,313.193 145.767 C 313.201 144.344,313.729 143.575,313.949 144.664 C 314.030 145.069,313.985 147.740,313.847 150.600 M111.326 260.407 C 111.945 260.592,112.710 260.959,113.026 261.221 C 113.342 261.483,113.600 261.561,113.600 261.393 C 113.600 260.813,112.196 260.026,111.200 260.047 C 110.224 260.068,110.227 260.077,111.326 260.407 M287.300 260.488 C 286.805 260.727,286.400 261.097,286.400 261.310 C 286.400 261.523,286.658 261.483,286.974 261.221 C 287.290 260.959,288.055 260.592,288.674 260.407 C 289.452 260.173,289.553 260.067,289.000 260.061 C 288.560 260.057,287.795 260.249,287.300 260.488 M117.600 264.348 C 119.081 265.613,121.200 266.973,121.200 266.658 C 121.200 266.555,120.075 265.723,118.700 264.811 C 116.926 263.633,116.607 263.499,117.600 264.348 M279.800 265.832 C 277.820 267.215,276.020 268.362,275.800 268.382 C 275.580 268.402,274.950 268.785,274.400 269.233 L 273.400 270.048 274.641 269.444 C 276.866 268.362,283.836 263.687,283.567 263.459 C 283.475 263.381,281.780 264.449,279.800 265.832 M122.176 267.413 C 122.604 267.736,123.133 268.000,123.353 268.000 C 123.573 268.000,123.404 267.736,122.976 267.413 C 122.549 267.090,122.020 266.825,121.800 266.825 C 121.580 266.825,121.749 267.090,122.176 267.413 M124.400 268.820 C 125.787 269.761,126.578 270.035,125.600 269.236 C 125.050 268.786,124.420 268.417,124.200 268.415 C 123.980 268.413,124.070 268.596,124.400 268.820 M129.600 271.790 C 129.600 271.894,130.185 272.265,130.900 272.614 L 132.200 273.248 131.200 272.433 C 130.237 271.648,129.600 271.392,129.600 271.790 M150.400 281.336 C 150.400 281.587,155.691 283.242,155.882 283.051 C 156.012 282.921,154.305 282.312,151.300 281.415 C 150.805 281.267,150.400 281.231,150.400 281.336 M246.843 282.005 C 245.657 282.431,244.577 282.904,244.443 283.054 C 244.309 283.204,244.550 283.201,244.978 283.046 C 245.406 282.892,246.621 282.482,247.678 282.137 C 248.735 281.791,249.600 281.439,249.600 281.354 C 249.600 281.082,249.045 281.213,246.843 282.005 M157.000 283.600 C 158.101 284.073,158.492 284.073,158.200 283.600 C 158.064 283.380,157.558 283.213,157.076 283.228 C 156.231 283.255,156.229 283.269,157.000 283.600 M241.790 283.616 C 241.621 283.889,241.923 283.938,242.666 283.760 C 244.199 283.392,244.344 283.200,243.090 283.200 C 242.517 283.200,241.932 283.387,241.790 283.616 M158.833 284.144 C 159.305 284.550,161.243 284.793,161.010 284.416 C 160.868 284.187,160.283 284.000,159.710 284.000 C 159.136 284.000,158.742 284.065,158.833 284.144 M238.600 284.493 C 236.222 285.300,235.752 285.564,237.120 285.324 C 238.896 285.012,241.604 284.029,240.600 284.060 C 240.160 284.074,239.260 284.268,238.600 284.493 M161.633 284.944 C 161.725 285.023,162.340 285.208,163.000 285.356 C 163.876 285.552,164.038 285.515,163.600 285.218 C 163.060 284.853,161.232 284.598,161.633 284.944 M164.833 285.743 C 164.925 285.821,165.630 286.001,166.400 286.142 C 167.385 286.323,167.622 286.282,167.200 286.006 C 166.658 285.650,164.437 285.403,164.833 285.743 M232.990 286.016 C 232.821 286.289,233.123 286.338,233.866 286.160 C 235.399 285.792,235.544 285.600,234.290 285.600 C 233.717 285.600,233.132 285.787,232.990 286.016 M168.033 286.543 C 168.476 286.922,170.817 287.151,170.596 286.794 C 170.462 286.577,169.793 286.400,169.110 286.400 C 168.426 286.400,167.942 286.464,168.033 286.543 M229.600 286.806 C 229.178 287.082,229.415 287.123,230.400 286.942 C 232.125 286.625,232.451 286.398,231.167 286.406 C 230.635 286.409,229.930 286.589,229.600 286.806 M172.033 287.343 C 172.450 287.702,175.197 287.919,174.985 287.576 C 174.857 287.369,174.103 287.200,173.310 287.200 C 172.516 287.200,171.942 287.265,172.033 287.343 M225.200 287.612 C 224.781 287.891,225.142 287.933,226.400 287.750 C 228.641 287.425,228.960 287.198,227.167 287.206 C 226.415 287.209,225.530 287.392,225.200 287.612 M176.833 288.147 C 177.300 288.558,180.057 288.816,179.816 288.426 C 179.671 288.191,178.903 288.000,178.110 288.000 C 177.316 288.000,176.742 288.066,176.833 288.147 M220.400 288.421 C 219.970 288.714,220.254 288.754,221.400 288.562 C 223.384 288.230,223.704 287.998,222.167 288.006 C 221.525 288.009,220.730 288.196,220.400 288.421 M183.800 289.223 C 186.049 289.688,187.705 289.675,186.600 289.200 C 186.160 289.011,184.990 288.864,184.000 288.874 L 182.200 288.892 183.800 289.223 M213.800 289.200 L 213.000 289.544 213.800 289.549 C 214.240 289.552,215.320 289.405,216.200 289.223 L 217.800 288.892 216.200 288.874 C 215.320 288.864,214.240 289.011,213.800 289.200 M195.900 289.994 C 198.155 290.134,201.845 290.134,204.100 289.994 C 207.286 289.796,206.371 289.739,200.000 289.739 C 193.629 289.739,192.714 289.796,195.900 289.994 " stroke="none" fill="#d2762f" fill-rule="evenodd"></path><path id="path2" d="M182.000 0.275 C 180.351 0.365,178.830 0.610,178.620 0.820 C 178.411 1.029,177.387 1.200,176.344 1.200 C 175.301 1.200,174.336 1.380,174.200 1.600 C 174.064 1.820,173.078 2.000,172.010 2.000 C 170.941 2.000,170.007 2.170,169.933 2.379 C 169.860 2.587,168.945 2.800,167.900 2.853 C 166.855 2.906,166.000 3.096,166.000 3.275 C 166.000 3.454,165.370 3.600,164.600 3.600 C 163.830 3.600,163.200 3.780,163.200 4.000 C 163.200 4.220,162.581 4.400,161.824 4.400 C 161.067 4.400,160.336 4.580,160.200 4.800 C 160.064 5.020,159.423 5.200,158.776 5.200 C 158.129 5.200,157.600 5.380,157.600 5.600 C 157.600 5.820,157.060 6.000,156.400 6.000 C 155.740 6.000,155.200 6.180,155.200 6.400 C 155.200 6.620,154.660 6.800,154.000 6.800 C 153.340 6.800,152.800 6.980,152.800 7.200 C 152.800 7.420,152.260 7.600,151.600 7.600 C 150.940 7.600,150.400 7.780,150.400 8.000 C 150.400 8.220,149.961 8.400,149.424 8.400 C 148.887 8.400,148.334 8.583,148.196 8.807 C 148.058 9.030,147.781 9.112,147.581 8.988 C 147.380 8.864,146.808 8.989,146.308 9.265 C 145.809 9.542,145.175 9.722,144.900 9.666 C 144.625 9.611,144.400 9.724,144.400 9.918 C 144.400 10.113,143.635 10.516,142.700 10.815 C 141.765 11.114,140.626 11.593,140.168 11.881 C 139.711 12.168,139.216 12.282,139.068 12.135 C 138.921 11.987,138.800 12.077,138.800 12.333 C 138.800 12.590,138.440 12.800,138.000 12.800 C 137.560 12.800,137.200 12.980,137.200 13.200 C 137.200 13.420,136.855 13.600,136.433 13.600 C 136.012 13.600,135.607 13.735,135.533 13.900 C 135.341 14.332,132.028 16.000,131.362 16.000 C 131.053 16.000,130.800 16.146,130.800 16.325 C 130.800 16.504,130.170 16.898,129.400 17.200 C 128.630 17.502,128.000 17.896,128.000 18.075 C 128.000 18.254,127.730 18.400,127.400 18.400 C 127.070 18.400,126.800 18.580,126.800 18.800 C 126.800 19.020,126.530 19.200,126.200 19.200 C 125.870 19.200,125.600 19.380,125.600 19.600 C 125.600 19.820,125.280 20.000,124.888 20.000 C 124.497 20.000,123.917 20.360,123.600 20.800 C 123.283 21.240,122.703 21.600,122.312 21.600 C 121.920 21.600,121.600 21.780,121.600 22.000 C 121.600 22.220,121.306 22.400,120.947 22.400 C 120.588 22.400,120.003 22.724,119.647 23.120 C 119.291 23.516,118.429 24.191,117.731 24.620 C 114.487 26.615,109.383 30.497,106.318 33.300 C 105.657 33.905,104.969 34.400,104.790 34.400 C 104.610 34.400,101.434 37.420,97.732 41.111 C 91.356 47.466,90.033 48.877,89.590 49.791 C 89.485 50.006,88.365 51.256,87.100 52.569 C 85.835 53.882,84.800 55.125,84.800 55.331 C 84.800 55.537,84.485 55.997,84.100 56.353 C 83.715 56.709,82.775 57.900,82.012 59.000 C 81.248 60.100,80.303 61.349,79.912 61.775 C 79.520 62.202,79.200 62.759,79.200 63.013 C 79.200 63.268,78.840 63.802,78.400 64.200 C 77.960 64.598,77.600 65.166,77.600 65.462 C 77.600 65.758,77.438 66.000,77.239 66.000 C 77.041 66.000,76.689 66.495,76.458 67.100 C 75.932 68.478,74.698 70.557,74.300 70.733 C 74.135 70.807,74.000 71.212,74.000 71.633 C 74.000 72.055,73.820 72.400,73.600 72.400 C 73.380 72.400,73.200 72.636,73.200 72.925 C 73.200 73.213,72.875 73.798,72.478 74.225 C 72.080 74.651,71.497 75.585,71.180 76.300 C 70.864 77.015,70.469 77.600,70.302 77.600 C 70.136 77.600,70.000 77.834,70.000 78.120 C 70.000 78.856,69.059 80.793,68.700 80.797 C 68.535 80.799,68.400 81.072,68.400 81.405 C 68.400 81.738,68.192 82.413,67.938 82.905 C 66.967 84.782,66.800 85.207,66.800 85.795 C 66.800 86.128,66.620 86.400,66.400 86.400 C 66.180 86.400,66.000 86.760,66.000 87.200 C 66.000 87.640,65.820 88.000,65.600 88.000 C 65.380 88.000,65.200 88.349,65.200 88.776 C 65.200 89.203,65.020 89.664,64.800 89.800 C 64.580 89.936,64.400 90.487,64.400 91.024 C 64.400 91.561,64.220 92.000,64.000 92.000 C 63.780 92.000,63.600 92.360,63.600 92.800 C 63.600 93.240,63.420 93.600,63.200 93.600 C 62.980 93.600,62.800 94.104,62.800 94.720 C 62.800 95.336,62.649 96.011,62.463 96.220 C 62.278 96.429,61.718 97.950,61.218 99.600 C 60.718 101.250,60.149 102.771,59.954 102.980 C 59.760 103.189,59.600 103.943,59.600 104.656 C 59.600 105.369,59.423 106.062,59.206 106.196 C 58.989 106.330,58.809 106.836,58.806 107.320 C 58.792 109.131,58.303 111.600,57.958 111.600 C 57.761 111.600,57.600 112.410,57.600 113.400 C 57.600 114.390,57.420 115.200,57.200 115.200 C 56.980 115.200,56.800 116.179,56.800 117.376 C 56.800 118.573,56.620 119.664,56.400 119.800 C 56.180 119.936,56.000 121.117,56.000 122.424 C 56.000 123.731,55.834 124.800,55.630 124.800 C 55.051 124.800,54.762 130.289,54.564 145.100 C 54.440 154.313,54.514 158.800,54.790 158.800 C 55.038 158.800,55.200 160.144,55.200 162.200 C 55.200 164.070,55.365 165.600,55.566 165.600 C 55.767 165.600,56.031 166.725,56.152 168.100 C 56.580 172.946,56.881 174.800,57.239 174.800 C 57.437 174.800,57.600 175.610,57.600 176.600 C 57.600 177.590,57.780 178.400,58.000 178.400 C 58.220 178.400,58.404 178.985,58.410 179.700 C 58.415 180.415,58.607 181.720,58.837 182.600 C 59.067 183.480,59.347 184.650,59.458 185.200 C 59.569 185.750,59.802 186.560,59.975 187.000 C 60.629 188.665,61.200 190.681,61.200 191.328 C 61.200 191.698,61.380 192.000,61.600 192.000 C 61.820 192.000,62.000 192.551,62.000 193.224 C 62.000 193.937,62.167 194.344,62.400 194.200 C 62.620 194.064,62.800 194.326,62.800 194.782 C 62.800 195.238,62.980 195.968,63.200 196.405 C 63.420 196.842,63.780 197.558,64.000 197.995 C 64.220 198.432,64.400 199.152,64.400 199.595 C 64.400 200.038,64.580 200.400,64.800 200.400 C 65.020 200.400,65.200 200.681,65.200 201.025 C 65.200 201.369,65.770 202.832,66.467 204.277 C 67.163 205.721,67.733 207.150,67.733 207.452 C 67.733 207.753,67.864 208.000,68.023 208.000 C 68.360 208.000,70.114 211.572,70.125 212.282 C 70.130 212.548,70.253 212.691,70.399 212.601 C 70.545 212.510,70.909 213.058,71.207 213.818 C 71.505 214.578,71.896 215.200,72.075 215.200 C 72.254 215.200,72.400 215.560,72.400 216.000 C 72.400 216.440,72.559 216.800,72.753 216.800 C 72.948 216.800,73.210 217.115,73.336 217.500 C 73.462 217.885,74.119 219.100,74.797 220.200 C 75.475 221.300,76.295 222.785,76.620 223.500 C 76.945 224.215,77.380 224.800,77.587 224.800 C 77.793 224.800,78.261 225.430,78.627 226.200 C 78.992 226.970,79.451 227.600,79.646 227.600 C 79.841 227.600,80.000 227.894,80.000 228.253 C 80.000 228.612,80.316 229.197,80.703 229.553 C 81.089 229.909,81.660 230.695,81.970 231.300 C 82.281 231.905,82.685 232.400,82.868 232.400 C 83.050 232.400,83.201 232.625,83.203 232.900 C 83.204 233.175,83.916 234.120,84.783 235.000 C 85.651 235.880,86.370 236.823,86.380 237.097 C 86.391 237.370,86.760 237.818,87.200 238.093 C 87.640 238.368,88.000 238.705,88.000 238.844 C 88.000 238.982,88.765 239.888,89.700 240.858 C 92.397 243.656,94.294 245.972,94.072 246.195 C 93.959 246.308,94.122 246.413,94.433 246.429 C 94.745 246.445,95.720 247.307,96.600 248.345 C 97.480 249.383,98.879 250.797,99.708 251.487 C 100.538 252.177,102.489 253.880,104.044 255.271 C 105.599 256.662,107.171 257.960,107.536 258.155 C 107.901 258.350,108.616 258.887,109.125 259.348 C 109.691 259.861,110.468 260.142,111.128 260.073 C 111.752 260.008,112.542 260.270,113.003 260.695 C 114.100 261.708,121.553 266.800,121.938 266.800 C 122.109 266.800,122.607 267.115,123.045 267.500 C 123.792 268.157,124.265 268.459,126.500 269.700 C 126.995 269.975,127.490 270.290,127.600 270.400 C 128.208 271.008,138.870 276.400,139.464 276.400 C 139.759 276.400,140.000 276.580,140.000 276.800 C 140.000 277.020,140.360 277.200,140.800 277.200 C 141.240 277.200,141.600 277.380,141.600 277.600 C 141.600 277.820,141.872 278.000,142.205 278.000 C 142.538 278.000,143.123 278.167,143.505 278.371 C 144.692 279.004,151.252 281.411,154.400 282.369 C 156.050 282.871,157.713 283.444,158.095 283.641 C 158.477 283.838,159.231 284.000,159.771 284.000 C 160.311 284.000,160.851 284.159,160.971 284.354 C 161.092 284.549,161.687 284.810,162.295 284.936 C 162.903 285.061,164.300 285.364,165.400 285.608 C 166.500 285.852,168.076 286.149,168.903 286.268 C 169.729 286.387,170.505 286.645,170.626 286.842 C 170.748 287.039,171.726 287.200,172.800 287.200 C 173.874 287.200,174.864 287.380,175.000 287.600 C 175.136 287.820,176.191 288.000,177.344 288.000 C 178.497 288.000,179.611 288.163,179.820 288.362 C 180.684 289.185,197.532 289.903,206.911 289.516 C 215.148 289.176,218.392 288.809,227.400 287.198 C 228.720 286.962,230.476 286.667,231.303 286.542 C 232.129 286.417,232.905 286.155,233.026 285.958 C 233.148 285.761,233.768 285.600,234.405 285.600 C 235.041 285.600,235.976 285.439,236.481 285.242 C 236.987 285.045,238.210 284.667,239.200 284.403 C 240.190 284.138,241.313 283.760,241.695 283.561 C 242.077 283.362,242.728 283.200,243.141 283.200 C 243.555 283.200,244.772 282.862,245.847 282.448 C 246.921 282.035,249.600 281.033,251.800 280.222 C 254.000 279.411,256.113 278.579,256.495 278.374 C 256.877 278.168,257.462 278.000,257.795 278.000 C 258.128 278.000,258.400 277.820,258.400 277.600 C 258.400 277.380,258.625 277.201,258.900 277.202 C 259.381 277.205,269.191 272.445,269.600 272.011 C 269.710 271.894,270.340 271.529,271.000 271.200 C 271.660 270.871,272.290 270.511,272.400 270.401 C 272.510 270.290,272.960 270.003,273.400 269.762 C 275.452 268.640,276.497 267.977,281.183 264.824 C 283.942 262.968,286.438 261.213,286.728 260.925 C 287.394 260.264,289.021 259.842,289.577 260.186 C 289.810 260.330,290.000 260.295,290.000 260.110 C 290.000 259.924,290.495 259.476,291.100 259.113 C 292.593 258.218,293.825 257.247,295.427 255.700 C 296.167 254.985,296.884 254.400,297.019 254.400 C 297.155 254.400,298.915 252.780,300.931 250.800 C 302.947 248.820,304.732 247.200,304.898 247.200 C 305.064 247.200,305.200 246.999,305.200 246.753 C 305.200 246.507,305.875 245.622,306.700 244.785 C 308.449 243.012,311.206 239.899,312.497 238.240 C 312.994 237.602,313.805 236.666,314.300 236.158 C 314.795 235.651,315.200 235.048,315.200 234.818 C 315.200 234.588,315.380 234.400,315.600 234.400 C 315.820 234.400,316.000 234.202,316.000 233.960 C 316.000 233.719,316.549 233.008,317.220 232.382 C 317.891 231.755,318.391 231.188,318.332 231.121 C 318.226 231.002,320.733 227.189,321.174 226.800 C 321.417 226.585,321.917 225.804,323.219 223.600 C 323.674 222.830,324.581 221.300,325.234 220.200 C 325.887 219.100,326.528 217.885,326.658 217.500 C 326.787 217.115,327.052 216.800,327.247 216.800 C 327.441 216.800,327.600 216.440,327.600 216.000 C 327.600 215.560,327.746 215.200,327.925 215.200 C 328.104 215.200,328.495 214.578,328.793 213.818 C 329.091 213.058,329.447 212.506,329.585 212.590 C 329.722 212.675,329.860 212.395,329.892 211.969 C 329.925 211.542,330.322 210.671,330.775 210.035 C 331.229 209.398,331.600 208.589,331.600 208.238 C 331.600 207.887,331.780 207.600,332.000 207.600 C 332.220 207.600,332.400 207.251,332.400 206.824 C 332.400 206.397,332.580 205.936,332.800 205.800 C 333.020 205.664,333.200 205.203,333.200 204.776 C 333.200 204.349,333.344 204.000,333.520 204.000 C 333.695 204.000,334.078 203.325,334.371 202.500 C 334.663 201.675,335.239 200.291,335.651 199.425 C 336.063 198.559,336.400 197.611,336.400 197.319 C 336.400 197.028,336.580 196.432,336.800 195.995 C 337.020 195.558,337.380 194.842,337.600 194.405 C 337.820 193.968,338.000 193.336,338.000 193.001 C 338.000 192.666,338.343 191.628,338.763 190.696 C 339.183 189.763,339.635 188.460,339.767 187.800 C 340.279 185.251,340.458 184.611,340.769 184.212 C 340.946 183.986,341.111 183.530,341.136 183.200 C 341.329 180.663,341.760 178.400,342.051 178.400 C 342.243 178.400,342.400 177.691,342.400 176.824 C 342.400 175.957,342.580 175.136,342.800 175.000 C 343.020 174.864,343.200 173.874,343.200 172.800 C 343.200 171.726,343.380 170.736,343.600 170.600 C 343.820 170.464,344.000 169.283,344.000 167.976 C 344.000 166.669,344.167 165.600,344.371 165.600 C 345.212 165.600,346.032 131.872,345.210 131.050 C 344.985 130.825,344.800 129.337,344.800 127.744 C 344.800 126.151,344.620 124.736,344.400 124.600 C 344.180 124.464,344.000 123.373,344.000 122.176 C 344.000 120.979,343.820 120.000,343.600 120.000 C 343.378 120.000,343.200 118.944,343.200 117.633 C 343.200 116.332,343.029 115.207,342.820 115.133 C 342.611 115.060,342.396 114.235,342.342 113.300 C 342.288 112.365,342.122 111.600,341.973 111.600 C 341.825 111.600,341.579 110.500,341.427 109.155 C 341.274 107.810,340.999 106.415,340.814 106.055 C 340.629 105.695,340.256 104.590,339.985 103.600 C 339.255 100.932,338.006 97.085,337.648 96.400 C 337.476 96.070,337.085 94.945,336.780 93.900 C 336.475 92.855,336.085 92.000,335.913 92.000 C 335.741 92.000,335.600 91.561,335.600 91.024 C 335.600 90.487,335.420 89.936,335.200 89.800 C 334.980 89.664,334.800 89.203,334.800 88.776 C 334.800 88.349,334.620 88.000,334.400 88.000 C 334.180 88.000,334.000 87.640,334.000 87.200 C 334.000 86.760,333.820 86.400,333.600 86.400 C 333.380 86.400,333.200 86.065,333.200 85.655 C 333.200 85.246,332.480 83.511,331.600 81.800 C 330.720 80.089,330.000 78.444,330.000 78.145 C 330.000 77.845,329.864 77.600,329.698 77.600 C 329.531 77.600,329.140 77.015,328.828 76.300 C 328.516 75.585,327.932 74.709,327.530 74.353 C 327.129 73.997,326.800 73.412,326.800 73.053 C 326.800 72.694,326.620 72.400,326.400 72.400 C 326.180 72.400,326.000 72.040,326.000 71.600 C 326.000 71.160,325.820 70.800,325.600 70.800 C 325.380 70.800,325.200 70.528,325.200 70.196 C 325.200 69.864,324.613 68.739,323.896 67.696 C 323.179 66.653,322.339 65.305,322.029 64.700 C 321.719 64.095,321.315 63.600,321.132 63.600 C 320.950 63.600,320.800 63.345,320.800 63.033 C 320.800 62.722,320.655 62.407,320.477 62.333 C 320.299 62.260,319.570 61.345,318.857 60.300 C 318.145 59.255,317.380 58.400,317.157 58.400 C 316.935 58.400,316.858 58.230,316.986 58.023 C 317.114 57.815,316.585 57.011,315.809 56.236 C 315.034 55.461,314.400 54.629,314.400 54.387 C 314.400 54.146,313.500 53.071,312.400 52.000 C 311.300 50.929,310.400 49.860,310.400 49.626 C 310.400 49.392,310.220 49.200,310.000 49.200 C 309.780 49.200,309.600 48.981,309.600 48.713 C 309.600 48.183,295.687 34.400,295.153 34.400 C 294.973 34.400,294.219 33.792,293.476 33.050 C 292.733 32.307,290.792 30.692,289.163 29.460 C 287.533 28.229,285.983 27.037,285.717 26.811 C 285.451 26.585,285.074 26.400,284.879 26.400 C 284.684 26.400,284.198 26.040,283.800 25.600 C 283.402 25.160,282.834 24.800,282.538 24.800 C 282.242 24.800,282.000 24.620,282.000 24.400 C 282.000 24.180,281.730 24.000,281.400 24.000 C 281.070 24.000,280.800 23.820,280.800 23.600 C 280.800 23.380,280.519 23.200,280.176 23.200 C 279.807 23.200,279.669 23.012,279.838 22.738 C 280.007 22.464,279.949 22.385,279.694 22.542 C 279.458 22.688,278.993 22.536,278.661 22.204 C 278.329 21.872,277.840 21.600,277.575 21.600 C 277.311 21.600,276.803 21.285,276.447 20.900 C 276.091 20.515,275.080 19.826,274.200 19.370 C 271.958 18.207,270.634 17.439,270.400 17.168 C 270.290 17.040,269.615 16.681,268.900 16.370 C 268.185 16.059,267.600 15.669,267.600 15.502 C 267.600 15.336,267.240 15.200,266.800 15.200 C 266.360 15.200,266.000 15.020,266.000 14.800 C 266.000 14.580,265.640 14.400,265.200 14.400 C 264.760 14.400,264.400 14.220,264.400 14.000 C 264.400 13.780,264.166 13.600,263.880 13.600 C 263.144 13.600,261.207 12.659,261.203 12.300 C 261.201 12.135,260.750 12.000,260.200 12.000 C 259.650 12.000,259.200 11.843,259.200 11.652 C 259.200 11.461,258.390 11.077,257.400 10.800 C 256.410 10.523,255.600 10.132,255.600 9.930 C 255.600 9.729,255.375 9.611,255.100 9.666 C 254.825 9.722,254.191 9.542,253.692 9.265 C 253.192 8.989,252.607 8.872,252.392 9.005 C 252.176 9.138,252.000 9.057,252.000 8.824 C 252.000 8.591,251.460 8.400,250.800 8.400 C 250.140 8.400,249.600 8.220,249.600 8.000 C 249.600 7.780,249.060 7.600,248.400 7.600 C 247.740 7.600,247.200 7.420,247.200 7.200 C 247.200 6.980,246.761 6.800,246.224 6.800 C 245.687 6.800,245.136 6.620,245.000 6.400 C 244.864 6.180,244.223 6.000,243.576 6.000 C 242.929 6.000,242.400 5.820,242.400 5.600 C 242.400 5.380,241.860 5.200,241.200 5.200 C 240.540 5.200,240.000 5.020,240.000 4.800 C 240.000 4.580,239.381 4.400,238.624 4.400 C 237.867 4.400,237.136 4.220,237.000 4.000 C 236.864 3.780,236.133 3.600,235.376 3.600 C 234.619 3.600,234.000 3.420,234.000 3.200 C 234.000 2.980,233.100 2.800,232.000 2.800 C 230.900 2.800,230.000 2.620,230.000 2.400 C 230.000 2.180,229.201 2.000,228.224 2.000 C 227.247 2.000,226.336 1.820,226.200 1.600 C 226.064 1.380,224.988 1.200,223.810 1.200 C 222.493 1.200,221.605 1.014,221.506 0.718 C 221.346 0.237,189.263 -0.123,182.000 0.275 M214.000 31.628 C 215.430 31.852,217.770 32.216,219.200 32.438 C 222.002 32.872,223.553 33.200,227.600 34.213 C 230.002 34.814,230.894 35.053,234.200 35.982 C 240.672 37.801,254.083 43.886,259.072 47.267 C 259.992 47.890,260.848 48.400,260.974 48.400 C 261.100 48.400,262.418 49.243,263.902 50.274 C 292.163 69.900,309.615 98.475,313.573 131.600 C 315.213 145.331,315.049 152.059,312.754 165.200 C 311.467 172.573,307.868 185.407,306.759 186.580 C 306.562 186.789,306.400 187.205,306.400 187.505 C 306.400 188.031,305.305 190.522,302.665 196.000 C 290.827 220.568,266.466 242.897,241.600 251.970 C 240.830 252.251,239.840 252.631,239.400 252.814 C 238.389 253.236,234.356 254.536,232.000 255.200 C 224.512 257.312,221.211 257.967,211.884 259.191 C 207.903 259.713,192.045 259.723,188.277 259.205 C 186.694 258.987,183.960 258.612,182.200 258.371 C 180.440 258.129,178.460 257.788,177.800 257.612 C 177.140 257.436,175.520 257.072,174.200 256.803 C 172.880 256.534,171.350 256.175,170.800 256.004 C 170.250 255.833,168.990 255.468,168.000 255.193 C 165.221 254.421,161.528 253.191,160.200 252.596 C 159.540 252.300,158.159 251.772,157.130 251.423 C 154.206 250.431,144.550 245.536,139.961 242.720 C 119.740 230.312,102.118 209.546,93.949 188.500 C 93.757 188.005,93.423 187.195,93.207 186.700 C 89.571 178.367,86.655 164.628,85.579 150.748 C 84.481 136.599,88.560 114.068,94.693 100.400 C 104.103 79.427,120.015 60.248,136.343 50.196 C 136.704 49.973,138.080 49.091,139.400 48.234 C 150.361 41.122,166.023 35.009,179.000 32.778 C 184.485 31.834,186.813 31.524,190.800 31.205 C 195.870 30.799,210.388 31.064,214.000 31.628 M189.200 71.600 C 188.376 71.864,188.341 71.926,189.000 71.954 C 189.440 71.973,190.070 71.813,190.400 71.600 C 191.101 71.147,190.614 71.147,189.200 71.600 M178.200 76.000 C 177.540 76.437,177.180 76.792,177.400 76.788 C 177.801 76.782,179.976 75.223,179.600 75.212 C 179.490 75.208,178.860 75.563,178.200 76.000 M221.400 75.807 C 221.840 76.166,222.560 76.635,223.000 76.851 L 223.800 77.244 223.000 76.593 C 222.560 76.234,221.840 75.765,221.400 75.549 L 220.600 75.156 221.400 75.807 M226.400 78.888 C 226.400 78.966,227.255 79.733,228.300 80.592 C 229.345 81.451,229.840 81.740,229.400 81.234 C 228.622 80.339,226.400 78.602,226.400 78.888 M171.478 80.613 C 170.860 81.156,170.514 81.600,170.708 81.600 C 170.902 81.600,171.483 81.150,172.000 80.600 C 173.195 79.328,172.931 79.334,171.478 80.613 M168.378 83.500 L 167.000 85.000 168.500 83.622 C 169.325 82.863,170.000 82.188,170.000 82.122 C 170.000 81.816,169.662 82.104,168.378 83.500 M230.400 82.143 C 230.400 82.556,232.412 84.522,232.620 84.313 C 232.714 84.219,232.254 83.626,231.596 82.996 C 230.938 82.366,230.400 81.982,230.400 82.143 M232.800 84.925 C 232.800 84.994,233.385 85.579,234.100 86.225 L 235.400 87.400 234.225 86.100 C 233.130 84.888,232.800 84.616,232.800 84.925 M165.775 86.500 L 164.600 87.800 165.900 86.625 C 167.112 85.530,167.384 85.200,167.075 85.200 C 167.006 85.200,166.421 85.785,165.775 86.500 M237.228 90.600 C 238.885 93.149,239.612 93.891,238.404 91.800 C 237.895 90.920,237.130 89.840,236.704 89.400 C 236.277 88.960,236.513 89.500,237.228 90.600 M160.968 93.418 C 160.382 94.418,159.970 95.304,160.053 95.386 C 160.135 95.468,160.697 94.650,161.301 93.568 C 162.683 91.093,162.405 90.967,160.968 93.418 M199.305 99.087 C 199.914 99.179,200.814 99.177,201.305 99.082 C 201.797 98.987,201.300 98.911,200.200 98.914 C 199.100 98.917,198.697 98.995,199.305 99.087 M209.200 101.733 C 209.200 101.843,209.920 102.503,210.800 103.200 C 211.680 103.897,212.400 104.377,212.400 104.267 C 212.400 104.157,211.680 103.497,210.800 102.800 C 209.920 102.103,209.200 101.623,209.200 101.733 M242.806 102.633 C 242.809 103.055,242.995 103.670,243.218 104.000 C 243.515 104.438,243.552 104.276,243.356 103.400 C 243.027 101.929,242.798 101.610,242.806 102.633 M188.575 103.700 L 187.400 105.000 188.700 103.825 C 189.415 103.179,190.000 102.594,190.000 102.525 C 190.000 102.216,189.670 102.488,188.575 103.700 M213.515 106.558 C 214.112 107.525,214.671 108.248,214.759 108.166 C 214.935 107.999,212.893 104.800,212.610 104.800 C 212.511 104.800,212.919 105.591,213.515 106.558 M243.687 106.000 C 243.683 106.550,243.824 107.450,244.000 108.000 C 244.431 109.344,244.431 107.892,244.000 106.200 C 243.726 105.122,243.694 105.102,243.687 106.000 M155.785 109.385 C 155.630 110.623,155.593 111.727,155.703 111.837 C 155.813 111.947,156.030 111.023,156.185 109.785 C 156.339 108.546,156.376 107.443,156.266 107.333 C 156.156 107.223,155.939 108.146,155.785 109.385 M244.554 114.800 C 244.554 117.550,244.618 118.675,244.696 117.300 C 244.774 115.925,244.774 113.675,244.696 112.300 C 244.618 110.925,244.554 112.050,244.554 114.800 M215.800 115.000 C 215.800 117.116,215.917 118.432,216.060 117.924 C 216.203 117.416,216.320 116.100,216.320 115.000 C 216.320 113.900,216.203 112.584,216.060 112.076 C 215.917 111.568,215.800 112.884,215.800 115.000 M184.072 114.450 C 184.032 115.248,183.905 116.508,183.789 117.250 C 183.597 118.485,183.615 118.516,184.008 117.615 C 184.244 117.074,184.371 115.814,184.291 114.815 C 184.162 113.218,184.136 113.175,184.072 114.450 M155.656 117.200 C 155.656 117.530,155.811 118.160,156.000 118.600 C 156.217 119.104,156.344 119.178,156.344 118.800 C 156.344 118.470,156.189 117.840,156.000 117.400 C 155.783 116.896,155.656 116.822,155.656 117.200 M156.404 120.200 C 156.405 120.420,156.763 121.140,157.200 121.800 C 158.236 123.364,158.237 122.808,157.201 121.110 C 156.762 120.389,156.404 119.980,156.404 120.200 M181.493 122.803 C 180.918 123.681,180.517 124.400,180.603 124.400 C 180.913 124.400,182.907 121.574,182.725 121.392 C 182.623 121.289,182.068 121.924,181.493 122.803 M243.822 122.622 C 243.672 123.425,243.628 124.162,243.726 124.260 C 243.824 124.357,244.027 123.781,244.178 122.978 C 244.328 122.175,244.372 121.438,244.274 121.340 C 244.176 121.243,243.973 121.819,243.822 122.622 M159.600 124.947 C 160.370 125.782,161.360 126.655,161.800 126.887 C 162.240 127.119,162.510 127.225,162.400 127.122 C 159.842 124.743,158.328 123.567,159.600 124.947 M211.178 126.300 L 209.800 127.800 211.300 126.422 C 212.696 125.138,212.984 124.800,212.678 124.800 C 212.612 124.800,211.937 125.475,211.178 126.300 M177.681 126.572 C 175.823 127.885,175.562 128.261,177.131 127.362 C 177.863 126.943,178.650 126.375,178.880 126.100 C 179.471 125.393,179.193 125.502,177.681 126.572 M243.049 126.215 C 242.912 126.573,242.815 127.166,242.834 127.533 C 242.853 127.900,243.027 127.669,243.221 127.020 C 243.598 125.758,243.465 125.133,243.049 126.215 M168.300 129.093 C 169.235 129.177,170.765 129.177,171.700 129.093 C 172.635 129.009,171.870 128.940,170.000 128.940 C 168.130 128.940,167.365 129.009,168.300 129.093 M241.067 132.067 C 240.705 132.988,240.474 133.807,240.554 133.888 C 240.634 133.968,241.000 133.283,241.367 132.367 C 241.733 131.450,241.964 130.631,241.879 130.546 C 241.794 130.461,241.429 131.145,241.067 132.067 M198.905 131.087 C 199.514 131.179,200.414 131.177,200.905 131.082 C 201.397 130.987,200.900 130.911,199.800 130.914 C 198.700 130.917,198.297 130.995,198.905 131.087 M193.100 132.629 C 191.549 133.470,191.725 133.761,193.300 132.959 C 194.808 132.193,195.075 131.994,194.567 132.016 C 194.365 132.025,193.705 132.301,193.100 132.629 M189.431 135.693 C 188.424 136.844,187.600 137.949,187.600 138.147 C 187.600 138.346,187.990 137.989,188.467 137.354 C 188.944 136.719,189.879 135.615,190.546 134.900 C 191.212 134.185,191.646 133.600,191.509 133.600 C 191.373 133.600,190.438 134.542,189.431 135.693 M238.953 136.500 C 237.576 138.836,237.486 139.035,238.187 138.200 C 239.000 137.232,239.700 136.000,239.438 136.000 C 239.333 136.000,239.115 136.225,238.953 136.500 M186.249 142.215 C 186.112 142.573,186.021 143.346,186.046 143.933 C 186.080 144.732,186.170 144.598,186.404 143.400 C 186.735 141.700,186.662 141.140,186.249 142.215 M233.452 144.343 C 232.819 145.042,232.829 145.143,233.622 146.043 L 234.464 147.000 233.840 146.023 C 233.272 145.133,233.275 144.980,233.870 144.323 C 234.230 143.925,234.434 143.600,234.324 143.600 C 234.214 143.600,233.821 143.934,233.452 144.343 M186.093 146.800 C 186.093 147.570,186.175 147.885,186.276 147.500 C 186.376 147.115,186.376 146.485,186.276 146.100 C 186.175 145.715,186.093 146.030,186.093 146.800 M240.128 156.362 C 241.048 158.321,241.870 159.856,241.955 159.773 C 242.142 159.592,238.919 152.800,238.647 152.800 C 238.542 152.800,239.209 154.403,240.128 156.362 M164.800 162.018 C 164.362 162.315,164.524 162.352,165.400 162.156 C 166.871 161.827,167.190 161.598,166.167 161.606 C 165.745 161.609,165.130 161.795,164.800 162.018 M161.539 163.786 C 159.848 165.026,158.233 166.827,157.400 168.400 C 156.954 169.244,157.610 168.520,158.947 166.694 C 159.554 165.865,160.982 164.560,162.120 163.794 C 163.258 163.027,164.012 162.404,163.795 162.410 C 163.578 162.415,162.563 163.034,161.539 163.786 M176.812 163.182 C 178.139 163.884,181.179 166.892,182.308 168.622 C 182.744 169.289,182.752 169.258,182.362 168.400 C 181.436 166.363,176.979 162.348,175.720 162.418 C 175.544 162.427,176.035 162.771,176.812 163.182 M242.806 163.033 C 242.809 163.455,242.995 164.070,243.218 164.400 C 243.515 164.838,243.552 164.676,243.356 163.800 C 243.027 162.329,242.798 162.010,242.806 163.033 M243.687 166.600 C 243.691 167.040,243.832 167.940,244.000 168.600 C 244.274 169.678,244.306 169.698,244.313 168.800 C 244.317 168.250,244.176 167.350,244.000 166.800 C 243.749 166.016,243.681 165.973,243.687 166.600 M215.791 175.322 C 215.796 177.479,215.917 178.829,216.060 178.322 C 216.391 177.148,216.383 174.155,216.044 172.600 C 215.899 171.937,215.786 173.155,215.791 175.322 M183.894 174.400 C 184.014 175.830,184.177 177.075,184.256 177.167 C 184.535 177.489,184.316 173.788,183.998 172.800 C 183.805 172.200,183.763 172.840,183.894 174.400 M155.693 177.600 C 155.693 178.370,155.775 178.685,155.876 178.300 C 155.976 177.915,155.976 177.285,155.876 176.900 C 155.775 176.515,155.693 176.830,155.693 177.600 M213.515 183.842 C 212.919 184.809,212.511 185.600,212.610 185.600 C 212.893 185.600,214.935 182.401,214.759 182.234 C 214.671 182.152,214.112 182.875,213.515 183.842 M188.400 186.550 C 188.950 187.171,189.940 188.050,190.600 188.504 C 192.026 189.485,191.643 189.064,189.200 186.968 C 188.004 185.941,187.736 185.801,188.400 186.550 M209.636 188.157 C 209.381 188.463,208.634 188.938,207.974 189.211 C 207.314 189.484,206.853 189.787,206.950 189.883 C 207.207 190.141,209.373 188.956,209.978 188.226 C 210.264 187.882,210.408 187.600,210.298 187.600 C 210.188 187.600,209.890 187.851,209.636 188.157 M196.538 191.294 C 196.792 191.456,198.440 191.588,200.200 191.588 C 201.960 191.588,203.608 191.456,203.862 191.294 C 204.116 191.132,202.468 191.000,200.200 191.000 C 197.932 191.000,196.284 191.132,196.538 191.294 M168.600 206.800 C 169.459 207.680,170.252 208.400,170.362 208.400 C 170.472 208.400,169.859 207.680,169.000 206.800 C 168.141 205.920,167.348 205.200,167.238 205.200 C 167.128 205.200,167.741 205.920,168.600 206.800 M231.178 207.100 L 229.800 208.600 231.300 207.222 C 232.696 205.938,232.984 205.600,232.678 205.600 C 232.612 205.600,231.937 206.275,231.178 207.100 M193.700 219.476 C 194.085 219.576,194.715 219.576,195.100 219.476 C 195.485 219.375,195.170 219.293,194.400 219.293 C 193.630 219.293,193.315 219.375,193.700 219.476 M205.300 219.476 C 205.685 219.576,206.315 219.576,206.700 219.476 C 207.085 219.375,206.770 219.293,206.000 219.293 C 205.230 219.293,204.915 219.375,205.300 219.476 M197.300 219.876 C 197.685 219.976,198.315 219.976,198.700 219.876 C 199.085 219.775,198.770 219.693,198.000 219.693 C 197.230 219.693,196.915 219.775,197.300 219.876 M201.700 219.876 C 202.085 219.976,202.715 219.976,203.100 219.876 C 203.485 219.775,203.170 219.693,202.400 219.693 C 201.630 219.693,201.315 219.775,201.700 219.876 " stroke="none" fill="#fb9b3b" fill-rule="evenodd"></path><path id="path3" d="M193.600 71.033 C 191.950 71.320,189.880 71.737,189.000 71.960 C 188.120 72.182,186.902 72.484,186.294 72.630 C 185.686 72.776,185.090 73.054,184.970 73.248 C 184.851 73.441,184.499 73.600,184.188 73.600 C 183.878 73.600,182.673 74.050,181.512 74.601 C 171.734 79.235,164.142 86.930,159.807 96.600 C 159.216 97.920,158.567 99.313,158.366 99.695 C 158.165 100.077,158.000 100.741,158.000 101.171 C 158.000 101.601,157.840 102.052,157.644 102.173 C 157.288 102.393,157.089 103.309,156.423 107.800 C 155.557 113.631,155.488 115.266,156.011 117.520 C 157.701 124.803,162.725 128.800,170.188 128.800 C 172.266 128.800,174.064 128.621,174.200 128.400 C 174.336 128.180,174.719 128.000,175.052 128.000 C 178.813 128.000,183.253 121.454,184.008 114.794 C 185.420 102.342,196.501 95.349,206.903 100.345 C 223.041 108.097,216.999 131.200,198.834 131.200 C 189.890 131.200,183.525 142.642,187.622 151.358 C 189.085 154.469,193.769 158.400,196.014 158.400 C 196.420 158.400,196.864 158.580,197.000 158.800 C 197.136 159.020,198.439 159.200,199.895 159.200 C 202.369 159.200,204.454 159.620,206.095 160.449 C 206.477 160.642,207.062 160.800,207.395 160.800 C 207.728 160.800,208.000 160.968,208.000 161.173 C 208.000 161.378,208.381 161.667,208.847 161.815 C 213.538 163.304,217.456 172.998,215.832 179.098 C 214.230 185.116,211.119 188.361,204.281 191.144 C 195.585 194.685,185.271 186.776,184.010 175.600 C 183.302 169.327,180.864 165.297,176.387 163.004 C 166.178 157.773,154.144 166.516,156.020 177.800 C 156.203 178.900,156.363 180.597,156.376 181.572 C 156.389 182.546,156.565 183.896,156.766 184.572 C 158.256 189.565,158.939 191.608,159.584 193.000 C 159.992 193.880,160.428 194.870,160.554 195.200 C 162.128 199.342,169.181 207.778,173.600 210.803 C 174.370 211.330,175.090 211.861,175.200 211.982 C 179.440 216.657,195.028 220.555,204.800 219.383 C 211.676 218.559,222.340 214.888,224.000 212.774 C 224.110 212.634,224.619 212.299,225.132 212.029 C 229.535 209.709,236.900 201.050,239.957 194.600 C 240.687 193.060,241.445 191.487,241.642 191.105 C 241.839 190.723,242.000 190.059,242.000 189.629 C 242.000 189.199,242.180 188.736,242.400 188.600 C 242.620 188.464,242.800 187.859,242.800 187.256 C 242.800 186.653,242.963 185.989,243.161 185.780 C 244.076 184.818,244.688 172.677,244.027 168.600 C 242.861 161.400,239.761 154.242,235.204 148.226 L 232.799 145.052 233.700 144.030 C 234.195 143.467,234.712 142.915,234.849 142.803 C 235.315 142.423,239.439 135.807,240.088 134.400 C 249.154 114.722,243.771 92.235,226.960 79.559 C 224.778 77.914,220.560 75.200,220.185 75.200 C 220.096 75.200,218.986 74.725,217.717 74.145 C 210.701 70.936,201.204 69.710,193.600 71.033 " stroke="none" fill="#f8a85a" fill-rule="evenodd"></path><path id="path4" d="M313.500 144.231 C 313.335 144.397,313.197 145.088,313.193 145.767 C 313.173 149.093,310.840 159.361,308.440 166.684 C 298.254 197.769,273.549 224.239,243.400 236.371 C 242.960 236.548,242.150 236.884,241.600 237.118 C 235.414 239.747,225.005 242.377,214.400 243.989 C 207.061 245.105,194.041 244.953,183.170 243.625 C 173.036 242.387,158.580 237.796,148.730 232.689 C 144.652 230.574,143.875 230.142,139.648 227.636 C 129.850 221.826,118.113 211.251,109.595 200.560 C 108.139 198.732,104.000 192.851,104.000 192.610 C 104.000 192.464,103.482 191.591,102.848 190.670 C 98.162 183.860,92.319 170.462,89.821 160.800 C 88.555 155.903,88.433 155.397,88.038 153.400 C 87.821 152.300,87.453 150.441,87.221 149.269 C 86.990 148.098,86.800 146.523,86.800 145.769 C 86.800 145.003,86.597 144.400,86.339 144.400 C 85.706 144.400,86.182 153.284,87.207 160.600 C 87.939 165.828,88.206 167.331,89.179 171.700 C 89.387 172.635,89.670 173.940,89.809 174.600 C 89.947 175.260,90.205 176.160,90.382 176.600 C 90.560 177.040,91.119 178.750,91.624 180.400 C 92.130 182.050,92.692 183.571,92.872 183.780 C 93.052 183.989,93.200 184.486,93.200 184.885 C 93.200 185.284,93.360 185.923,93.556 186.305 C 93.752 186.687,94.313 187.900,94.804 189.000 C 95.294 190.100,96.033 191.692,96.447 192.538 C 96.861 193.384,97.200 194.314,97.200 194.604 C 97.200 194.895,97.335 195.193,97.500 195.267 C 97.665 195.340,98.245 196.300,98.788 197.400 C 100.551 200.969,106.040 210.144,106.805 210.800 C 106.934 210.910,107.477 211.630,108.014 212.400 C 109.779 214.936,113.668 219.643,116.580 222.769 C 121.807 228.380,129.571 235.192,133.750 237.832 C 134.767 238.474,135.599 239.135,135.599 239.300 C 135.600 239.465,135.788 239.600,136.017 239.600 C 136.246 239.600,136.820 239.960,137.292 240.400 C 137.764 240.840,138.387 241.200,138.675 241.200 C 138.964 241.200,139.200 241.359,139.200 241.553 C 139.200 241.748,139.515 242.007,139.900 242.129 C 140.585 242.346,142.804 243.604,143.200 244.000 C 143.980 244.780,152.177 248.741,156.800 250.571 C 158.890 251.399,160.913 252.239,161.295 252.438 C 161.677 252.637,162.322 252.800,162.728 252.800 C 163.134 252.800,163.590 252.923,163.741 253.074 C 164.180 253.513,166.919 254.387,167.876 254.394 C 168.358 254.397,168.851 254.559,168.971 254.754 C 169.092 254.949,169.687 255.210,170.295 255.336 C 170.903 255.461,172.300 255.762,173.400 256.004 C 174.500 256.246,176.030 256.536,176.800 256.647 C 177.570 256.758,178.560 257.009,179.000 257.204 C 179.440 257.399,180.700 257.655,181.800 257.773 C 182.900 257.892,185.600 258.202,187.800 258.463 C 200.175 259.931,217.844 258.560,229.800 255.204 C 230.680 254.957,231.940 254.606,232.600 254.425 C 234.169 253.994,237.585 252.851,238.600 252.419 C 239.040 252.231,240.480 251.673,241.800 251.177 C 245.798 249.677,246.667 249.274,255.897 244.649 C 256.390 244.402,256.795 244.065,256.797 243.900 C 256.799 243.735,257.078 243.600,257.417 243.600 C 257.756 243.600,258.420 243.240,258.892 242.800 C 259.364 242.360,259.987 242.000,260.275 242.000 C 260.564 242.000,260.800 241.820,260.800 241.600 C 260.800 241.380,260.993 241.200,261.228 241.200 C 261.615 241.200,264.464 239.374,265.991 238.147 C 266.326 237.878,267.860 236.711,269.400 235.555 C 277.056 229.804,285.146 221.643,290.968 213.800 C 291.784 212.700,292.685 211.513,292.969 211.162 C 294.068 209.806,296.732 205.660,298.471 202.600 C 301.333 197.565,303.058 194.073,305.483 188.400 C 306.611 185.762,306.749 185.395,307.593 182.800 C 308.057 181.370,308.609 179.887,308.819 179.505 C 309.029 179.123,309.200 178.369,309.200 177.829 C 309.200 177.289,309.360 176.748,309.556 176.627 C 309.751 176.506,310.008 175.821,310.127 175.104 C 310.245 174.387,310.546 172.990,310.796 172.000 C 313.160 162.626,315.109 142.608,313.500 144.231 M285.905 261.905 C 284.643 262.727,283.608 263.550,283.605 263.734 C 283.601 264.013,286.888 261.854,288.180 260.731 C 289.015 260.005,288.083 260.486,285.905 261.905 M112.400 260.956 C 112.400 261.167,118.532 265.594,119.600 266.155 C 120.618 266.689,118.348 264.905,115.300 262.777 C 113.705 261.663,112.400 260.844,112.400 260.956 M281.087 265.368 C 278.726 267.002,278.164 267.575,279.906 266.572 C 281.250 265.799,283.556 264.023,283.200 264.036 C 283.090 264.041,282.139 264.640,281.087 265.368 M120.400 266.497 C 120.400 266.723,124.242 269.299,126.327 270.473 C 130.718 272.943,134.400 274.845,134.400 274.643 C 134.400 274.517,133.455 273.936,132.300 273.352 C 130.448 272.415,123.783 268.501,121.300 266.891 C 120.805 266.571,120.400 266.393,120.400 266.497 M272.600 270.644 C 270.840 271.654,267.465 273.478,265.100 274.695 C 261.112 276.749,259.808 277.551,261.500 276.910 C 263.196 276.267,273.647 270.647,275.239 269.521 C 276.965 268.301,275.863 268.770,272.600 270.644 M134.800 274.953 C 134.800 275.135,138.536 276.977,140.100 277.566 C 141.734 278.181,141.432 277.739,139.700 276.981 C 138.875 276.620,137.508 275.982,136.662 275.563 C 135.085 274.780,134.800 274.687,134.800 274.953 M258.493 277.780 C 256.900 278.660,256.948 278.906,258.579 278.229 C 259.448 277.869,260.243 277.490,260.346 277.387 C 260.726 277.008,259.371 277.294,258.493 277.780 M142.000 278.361 C 142.811 278.950,148.848 281.285,149.047 281.086 C 149.179 280.954,144.055 278.799,142.000 278.122 C 141.467 277.946,141.467 277.973,142.000 278.361 M152.000 282.400 C 152.330 282.613,152.870 282.788,153.200 282.788 C 153.733 282.788,153.733 282.745,153.200 282.400 C 152.870 282.187,152.330 282.012,152.000 282.012 C 151.467 282.012,151.467 282.055,152.000 282.400 M246.800 282.400 C 246.267 282.745,246.267 282.788,246.800 282.788 C 247.130 282.788,247.670 282.613,248.000 282.400 C 248.533 282.055,248.533 282.012,248.000 282.012 C 247.670 282.012,247.130 282.187,246.800 282.400 M154.000 282.954 C 154.000 283.183,157.866 284.405,158.475 284.369 C 158.764 284.352,158.100 284.006,157.000 283.600 C 155.031 282.873,154.000 282.651,154.000 282.954 M241.800 284.000 L 241.000 284.344 241.800 284.366 C 242.240 284.378,242.870 284.213,243.200 284.000 C 243.995 283.486,242.996 283.486,241.800 284.000 M159.600 284.800 C 159.930 285.013,160.560 285.178,161.000 285.166 L 161.800 285.144 161.000 284.800 C 159.804 284.286,158.805 284.286,159.600 284.800 M239.200 284.800 C 238.667 285.145,238.667 285.188,239.200 285.188 C 239.530 285.188,240.070 285.013,240.400 284.800 C 240.933 284.455,240.933 284.412,240.400 284.412 C 240.070 284.412,239.530 284.587,239.200 284.800 M162.400 285.600 C 162.730 285.813,163.450 285.973,164.000 285.954 L 165.000 285.920 164.000 285.600 C 162.458 285.106,161.636 285.106,162.400 285.600 M234.400 286.000 C 232.970 286.397,232.106 286.740,232.480 286.761 C 233.253 286.805,237.613 285.720,237.927 285.406 C 238.282 285.051,237.095 285.251,234.400 286.000 M165.800 286.400 C 166.240 286.589,166.960 286.744,167.400 286.744 L 168.200 286.744 167.400 286.400 C 166.960 286.211,166.240 286.056,165.800 286.056 L 165.000 286.056 165.800 286.400 M169.000 287.200 C 169.440 287.389,170.340 287.535,171.000 287.525 L 172.200 287.505 171.000 287.200 C 170.340 287.032,169.440 286.886,169.000 286.875 L 168.200 286.856 169.000 287.200 M229.200 287.200 L 228.200 287.520 229.200 287.532 C 229.750 287.538,230.560 287.389,231.000 287.200 L 231.800 286.856 231.000 286.868 C 230.560 286.874,229.750 287.024,229.200 287.200 M172.443 287.777 C 172.541 287.874,173.786 288.156,175.210 288.403 C 188.411 290.691,206.486 291.030,219.400 289.231 C 224.780 288.482,227.286 288.047,227.509 287.824 C 227.820 287.514,227.363 287.543,224.600 288.012 C 209.078 290.645,189.266 290.647,175.645 288.016 C 173.363 287.575,172.151 287.485,172.443 287.777 " stroke="none" fill="#bb642c" fill-rule="evenodd"></path></g></svg>