<svg id="svg" version="1.1" xmlns="http://www.w3.org/2000/svg" xmlns:xlink="http://www.w3.org/1999/xlink" width="400" height="400" viewBox="0, 0, 400,400"><g id="svgg"><path id="path0" d="M207.500 0.276 C 205.355 0.360,203.600 0.602,203.600 0.814 C 203.600 1.027,202.267 1.200,200.624 1.200 C 198.987 1.200,197.536 1.380,197.400 1.600 C 197.264 1.820,196.173 2.000,194.976 2.000 C 193.779 2.000,192.800 2.180,192.800 2.400 C 192.800 2.620,191.900 2.800,190.800 2.800 C 189.700 2.800,188.800 2.980,188.800 3.200 C 188.800 3.420,188.080 3.600,187.200 3.600 C 186.320 3.600,185.600 3.780,185.600 4.000 C 185.600 4.220,184.700 4.400,183.600 4.400 C 182.500 4.400,181.600 4.580,181.600 4.800 C 181.600 5.020,180.970 5.200,180.200 5.200 C 179.430 5.200,178.800 5.380,178.800 5.600 C 178.800 5.820,178.271 6.000,177.624 6.000 C 176.977 6.000,176.336 6.180,176.200 6.400 C 176.064 6.620,175.513 6.800,174.976 6.800 C 174.439 6.800,174.000 6.980,174.000 7.200 C 174.000 7.420,173.460 7.600,172.800 7.600 C 172.140 7.600,171.600 7.780,171.600 8.000 C 171.600 8.220,171.156 8.400,170.614 8.400 C 169.638 8.400,166.731 9.237,164.800 10.074 C 164.250 10.312,163.350 10.684,162.800 10.900 C 162.250 11.116,161.487 11.452,161.105 11.647 C 160.723 11.841,160.138 12.000,159.805 12.000 C 159.472 12.000,159.200 12.180,159.200 12.400 C 159.200 12.620,158.840 12.800,158.400 12.800 C 157.960 12.800,157.600 12.980,157.600 13.200 C 157.600 13.420,157.285 13.606,156.900 13.613 C 156.515 13.619,155.125 14.159,153.810 14.813 C 152.496 15.466,151.191 16.000,150.910 16.000 C 150.630 16.000,150.400 16.159,150.400 16.353 C 150.400 16.548,150.085 16.807,149.700 16.929 C 148.764 17.225,146.634 18.524,146.467 18.900 C 146.393 19.065,145.988 19.200,145.567 19.200 C 145.145 19.200,144.800 19.336,144.800 19.502 C 144.800 19.669,144.215 20.060,143.500 20.372 C 142.785 20.684,141.909 21.268,141.553 21.670 C 141.197 22.071,140.695 22.400,140.436 22.400 C 140.178 22.400,139.580 22.760,139.108 23.200 C 138.636 23.640,138.013 24.000,137.725 24.000 C 137.436 24.000,137.200 24.153,137.200 24.339 C 137.200 24.526,136.480 25.003,135.600 25.400 C 134.720 25.797,134.000 26.274,134.000 26.461 C 134.000 26.647,133.757 26.800,133.459 26.800 C 133.162 26.800,132.354 27.340,131.663 28.000 C 130.972 28.660,130.252 29.200,130.063 29.200 C 129.874 29.200,129.154 29.740,128.463 30.400 C 127.772 31.060,127.104 31.600,126.978 31.600 C 126.851 31.600,125.905 32.460,124.874 33.511 C 123.843 34.562,122.375 35.863,121.612 36.401 C 118.690 38.461,106.802 51.094,106.800 52.140 C 106.800 52.326,106.260 52.983,105.600 53.600 C 104.940 54.217,104.400 54.892,104.400 55.101 C 104.400 55.310,103.860 56.046,103.200 56.737 C 102.540 57.428,102.000 58.174,102.000 58.396 C 102.000 58.618,101.859 58.800,101.686 58.800 C 101.514 58.800,101.079 59.295,100.721 59.900 C 100.363 60.505,99.604 61.540,99.035 62.200 C 98.466 62.860,98.001 63.625,98.000 63.900 C 98.000 64.175,97.820 64.400,97.600 64.400 C 97.380 64.400,97.200 64.720,97.200 65.112 C 97.200 65.503,96.840 66.083,96.400 66.400 C 95.960 66.717,95.600 67.297,95.600 67.688 C 95.600 68.080,95.455 68.400,95.279 68.400 C 95.102 68.400,93.898 70.515,92.602 73.100 C 91.307 75.685,90.101 77.860,89.923 77.933 C 89.746 78.007,89.600 78.412,89.600 78.833 C 89.600 79.255,89.420 79.600,89.200 79.600 C 88.980 79.600,88.800 79.949,88.800 80.376 C 88.800 80.803,88.620 81.264,88.400 81.400 C 88.180 81.536,88.000 81.997,88.000 82.424 C 88.000 82.851,87.820 83.200,87.600 83.200 C 87.380 83.200,87.200 83.560,87.200 84.000 C 87.200 84.440,87.020 84.800,86.800 84.800 C 86.580 84.800,86.400 85.160,86.400 85.600 C 86.400 86.040,86.220 86.400,86.000 86.400 C 85.780 86.400,85.600 86.760,85.600 87.200 C 85.600 87.640,85.420 88.000,85.200 88.000 C 84.980 88.000,84.800 88.360,84.800 88.800 C 84.800 89.240,84.620 89.600,84.400 89.600 C 84.180 89.600,84.000 90.140,84.000 90.800 C 84.000 91.460,83.820 92.000,83.600 92.000 C 83.380 92.000,83.200 92.360,83.200 92.800 C 83.200 93.240,83.020 93.600,82.800 93.600 C 82.580 93.600,82.400 94.050,82.400 94.600 C 82.400 95.150,82.220 95.600,82.000 95.600 C 81.780 95.600,81.600 95.949,81.600 96.376 C 81.600 96.803,81.420 97.264,81.200 97.400 C 80.980 97.536,80.800 98.087,80.800 98.624 C 80.800 99.161,80.653 99.600,80.472 99.600 C 80.292 99.600,79.896 100.511,79.593 101.625 C 79.290 102.739,78.897 103.740,78.721 103.849 C 78.544 103.958,78.400 104.476,78.400 105.000 C 78.400 105.524,78.220 106.064,78.000 106.200 C 77.780 106.336,77.600 106.799,77.600 107.229 C 77.600 107.659,77.435 108.323,77.234 108.705 C 76.662 109.790,75.132 115.141,74.901 116.865 C 74.786 117.720,74.536 118.516,74.346 118.633 C 74.156 118.751,74.000 119.467,74.000 120.224 C 74.000 120.981,73.820 121.600,73.600 121.600 C 73.380 121.600,73.200 122.320,73.200 123.200 C 73.200 124.080,73.020 124.800,72.800 124.800 C 72.580 124.800,72.400 125.520,72.400 126.400 C 72.400 127.280,72.220 128.000,72.000 128.000 C 71.780 128.000,71.600 128.810,71.600 129.800 C 71.600 130.790,71.420 131.600,71.200 131.600 C 70.980 131.600,70.800 132.309,70.800 133.176 C 70.800 134.043,70.620 134.864,70.400 135.000 C 70.180 135.136,70.000 136.036,70.000 137.000 C 70.000 137.964,69.820 138.864,69.600 139.000 C 69.380 139.136,69.200 140.126,69.200 141.200 C 69.200 142.274,69.020 143.264,68.800 143.400 C 68.580 143.536,68.400 144.627,68.400 145.824 C 68.400 147.021,68.235 148.000,68.034 148.000 C 67.687 148.000,67.474 149.650,66.961 156.300 C 66.837 157.895,66.571 159.200,66.368 159.200 C 66.166 159.200,66.000 160.719,66.000 162.576 C 66.000 164.433,65.820 166.064,65.600 166.200 C 65.371 166.342,65.200 168.404,65.200 171.024 C 65.200 173.808,65.043 175.600,64.800 175.600 C 64.552 175.600,64.400 177.792,64.400 181.376 C 64.400 184.796,64.237 187.254,64.000 187.400 C 63.449 187.741,63.449 245.059,64.000 245.400 C 64.239 245.548,64.400 248.137,64.400 251.824 C 64.400 255.675,64.551 258.000,64.800 258.000 C 65.044 258.000,65.200 259.867,65.200 262.800 C 65.200 265.733,65.356 267.600,65.600 267.600 C 65.839 267.600,66.000 269.133,66.000 271.400 C 66.000 273.667,66.161 275.200,66.400 275.200 C 66.631 275.200,66.800 276.459,66.800 278.176 C 66.800 279.813,66.980 281.264,67.200 281.400 C 67.420 281.536,67.600 282.717,67.600 284.024 C 67.600 285.341,67.778 286.400,68.000 286.400 C 68.220 286.400,68.400 287.390,68.400 288.600 C 68.400 289.810,68.580 290.800,68.800 290.800 C 69.020 290.800,69.200 291.700,69.200 292.800 C 69.200 293.900,69.380 294.800,69.600 294.800 C 69.820 294.800,70.000 295.700,70.000 296.800 C 70.000 297.900,70.180 298.800,70.400 298.800 C 70.620 298.800,70.800 299.599,70.800 300.576 C 70.800 301.553,70.980 302.464,71.200 302.600 C 71.420 302.736,71.600 303.456,71.600 304.200 C 71.600 304.944,71.780 305.664,72.000 305.800 C 72.220 305.936,72.400 306.667,72.400 307.424 C 72.400 308.181,72.580 308.800,72.800 308.800 C 73.020 308.800,73.200 309.329,73.200 309.976 C 73.200 310.623,73.380 311.264,73.600 311.400 C 73.820 311.536,74.000 312.267,74.000 313.024 C 74.000 313.781,74.180 314.400,74.400 314.400 C 74.620 314.400,74.800 314.829,74.800 315.354 C 74.800 316.378,75.840 320.153,76.437 321.295 C 76.637 321.677,76.800 322.264,76.800 322.600 C 76.800 322.936,76.980 323.568,77.200 324.005 C 77.420 324.442,77.780 325.158,78.000 325.595 C 78.220 326.032,78.400 326.662,78.400 326.995 C 78.400 327.328,78.580 327.600,78.800 327.600 C 79.020 327.600,79.200 328.140,79.200 328.800 C 79.200 329.460,79.380 330.000,79.600 330.000 C 79.820 330.000,80.000 330.360,80.000 330.800 C 80.000 331.240,80.180 331.600,80.400 331.600 C 80.620 331.600,80.800 332.039,80.800 332.576 C 80.800 333.113,80.980 333.664,81.200 333.800 C 81.420 333.936,81.600 334.397,81.600 334.824 C 81.600 335.251,81.780 335.600,82.000 335.600 C 82.220 335.600,82.400 335.960,82.400 336.400 C 82.400 336.840,82.580 337.200,82.800 337.200 C 83.020 337.200,83.200 337.560,83.200 338.000 C 83.200 338.440,83.380 338.800,83.600 338.800 C 83.820 338.800,84.000 339.160,84.000 339.600 C 84.000 340.040,84.180 340.400,84.400 340.400 C 84.620 340.400,84.800 340.670,84.800 341.000 C 84.800 341.330,84.980 341.600,85.200 341.600 C 85.420 341.600,85.600 341.960,85.600 342.400 C 85.600 342.840,85.780 343.200,86.000 343.200 C 86.220 343.200,86.400 343.560,86.400 344.000 C 86.400 344.440,86.580 344.800,86.800 344.800 C 87.020 344.800,87.200 345.160,87.200 345.600 C 87.200 346.040,87.380 346.400,87.600 346.400 C 87.820 346.400,88.000 346.720,88.000 347.112 C 88.000 347.503,88.360 348.083,88.800 348.400 C 89.240 348.717,89.600 349.297,89.600 349.688 C 89.600 350.080,89.780 350.400,90.000 350.400 C 90.220 350.400,90.400 350.720,90.400 351.112 C 90.400 351.503,90.760 352.083,91.200 352.400 C 91.640 352.717,92.000 353.219,92.000 353.515 C 92.000 354.064,93.480 356.203,95.100 357.996 C 95.595 358.544,96.000 359.123,96.000 359.283 C 96.000 359.442,96.588 360.164,97.307 360.887 C 98.025 361.609,99.059 362.830,99.603 363.600 C 100.709 365.164,106.349 370.892,108.201 372.333 C 108.860 372.845,110.067 373.880,110.883 374.633 C 111.698 375.385,112.553 376.000,112.783 376.000 C 113.012 376.000,113.200 376.180,113.200 376.400 C 113.200 376.620,113.430 376.800,113.712 376.800 C 113.993 376.800,114.483 377.160,114.800 377.600 C 115.117 378.040,115.562 378.400,115.788 378.401 C 116.015 378.401,116.830 378.941,117.600 379.600 C 118.370 380.259,119.225 380.799,119.500 380.799 C 119.775 380.800,120.000 380.980,120.000 381.200 C 120.000 381.420,120.236 381.600,120.525 381.600 C 120.813 381.600,121.436 381.960,121.908 382.400 C 122.380 382.840,122.962 383.200,123.200 383.200 C 123.438 383.200,124.020 383.560,124.492 384.000 C 124.964 384.440,125.587 384.800,125.875 384.800 C 126.164 384.800,126.400 384.946,126.400 385.125 C 126.400 385.304,127.030 385.698,127.800 386.000 C 128.570 386.302,129.200 386.696,129.200 386.875 C 129.200 387.054,129.430 387.200,129.710 387.200 C 129.991 387.200,131.296 387.734,132.610 388.387 C 133.925 389.041,135.315 389.581,135.700 389.587 C 136.085 389.594,136.400 389.780,136.400 390.000 C 136.400 390.220,136.749 390.400,137.176 390.400 C 137.603 390.400,138.058 390.570,138.186 390.777 C 138.314 390.984,139.224 391.275,140.209 391.422 C 141.194 391.570,142.000 391.850,142.000 392.045 C 142.000 392.240,142.450 392.400,143.000 392.400 C 143.550 392.400,144.000 392.580,144.000 392.800 C 144.000 393.020,144.540 393.200,145.200 393.200 C 145.860 393.200,146.400 393.380,146.400 393.600 C 146.400 393.820,146.940 394.000,147.600 394.000 C 148.260 394.000,148.800 394.180,148.800 394.400 C 148.800 394.620,149.329 394.800,149.976 394.800 C 150.623 394.800,151.264 394.980,151.400 395.200 C 151.536 395.420,152.267 395.600,153.024 395.600 C 153.781 395.600,154.400 395.780,154.400 396.000 C 154.400 396.220,155.120 396.400,156.000 396.400 C 156.880 396.400,157.600 396.580,157.600 396.800 C 157.600 397.020,158.399 397.200,159.376 397.200 C 160.353 397.200,161.264 397.380,161.400 397.600 C 161.536 397.820,162.627 398.000,163.824 398.000 C 165.021 398.000,166.000 398.180,166.000 398.400 C 166.000 398.621,167.040 398.800,168.320 398.800 C 169.643 398.800,170.855 399.015,171.140 399.300 C 171.871 400.031,221.256 400.031,221.500 399.300 C 221.610 398.969,222.536 398.800,224.233 398.800 C 225.678 398.800,226.800 398.625,226.800 398.400 C 226.800 398.180,227.779 398.000,228.976 398.000 C 230.173 398.000,231.264 397.820,231.400 397.600 C 231.536 397.380,232.346 397.200,233.200 397.200 C 234.054 397.200,234.864 397.020,235.000 396.800 C 235.136 396.580,235.946 396.400,236.800 396.400 C 237.654 396.400,238.464 396.220,238.600 396.000 C 238.736 395.780,239.467 395.600,240.224 395.600 C 240.981 395.600,241.600 395.420,241.600 395.200 C 241.600 394.980,242.140 394.800,242.800 394.800 C 243.460 394.800,244.000 394.620,244.000 394.400 C 244.000 394.180,244.720 394.000,245.600 394.000 C 246.480 394.000,247.200 393.820,247.200 393.600 C 247.200 393.380,247.740 393.200,248.400 393.200 C 249.060 393.200,249.600 393.020,249.600 392.800 C 249.600 392.580,250.140 392.400,250.800 392.400 C 251.460 392.400,252.000 392.236,252.000 392.035 C 252.000 391.834,252.718 391.549,253.596 391.401 C 254.474 391.252,255.906 390.786,256.777 390.365 C 257.648 389.944,258.640 389.600,258.981 389.600 C 259.321 389.600,259.600 389.420,259.600 389.200 C 259.600 388.980,259.960 388.800,260.400 388.800 C 260.840 388.800,261.200 388.620,261.200 388.400 C 261.200 388.180,261.428 388.000,261.706 388.000 C 262.250 388.000,266.758 385.950,268.400 384.956 C 268.950 384.623,269.715 384.251,270.100 384.129 C 270.485 384.007,270.800 383.748,270.800 383.553 C 270.800 383.359,271.160 383.200,271.600 383.200 C 272.040 383.200,272.400 383.064,272.400 382.898 C 272.400 382.731,272.985 382.340,273.700 382.028 C 274.415 381.716,275.291 381.132,275.647 380.730 C 276.003 380.329,276.588 380.000,276.947 380.000 C 277.306 380.000,277.600 379.820,277.600 379.600 C 277.600 379.380,277.836 379.200,278.125 379.200 C 278.413 379.200,279.036 378.840,279.508 378.400 C 279.980 377.960,280.556 377.600,280.787 377.600 C 281.018 377.600,281.772 377.060,282.463 376.400 C 283.154 375.740,283.949 375.200,284.231 375.200 C 284.512 375.200,284.981 374.969,285.271 374.687 C 285.562 374.405,286.430 373.738,287.200 373.206 C 287.970 372.673,288.891 371.914,289.247 371.519 C 289.603 371.124,290.018 370.800,290.169 370.800 C 290.320 370.800,291.504 369.720,292.800 368.400 C 294.096 367.080,295.314 366.000,295.508 366.000 C 296.106 366.000,301.494 360.565,301.775 359.678 C 301.921 359.218,302.347 358.729,302.720 358.593 C 303.320 358.374,304.470 357.108,307.255 353.600 C 307.691 353.050,308.398 352.194,308.824 351.697 C 309.251 351.200,309.600 350.614,309.600 350.393 C 309.600 350.173,310.140 349.428,310.800 348.737 C 311.460 348.046,312.000 347.278,312.000 347.029 C 312.000 346.780,312.360 346.317,312.800 346.000 C 313.240 345.683,313.600 345.143,313.600 344.800 C 313.600 344.457,313.960 343.917,314.400 343.600 C 314.840 343.283,315.200 342.703,315.200 342.312 C 315.200 341.920,315.380 341.600,315.600 341.600 C 315.820 341.600,316.000 341.330,316.000 341.000 C 316.000 340.670,316.180 340.400,316.400 340.400 C 316.620 340.400,316.800 340.130,316.800 339.800 C 316.800 339.470,316.980 339.200,317.200 339.200 C 317.420 339.200,317.600 338.930,317.600 338.600 C 317.600 338.270,317.780 338.000,318.000 338.000 C 318.220 338.000,318.400 337.640,318.400 337.200 C 318.400 336.760,318.580 336.400,318.800 336.400 C 319.020 336.400,319.200 336.055,319.200 335.633 C 319.200 335.212,319.341 334.807,319.514 334.733 C 319.987 334.533,323.200 328.174,323.200 327.439 C 323.200 327.088,323.380 326.800,323.600 326.800 C 323.820 326.800,324.000 326.440,324.000 326.000 C 324.000 325.560,324.169 325.200,324.375 325.200 C 324.582 325.200,324.872 324.390,325.021 323.400 C 325.169 322.410,325.450 321.600,325.645 321.600 C 325.840 321.600,326.000 321.240,326.000 320.800 C 326.000 320.360,326.180 320.000,326.400 320.000 C 326.620 320.000,326.800 319.460,326.800 318.800 C 326.800 318.140,326.980 317.600,327.200 317.600 C 327.420 317.600,327.600 317.060,327.600 316.400 C 327.600 315.740,327.780 315.200,328.000 315.200 C 328.220 315.200,328.400 314.761,328.400 314.224 C 328.400 313.687,328.580 313.136,328.800 313.000 C 329.020 312.864,329.200 312.324,329.200 311.800 C 329.200 311.276,329.380 310.736,329.600 310.600 C 329.820 310.464,330.000 309.823,330.000 309.176 C 330.000 308.529,330.180 308.000,330.400 308.000 C 330.620 308.000,330.800 307.370,330.800 306.600 C 330.800 305.830,330.980 305.200,331.200 305.200 C 331.420 305.200,331.600 304.581,331.600 303.824 C 331.600 303.067,331.780 302.336,332.000 302.200 C 332.220 302.064,332.400 301.243,332.400 300.376 C 332.400 299.509,332.580 298.800,332.800 298.800 C 333.020 298.800,333.200 297.900,333.200 296.800 C 333.200 295.700,333.380 294.800,333.600 294.800 C 333.820 294.800,334.000 293.900,334.000 292.800 C 334.000 291.700,334.180 290.800,334.400 290.800 C 334.626 290.800,334.800 289.667,334.800 288.200 C 334.800 286.733,334.974 285.600,335.200 285.600 C 335.437 285.600,335.600 284.133,335.600 282.000 C 335.600 279.867,335.763 278.400,336.000 278.400 C 336.260 278.400,336.400 272.475,336.400 261.424 C 336.400 250.537,336.257 244.359,336.000 244.200 C 335.780 244.064,335.600 242.444,335.600 240.600 C 335.600 238.756,335.420 237.136,335.200 237.000 C 334.980 236.864,334.800 235.593,334.800 234.176 C 334.800 232.725,334.625 231.600,334.400 231.600 C 334.180 231.600,334.000 230.610,334.000 229.400 C 334.000 228.190,333.820 227.200,333.600 227.200 C 333.380 227.200,333.200 226.300,333.200 225.200 C 333.200 224.100,333.020 223.200,332.800 223.200 C 332.580 223.200,332.400 222.480,332.400 221.600 C 332.400 220.720,332.220 220.000,332.000 220.000 C 331.780 220.000,331.600 219.280,331.600 218.400 C 331.600 217.520,331.420 216.800,331.200 216.800 C 330.980 216.800,330.800 216.271,330.800 215.624 C 330.800 214.977,330.620 214.336,330.400 214.200 C 330.180 214.064,330.000 213.434,330.000 212.800 C 330.000 212.166,329.820 211.536,329.600 211.400 C 329.380 211.264,329.200 210.713,329.200 210.176 C 329.200 209.639,329.020 209.200,328.800 209.200 C 328.580 209.200,328.400 208.660,328.400 208.000 C 328.400 207.340,328.220 206.800,328.000 206.800 C 327.780 206.800,327.600 206.440,327.600 206.000 C 327.600 205.560,327.420 205.200,327.200 205.200 C 326.980 205.200,326.800 204.660,326.800 204.000 C 326.800 203.340,326.620 202.800,326.400 202.800 C 326.180 202.800,326.000 202.440,326.000 202.000 C 326.000 201.560,325.820 201.200,325.600 201.200 C 325.380 201.200,325.202 200.795,325.205 200.300 C 325.210 199.252,321.667 192.000,321.150 192.000 C 320.957 192.000,320.800 191.640,320.800 191.200 C 320.800 190.760,320.620 190.400,320.400 190.400 C 320.180 190.400,320.000 190.080,320.000 189.688 C 320.000 189.297,319.640 188.717,319.200 188.400 C 318.760 188.083,318.400 187.543,318.400 187.200 C 318.400 186.857,318.040 186.317,317.600 186.000 C 317.160 185.683,316.800 185.143,316.800 184.800 C 316.800 184.457,316.440 183.917,316.000 183.600 C 315.560 183.283,315.200 182.820,315.200 182.571 C 315.200 182.322,314.703 181.597,314.096 180.959 C 313.488 180.322,312.576 179.216,312.069 178.501 C 310.925 176.889,300.947 166.800,300.497 166.800 C 300.316 166.800,299.372 166.080,298.400 165.200 C 297.428 164.320,296.440 163.600,296.204 163.600 C 295.969 163.600,295.517 163.240,295.200 162.800 C 294.883 162.360,294.343 162.000,294.000 162.000 C 293.657 162.000,293.117 161.640,292.800 161.200 C 292.483 160.760,292.080 160.400,291.904 160.400 C 291.728 160.400,290.871 159.950,290.000 159.400 C 289.129 158.850,288.142 158.400,287.808 158.400 C 287.474 158.400,287.200 158.220,287.200 158.000 C 287.200 157.780,286.922 157.600,286.583 157.600 C 286.244 157.600,285.580 157.240,285.108 156.800 C 284.636 156.360,284.019 156.000,283.737 156.000 C 283.455 156.000,282.583 155.640,281.800 155.200 C 281.017 154.760,280.111 154.400,279.788 154.400 C 279.465 154.400,279.200 154.220,279.200 154.000 C 279.200 153.780,278.840 153.600,278.400 153.600 C 277.960 153.600,277.600 153.420,277.600 153.200 C 277.600 152.980,277.240 152.800,276.800 152.800 C 276.360 152.800,276.000 152.620,276.000 152.400 C 276.000 152.180,275.561 152.000,275.024 152.000 C 274.487 152.000,273.936 151.820,273.800 151.600 C 273.664 151.380,273.113 151.200,272.576 151.200 C 272.039 151.200,271.600 151.020,271.600 150.800 C 271.600 150.580,271.150 150.400,270.600 150.400 C 270.050 150.400,269.600 150.220,269.600 150.000 C 269.600 149.780,269.071 149.600,268.424 149.600 C 267.777 149.600,267.136 149.420,267.000 149.200 C 266.864 148.980,266.223 148.800,265.576 148.800 C 264.929 148.800,264.400 148.620,264.400 148.400 C 264.400 148.180,263.680 148.000,262.800 148.000 C 261.920 148.000,261.200 147.820,261.200 147.600 C 261.200 147.380,260.581 147.200,259.824 147.200 C 259.067 147.200,258.336 147.020,258.200 146.800 C 258.064 146.580,257.153 146.400,256.176 146.400 C 255.199 146.400,254.400 146.220,254.400 146.000 C 254.400 145.780,253.536 145.600,252.480 145.600 C 251.424 145.600,250.389 145.435,250.180 145.232 C 249.971 145.030,248.630 144.763,247.200 144.639 C 245.770 144.514,242.800 144.214,240.600 143.972 C 235.093 143.365,209.185 143.055,208.650 143.590 C 208.425 143.815,206.656 144.000,204.720 144.000 C 202.640 144.000,201.200 144.164,201.200 144.400 C 201.200 144.624,200.093 144.800,198.680 144.800 C 197.294 144.800,195.989 144.963,195.780 145.161 C 195.571 145.360,194.500 145.633,193.400 145.769 C 188.833 146.333,188.000 146.498,188.000 146.840 C 188.000 147.038,187.100 147.200,186.000 147.200 C 184.900 147.200,184.000 147.380,184.000 147.600 C 184.000 147.820,183.280 148.000,182.400 148.000 C 181.520 148.000,180.800 148.180,180.800 148.400 C 180.800 148.620,180.181 148.800,179.424 148.800 C 178.667 148.800,177.936 148.980,177.800 149.200 C 177.664 149.420,177.034 149.600,176.400 149.600 C 175.766 149.600,175.136 149.780,175.000 150.000 C 174.864 150.220,174.223 150.400,173.576 150.400 C 172.929 150.400,172.400 150.580,172.400 150.800 C 172.400 151.020,171.860 151.200,171.200 151.200 C 170.540 151.200,170.000 151.380,170.000 151.600 C 170.000 151.820,169.460 152.000,168.800 152.000 C 168.140 152.000,167.600 152.180,167.600 152.400 C 167.600 152.620,167.240 152.800,166.800 152.800 C 166.360 152.800,166.000 152.980,166.000 153.200 C 166.000 153.420,165.460 153.600,164.800 153.600 C 164.140 153.600,163.600 153.780,163.600 154.000 C 163.600 154.220,163.240 154.400,162.800 154.400 C 162.360 154.400,162.000 154.580,162.000 154.800 C 162.000 155.020,161.676 155.200,161.280 155.200 C 160.386 155.200,158.407 156.094,158.403 156.500 C 158.401 156.665,158.040 156.800,157.600 156.800 C 157.160 156.800,156.800 156.980,156.800 157.200 C 156.800 157.420,156.440 157.600,156.000 157.600 C 155.560 157.600,155.200 157.780,155.200 158.000 C 155.200 158.220,155.000 158.400,154.755 158.400 C 154.461 158.400,154.405 157.957,154.592 157.100 C 154.747 156.385,154.954 154.540,155.052 153.000 C 155.149 151.460,155.394 149.840,155.595 149.400 C 155.797 148.960,156.050 147.700,156.159 146.600 C 156.376 144.401,156.914 141.283,157.607 138.200 C 157.855 137.100,158.257 134.805,158.501 133.100 C 158.744 131.395,159.091 130.000,159.272 130.000 C 159.452 130.000,159.600 129.460,159.600 128.800 C 159.600 128.140,159.780 127.600,160.000 127.600 C 160.220 127.600,160.400 127.060,160.400 126.400 C 160.400 125.740,160.580 125.200,160.800 125.200 C 161.020 125.200,161.200 124.660,161.200 124.000 C 161.200 123.340,161.380 122.800,161.600 122.800 C 161.820 122.800,162.000 122.350,162.000 121.800 C 162.000 121.250,162.180 120.800,162.400 120.800 C 162.620 120.800,162.800 120.361,162.800 119.824 C 162.800 119.287,162.980 118.736,163.200 118.600 C 163.420 118.464,163.600 118.003,163.600 117.576 C 163.600 117.149,163.780 116.800,164.000 116.800 C 164.220 116.800,164.400 116.440,164.400 116.000 C 164.400 115.560,164.580 115.200,164.800 115.200 C 165.020 115.200,165.200 114.840,165.200 114.400 C 165.200 113.960,165.380 113.600,165.600 113.600 C 165.820 113.600,166.000 113.240,166.000 112.800 C 166.000 112.360,166.180 112.000,166.400 112.000 C 166.620 112.000,166.800 111.640,166.800 111.200 C 166.800 110.760,166.980 110.400,167.200 110.400 C 167.420 110.400,167.600 110.040,167.600 109.600 C 167.600 109.160,167.736 108.800,167.902 108.800 C 168.069 108.800,168.464 108.215,168.780 107.500 C 169.097 106.785,169.680 105.851,170.078 105.425 C 170.475 104.998,170.800 104.413,170.800 104.125 C 170.800 103.836,170.950 103.600,171.132 103.600 C 171.315 103.600,171.720 103.105,172.032 102.500 C 172.345 101.895,172.930 101.040,173.334 100.600 C 173.738 100.160,174.340 99.280,174.673 98.644 C 175.471 97.120,184.796 88.000,185.556 88.000 C 185.735 88.000,186.406 87.505,187.048 86.900 C 187.689 86.295,188.706 85.545,189.307 85.232 C 189.908 84.920,190.400 84.515,190.400 84.332 C 190.400 84.150,190.670 84.000,191.000 84.000 C 191.330 84.000,191.600 83.820,191.600 83.600 C 191.600 83.380,191.920 83.200,192.312 83.200 C 192.703 83.200,193.283 82.840,193.600 82.400 C 193.917 81.960,194.497 81.600,194.888 81.600 C 195.280 81.600,195.600 81.420,195.600 81.200 C 195.600 80.980,195.960 80.800,196.400 80.800 C 196.840 80.800,197.200 80.620,197.200 80.400 C 197.200 80.180,197.549 80.000,197.976 80.000 C 198.403 80.000,198.864 79.820,199.000 79.600 C 199.136 79.380,199.687 79.200,200.224 79.200 C 200.761 79.200,201.200 79.020,201.200 78.800 C 201.200 78.580,201.650 78.400,202.200 78.400 C 202.750 78.400,203.200 78.220,203.200 78.000 C 203.200 77.780,203.740 77.600,204.400 77.600 C 205.060 77.600,205.600 77.420,205.600 77.200 C 205.600 76.980,206.230 76.800,207.000 76.800 C 207.770 76.800,208.400 76.620,208.400 76.400 C 208.400 76.180,208.942 76.000,209.605 76.000 C 210.268 76.000,211.123 75.819,211.505 75.599 C 214.277 73.997,250.538 73.995,253.295 75.597 C 253.677 75.818,254.802 76.000,255.795 76.000 C 256.788 76.000,257.600 76.180,257.600 76.400 C 257.600 76.620,258.399 76.800,259.376 76.800 C 260.353 76.800,261.264 76.980,261.400 77.200 C 261.536 77.420,262.256 77.600,263.000 77.600 C 263.744 77.600,264.464 77.780,264.600 78.000 C 264.736 78.220,265.467 78.400,266.224 78.400 C 266.981 78.400,267.600 78.580,267.600 78.800 C 267.600 79.020,268.320 79.200,269.200 79.200 C 270.080 79.200,270.800 79.380,270.800 79.600 C 270.800 79.820,271.340 80.000,272.000 80.000 C 272.660 80.000,273.200 80.180,273.200 80.400 C 273.200 80.620,273.729 80.800,274.376 80.800 C 275.023 80.800,275.664 80.980,275.800 81.200 C 275.936 81.420,276.577 81.600,277.224 81.600 C 277.871 81.600,278.400 81.780,278.400 82.000 C 278.400 82.220,278.940 82.400,279.600 82.400 C 280.260 82.400,280.800 82.580,280.800 82.800 C 280.800 83.020,281.340 83.200,282.000 83.200 C 282.660 83.200,283.200 83.380,283.200 83.600 C 283.200 83.820,283.740 84.000,284.400 84.000 C 285.060 84.000,285.600 84.180,285.600 84.400 C 285.600 84.620,286.320 84.800,287.200 84.800 C 288.080 84.800,288.800 84.980,288.800 85.200 C 288.800 85.447,290.867 85.600,294.200 85.600 C 297.533 85.600,299.600 85.447,299.600 85.200 C 299.600 84.980,300.140 84.800,300.800 84.800 C 301.460 84.800,302.000 84.620,302.000 84.400 C 302.000 84.180,302.320 84.000,302.712 84.000 C 303.103 84.000,303.683 83.640,304.000 83.200 C 304.317 82.760,304.786 82.400,305.042 82.400 C 305.660 82.400,308.247 79.513,308.586 78.444 C 308.733 77.980,309.022 77.600,309.227 77.600 C 309.432 77.600,309.600 77.238,309.600 76.795 C 309.600 76.352,309.780 75.632,310.000 75.195 C 310.220 74.758,310.580 74.042,310.800 73.605 C 311.020 73.168,311.200 72.369,311.200 71.829 C 311.200 71.289,311.380 70.736,311.600 70.600 C 311.820 70.464,312.000 69.373,312.000 68.176 C 312.000 66.979,312.180 66.000,312.400 66.000 C 312.660 66.000,312.800 60.133,312.800 49.200 C 312.800 38.267,312.660 32.400,312.400 32.400 C 312.180 32.400,312.000 31.500,312.000 30.400 C 312.000 29.300,311.820 28.400,311.600 28.400 C 311.380 28.400,311.200 27.770,311.200 27.000 C 311.200 26.230,311.020 25.600,310.800 25.600 C 310.580 25.600,310.400 25.251,310.400 24.824 C 310.400 24.397,310.220 23.936,310.000 23.800 C 309.780 23.664,309.600 23.113,309.600 22.576 C 309.600 22.039,309.420 21.600,309.200 21.600 C 308.980 21.600,308.800 21.275,308.800 20.877 C 308.800 19.828,304.310 14.400,303.442 14.400 C 303.186 14.400,302.717 14.040,302.400 13.600 C 302.083 13.160,301.503 12.800,301.112 12.800 C 300.720 12.800,300.399 12.665,300.397 12.500 C 300.393 12.141,298.456 11.200,297.720 11.200 C 297.434 11.200,297.200 11.020,297.200 10.800 C 297.200 10.580,296.840 10.400,296.400 10.400 C 295.960 10.400,295.600 10.260,295.600 10.089 C 295.600 9.745,291.362 8.400,290.280 8.400 C 289.906 8.400,289.600 8.220,289.600 8.000 C 289.600 7.780,289.060 7.600,288.400 7.600 C 287.740 7.600,287.200 7.420,287.200 7.200 C 287.200 6.980,286.660 6.800,286.000 6.800 C 285.340 6.800,284.800 6.620,284.800 6.400 C 284.800 6.180,284.080 6.000,283.200 6.000 C 282.320 6.000,281.600 5.820,281.600 5.600 C 281.600 5.380,280.880 5.200,280.000 5.200 C 279.120 5.200,278.400 5.020,278.400 4.800 C 278.400 4.580,277.680 4.400,276.800 4.400 C 275.920 4.400,275.200 4.220,275.200 4.000 C 275.200 3.780,274.300 3.600,273.200 3.600 C 272.100 3.600,271.200 3.420,271.200 3.200 C 271.200 2.980,270.210 2.800,269.000 2.800 C 267.790 2.800,266.800 2.620,266.800 2.400 C 266.800 2.178,265.741 2.000,264.424 2.000 C 263.117 2.000,261.936 1.820,261.800 1.600 C 261.664 1.380,260.339 1.200,258.856 1.200 C 257.248 1.200,255.960 1.000,255.665 0.705 C 255.178 0.218,217.513 -0.118,207.500 0.276 M232.200 16.400 C 232.350 16.643,235.330 16.800,239.800 16.800 C 244.270 16.800,247.250 16.957,247.400 17.200 C 247.536 17.420,248.976 17.600,250.600 17.600 C 252.224 17.600,253.664 17.780,253.800 18.000 C 253.936 18.220,255.286 18.400,256.800 18.400 C 258.314 18.400,259.664 18.580,259.800 18.800 C 259.936 19.020,261.016 19.200,262.200 19.200 C 263.384 19.200,264.464 19.380,264.600 19.600 C 264.736 19.820,265.636 20.000,266.600 20.000 C 267.564 20.000,268.464 20.180,268.600 20.400 C 268.736 20.620,269.647 20.800,270.624 20.800 C 271.601 20.800,272.400 20.962,272.400 21.160 C 272.400 21.358,273.165 21.619,274.100 21.741 C 277.360 22.166,278.809 22.491,279.027 22.844 C 279.148 23.040,279.766 23.200,280.400 23.200 C 281.034 23.200,281.664 23.380,281.800 23.600 C 281.936 23.820,282.376 24.000,282.778 24.000 C 283.180 24.000,284.024 24.269,284.654 24.598 C 285.284 24.926,286.295 25.196,286.900 25.198 C 287.505 25.199,288.000 25.380,288.000 25.600 C 288.000 25.820,288.360 26.000,288.800 26.000 C 289.240 26.000,289.600 26.180,289.600 26.400 C 289.600 26.620,289.960 26.800,290.400 26.800 C 290.840 26.800,291.200 26.980,291.200 27.200 C 291.200 27.420,291.404 27.600,291.653 27.600 C 292.353 27.600,293.633 29.265,293.879 30.495 C 294.001 31.103,294.257 31.600,294.450 31.600 C 294.643 31.600,294.800 32.219,294.800 32.976 C 294.800 33.733,294.980 34.464,295.200 34.600 C 295.455 34.757,295.600 40.063,295.600 49.200 C 295.600 58.337,295.455 63.643,295.200 63.800 C 294.980 63.936,294.800 64.769,294.800 65.652 C 294.800 66.535,294.543 67.514,294.229 67.829 C 293.579 68.478,291.600 68.607,291.600 68.000 C 291.600 67.780,290.970 67.600,290.200 67.600 C 289.430 67.600,288.800 67.420,288.800 67.200 C 288.800 66.980,288.260 66.800,287.600 66.800 C 286.940 66.800,286.400 66.620,286.400 66.400 C 286.400 66.180,285.860 66.000,285.200 66.000 C 284.540 66.000,284.000 65.820,284.000 65.600 C 284.000 65.380,283.460 65.200,282.800 65.200 C 282.140 65.200,281.600 65.020,281.600 64.800 C 281.600 64.580,281.060 64.400,280.400 64.400 C 279.740 64.400,279.200 64.220,279.200 64.000 C 279.200 63.780,278.581 63.600,277.824 63.600 C 277.067 63.600,276.336 63.420,276.200 63.200 C 276.064 62.980,275.423 62.800,274.776 62.800 C 274.129 62.800,273.600 62.620,273.600 62.400 C 273.600 62.180,272.970 62.000,272.200 62.000 C 271.430 62.000,270.800 61.820,270.800 61.600 C 270.800 61.380,270.091 61.200,269.224 61.200 C 268.357 61.200,267.548 61.039,267.426 60.842 C 267.305 60.645,266.529 60.383,265.703 60.258 C 264.876 60.133,263.120 59.839,261.800 59.605 C 257.383 58.820,254.219 58.441,251.900 58.421 C 250.635 58.409,249.600 58.220,249.600 58.000 C 249.600 57.754,247.600 57.600,244.400 57.600 C 241.200 57.600,239.200 57.446,239.200 57.200 C 239.200 56.946,236.133 56.800,230.800 56.800 C 225.467 56.800,222.400 56.946,222.400 57.200 C 222.400 57.440,220.808 57.600,218.424 57.600 C 216.237 57.600,214.353 57.753,214.238 57.939 C 214.122 58.126,212.368 58.396,210.340 58.540 C 208.311 58.684,206.100 58.969,205.426 59.174 C 204.752 59.378,203.390 59.756,202.400 60.012 C 201.410 60.268,200.287 60.640,199.905 60.839 C 199.523 61.038,198.758 61.200,198.205 61.200 C 197.652 61.200,197.200 61.380,197.200 61.600 C 197.200 61.820,196.761 62.000,196.224 62.000 C 195.687 62.000,195.136 62.180,195.000 62.400 C 194.864 62.620,194.403 62.800,193.976 62.800 C 193.549 62.800,193.200 62.980,193.200 63.200 C 193.200 63.420,192.750 63.600,192.200 63.600 C 191.650 63.600,191.200 63.780,191.200 64.000 C 191.200 64.220,190.840 64.400,190.400 64.400 C 189.960 64.400,189.600 64.580,189.600 64.800 C 189.600 65.020,189.240 65.200,188.800 65.200 C 188.360 65.200,188.000 65.380,188.000 65.600 C 188.000 65.820,187.640 66.000,187.200 66.000 C 186.760 66.000,186.400 66.180,186.400 66.400 C 186.400 66.620,186.040 66.800,185.600 66.800 C 185.160 66.800,184.800 66.980,184.800 67.200 C 184.800 67.420,184.564 67.600,184.275 67.600 C 183.987 67.600,183.364 67.960,182.892 68.400 C 182.420 68.840,181.796 69.200,181.505 69.200 C 181.214 69.200,180.717 69.560,180.400 70.000 C 180.083 70.440,179.543 70.800,179.200 70.800 C 178.857 70.800,178.317 71.160,178.000 71.600 C 177.683 72.040,177.265 72.400,177.072 72.400 C 176.879 72.400,176.217 72.940,175.600 73.600 C 174.983 74.260,174.283 74.800,174.043 74.800 C 173.234 74.800,161.600 85.984,161.600 86.762 C 161.600 86.956,161.085 87.667,160.456 88.340 C 159.826 89.014,159.085 90.113,158.807 90.783 C 158.530 91.452,158.145 92.000,157.951 92.000 C 157.758 92.000,157.600 92.230,157.600 92.512 C 157.600 92.793,157.240 93.283,156.800 93.600 C 156.360 93.917,156.000 94.457,156.000 94.800 C 156.000 95.143,155.640 95.683,155.200 96.000 C 154.760 96.317,154.400 96.897,154.400 97.288 C 154.400 97.680,154.220 98.000,154.000 98.000 C 153.780 98.000,153.600 98.360,153.600 98.800 C 153.600 99.240,153.448 99.600,153.263 99.600 C 153.077 99.600,152.492 100.455,151.963 101.500 C 151.433 102.545,150.865 103.460,150.700 103.533 C 150.535 103.607,150.400 104.012,150.400 104.433 C 150.400 104.855,150.220 105.200,150.000 105.200 C 149.780 105.200,149.600 105.481,149.600 105.825 C 149.600 106.363,147.915 110.330,146.768 112.495 C 146.566 112.877,146.400 113.462,146.400 113.795 C 146.400 114.128,146.220 114.400,146.000 114.400 C 145.780 114.400,145.600 114.940,145.600 115.600 C 145.600 116.260,145.420 116.800,145.200 116.800 C 144.980 116.800,144.800 117.340,144.800 118.000 C 144.800 118.660,144.620 119.200,144.400 119.200 C 144.180 119.200,144.000 119.729,144.000 120.376 C 144.000 121.023,143.841 121.651,143.646 121.771 C 143.451 121.892,143.194 122.487,143.074 123.095 C 142.953 123.703,142.556 125.460,142.190 127.000 C 141.825 128.540,141.436 130.745,141.326 131.900 C 141.216 133.055,140.963 134.000,140.763 134.000 C 140.563 134.000,140.400 134.900,140.400 136.000 C 140.400 137.100,140.220 138.000,140.000 138.000 C 139.780 138.000,139.600 138.979,139.600 140.176 C 139.600 141.373,139.420 142.464,139.200 142.600 C 138.980 142.736,138.800 143.917,138.800 145.224 C 138.800 146.541,138.622 147.600,138.400 147.600 C 138.165 147.600,138.000 149.000,138.000 151.000 C 138.000 153.000,137.835 154.400,137.600 154.400 C 137.354 154.400,137.200 156.392,137.200 159.576 C 137.200 162.596,137.033 164.856,136.800 165.000 C 136.565 165.145,136.400 167.471,136.400 170.624 C 136.400 173.941,136.553 176.000,136.800 176.000 C 137.020 176.000,137.200 176.360,137.200 176.800 C 137.200 177.240,137.380 177.600,137.600 177.600 C 137.820 177.600,138.000 177.894,138.000 178.253 C 138.000 178.984,139.925 180.799,140.700 180.800 C 140.975 180.800,141.200 180.980,141.200 181.200 C 141.200 181.439,142.733 181.600,145.000 181.600 C 147.267 181.600,148.800 181.439,148.800 181.200 C 148.800 180.980,149.160 180.800,149.600 180.800 C 150.040 180.800,150.400 180.620,150.400 180.400 C 150.400 180.180,150.670 180.000,151.000 180.000 C 151.330 180.000,151.600 179.820,151.600 179.600 C 151.600 179.380,151.870 179.200,152.200 179.200 C 152.530 179.200,152.800 179.020,152.800 178.800 C 152.800 178.580,153.160 178.400,153.600 178.400 C 154.040 178.400,154.400 178.220,154.400 178.000 C 154.400 177.780,154.670 177.600,155.000 177.600 C 155.330 177.600,155.600 177.454,155.600 177.275 C 155.600 177.096,156.230 176.702,157.000 176.400 C 157.770 176.098,158.400 175.712,158.400 175.543 C 158.400 175.374,159.030 175.118,159.800 174.974 C 160.570 174.829,161.200 174.551,161.200 174.355 C 161.200 174.160,161.560 174.000,162.000 174.000 C 162.440 174.000,162.800 173.820,162.800 173.600 C 162.800 173.380,163.160 173.200,163.600 173.200 C 164.040 173.200,164.400 173.020,164.400 172.800 C 164.400 172.580,164.760 172.400,165.200 172.400 C 165.640 172.400,166.000 172.220,166.000 172.000 C 166.000 171.780,166.279 171.600,166.619 171.600 C 166.960 171.600,167.984 171.240,168.894 170.800 C 169.805 170.360,170.786 170.000,171.075 170.000 C 171.364 170.000,171.600 169.820,171.600 169.600 C 171.600 169.380,172.039 169.200,172.576 169.200 C 173.113 169.200,173.664 169.020,173.800 168.800 C 173.936 168.580,174.487 168.400,175.024 168.400 C 175.561 168.400,176.000 168.220,176.000 168.000 C 176.000 167.780,176.540 167.600,177.200 167.600 C 177.860 167.600,178.400 167.420,178.400 167.200 C 178.400 166.980,178.940 166.800,179.600 166.800 C 180.260 166.800,180.800 166.620,180.800 166.400 C 180.800 166.180,181.520 166.000,182.400 166.000 C 183.280 166.000,184.000 165.820,184.000 165.600 C 184.000 165.380,184.720 165.200,185.600 165.200 C 186.480 165.200,187.200 165.020,187.200 164.800 C 187.200 164.580,187.819 164.400,188.576 164.400 C 189.333 164.400,190.064 164.220,190.200 164.000 C 190.336 163.780,191.247 163.600,192.224 163.600 C 193.201 163.600,194.000 163.420,194.000 163.200 C 194.000 162.980,194.900 162.800,196.000 162.800 C 197.100 162.800,198.000 162.620,198.000 162.400 C 198.000 162.178,199.067 162.000,200.400 162.000 C 201.733 162.000,202.800 161.822,202.800 161.600 C 202.800 161.365,204.200 161.200,206.200 161.200 C 208.200 161.200,209.600 161.035,209.600 160.800 C 209.600 160.542,214.200 160.400,222.600 160.400 C 231.000 160.400,235.600 160.542,235.600 160.800 C 235.600 161.037,237.067 161.200,239.200 161.200 C 241.333 161.200,242.800 161.363,242.800 161.600 C 242.800 161.826,243.933 162.000,245.400 162.000 C 246.867 162.000,248.000 162.174,248.000 162.400 C 248.000 162.620,248.900 162.800,250.000 162.800 C 251.100 162.800,252.000 162.980,252.000 163.200 C 252.000 163.420,252.709 163.600,253.576 163.600 C 254.443 163.600,255.264 163.780,255.400 164.000 C 255.536 164.220,256.267 164.400,257.024 164.400 C 257.781 164.400,258.400 164.580,258.400 164.800 C 258.400 165.020,259.030 165.200,259.800 165.200 C 260.570 165.200,261.200 165.380,261.200 165.600 C 261.200 165.820,261.740 166.000,262.400 166.000 C 263.060 166.000,263.600 166.180,263.600 166.400 C 263.600 166.620,264.140 166.800,264.800 166.800 C 265.460 166.800,266.000 166.980,266.000 167.200 C 266.000 167.420,266.360 167.600,266.800 167.600 C 267.240 167.600,267.600 167.780,267.600 168.000 C 267.600 168.220,268.140 168.400,268.800 168.400 C 269.460 168.400,270.000 168.580,270.000 168.800 C 270.000 169.020,270.360 169.200,270.800 169.200 C 271.240 169.200,271.600 169.380,271.600 169.600 C 271.600 169.820,271.960 170.000,272.400 170.000 C 272.840 170.000,273.200 170.180,273.200 170.400 C 273.200 170.620,273.560 170.800,274.000 170.800 C 274.440 170.800,274.800 170.980,274.800 171.200 C 274.800 171.420,275.160 171.600,275.600 171.600 C 276.040 171.600,276.400 171.736,276.400 171.902 C 276.400 172.069,276.985 172.459,277.700 172.769 C 278.415 173.080,279.627 173.754,280.393 174.267 C 281.159 174.780,282.016 175.200,282.296 175.200 C 282.577 175.200,283.372 175.740,284.063 176.400 C 284.754 177.060,285.474 177.600,285.663 177.600 C 285.852 177.600,286.572 178.140,287.263 178.800 C 287.954 179.460,288.682 180.000,288.881 180.000 C 289.282 180.000,292.348 183.077,296.493 187.637 C 301.379 193.014,302.000 193.752,302.000 194.190 C 302.000 194.428,302.360 194.883,302.800 195.200 C 303.240 195.517,303.600 196.014,303.600 196.305 C 303.600 196.596,303.960 197.220,304.400 197.692 C 304.840 198.164,305.200 198.787,305.200 199.075 C 305.200 199.364,305.380 199.600,305.600 199.600 C 305.820 199.600,306.000 199.960,306.000 200.400 C 306.000 200.840,306.180 201.200,306.400 201.200 C 306.620 201.200,306.800 201.560,306.800 202.000 C 306.800 202.440,306.980 202.800,307.200 202.800 C 307.420 202.800,307.600 203.145,307.600 203.567 C 307.600 203.988,307.735 204.393,307.900 204.467 C 308.311 204.649,309.600 207.490,309.600 208.214 C 309.600 208.536,309.747 208.800,309.928 208.800 C 310.108 208.800,310.500 209.700,310.800 210.800 C 311.100 211.900,311.492 212.800,311.672 212.800 C 311.853 212.800,312.000 213.340,312.000 214.000 C 312.000 214.660,312.180 215.200,312.400 215.200 C 312.620 215.200,312.800 215.740,312.800 216.400 C 312.800 217.060,312.980 217.600,313.200 217.600 C 313.420 217.600,313.600 218.140,313.600 218.800 C 313.600 219.460,313.780 220.000,314.000 220.000 C 314.220 220.000,314.400 220.619,314.400 221.376 C 314.400 222.133,314.580 222.864,314.800 223.000 C 315.020 223.136,315.200 223.867,315.200 224.624 C 315.200 225.381,315.362 226.000,315.560 226.000 C 315.902 226.000,316.067 226.833,316.631 231.400 C 316.767 232.500,317.040 233.571,317.239 233.780 C 317.437 233.989,317.600 235.204,317.600 236.480 C 317.600 237.760,317.779 238.800,318.000 238.800 C 318.233 238.800,318.400 240.125,318.400 241.976 C 318.400 243.723,318.580 245.264,318.800 245.400 C 319.056 245.558,319.200 251.337,319.200 261.424 C 319.200 271.675,319.060 277.200,318.800 277.200 C 318.569 277.200,318.400 278.459,318.400 280.176 C 318.400 281.813,318.220 283.264,318.000 283.400 C 317.780 283.536,317.600 284.807,317.600 286.224 C 317.600 287.675,317.425 288.800,317.200 288.800 C 316.980 288.800,316.800 289.700,316.800 290.800 C 316.800 291.900,316.620 292.800,316.400 292.800 C 316.180 292.800,316.000 293.520,316.000 294.400 C 316.000 295.280,315.820 296.000,315.600 296.000 C 315.380 296.000,315.200 296.709,315.200 297.576 C 315.200 298.443,315.020 299.264,314.800 299.400 C 314.580 299.536,314.400 300.177,314.400 300.824 C 314.400 301.471,314.220 302.000,314.000 302.000 C 313.780 302.000,313.600 302.619,313.600 303.376 C 313.600 304.133,313.420 304.864,313.200 305.000 C 312.980 305.136,312.800 305.676,312.800 306.200 C 312.800 306.724,312.620 307.264,312.400 307.400 C 312.180 307.536,312.000 307.999,312.000 308.429 C 312.000 308.859,311.841 309.523,311.647 309.905 C 311.452 310.287,311.071 311.140,310.800 311.800 C 310.529 312.460,310.179 313.270,310.023 313.600 C 309.868 313.930,309.394 315.323,308.970 316.697 C 308.547 318.070,308.065 319.195,307.900 319.197 C 307.735 319.198,307.600 319.560,307.600 320.000 C 307.600 320.440,307.420 320.800,307.200 320.800 C 306.980 320.800,306.800 321.160,306.800 321.600 C 306.800 322.040,306.620 322.400,306.400 322.400 C 306.180 322.400,306.000 322.760,306.000 323.200 C 306.000 323.640,305.820 324.000,305.600 324.000 C 305.380 324.000,305.200 324.360,305.200 324.800 C 305.200 325.240,305.020 325.600,304.800 325.600 C 304.580 325.600,304.400 325.870,304.400 326.200 C 304.400 326.530,304.220 326.800,304.000 326.800 C 303.780 326.800,303.600 327.160,303.600 327.600 C 303.600 328.040,303.420 328.400,303.200 328.400 C 302.980 328.400,302.800 328.670,302.800 329.000 C 302.800 329.330,302.620 329.600,302.400 329.600 C 302.180 329.600,302.000 329.870,302.000 330.200 C 302.000 330.530,301.820 330.800,301.600 330.800 C 301.380 330.800,301.200 331.120,301.200 331.512 C 301.200 331.903,300.840 332.483,300.400 332.800 C 299.960 333.117,299.600 333.697,299.600 334.088 C 299.600 334.480,299.450 334.800,299.268 334.800 C 299.085 334.800,298.681 335.295,298.370 335.900 C 298.060 336.505,297.489 337.291,297.103 337.647 C 296.716 338.003,296.400 338.463,296.400 338.669 C 296.400 338.875,295.770 339.731,295.000 340.572 C 294.230 341.413,293.600 342.213,293.600 342.351 C 293.600 342.488,292.605 343.662,291.388 344.959 C 290.172 346.255,288.889 347.785,288.538 348.358 C 288.187 348.931,286.831 350.300,285.525 351.400 C 284.219 352.500,282.175 354.345,280.984 355.500 C 279.792 356.655,278.633 357.600,278.409 357.600 C 278.184 357.600,278.000 357.780,278.000 358.000 C 278.000 358.220,277.761 358.400,277.470 358.400 C 277.178 358.400,276.517 358.850,276.000 359.400 C 275.483 359.950,274.862 360.400,274.619 360.400 C 274.375 360.400,273.917 360.760,273.600 361.200 C 273.283 361.640,272.827 362.000,272.587 362.000 C 272.347 362.000,271.802 362.315,271.375 362.700 C 270.949 363.085,270.105 363.655,269.500 363.968 C 268.895 364.280,268.400 364.685,268.400 364.868 C 268.400 365.050,268.122 365.200,267.783 365.200 C 267.444 365.200,266.780 365.560,266.308 366.000 C 265.836 366.440,265.213 366.800,264.925 366.800 C 264.636 366.800,264.400 366.980,264.400 367.200 C 264.400 367.420,264.040 367.600,263.600 367.600 C 263.160 367.600,262.800 367.780,262.800 368.000 C 262.800 368.220,262.440 368.400,262.000 368.400 C 261.560 368.400,261.200 368.580,261.200 368.800 C 261.200 369.020,260.930 369.200,260.600 369.200 C 260.270 369.200,260.000 369.380,260.000 369.600 C 260.000 369.820,259.640 370.000,259.200 370.000 C 258.760 370.000,258.400 370.180,258.400 370.400 C 258.400 370.620,258.040 370.800,257.600 370.800 C 257.160 370.800,256.800 370.980,256.800 371.200 C 256.800 371.420,256.440 371.600,256.000 371.600 C 255.560 371.600,255.200 371.780,255.200 372.000 C 255.200 372.220,254.840 372.400,254.400 372.400 C 253.960 372.400,253.600 372.580,253.600 372.800 C 253.600 373.020,253.161 373.200,252.624 373.200 C 252.087 373.200,251.536 373.380,251.400 373.600 C 251.264 373.820,250.803 374.000,250.376 374.000 C 249.949 374.000,249.600 374.180,249.600 374.400 C 249.600 374.620,249.266 374.800,248.859 374.800 C 248.451 374.800,246.877 375.250,245.360 375.800 C 243.844 376.350,242.288 376.800,241.902 376.800 C 241.516 376.800,241.200 376.980,241.200 377.200 C 241.200 377.420,240.671 377.600,240.024 377.600 C 239.377 377.600,238.736 377.780,238.600 378.000 C 238.464 378.220,237.733 378.400,236.976 378.400 C 236.219 378.400,235.600 378.580,235.600 378.800 C 235.600 379.020,234.880 379.200,234.000 379.200 C 233.120 379.200,232.400 379.380,232.400 379.600 C 232.400 379.820,231.601 380.000,230.624 380.000 C 229.647 380.000,228.736 380.180,228.600 380.400 C 228.464 380.620,227.553 380.800,226.576 380.800 C 225.599 380.800,224.800 380.980,224.800 381.200 C 224.800 381.422,223.741 381.600,222.424 381.600 C 221.117 381.600,219.936 381.780,219.800 382.000 C 219.664 382.220,218.134 382.400,216.400 382.400 C 214.666 382.400,213.136 382.580,213.000 382.800 C 212.849 383.044,209.804 383.200,205.200 383.200 C 200.596 383.200,197.551 383.356,197.400 383.600 C 197.264 383.820,196.803 384.000,196.376 384.000 C 195.949 384.000,195.600 383.820,195.600 383.600 C 195.600 383.347,192.741 383.200,187.824 383.200 C 183.071 383.200,179.951 383.044,179.800 382.800 C 179.664 382.580,178.134 382.400,176.400 382.400 C 174.666 382.400,173.136 382.220,173.000 382.000 C 172.864 381.780,171.784 381.600,170.600 381.600 C 169.416 381.600,168.336 381.420,168.200 381.200 C 168.064 380.980,167.074 380.800,166.000 380.800 C 164.926 380.800,163.936 380.620,163.800 380.400 C 163.664 380.180,162.843 380.000,161.976 380.000 C 161.109 380.000,160.400 379.820,160.400 379.600 C 160.400 379.380,159.781 379.200,159.024 379.200 C 158.267 379.200,157.536 379.020,157.400 378.800 C 157.264 378.580,156.634 378.400,156.000 378.400 C 155.366 378.400,154.736 378.220,154.600 378.000 C 154.464 377.780,154.001 377.600,153.571 377.600 C 153.141 377.600,152.477 377.424,152.095 377.209 C 151.133 376.668,145.315 374.800,144.592 374.800 C 144.266 374.800,144.000 374.620,144.000 374.400 C 144.000 374.180,143.640 374.000,143.200 374.000 C 142.760 374.000,142.400 373.820,142.400 373.600 C 142.400 373.380,142.148 373.200,141.841 373.200 C 141.533 373.200,140.228 372.634,138.941 371.941 C 137.653 371.249,136.196 370.484,135.703 370.241 C 135.210 369.999,134.805 369.665,134.803 369.500 C 134.801 369.335,134.440 369.200,134.000 369.200 C 133.560 369.200,133.200 369.020,133.200 368.800 C 133.200 368.580,132.880 368.400,132.488 368.400 C 132.097 368.400,131.517 368.040,131.200 367.600 C 130.883 367.160,130.343 366.800,130.000 366.800 C 129.657 366.800,129.117 366.440,128.800 366.000 C 128.483 365.560,127.996 365.200,127.719 365.200 C 127.441 365.200,126.716 364.764,126.107 364.231 C 123.870 362.272,121.760 360.544,120.200 359.391 C 118.243 357.946,112.800 352.549,112.800 352.055 C 112.800 351.858,112.071 350.945,111.180 350.027 C 110.289 349.109,109.254 347.854,108.880 347.237 C 107.214 344.491,105.067 341.389,104.748 341.267 C 104.557 341.193,104.400 340.788,104.400 340.367 C 104.400 339.945,104.242 339.600,104.049 339.600 C 103.855 339.600,103.473 339.060,103.200 338.400 C 102.927 337.740,102.545 337.200,102.351 337.200 C 102.158 337.200,102.000 336.840,102.000 336.400 C 102.000 335.960,101.820 335.600,101.600 335.600 C 101.380 335.600,101.200 335.240,101.200 334.800 C 101.200 334.360,101.020 334.000,100.800 334.000 C 100.580 334.000,100.400 333.640,100.400 333.200 C 100.400 332.760,100.220 332.400,100.000 332.400 C 99.780 332.400,99.600 332.040,99.600 331.600 C 99.600 331.160,99.420 330.800,99.200 330.800 C 98.980 330.800,98.800 330.440,98.800 330.000 C 98.800 329.560,98.620 329.200,98.400 329.200 C 98.180 329.200,98.000 328.840,98.000 328.400 C 98.000 327.960,97.820 327.600,97.600 327.600 C 97.380 327.600,97.200 327.150,97.200 326.600 C 97.200 326.050,97.020 325.600,96.800 325.600 C 96.580 325.600,96.400 325.240,96.400 324.800 C 96.400 324.360,96.220 324.000,96.000 324.000 C 95.780 324.000,95.600 323.561,95.600 323.024 C 95.600 322.487,95.420 321.936,95.200 321.800 C 94.980 321.664,94.800 321.203,94.800 320.776 C 94.800 320.349,94.620 320.000,94.400 320.000 C 94.180 320.000,94.000 319.460,94.000 318.800 C 94.000 318.140,93.820 317.600,93.600 317.600 C 93.380 317.600,93.200 317.238,93.200 316.795 C 93.200 316.352,93.033 315.677,92.829 315.295 C 92.077 313.886,91.052 310.312,90.535 307.296 C 90.412 306.579,90.151 305.894,89.956 305.773 C 89.760 305.652,89.600 304.933,89.600 304.176 C 89.600 303.419,89.420 302.800,89.200 302.800 C 88.980 302.800,88.800 302.080,88.800 301.200 C 88.800 300.320,88.620 299.600,88.400 299.600 C 88.180 299.600,88.000 298.891,88.000 298.024 C 88.000 297.157,87.820 296.336,87.600 296.200 C 87.380 296.064,87.200 295.243,87.200 294.376 C 87.200 293.509,87.020 292.800,86.800 292.800 C 86.580 292.800,86.400 291.900,86.400 290.800 C 86.400 289.700,86.220 288.800,86.000 288.800 C 85.780 288.800,85.600 287.821,85.600 286.624 C 85.600 285.427,85.420 284.336,85.200 284.200 C 84.980 284.064,84.800 282.883,84.800 281.576 C 84.800 280.269,84.635 279.200,84.433 279.200 C 84.063 279.200,83.761 276.523,83.362 269.700 C 83.243 267.665,82.977 266.000,82.773 266.000 C 82.564 266.000,82.400 263.974,82.400 261.400 C 82.400 258.600,82.243 256.800,82.000 256.800 C 81.751 256.800,81.600 254.478,81.600 250.633 C 81.600 246.854,81.444 244.415,81.198 244.333 C 80.641 244.147,80.639 188.654,81.197 188.468 C 81.443 188.386,81.600 186.088,81.600 182.567 C 81.600 178.989,81.752 176.800,82.000 176.800 C 82.242 176.800,82.400 175.075,82.400 172.424 C 82.400 169.937,82.573 167.940,82.800 167.800 C 83.020 167.664,83.200 166.134,83.200 164.400 C 83.200 162.666,83.380 161.136,83.600 161.000 C 83.820 160.864,84.000 159.514,84.000 158.000 C 84.000 156.486,84.180 155.136,84.400 155.000 C 84.620 154.864,84.800 153.784,84.800 152.600 C 84.800 151.416,84.980 150.336,85.200 150.200 C 85.420 150.064,85.600 148.973,85.600 147.776 C 85.600 146.579,85.780 145.600,86.000 145.600 C 86.220 145.600,86.400 144.700,86.400 143.600 C 86.400 142.500,86.580 141.600,86.800 141.600 C 87.020 141.600,87.200 140.801,87.200 139.824 C 87.200 138.847,87.380 137.936,87.600 137.800 C 87.820 137.664,88.000 136.854,88.000 136.000 C 88.000 135.146,88.180 134.336,88.400 134.200 C 88.620 134.064,88.800 133.243,88.800 132.376 C 88.800 131.509,88.980 130.800,89.200 130.800 C 89.420 130.800,89.600 130.080,89.600 129.200 C 89.600 128.320,89.780 127.600,90.000 127.600 C 90.220 127.600,90.400 126.981,90.400 126.224 C 90.400 125.467,90.566 124.745,90.769 124.619 C 90.971 124.494,91.262 123.223,91.415 121.796 C 91.568 120.368,91.852 119.200,92.047 119.200 C 92.241 119.200,92.400 118.660,92.400 118.000 C 92.400 117.340,92.580 116.800,92.800 116.800 C 93.020 116.800,93.200 116.260,93.200 115.600 C 93.200 114.940,93.380 114.400,93.600 114.400 C 93.820 114.400,94.000 113.860,94.000 113.200 C 94.000 112.540,94.180 112.000,94.400 112.000 C 94.620 112.000,94.800 111.460,94.800 110.800 C 94.800 110.140,94.980 109.600,95.200 109.600 C 95.420 109.600,95.600 109.150,95.600 108.600 C 95.600 108.050,95.780 107.600,96.000 107.600 C 96.220 107.600,96.400 107.251,96.400 106.824 C 96.400 106.397,96.580 105.936,96.800 105.800 C 97.020 105.664,97.200 105.113,97.200 104.576 C 97.200 104.039,97.380 103.600,97.600 103.600 C 97.820 103.600,98.000 103.251,98.000 102.824 C 98.000 102.397,98.180 101.936,98.400 101.800 C 98.620 101.664,98.800 101.113,98.800 100.576 C 98.800 100.039,98.980 99.600,99.200 99.600 C 99.420 99.600,99.600 99.240,99.600 98.800 C 99.600 98.360,99.747 98.000,99.928 98.000 C 100.108 98.000,100.500 97.100,100.800 96.000 C 101.100 94.900,101.492 94.000,101.672 94.000 C 101.853 94.000,102.000 93.655,102.000 93.233 C 102.000 92.812,102.138 92.407,102.306 92.333 C 102.474 92.260,103.774 89.860,105.194 87.000 C 106.615 84.140,107.889 81.710,108.027 81.600 C 108.164 81.490,108.398 80.905,108.546 80.300 C 108.694 79.695,108.992 79.200,109.208 79.200 C 109.423 79.200,109.600 78.840,109.600 78.400 C 109.600 77.960,109.780 77.600,110.000 77.600 C 110.220 77.600,110.400 77.280,110.400 76.888 C 110.400 76.497,110.760 75.917,111.200 75.600 C 111.640 75.283,112.000 74.793,112.000 74.512 C 112.000 74.230,112.180 74.000,112.400 74.000 C 112.620 74.000,112.800 73.730,112.800 73.400 C 112.800 73.070,112.980 72.800,113.200 72.800 C 113.420 72.800,113.600 72.530,113.600 72.200 C 113.600 71.870,113.750 71.600,113.932 71.600 C 114.115 71.600,114.520 71.108,114.832 70.507 C 115.145 69.906,115.895 68.889,116.500 68.248 C 117.105 67.606,117.600 66.904,117.600 66.688 C 117.600 66.471,117.924 66.003,118.319 65.647 C 118.714 65.291,119.476 64.370,120.012 63.600 C 120.886 62.345,121.974 61.105,124.412 58.586 C 124.845 58.138,125.200 57.636,125.200 57.471 C 125.200 57.041,132.060 50.295,133.878 48.937 C 134.715 48.312,136.061 47.125,136.869 46.300 C 137.676 45.475,138.531 44.800,138.769 44.800 C 139.006 44.800,139.200 44.620,139.200 44.400 C 139.200 44.180,139.430 44.000,139.712 44.000 C 139.993 44.000,140.483 43.640,140.800 43.200 C 141.117 42.760,141.524 42.400,141.705 42.400 C 142.016 42.400,142.508 42.045,143.785 40.900 C 144.092 40.625,144.502 40.400,144.696 40.400 C 144.890 40.400,145.398 40.085,145.825 39.700 C 146.251 39.315,147.095 38.745,147.700 38.432 C 148.305 38.120,148.800 37.715,148.800 37.532 C 148.800 37.350,149.160 37.200,149.600 37.200 C 150.040 37.200,150.400 37.020,150.400 36.800 C 150.400 36.580,150.636 36.400,150.925 36.400 C 151.213 36.400,151.836 36.040,152.308 35.600 C 152.780 35.160,153.444 34.800,153.783 34.800 C 154.122 34.800,154.400 34.620,154.400 34.400 C 154.400 34.180,154.760 34.000,155.200 34.000 C 155.640 34.000,156.000 33.820,156.000 33.600 C 156.000 33.380,156.270 33.200,156.600 33.200 C 156.930 33.200,157.200 33.020,157.200 32.800 C 157.200 32.580,157.560 32.400,158.000 32.400 C 158.440 32.400,158.800 32.220,158.800 32.000 C 158.800 31.780,159.160 31.600,159.600 31.600 C 160.040 31.600,160.400 31.420,160.400 31.200 C 160.400 30.980,160.760 30.800,161.200 30.800 C 161.640 30.800,162.000 30.620,162.000 30.400 C 162.000 30.180,162.360 30.000,162.800 30.000 C 163.240 30.000,163.600 29.820,163.600 29.600 C 163.600 29.380,163.960 29.200,164.400 29.200 C 164.840 29.200,165.200 29.020,165.200 28.800 C 165.200 28.580,165.560 28.400,166.000 28.400 C 166.440 28.400,166.800 28.220,166.800 28.000 C 166.800 27.780,167.340 27.600,168.000 27.600 C 168.660 27.600,169.200 27.420,169.200 27.200 C 169.200 26.980,169.560 26.800,170.000 26.800 C 170.440 26.800,170.800 26.620,170.800 26.400 C 170.800 26.180,171.239 26.000,171.776 26.000 C 172.313 26.000,172.858 25.830,172.986 25.623 C 173.114 25.416,174.024 25.125,175.009 24.978 C 175.994 24.830,176.800 24.550,176.800 24.355 C 176.800 24.160,177.340 24.000,178.000 24.000 C 178.660 24.000,179.200 23.840,179.200 23.644 C 179.200 23.307,179.649 23.190,183.300 22.568 C 184.125 22.427,184.800 22.152,184.800 21.956 C 184.800 21.760,185.419 21.600,186.176 21.600 C 186.933 21.600,187.664 21.420,187.800 21.200 C 187.936 20.980,188.746 20.800,189.600 20.800 C 190.454 20.800,191.264 20.620,191.400 20.400 C 191.536 20.180,192.346 20.000,193.200 20.000 C 194.054 20.000,194.864 19.820,195.000 19.600 C 195.136 19.380,196.227 19.200,197.424 19.200 C 198.621 19.200,199.600 19.020,199.600 18.800 C 199.600 18.575,200.725 18.400,202.176 18.400 C 203.593 18.400,204.864 18.220,205.000 18.000 C 205.137 17.779,206.937 17.600,209.024 17.600 C 211.275 17.600,212.800 17.438,212.800 17.200 C 212.800 16.946,215.933 16.800,221.400 16.800 C 226.867 16.800,230.000 16.654,230.000 16.400 C 230.000 16.180,230.439 16.000,230.976 16.000 C 231.513 16.000,232.064 16.180,232.200 16.400 M192.800 201.600 C 192.800 201.825,191.675 202.000,190.224 202.000 C 188.807 202.000,187.536 202.180,187.400 202.400 C 187.264 202.620,186.263 202.800,185.176 202.800 C 184.089 202.800,183.200 202.980,183.200 203.200 C 183.200 203.420,182.480 203.600,181.600 203.600 C 180.720 203.600,180.000 203.780,180.000 204.000 C 180.000 204.220,179.381 204.400,178.624 204.400 C 177.867 204.400,177.136 204.580,177.000 204.800 C 176.864 205.020,176.313 205.200,175.776 205.200 C 175.239 205.200,174.800 205.380,174.800 205.600 C 174.800 205.820,174.258 206.000,173.595 206.000 C 172.932 206.000,172.032 206.180,171.595 206.400 C 171.158 206.620,170.442 206.980,170.005 207.200 C 169.568 207.420,168.848 207.600,168.405 207.600 C 167.962 207.600,167.600 207.780,167.600 208.000 C 167.600 208.220,167.155 208.400,166.611 208.400 C 165.762 208.400,162.637 209.607,160.305 210.834 C 159.923 211.035,159.338 211.200,159.005 211.200 C 158.672 211.200,158.400 211.380,158.400 211.600 C 158.400 211.820,158.040 212.000,157.600 212.000 C 157.160 212.000,156.800 212.180,156.800 212.400 C 156.800 212.620,156.440 212.800,156.000 212.800 C 155.560 212.800,155.200 212.980,155.200 213.200 C 155.200 213.420,154.840 213.600,154.400 213.600 C 153.960 213.600,153.600 213.780,153.600 214.000 C 153.600 214.220,153.364 214.400,153.075 214.400 C 152.787 214.400,152.164 214.760,151.692 215.200 C 151.220 215.640,150.556 216.000,150.217 216.000 C 149.878 216.000,149.600 216.180,149.600 216.400 C 149.600 216.620,149.240 216.800,148.800 216.800 C 148.360 216.800,148.000 216.980,148.000 217.200 C 148.000 217.420,147.764 217.600,147.475 217.600 C 147.187 217.600,146.564 217.960,146.092 218.400 C 145.620 218.840,144.996 219.200,144.705 219.200 C 144.414 219.200,143.917 219.560,143.600 220.000 C 143.283 220.440,142.859 220.800,142.659 220.800 C 142.025 220.800,138.800 224.266,138.800 224.947 C 138.800 225.306,138.620 225.600,138.400 225.600 C 138.143 225.600,138.000 229.467,138.000 236.400 C 138.000 243.333,138.143 247.200,138.400 247.200 C 138.651 247.200,138.800 249.667,138.800 253.800 C 138.800 257.933,138.949 260.400,139.200 260.400 C 139.442 260.400,139.600 262.133,139.600 264.800 C 139.600 267.467,139.758 269.200,140.000 269.200 C 140.235 269.200,140.400 270.600,140.400 272.600 C 140.400 274.470,140.554 276.000,140.743 276.000 C 140.931 276.000,141.203 277.395,141.347 279.100 C 141.491 280.805,141.888 283.730,142.230 285.600 C 142.573 287.470,142.949 289.765,143.067 290.700 C 143.184 291.635,143.442 292.400,143.640 292.400 C 143.838 292.400,144.000 293.120,144.000 294.000 C 144.000 294.880,144.160 295.600,144.356 295.600 C 144.552 295.600,144.822 296.230,144.956 297.000 C 145.090 297.770,145.310 299.030,145.444 299.800 C 145.578 300.570,145.848 301.200,146.044 301.200 C 146.240 301.200,146.400 301.639,146.400 302.176 C 146.400 302.713,146.580 303.264,146.800 303.400 C 147.020 303.536,147.200 303.991,147.200 304.411 C 147.200 304.832,147.560 305.817,148.000 306.600 C 148.440 307.383,148.800 308.379,148.800 308.812 C 148.800 309.245,148.980 309.600,149.200 309.600 C 149.420 309.600,149.600 309.960,149.600 310.400 C 149.600 310.840,149.780 311.200,150.000 311.200 C 150.220 311.200,150.400 311.560,150.400 312.000 C 150.400 312.440,150.580 312.800,150.800 312.800 C 151.020 312.800,151.200 313.160,151.200 313.600 C 151.200 314.040,151.380 314.400,151.600 314.400 C 151.820 314.400,152.000 314.760,152.000 315.200 C 152.000 315.640,152.180 316.000,152.400 316.000 C 152.620 316.000,152.800 316.278,152.800 316.617 C 152.800 316.956,153.160 317.620,153.600 318.092 C 154.040 318.564,154.400 319.187,154.400 319.475 C 154.400 319.764,154.580 320.000,154.800 320.000 C 155.020 320.000,155.200 320.270,155.200 320.600 C 155.200 320.930,155.380 321.200,155.600 321.200 C 155.820 321.200,156.000 321.430,156.000 321.712 C 156.000 321.993,156.360 322.483,156.800 322.800 C 157.240 323.117,157.600 323.516,157.600 323.685 C 157.600 324.469,165.371 332.400,166.139 332.400 C 166.405 332.400,166.883 332.760,167.200 333.200 C 167.517 333.640,168.057 334.000,168.400 334.000 C 168.743 334.000,169.283 334.360,169.600 334.800 C 169.917 335.240,170.497 335.600,170.888 335.600 C 171.280 335.600,171.600 335.780,171.600 336.000 C 171.600 336.220,171.960 336.400,172.400 336.400 C 172.840 336.400,173.200 336.580,173.200 336.800 C 173.200 337.020,173.560 337.200,174.000 337.200 C 174.440 337.200,174.800 337.380,174.800 337.600 C 174.800 337.820,175.072 338.000,175.405 338.000 C 175.993 338.000,176.418 338.167,178.295 339.138 C 178.787 339.392,179.541 339.600,179.971 339.600 C 180.401 339.600,180.864 339.780,181.000 340.000 C 181.136 340.220,181.831 340.400,182.544 340.400 C 183.257 340.400,184.026 340.586,184.253 340.813 C 184.480 341.040,186.496 341.337,188.733 341.473 C 190.970 341.609,192.800 341.874,192.800 342.060 C 192.800 342.247,196.400 342.400,200.800 342.400 C 205.200 342.400,208.800 342.247,208.800 342.060 C 208.800 341.874,210.619 341.610,212.842 341.475 C 215.065 341.339,217.090 341.065,217.342 340.864 C 217.594 340.664,218.385 340.388,219.100 340.250 C 222.261 339.642,222.800 339.493,222.800 339.227 C 222.800 339.072,223.700 338.700,224.800 338.400 C 225.900 338.100,226.800 337.708,226.800 337.528 C 226.800 337.347,227.160 337.200,227.600 337.200 C 228.040 337.200,228.400 337.020,228.400 336.800 C 228.400 336.580,228.760 336.400,229.200 336.400 C 229.640 336.400,230.000 336.220,230.000 336.000 C 230.000 335.780,230.236 335.600,230.525 335.600 C 230.813 335.600,231.436 335.240,231.908 334.800 C 232.380 334.360,233.004 334.000,233.295 334.000 C 233.586 334.000,234.083 333.640,234.400 333.200 C 234.717 332.760,235.231 332.400,235.541 332.400 C 235.852 332.400,236.397 332.085,236.753 331.700 C 237.109 331.315,238.211 330.377,239.200 329.615 C 240.190 328.853,241.065 328.072,241.145 327.879 C 241.225 327.685,242.260 326.573,243.445 325.407 C 244.630 324.241,245.600 323.159,245.600 323.004 C 245.600 322.848,246.140 322.217,246.800 321.600 C 247.460 320.983,248.000 320.326,248.001 320.140 C 248.001 319.953,248.541 319.170,249.200 318.400 C 249.859 317.630,250.399 316.775,250.399 316.500 C 250.400 316.225,250.580 316.000,250.800 316.000 C 251.020 316.000,251.200 315.722,251.200 315.383 C 251.200 315.044,251.560 314.380,252.000 313.908 C 252.440 313.436,252.800 312.813,252.800 312.525 C 252.800 312.236,252.980 312.000,253.200 312.000 C 253.420 312.000,253.600 311.640,253.600 311.200 C 253.600 310.760,253.780 310.400,254.000 310.400 C 254.220 310.400,254.400 310.147,254.400 309.838 C 254.400 309.529,254.786 308.494,255.257 307.538 C 255.728 306.582,256.249 305.440,256.414 305.000 C 256.579 304.560,257.105 303.210,257.583 302.000 C 258.060 300.790,258.557 298.900,258.687 297.800 C 258.816 296.700,259.080 295.696,259.274 295.569 C 259.788 295.230,259.741 287.447,259.224 287.275 C 258.991 287.197,258.800 286.820,258.800 286.436 C 258.800 285.662,257.214 284.000,256.474 284.000 C 256.213 284.000,256.000 283.820,256.000 283.600 C 256.000 283.380,255.651 283.200,255.224 283.200 C 254.797 283.200,254.336 283.020,254.200 282.800 C 254.064 282.580,252.793 282.400,251.376 282.400 C 249.925 282.400,248.800 282.575,248.800 282.800 C 248.800 283.020,248.440 283.200,248.000 283.200 C 247.560 283.200,247.200 283.380,247.200 283.600 C 247.200 283.820,246.906 284.000,246.547 284.000 C 245.264 284.000,243.774 286.407,242.832 290.000 C 242.572 290.990,242.099 292.634,241.780 293.654 C 241.461 294.673,241.200 295.888,241.200 296.354 C 241.200 296.819,241.020 297.200,240.800 297.200 C 240.580 297.200,240.400 297.560,240.400 298.000 C 240.400 298.440,240.220 298.800,240.000 298.800 C 239.780 298.800,239.600 299.160,239.600 299.600 C 239.600 300.040,239.420 300.400,239.200 300.400 C 238.980 300.400,238.800 300.760,238.800 301.200 C 238.800 301.640,238.620 302.000,238.400 302.000 C 238.180 302.000,238.000 302.360,238.000 302.800 C 238.000 303.240,237.820 303.600,237.600 303.600 C 237.380 303.600,237.200 303.960,237.200 304.400 C 237.200 304.840,237.020 305.200,236.800 305.200 C 236.580 305.200,236.400 305.520,236.400 305.912 C 236.400 306.303,236.040 306.883,235.600 307.200 C 235.160 307.517,234.800 307.927,234.800 308.112 C 234.800 308.694,232.297 311.673,229.531 314.384 C 225.593 318.243,224.452 319.200,223.793 319.200 C 223.467 319.200,223.200 319.380,223.200 319.600 C 223.200 319.820,222.922 320.000,222.583 320.000 C 222.244 320.000,221.580 320.360,221.108 320.800 C 220.636 321.240,219.833 321.600,219.325 321.600 C 218.816 321.600,218.400 321.780,218.400 322.000 C 218.400 322.220,218.040 322.400,217.600 322.400 C 217.160 322.400,216.800 322.580,216.800 322.800 C 216.800 323.020,216.260 323.200,215.600 323.200 C 214.940 323.200,214.400 323.380,214.400 323.600 C 214.400 323.820,213.806 324.000,213.080 324.000 C 212.354 324.000,211.535 324.225,211.260 324.500 C 210.886 324.874,208.177 325.000,200.513 325.000 C 192.671 325.000,190.227 324.883,190.100 324.500 C 190.008 324.225,189.318 324.000,188.567 324.000 C 187.815 324.000,187.200 323.820,187.200 323.600 C 187.200 323.380,186.660 323.200,186.000 323.200 C 185.340 323.200,184.800 323.020,184.800 322.800 C 184.800 322.580,184.260 322.400,183.600 322.400 C 182.940 322.400,182.400 322.220,182.400 322.000 C 182.400 321.780,182.040 321.600,181.600 321.600 C 181.160 321.600,180.800 321.420,180.800 321.200 C 180.800 320.980,180.480 320.800,180.088 320.800 C 179.697 320.800,179.117 320.440,178.800 320.000 C 178.483 319.560,177.975 319.200,177.672 319.200 C 177.369 319.200,176.581 318.615,175.921 317.900 C 175.261 317.185,173.883 315.696,172.860 314.590 C 171.837 313.485,170.745 312.090,170.432 311.490 C 170.120 310.891,169.715 310.400,169.532 310.400 C 169.350 310.400,169.200 310.170,169.200 309.888 C 169.200 309.607,168.840 309.117,168.400 308.800 C 167.960 308.483,167.600 307.903,167.600 307.512 C 167.600 307.120,167.420 306.800,167.200 306.800 C 166.980 306.800,166.800 306.440,166.800 306.000 C 166.800 305.560,166.620 305.200,166.400 305.200 C 166.180 305.200,166.000 304.840,166.000 304.400 C 166.000 303.960,165.820 303.600,165.600 303.600 C 165.380 303.600,165.200 303.161,165.200 302.624 C 165.200 302.087,165.020 301.536,164.800 301.400 C 164.580 301.264,164.400 300.803,164.400 300.376 C 164.400 299.949,164.220 299.600,164.000 299.600 C 163.780 299.600,163.600 299.060,163.600 298.400 C 163.600 297.740,163.420 297.200,163.200 297.200 C 162.980 297.200,162.800 296.660,162.800 296.000 C 162.800 295.340,162.620 294.800,162.400 294.800 C 162.180 294.800,162.000 294.361,162.000 293.824 C 162.000 293.287,161.820 292.736,161.600 292.600 C 161.380 292.464,161.200 291.733,161.200 290.976 C 161.200 290.219,161.020 289.600,160.800 289.600 C 160.580 289.600,160.400 288.880,160.400 288.000 C 160.400 287.120,160.220 286.400,160.000 286.400 C 159.780 286.400,159.600 285.500,159.600 284.400 C 159.600 283.300,159.441 282.400,159.248 282.400 C 159.054 282.400,158.765 280.645,158.607 278.500 C 158.448 276.355,158.173 274.420,157.995 274.200 C 157.817 273.980,157.564 272.450,157.433 270.800 C 157.302 269.150,157.006 265.910,156.776 263.600 C 156.546 261.290,156.268 256.610,156.159 253.200 C 156.049 249.790,155.788 246.829,155.580 246.620 C 155.371 246.411,155.200 243.321,155.200 239.754 L 155.200 233.267 156.400 232.736 C 157.060 232.444,157.600 232.069,157.600 231.902 C 157.600 231.736,157.870 231.600,158.200 231.600 C 158.530 231.600,158.800 231.420,158.800 231.200 C 158.800 230.980,159.160 230.800,159.600 230.800 C 160.040 230.800,160.400 230.620,160.400 230.400 C 160.400 230.180,160.760 230.000,161.200 230.000 C 161.640 230.000,162.000 229.848,162.000 229.663 C 162.000 229.477,162.855 228.918,163.900 228.419 C 164.945 227.920,166.113 227.352,166.495 227.156 C 166.877 226.960,167.462 226.800,167.795 226.800 C 168.128 226.800,168.400 226.620,168.400 226.400 C 168.400 226.180,168.760 226.000,169.200 226.000 C 169.640 226.000,170.000 225.865,170.000 225.700 C 170.000 225.535,171.186 225.042,172.636 224.604 C 174.085 224.167,175.356 223.672,175.459 223.504 C 175.563 223.337,176.087 223.200,176.624 223.200 C 177.161 223.200,177.600 223.020,177.600 222.800 C 177.600 222.580,178.129 222.400,178.776 222.400 C 179.423 222.400,180.064 222.220,180.200 222.000 C 180.336 221.780,181.067 221.600,181.824 221.600 C 182.581 221.600,183.200 221.420,183.200 221.200 C 183.200 220.980,183.819 220.800,184.576 220.800 C 185.333 220.800,186.064 220.620,186.200 220.400 C 186.336 220.180,187.121 220.000,187.944 220.000 C 188.767 220.000,189.611 219.837,189.820 219.637 C 190.764 218.734,215.200 217.916,215.200 218.787 C 215.200 219.016,216.091 219.200,217.200 219.200 C 218.300 219.200,219.200 219.380,219.200 219.600 C 219.200 219.820,219.729 220.000,220.376 220.000 C 221.023 220.000,221.664 220.180,221.800 220.400 C 221.936 220.620,222.487 220.800,223.024 220.800 C 223.561 220.800,224.000 220.980,224.000 221.200 C 224.000 221.420,224.265 221.600,224.588 221.600 C 224.911 221.600,225.856 221.989,226.688 222.465 C 227.520 222.941,228.652 223.563,229.205 223.847 C 229.758 224.132,230.606 224.732,231.089 225.182 C 231.571 225.632,232.139 226.000,232.350 226.000 C 232.560 226.000,233.303 226.720,234.000 227.600 C 234.697 228.480,235.482 229.200,235.745 229.200 C 236.008 229.200,236.483 229.560,236.800 230.000 C 237.139 230.470,237.835 230.800,238.488 230.800 C 239.100 230.800,239.600 230.980,239.600 231.200 C 239.600 231.420,240.590 231.600,241.800 231.600 C 243.010 231.600,244.000 231.420,244.000 231.200 C 244.000 230.980,244.436 230.800,244.968 230.800 C 246.278 230.800,249.600 227.478,249.600 226.168 C 249.600 225.636,249.780 225.200,250.000 225.200 C 250.220 225.200,250.400 224.210,250.400 223.000 C 250.400 221.790,250.220 220.800,250.000 220.800 C 249.780 220.800,249.600 220.300,249.600 219.688 C 249.600 219.035,249.270 218.339,248.800 218.000 C 248.360 217.683,247.994 217.238,247.987 217.012 C 247.969 216.406,246.401 214.734,244.800 213.612 C 244.030 213.072,242.945 212.174,242.388 211.615 C 241.831 211.057,241.021 210.382,240.588 210.116 C 238.251 208.681,236.258 207.600,235.950 207.600 C 235.757 207.600,235.600 207.420,235.600 207.200 C 235.600 206.980,235.240 206.800,234.800 206.800 C 234.360 206.800,234.000 206.620,234.000 206.400 C 234.000 206.180,233.651 206.000,233.224 206.000 C 232.797 206.000,232.336 205.820,232.200 205.600 C 232.064 205.380,231.513 205.200,230.976 205.200 C 230.439 205.200,230.000 205.020,230.000 204.800 C 230.000 204.580,229.460 204.400,228.800 204.400 C 228.140 204.400,227.600 204.220,227.600 204.000 C 227.600 203.780,227.060 203.600,226.400 203.600 C 225.740 203.600,225.200 203.420,225.200 203.200 C 225.200 202.980,224.390 202.800,223.400 202.800 C 222.410 202.800,221.600 202.620,221.600 202.400 C 221.600 202.178,220.533 202.000,219.200 202.000 C 217.867 202.000,216.800 201.822,216.800 201.600 C 216.800 201.342,212.533 201.200,204.800 201.200 C 197.067 201.200,192.800 201.342,192.800 201.600 M251.200 247.600 C 251.200 247.820,250.779 248.000,250.264 248.000 C 249.019 248.000,245.937 250.997,245.298 252.828 C 244.703 254.535,244.633 258.800,245.200 258.800 C 245.420 258.800,245.600 259.160,245.600 259.600 C 245.600 260.040,245.736 260.400,245.902 260.400 C 246.069 260.400,246.444 260.940,246.736 261.600 C 247.059 262.331,247.567 262.800,248.034 262.800 C 248.455 262.800,248.800 262.980,248.800 263.200 C 248.800 263.420,249.160 263.600,249.600 263.600 C 250.040 263.600,250.400 263.780,250.400 264.000 C 250.400 264.233,251.733 264.400,253.600 264.400 C 255.467 264.400,256.800 264.233,256.800 264.000 C 256.800 263.780,257.160 263.600,257.600 263.600 C 258.040 263.600,258.400 263.420,258.400 263.200 C 258.400 262.980,258.593 262.800,258.829 262.800 C 259.466 262.800,260.400 261.747,260.400 261.029 C 260.400 260.683,260.580 260.400,260.800 260.400 C 261.020 260.400,261.200 260.040,261.200 259.600 C 261.200 259.160,261.380 258.800,261.600 258.800 C 261.828 258.800,262.000 257.608,262.000 256.024 C 262.000 254.497,261.820 253.136,261.600 253.000 C 261.380 252.864,261.200 252.489,261.200 252.166 C 261.200 251.296,257.746 248.000,256.834 248.000 C 256.401 248.000,255.936 247.820,255.800 247.600 C 255.664 247.380,254.573 247.200,253.376 247.200 C 252.179 247.200,251.200 247.380,251.200 247.600 " stroke="none" fill="#040404" fill-rule="evenodd"></path><path id="path1" d="" stroke="none" fill="#080404" fill-rule="evenodd"></path><path id="path2" d="" stroke="none" fill="#080404" fill-rule="evenodd"></path><path id="path3" d="" stroke="none" fill="#080404" fill-rule="evenodd"></path><path id="path4" d="" stroke="none" fill="#080404" fill-rule="evenodd"></path></g></svg>